<svg width="16" height="16" viewBox="0 0 16 16" fill="none" xmlns="http://www.w3.org/2000/svg">
<g clip-path="url(#clip0)">
<path d="M3.5666 6.95255C3.55676 7.01582 3.44324 7.01582 3.4334 6.95255C3.10673 4.85204 2.14796 3.89327 0.0474509 3.56666C-0.015815 3.55682 -0.0158178 3.4433 0.0474477 3.43346C2.14795 3.10674 3.10672 2.14796 3.43329 0.0474526C3.44313 -0.0158136 3.55665 -0.0158193 3.56649 0.0474459C3.89326 2.14795 4.85204 3.10673 6.95255 3.43334C7.01581 3.44318 7.01582 3.5567 6.95255 3.56654C4.85204 3.89327 3.89327 4.85204 3.5666 6.95255Z" fill="#888888"/>
<path fill-rule="evenodd" clip-rule="evenodd" d="M6.50023 0.138672C6.98625 0.0461115 7.48743 0 8 0C12.4114 0 16 3.58875 16 8C16 8.9397 15.8376 9.86072 15.5173 10.7373C15.2656 11.426 14.8071 11.9597 14.1912 12.2809C13.6431 12.5665 12.9943 12.6625 12.3641 12.551C11.7324 12.4393 11.154 12.1252 10.7354 11.6667C10.5358 11.4481 10.3765 11.2029 10.2588 10.937C9.63295 11.4196 8.84936 11.75 7.99972 11.75C5.95558 11.75 4.24958 10.0441 4.24958 8C4.24958 5.95593 5.95558 4.25 7.99972 4.25C8.77404 4.25 9.49367 4.53174 10.0889 4.93933C10.2203 4.64294 10.5168 4.43604 10.8619 4.43604C11.3286 4.43604 11.7069 4.81445 11.7069 5.28113V9.75574C11.7069 10.4655 12.1986 10.8054 12.6587 10.8868C13.1148 10.9675 13.6883 10.8182 13.9297 10.1573C14.1819 9.46704 14.3098 8.74121 14.3098 8C14.3098 4.52075 11.4791 1.69019 7.99972 1.69019C7.58764 1.69019 7.18466 1.72989 6.79441 1.80567C6.63853 1.83594 6.61932 1.84346 6.49966 1.86835C6.05575 1.9607 5.62009 1.67704 5.52545 1.23301C5.47498 0.996217 5.47285 0.380859 6.17405 0.212891L6.50023 0.138672ZM5.99965 8C5.99965 9.11218 6.88762 10 7.99972 10C9.11194 10 9.99979 9.11218 9.99979 8C9.99979 6.88782 9.11194 6 7.99972 6C6.88762 6 5.99965 6.88782 5.99965 8Z" fill="#888888"/>
<path d="M1.22884 5.51458C0.775309 5.41214 0.393553 5.68879 0.222169 6.15026C-2.86102e-06 6.74848 -1.43188e-06 7.36822 7.32585e-09 7.99522L0 8C0 11.1761 1.88292 14.0538 4.79843 15.3317C5.81287 15.7751 6.89022 16 8 16C8.66677 16 9.32948 15.9176 9.97037 15.7552C10.4229 15.6406 10.6967 15.1809 10.582 14.7285C10.4673 14.276 10.0075 14.0022 9.55519 14.1169C9.04992 14.2449 8.52659 14.3098 7.99972 14.3098C7.12444 14.3098 6.27517 14.1326 5.47619 13.7833C3.17594 12.7753 1.68968 10.5051 1.68968 8C1.68968 7.55056 1.73691 7.11194 1.82668 6.68885L1.83775 6.64038C1.8521 6.57774 1.87414 6.48145 1.87283 6.48507C1.87283 6.48507 1.87139 6.49041 1.86906 6.5L1.87283 6.48507C1.99302 5.99235 1.67084 5.61441 1.22884 5.51458Z" fill="#888888"/>
</g>
<defs>
<clipPath id="clip0">
<rect width="16" height="16" fill="white"/>
</clipPath>
</defs>
</svg>
