<svg width="480" height="245" viewBox="0 0 480 245" fill="none" xmlns="http://www.w3.org/2000/svg">
<g clip-path="url(#clip0)">
<rect width="480" height="245" fill="white"/>
<rect width="205.845" height="205.845" rx="102.922" transform="matrix(-0.927184 -0.374607 -0.374607 0.927184 257.966 85.1108)" fill="#5373E5"/>
<path d="M349.166 153.333C343.551 153.333 339 148.782 339 143.168L339 10.1659C339 4.55151 343.551 0.000167648 349.166 0.000167402L418.632 0.000164366C424.246 0.00016412 428.797 4.55153 428.797 10.1659L428.797 143.168C428.797 148.782 424.246 153.333 418.632 153.333L349.166 153.333Z" fill="#EB001B"/>
<g clip-path="url(#clip1)">
<path d="M384 18.7241C375.716 18.7241 369 25.4398 369 33.7241C369 42.0084 375.716 48.7241 384 48.7241C392.284 48.7241 399 42.0084 399 33.7241C399 25.4398 392.284 18.7241 384 18.7241ZM392.554 25.1704C396.98 29.5963 397.214 36.4991 393.519 41.1905L376.534 24.2049C381.226 20.509 388.129 20.7456 392.554 25.1704ZM375.446 42.2778C371.02 37.8519 370.786 30.9491 374.481 26.2578L391.466 43.2434C386.774 46.9392 379.871 46.7026 375.446 42.2778Z" fill="white" stroke="white"/>
</g>
<rect x="87.7714" y="91.2734" width="344.483" height="137.779" rx="9.16575" fill="white" stroke="#F2F2F2" stroke-width="2"/>
<rect x="79.2999" y="81.1079" width="361.425" height="137.779" rx="9.16575" fill="white" stroke="#F2F2F2" stroke-width="2"/>
<g filter="url(#filter0_d)">
<rect x="68.9813" y="66.5537" width="381.215" height="139.779" rx="10.1657" fill="white"/>
</g>
<g clip-path="url(#clip2)">
<path d="M104.981 91C96.1456 91 88.9813 98.1633 88.9813 107C88.9813 115.837 96.1449 123 104.981 123C113.818 123 120.981 115.837 120.981 107C120.981 98.1633 113.818 91 104.981 91ZM104.981 95.7842C107.905 95.7842 110.274 98.1541 110.274 101.077C110.274 104 107.905 106.369 104.981 106.369C102.059 106.369 99.6899 104 99.6899 101.077C99.6899 98.1541 102.059 95.7842 104.981 95.7842ZM104.978 118.817C102.062 118.817 99.3912 117.755 97.3313 115.997C96.8295 115.569 96.5399 114.941 96.5399 114.283C96.5399 111.319 98.9386 108.947 101.903 108.947H108.061C111.026 108.947 113.416 111.319 113.416 114.283C113.416 114.942 113.127 115.568 112.625 115.996C110.566 117.755 107.894 118.817 104.978 118.817Z" fill="#272727"/>
</g>
<path d="M141.118 114.244C144.751 114.244 147.017 112.145 147.017 109.02V99.9082H144.068V108.756C144.068 110.582 143.013 111.744 141.118 111.744C139.224 111.744 138.159 110.582 138.159 108.756V99.9082H135.21V109.02C135.21 112.154 137.505 114.244 141.118 114.244ZM149.126 114H151.978V107.984C151.978 106.617 152.788 105.68 154.068 105.68C155.347 105.68 155.991 106.461 155.991 107.828V114H158.843V107.242C158.843 104.791 157.534 103.316 155.23 103.316C153.648 103.316 152.574 104.049 152.036 105.25H151.978V103.531H149.126V114ZM162.632 114H165.63L167.515 106.598H167.574L169.468 114H172.505L175.279 103.531H172.466L170.874 111.295H170.816L168.95 103.531H166.216L164.361 111.295H164.302L162.72 103.531H159.849L162.632 114ZM179.156 114.166C180.533 114.166 181.646 113.512 182.241 112.438H182.3V114H185.152V106.822C185.152 104.713 183.404 103.316 180.699 103.316C177.935 103.316 176.275 104.703 176.118 106.637L176.109 106.754H178.716L178.736 106.666C178.872 105.992 179.517 105.494 180.581 105.494C181.695 105.494 182.3 106.07 182.3 106.998V107.643L179.712 107.799C177.115 107.965 175.64 109.078 175.64 110.982V111.002C175.64 112.848 177.056 114.166 179.156 114.166ZM178.462 110.855V110.836C178.462 110.094 179.038 109.625 180.142 109.557L182.3 109.42V110.172C182.3 111.266 181.363 112.086 180.083 112.086C179.097 112.086 178.462 111.627 178.462 110.855ZM186.997 114H189.849V107.984C189.849 106.617 190.659 105.68 191.939 105.68C193.218 105.68 193.863 106.461 193.863 107.828V114H196.714V107.242C196.714 104.791 195.406 103.316 193.101 103.316C191.519 103.316 190.445 104.049 189.908 105.25H189.849V103.531H186.997V114ZM202.681 114.215C203.277 114.215 203.736 114.156 204.058 114.107V112.018C203.882 112.037 203.697 112.066 203.443 112.066C202.583 112.066 202.144 111.734 202.144 110.758V105.68H204.058V103.531H202.144V100.973H199.263V103.531H197.808V105.68H199.263V111.07C199.263 113.316 200.357 114.215 202.681 114.215ZM210.24 114.215C213.228 114.215 214.673 112.447 214.995 110.904L215.025 110.797H212.408L212.388 110.855C212.183 111.441 211.47 112.086 210.298 112.086C208.843 112.086 207.935 111.109 207.906 109.439H215.113V108.561C215.113 105.396 213.189 103.316 210.122 103.316C207.056 103.316 205.093 105.445 205.093 108.775V108.785C205.093 112.135 207.036 114.215 210.24 114.215ZM210.171 105.445C211.353 105.445 212.202 106.197 212.378 107.643H207.935C208.12 106.227 208.999 105.445 210.171 105.445ZM220.464 114.215C221.978 114.215 223.13 113.453 223.687 112.213H223.745V114H226.597V99.9082H223.745V105.348H223.687C223.12 104.078 221.949 103.316 220.464 103.316C217.827 103.316 216.206 105.348 216.206 108.756V108.766C216.206 112.164 217.827 114.215 220.464 114.215ZM221.421 111.852C219.995 111.852 219.107 110.67 219.107 108.766V108.756C219.107 106.842 220.005 105.68 221.421 105.68C222.798 105.68 223.755 106.871 223.755 108.756V108.766C223.755 110.66 222.808 111.852 221.421 111.852ZM237.857 114.244C241.411 114.244 243.54 112.525 243.54 109.82V109.811C243.54 107.594 242.212 106.393 239.263 105.807L237.769 105.504C236.148 105.182 235.425 104.664 235.425 103.775V103.766C235.425 102.76 236.333 102.066 237.847 102.057C239.302 102.057 240.318 102.73 240.464 103.834L240.474 103.951H243.257L243.247 103.766C243.111 101.295 241.109 99.6641 237.847 99.6641C234.722 99.6641 232.476 101.363 232.476 103.941V103.951C232.476 106.07 233.882 107.398 236.665 107.955L238.15 108.248C239.898 108.609 240.591 109.088 240.591 110.045V110.055C240.591 111.129 239.566 111.842 237.935 111.842C236.324 111.842 235.161 111.158 234.976 110.064L234.956 109.957H232.173L232.183 110.113C232.349 112.711 234.507 114.244 237.857 114.244ZM249.868 114.215C252.857 114.215 254.302 112.447 254.624 110.904L254.654 110.797H252.036L252.017 110.855C251.812 111.441 251.099 112.086 249.927 112.086C248.472 112.086 247.564 111.109 247.534 109.439H254.741V108.561C254.741 105.396 252.818 103.316 249.751 103.316C246.685 103.316 244.722 105.445 244.722 108.775V108.785C244.722 112.135 246.665 114.215 249.868 114.215ZM249.8 105.445C250.982 105.445 251.831 106.197 252.007 107.643H247.564C247.749 106.227 248.628 105.445 249.8 105.445ZM256.216 114H259.068V107.984C259.068 106.617 259.878 105.68 261.158 105.68C262.437 105.68 263.081 106.461 263.081 107.828V114H265.933V107.242C265.933 104.791 264.624 103.316 262.32 103.316C260.738 103.316 259.663 104.049 259.126 105.25H259.068V103.531H256.216V114ZM271.616 114.215C273.13 114.215 274.283 113.453 274.839 112.213H274.898V114H277.749V99.9082H274.898V105.348H274.839C274.273 104.078 273.101 103.316 271.616 103.316C268.98 103.316 267.359 105.348 267.359 108.756V108.766C267.359 112.164 268.98 114.215 271.616 114.215ZM272.574 111.852C271.148 111.852 270.259 110.67 270.259 108.766V108.756C270.259 106.842 271.158 105.68 272.574 105.68C273.95 105.68 274.908 106.871 274.908 108.756V108.766C274.908 110.66 273.96 111.852 272.574 111.852ZM284.419 114.215C287.408 114.215 288.853 112.447 289.175 110.904L289.204 110.797H286.587L286.568 110.855C286.363 111.441 285.65 112.086 284.478 112.086C283.023 112.086 282.115 111.109 282.085 109.439H289.292V108.561C289.292 105.396 287.368 103.316 284.302 103.316C281.236 103.316 279.273 105.445 279.273 108.775V108.785C279.273 112.135 281.216 114.215 284.419 114.215ZM284.351 105.445C285.533 105.445 286.382 106.197 286.558 107.643H282.115C282.3 106.227 283.179 105.445 284.351 105.445ZM290.767 114H293.618V108.102C293.618 106.627 294.439 105.777 295.845 105.777C296.255 105.777 296.646 105.836 296.88 105.934V103.424C296.665 103.365 296.372 103.316 296.06 103.316C294.82 103.316 293.931 104.049 293.628 105.318H293.57V103.531H290.767V114Z" fill="#272727"/>
<path d="M88.4656 153.471C88.4656 148.979 92.2459 145.338 96.9091 145.338H372.728C377.392 145.338 381.172 148.979 381.172 153.471C381.172 157.962 377.392 161.604 372.728 161.604H96.9091C92.2459 161.604 88.4656 157.962 88.4656 153.471Z" fill="#F2F2F2"/>
<path d="M88.4656 177.869C88.4656 173.377 92.2459 169.736 96.9091 169.736H420.575C425.238 169.736 429.018 173.377 429.018 177.869C429.018 182.36 425.238 186.001 420.575 186.001H96.9091C92.2459 186.001 88.4656 182.36 88.4656 177.869Z" fill="#F2F2F2"/>
</g>
<defs>
<filter id="filter0_d" x="44.9813" y="50.5537" width="429.215" height="187.779" filterUnits="userSpaceOnUse" color-interpolation-filters="sRGB">
<feFlood flood-opacity="0" result="BackgroundImageFix"/>
<feColorMatrix in="SourceAlpha" type="matrix" values="0 0 0 0 0 0 0 0 0 0 0 0 0 0 0 0 0 0 127 0"/>
<feOffset dy="8"/>
<feGaussianBlur stdDeviation="12"/>
<feColorMatrix type="matrix" values="0 0 0 0 0 0 0 0 0 0 0 0 0 0 0 0 0 0 0.16 0"/>
<feBlend mode="normal" in2="BackgroundImageFix" result="effect1_dropShadow"/>
<feBlend mode="normal" in="SourceGraphic" in2="effect1_dropShadow" result="shape"/>
</filter>
<clipPath id="clip0">
<rect width="480" height="245" fill="white"/>
</clipPath>
<clipPath id="clip1">
<rect width="32" height="32" fill="white" transform="translate(368 17.7241)"/>
</clipPath>
<clipPath id="clip2">
<rect width="33.8858" height="33.8858" fill="white" transform="translate(88.4656 90)"/>
</clipPath>
</defs>
</svg>
