<svg width="436" height="205" viewBox="0 0 436 205" fill="none" xmlns="http://www.w3.org/2000/svg">
<g clip-path="url(#clip0)">
<rect width="180" height="180" rx="24" transform="matrix(-0.927184 -0.374607 -0.374607 0.927184 436.322 68.4292)" fill="#FFD166"/>
<path d="M34.84 89H361.206L370 97.9444V135H28V98.5833L34.84 89Z" fill="#F2F2F2"/>
<g filter="url(#filter0_d)">
<rect x="36" y="28" width="326" height="229" rx="7.82653" fill="white"/>
</g>
<rect x="58.1585" y="146.475" width="83.2265" height="13.6811" rx="6.84053" fill="#F9F9F9"/>
<rect x="58.1585" y="169.276" width="83.2265" height="13.6811" rx="6.84053" fill="#F9F9F9"/>
<rect x="50" y="80" width="204" height="10" rx="5" fill="#F7F7F7"/>
<rect x="50" y="94" width="297" height="10" rx="5" fill="#F7F7F7"/>
<path d="M50.2109 60H52.3203L53.2734 57.0859H57.4688L58.4219 60H60.5391L56.5078 48.7266H54.2422L50.2109 60ZM55.3516 50.7344H55.3984L56.9609 55.5312H53.7812L55.3516 50.7344ZM64.1016 60.1641C65.3516 60.1641 66.2031 59.5859 66.6328 58.7031H66.6719V60H68.6172V51.7188H66.6719V56.5156C66.6719 57.7188 65.9609 58.5234 64.8438 58.5234C63.7344 58.5234 63.1875 57.8594 63.1875 56.6875V51.7188H61.2422V57.0703C61.2422 58.9922 62.2812 60.1641 64.1016 60.1641ZM73.2969 60.1641C73.6875 60.1641 74.0312 60.125 74.2578 60.0938V58.6328C74.125 58.6406 73.9766 58.6641 73.7891 58.6641C73.0781 58.6641 72.7188 58.4062 72.7188 57.5938V53.2188H74.2578V51.7188H72.7188V49.6172H70.7422V51.7188H69.5703V53.2188H70.7422V57.7578C70.7422 59.4609 71.5625 60.1641 73.2969 60.1641ZM79.1016 60.1641C81.5312 60.1641 83.1094 58.5469 83.1094 55.8594V55.8438C83.1094 53.1719 81.5078 51.5469 79.0938 51.5469C76.6875 51.5469 75.0938 53.1875 75.0938 55.8438V55.8594C75.0938 58.5391 76.6641 60.1641 79.1016 60.1641ZM79.1094 58.5938C77.8672 58.5938 77.0781 57.6016 77.0781 55.8594V55.8438C77.0781 54.125 77.8828 53.125 79.0938 53.125C80.3281 53.125 81.125 54.1172 81.125 55.8438V55.8594C81.125 57.5938 80.3359 58.5938 79.1094 58.5938ZM92.6641 60.1953C95.2578 60.1953 97.1719 58.5938 97.4609 56.2812L97.4766 56.2031H95.5L95.4766 56.2812C95.1094 57.6719 94.1016 58.4453 92.6641 58.4453C90.7031 58.4453 89.4375 56.8672 89.4375 54.3594V54.3516C89.4375 51.8516 90.6953 50.2812 92.6641 50.2812C94.1328 50.2812 95.125 51.0859 95.4531 52.375L95.4922 52.5234H97.4688L97.4609 52.4453C97.1641 50.1484 95.2578 48.5312 92.6641 48.5312C89.4297 48.5312 87.375 50.75 87.375 54.3516V54.3594C87.375 57.9609 89.4219 60.1953 92.6641 60.1953ZM98.8672 60H100.812V48.7266H98.8672V60ZM106.109 60.1641C108.273 60.1641 109.492 58.8828 109.75 57.6094L109.773 57.5234H107.953L107.938 57.5781C107.75 58.1328 107.117 58.6484 106.148 58.6484C104.883 58.6484 104.086 57.7891 104.055 56.3359H109.852V55.7109C109.852 53.2109 108.383 51.5469 106.016 51.5469C103.648 51.5469 102.125 53.2656 102.125 55.875V55.8828C102.125 58.5156 103.625 60.1641 106.109 60.1641ZM106.039 53.0703C107.07 53.0703 107.82 53.7266 107.961 55.0391H104.078C104.234 53.7656 105.008 53.0703 106.039 53.0703ZM113.555 60.1406C114.648 60.1406 115.57 59.5938 116.047 58.7266H116.094V60H118.039V54.3047C118.039 52.6406 116.703 51.5469 114.633 51.5469C112.531 51.5469 111.258 52.6484 111.141 54.1172L111.133 54.2109H112.938L112.953 54.1406C113.078 53.5312 113.641 53.1016 114.562 53.1016C115.547 53.1016 116.094 53.6094 116.094 54.4453V55.0156L113.93 55.1484C111.922 55.2734 110.781 56.1562 110.781 57.625V57.6406C110.781 59.1172 111.898 60.1406 113.555 60.1406ZM112.719 57.5625V57.5547C112.719 56.8984 113.242 56.4844 114.203 56.4219L116.094 56.3047V56.9297C116.094 57.9141 115.25 58.6562 114.133 58.6562C113.281 58.6562 112.719 58.2422 112.719 57.5625ZM119.609 60H121.555V55.1953C121.555 54 122.266 53.1875 123.383 53.1875C124.492 53.1875 125.039 53.8516 125.039 55.0312V60H126.984V54.6406C126.984 52.7188 125.945 51.5469 124.125 51.5469C122.867 51.5469 122.023 52.125 121.594 53.0156H121.555V51.7188H119.609V60ZM134.195 60.1406C135.289 60.1406 136.211 59.5938 136.688 58.7266H136.734V60H138.68V54.3047C138.68 52.6406 137.344 51.5469 135.273 51.5469C133.172 51.5469 131.898 52.6484 131.781 54.1172L131.773 54.2109H133.578L133.594 54.1406C133.719 53.5312 134.281 53.1016 135.203 53.1016C136.188 53.1016 136.734 53.6094 136.734 54.4453V55.0156L134.57 55.1484C132.562 55.2734 131.422 56.1562 131.422 57.625V57.6406C131.422 59.1172 132.539 60.1406 134.195 60.1406ZM133.359 57.5625V57.5547C133.359 56.8984 133.883 56.4844 134.844 56.4219L136.734 56.3047V56.9297C136.734 57.9141 135.891 58.6562 134.773 58.6562C133.922 58.6562 133.359 58.2422 133.359 57.5625ZM140.25 60H142.195V55.1953C142.195 54 142.906 53.1875 144.023 53.1875C145.133 53.1875 145.68 53.8516 145.68 55.0312V60H147.625V54.6406C147.625 52.7188 146.586 51.5469 144.766 51.5469C143.508 51.5469 142.664 52.125 142.234 53.0156H142.195V51.7188H140.25V60ZM152.266 60.1641C153.461 60.1641 154.375 59.5703 154.844 58.5938H154.891V60H156.836V48.7266H154.891V53.1406H154.844C154.375 52.1484 153.43 51.5469 152.258 51.5469C150.18 51.5469 148.844 53.1797 148.844 55.8516V55.8594C148.844 58.5234 150.172 60.1641 152.266 60.1641ZM152.852 58.5234C151.602 58.5234 150.828 57.5078 150.828 55.8594V55.8516C150.828 54.2031 151.609 53.1875 152.852 53.1875C154.047 53.1875 154.891 54.2344 154.891 55.8516V55.8594C154.891 57.4844 154.055 58.5234 152.852 58.5234ZM166.508 60.1953C169.375 60.1953 171.133 58.5156 171.133 56.0234V48.7266H169.125V55.8594C169.125 57.4219 168.18 58.4453 166.508 58.4453C164.836 58.4453 163.883 57.4219 163.883 55.8594V48.7266H161.867V56.0234C161.867 58.5156 163.648 60.1953 166.508 60.1953ZM172.938 60H174.883V55.1953C174.883 54 175.594 53.1875 176.711 53.1875C177.82 53.1875 178.367 53.8516 178.367 55.0312V60H180.312V54.6406C180.312 52.7188 179.273 51.5469 177.453 51.5469C176.195 51.5469 175.352 52.125 174.922 53.0156H174.883V51.7188H172.938V60ZM185.109 60.1641C187.141 60.1641 188.586 59.1172 188.586 57.5547V57.5469C188.586 56.3438 187.922 55.6719 186.211 55.2891L184.828 54.9844C183.969 54.7891 183.648 54.4766 183.648 54V53.9922C183.648 53.3828 184.188 52.9844 185.047 52.9844C185.953 52.9844 186.484 53.4688 186.57 54.1328L186.578 54.1953H188.391L188.383 54.1094C188.312 52.6797 187.109 51.5469 185.047 51.5469C183.047 51.5469 181.727 52.5703 181.727 54.0859V54.0938C181.727 55.3203 182.523 56.0938 184.109 56.4453L185.484 56.75C186.344 56.9453 186.633 57.2266 186.633 57.7266V57.7344C186.633 58.3438 186.062 58.7266 185.117 58.7266C184.133 58.7266 183.594 58.3047 183.445 57.5938L183.43 57.5234H181.516L181.523 57.5938C181.695 59.1328 182.938 60.1641 185.109 60.1641ZM192.648 60.1641C193.898 60.1641 194.75 59.5859 195.18 58.7031H195.219V60H197.164V51.7188H195.219V56.5156C195.219 57.7188 194.508 58.5234 193.391 58.5234C192.281 58.5234 191.734 57.8594 191.734 56.6875V51.7188H189.789V57.0703C189.789 58.9922 190.828 60.1641 192.648 60.1641ZM203.391 60.1641C205.484 60.1641 206.812 58.5234 206.812 55.8594V55.8516C206.812 53.1797 205.477 51.5469 203.398 51.5469C202.227 51.5469 201.281 52.1484 200.812 53.1406H200.766V48.7266H198.82V60H200.766V58.5938H200.812C201.281 59.5703 202.195 60.1641 203.391 60.1641ZM202.805 58.5234C201.602 58.5234 200.766 57.4844 200.766 55.8594V55.8516C200.766 54.2344 201.609 53.1875 202.805 53.1875C204.047 53.1875 204.828 54.2031 204.828 55.8516V55.8594C204.828 57.5078 204.055 58.5234 202.805 58.5234ZM211.297 60.1641C213.328 60.1641 214.773 59.1172 214.773 57.5547V57.5469C214.773 56.3438 214.109 55.6719 212.398 55.2891L211.016 54.9844C210.156 54.7891 209.836 54.4766 209.836 54V53.9922C209.836 53.3828 210.375 52.9844 211.234 52.9844C212.141 52.9844 212.672 53.4688 212.758 54.1328L212.766 54.1953H214.578L214.57 54.1094C214.5 52.6797 213.297 51.5469 211.234 51.5469C209.234 51.5469 207.914 52.5703 207.914 54.0859V54.0938C207.914 55.3203 208.711 56.0938 210.297 56.4453L211.672 56.75C212.531 56.9453 212.82 57.2266 212.82 57.7266V57.7344C212.82 58.3438 212.25 58.7266 211.305 58.7266C210.32 58.7266 209.781 58.3047 209.633 57.5938L209.617 57.5234H207.703L207.711 57.5938C207.883 59.1328 209.125 60.1641 211.297 60.1641ZM219.672 60.1641C221.766 60.1641 223.164 58.8516 223.312 57.125L223.32 57.0703H221.484L221.469 57.1406C221.289 58.0078 220.664 58.5938 219.68 58.5938C218.453 58.5938 217.656 57.5938 217.656 55.8672V55.8594C217.656 54.1641 218.445 53.125 219.672 53.125C220.703 53.125 221.297 53.7734 221.461 54.5781L221.477 54.6484H223.312L223.305 54.5859C223.188 52.9297 221.828 51.5469 219.648 51.5469C217.234 51.5469 215.672 53.2031 215.672 55.8438V55.8516C215.672 58.5078 217.211 60.1641 219.672 60.1641ZM224.484 60H226.43V55.1484C226.43 53.9844 227.094 53.2734 228.195 53.2734C228.523 53.2734 228.82 53.3203 228.984 53.3828V51.625C228.836 51.5859 228.609 51.5469 228.367 51.5469C227.391 51.5469 226.664 52.1328 226.414 53.1016H226.375V51.7188H224.484V60ZM231.016 50.5312C231.625 50.5312 232.094 50.0469 232.094 49.4688C232.094 48.875 231.625 48.3984 231.016 48.3984C230.406 48.3984 229.93 48.875 229.93 49.4688C229.93 50.0469 230.406 50.5312 231.016 50.5312ZM230.039 60H231.984V51.7188H230.039V60ZM238.266 60.1641C240.359 60.1641 241.688 58.5234 241.688 55.8594V55.8516C241.688 53.1797 240.352 51.5469 238.273 51.5469C237.102 51.5469 236.156 52.1484 235.688 53.1406H235.641V48.7266H233.695V60H235.641V58.5938H235.688C236.156 59.5703 237.07 60.1641 238.266 60.1641ZM237.68 58.5234C236.477 58.5234 235.641 57.4844 235.641 55.8594V55.8516C235.641 54.2344 236.484 53.1875 237.68 53.1875C238.922 53.1875 239.703 54.2031 239.703 55.8516V55.8594C239.703 57.5078 238.93 58.5234 237.68 58.5234ZM246.578 60.1641C248.742 60.1641 249.961 58.8828 250.219 57.6094L250.242 57.5234H248.422L248.406 57.5781C248.219 58.1328 247.586 58.6484 246.617 58.6484C245.352 58.6484 244.555 57.7891 244.523 56.3359H250.32V55.7109C250.32 53.2109 248.852 51.5469 246.484 51.5469C244.117 51.5469 242.594 53.2656 242.594 55.875V55.8828C242.594 58.5156 244.094 60.1641 246.578 60.1641ZM246.508 53.0703C247.539 53.0703 248.289 53.7266 248.43 55.0391H244.547C244.703 53.7656 245.477 53.0703 246.508 53.0703ZM251.578 60H253.523V55.1484C253.523 53.9844 254.188 53.2734 255.289 53.2734C255.617 53.2734 255.914 53.3203 256.078 53.3828V51.625C255.93 51.5859 255.703 51.5469 255.461 51.5469C254.484 51.5469 253.758 52.1328 253.508 53.1016H253.469V51.7188H251.578V60ZM264.438 60.1953C267.188 60.1953 268.844 58.8594 268.844 56.7578V56.75C268.844 54.9922 267.82 54.0391 265.477 53.5547L264.258 53.3047C262.898 53.0234 262.281 52.5547 262.281 51.7578V51.75C262.281 50.8516 263.102 50.2344 264.422 50.2266C265.688 50.2266 266.555 50.8125 266.688 51.7969L266.703 51.8906H268.633L268.625 51.7578C268.508 49.8281 266.898 48.5312 264.438 48.5312C262.008 48.5312 260.266 49.875 260.258 51.8594V51.8672C260.258 53.5469 261.352 54.5781 263.57 55.0391L264.781 55.2891C266.234 55.5938 266.82 56.0469 266.82 56.8906V56.8984C266.82 57.8672 265.93 58.5 264.508 58.5C263.094 58.5 262.102 57.8984 261.953 56.9297L261.938 56.8359H260.008L260.016 56.9531C260.148 58.9766 261.852 60.1953 264.438 60.1953ZM272.977 60.1641C274.227 60.1641 275.078 59.5859 275.508 58.7031H275.547V60H277.492V51.7188H275.547V56.5156C275.547 57.7188 274.836 58.5234 273.719 58.5234C272.609 58.5234 272.062 57.8594 272.062 56.6875V51.7188H270.117V57.0703C270.117 58.9922 271.156 60.1641 272.977 60.1641ZM279.094 60H281.039V54.9297C281.039 53.9219 281.695 53.1875 282.633 53.1875C283.539 53.1875 284.102 53.7656 284.102 54.6953V60H285.992V54.8828C285.992 53.8828 286.633 53.1875 287.57 53.1875C288.523 53.1875 289.055 53.7734 289.055 54.7969V60H291V54.3125C291 52.6562 289.93 51.5469 288.297 51.5469C287.102 51.5469 286.117 52.1875 285.719 53.2188H285.672C285.367 52.1562 284.531 51.5469 283.375 51.5469C282.281 51.5469 281.43 52.1406 281.078 53.0469H281.039V51.7188H279.094V60ZM292.562 60H294.508V54.9297C294.508 53.9219 295.164 53.1875 296.102 53.1875C297.008 53.1875 297.57 53.7656 297.57 54.6953V60H299.461V54.8828C299.461 53.8828 300.102 53.1875 301.039 53.1875C301.992 53.1875 302.523 53.7734 302.523 54.7969V60H304.469V54.3125C304.469 52.6562 303.398 51.5469 301.766 51.5469C300.57 51.5469 299.586 52.1875 299.188 53.2188H299.141C298.836 52.1562 298 51.5469 296.844 51.5469C295.75 51.5469 294.898 52.1406 294.547 53.0469H294.508V51.7188H292.562V60ZM308.477 60.1406C309.57 60.1406 310.492 59.5938 310.969 58.7266H311.016V60H312.961V54.3047C312.961 52.6406 311.625 51.5469 309.555 51.5469C307.453 51.5469 306.18 52.6484 306.062 54.1172L306.055 54.2109H307.859L307.875 54.1406C308 53.5312 308.562 53.1016 309.484 53.1016C310.469 53.1016 311.016 53.6094 311.016 54.4453V55.0156L308.852 55.1484C306.844 55.2734 305.703 56.1562 305.703 57.625V57.6406C305.703 59.1172 306.82 60.1406 308.477 60.1406ZM307.641 57.5625V57.5547C307.641 56.8984 308.164 56.4844 309.125 56.4219L311.016 56.3047V56.9297C311.016 57.9141 310.172 58.6562 309.055 58.6562C308.203 58.6562 307.641 58.2422 307.641 57.5625ZM314.531 60H316.477V55.1484C316.477 53.9844 317.141 53.2734 318.242 53.2734C318.57 53.2734 318.867 53.3203 319.031 53.3828V51.625C318.883 51.5859 318.656 51.5469 318.414 51.5469C317.438 51.5469 316.711 52.1328 316.461 53.1016H316.422V51.7188H314.531V60ZM321.141 62.75C322.867 62.75 323.836 62.1016 324.469 60.2812L327.445 51.7188H325.398L323.453 58.3438H323.398L321.461 51.7188H319.336L322.312 60.0078L322.195 60.3438C321.945 61.0391 321.531 61.25 320.789 61.25C320.516 61.25 320.289 61.2109 320.141 61.1797V62.6641C320.375 62.7031 320.766 62.75 321.141 62.75Z" fill="#272727"/>
<path d="M28.0001 268.392L28 200.608C28 194.749 32.7493 190 38.6078 190L358.392 190C364.251 190 369 194.749 369 200.608L369 268.392C369 274.251 364.251 279 358.392 279L38.6079 279C32.7494 279 28.0002 274.251 28.0001 268.392Z" fill="white" stroke="#F2F2F2" stroke-width="2"/>
<path d="M369 100L199 190.229L369 269V100Z" fill="white" stroke="#F2F2F2" stroke-width="2"/>
<path d="M29 100L199 190.037L29 270V100Z" fill="white" stroke="#F2F2F2" stroke-width="2"/>
<g filter="url(#filter1_d)">
<rect x="10" y="105" width="166" height="40" rx="6" fill="white"/>
</g>
<g clip-path="url(#clip1)">
<path d="M39.6243 116.216H23.8232C22.8166 116.216 22 117.033 22 118.04V120.47C22 120.805 22.2735 121.078 22.6077 121.078H23.2154V131.41C23.2154 132.416 24.0321 133.233 25.0386 133.233H38.4088C39.4154 133.233 40.232 132.416 40.232 131.41V121.078H40.8397C41.174 121.078 41.4475 120.805 41.4475 120.47V118.04C41.4475 117.033 40.6308 116.216 39.6243 116.216ZM39.0165 131.41C39.0165 131.744 38.7431 132.017 38.4088 132.017H25.0386C24.7044 132.017 24.4309 131.744 24.4309 131.41V121.078H39.0165V131.41ZM40.232 119.863H23.2154V118.04C23.2154 117.705 23.4889 117.432 23.8232 117.432H39.6243C39.9585 117.432 40.232 117.705 40.232 118.04V119.863ZM29.7486 124.725H33.6989C33.9496 124.725 34.1547 124.519 34.1547 124.269V123.965C34.1547 123.714 33.9496 123.509 33.6989 123.509H29.7486C29.4979 123.509 29.2928 123.714 29.2928 123.965V124.269C29.2928 124.519 29.4979 124.725 29.7486 124.725Z" fill="#69B6F3"/>
</g>
<path d="M51.8347 130H53.0242V120.136H51.821L49.196 122.022V123.26L51.8074 121.441H51.8347V130ZM58.9646 130.164C61.2341 130.164 62.5945 128.202 62.5945 125.071V125.058C62.5945 121.927 61.2341 119.972 58.9646 119.972C56.6951 119.972 55.3484 121.927 55.3484 125.058V125.071C55.3484 128.202 56.6951 130.164 58.9646 130.164ZM58.9646 129.091C57.4607 129.091 56.5857 127.546 56.5857 125.071V125.058C56.5857 122.583 57.4607 121.052 58.9646 121.052C60.4685 121.052 61.3572 122.583 61.3572 125.058V125.071C61.3572 127.546 60.4685 129.091 58.9646 129.091ZM69.7859 130.137C71.3376 130.137 72.4998 129.207 72.7322 128.031L72.7458 127.963H71.5769L71.5564 128.024C71.3513 128.633 70.7156 129.084 69.8132 129.084C68.5486 129.084 67.7419 128.229 67.7146 126.767H72.8347V126.329C72.8347 124.196 71.6521 122.754 69.7107 122.754C67.7693 122.754 66.5115 124.265 66.5115 126.466V126.473C66.5115 128.708 67.7419 130.137 69.7859 130.137ZM69.7039 123.807C70.7429 123.807 71.5085 124.456 71.6248 125.837H67.7351C67.865 124.511 68.6716 123.807 69.7039 123.807ZM74.0378 130H75.2273V125.543C75.2273 124.552 75.9109 123.807 76.8542 123.807C77.7361 123.807 78.3103 124.374 78.3103 125.235V130H79.4998V125.481C79.4998 124.511 80.1628 123.807 81.1062 123.807C82.0427 123.807 82.5828 124.388 82.5828 125.365V130H83.7722V125.092C83.7722 123.677 82.863 122.754 81.4548 122.754C80.4568 122.754 79.6228 123.267 79.2263 124.121H79.199C78.8914 123.253 78.1736 122.754 77.2029 122.754C76.2869 122.754 75.5759 123.226 75.2546 123.93H75.2273V122.891H74.0378V130ZM87.3679 130.137C88.3181 130.137 89.1726 129.624 89.5896 128.845H89.6169V130H90.8064V125.085C90.8064 123.663 89.7537 122.754 88.072 122.754C86.3972 122.754 85.3787 123.697 85.2761 124.866L85.2693 124.941H86.4177L86.4314 124.88C86.5681 124.244 87.1423 123.807 88.0583 123.807C89.0496 123.807 89.6169 124.333 89.6169 125.201V125.796L87.5798 125.912C85.946 126.008 85.0027 126.767 85.0027 127.977V127.99C85.0027 129.282 85.9529 130.137 87.3679 130.137ZM86.2195 127.99V127.977C86.2195 127.313 86.7664 126.89 87.7166 126.835L89.6169 126.719V127.3C89.6169 128.332 88.7556 129.104 87.6345 129.104C86.78 129.104 86.2195 128.674 86.2195 127.99ZM92.9871 121.688C93.4041 121.688 93.7322 121.353 93.7322 120.942C93.7322 120.525 93.4041 120.197 92.9871 120.197C92.5769 120.197 92.2419 120.525 92.2419 120.942C92.2419 121.353 92.5769 121.688 92.9871 121.688ZM92.3923 130H93.5818V122.891H92.3923V130ZM95.2634 130H96.4529V120.136H95.2634V130ZM100.582 130.137C102.168 130.137 103.344 129.262 103.344 128.018V128.011C103.344 126.999 102.824 126.432 101.388 126.083L100.26 125.81C99.4744 125.618 99.1531 125.283 99.1531 124.798V124.791C99.1531 124.162 99.6863 123.745 100.548 123.745C101.429 123.745 101.956 124.203 102.052 124.894L102.058 124.941H103.193L103.186 124.853C103.097 123.663 102.106 122.754 100.548 122.754C99.0095 122.754 97.9363 123.622 97.9363 124.846V124.853C97.9363 125.878 98.5857 126.5 99.9255 126.821L101.053 127.095C101.86 127.293 102.127 127.58 102.127 128.093V128.1C102.127 128.742 101.552 129.146 100.589 129.146C99.6179 129.146 99.0916 128.729 98.948 128.018L98.9343 127.949H97.7449L97.7517 128.011C97.8953 129.282 98.907 130.137 100.582 130.137ZM109.53 130.137C110.48 130.137 111.335 129.624 111.752 128.845H111.779V130H112.969V125.085C112.969 123.663 111.916 122.754 110.234 122.754C108.559 122.754 107.541 123.697 107.438 124.866L107.431 124.941H108.58L108.594 124.88C108.73 124.244 109.304 123.807 110.22 123.807C111.212 123.807 111.779 124.333 111.779 125.201V125.796L109.742 125.912C108.108 126.008 107.165 126.767 107.165 127.977V127.99C107.165 129.282 108.115 130.137 109.53 130.137ZM108.382 127.99V127.977C108.382 127.313 108.928 126.89 109.879 126.835L111.779 126.719V127.3C111.779 128.332 110.918 129.104 109.797 129.104C108.942 129.104 108.382 128.674 108.382 127.99ZM114.479 130H115.669V125.557C115.669 124.552 116.27 123.889 117.193 123.889C117.48 123.889 117.733 123.923 117.829 123.957V122.802C117.733 122.788 117.555 122.754 117.35 122.754C116.516 122.754 115.86 123.253 115.628 124.039H115.6V122.891H114.479V130ZM121.404 130.137C123.01 130.137 124.179 129.091 124.371 127.737L124.378 127.689H123.209L123.195 127.744C122.997 128.537 122.375 129.084 121.404 129.084C120.174 129.084 119.326 128.106 119.326 126.452V126.445C119.326 124.832 120.153 123.807 121.39 123.807C122.436 123.807 123.01 124.436 123.188 125.146L123.202 125.201H124.364L124.357 125.146C124.207 123.93 123.161 122.754 121.39 122.754C119.415 122.754 118.109 124.189 118.109 126.432V126.438C118.109 128.701 119.387 130.137 121.404 130.137ZM125.533 130H126.722V125.851C126.722 124.641 127.454 123.807 128.554 123.807C129.662 123.807 130.318 124.565 130.318 125.851V130H131.508V125.646C131.508 123.923 130.475 122.754 128.965 122.754C127.905 122.754 127.133 123.226 126.75 124.025H126.722V120.136H125.533V130ZM133.688 121.688C134.105 121.688 134.433 121.353 134.433 120.942C134.433 120.525 134.105 120.197 133.688 120.197C133.278 120.197 132.943 120.525 132.943 120.942C132.943 121.353 133.278 121.688 133.688 121.688ZM133.094 130H134.283V122.891H133.094V130ZM137.906 130H139.123L141.734 122.891H140.497L138.528 128.735H138.501L136.539 122.891H135.288L137.906 130ZM145.323 130.137C146.875 130.137 148.037 129.207 148.269 128.031L148.283 127.963H147.114L147.094 128.024C146.888 128.633 146.253 129.084 145.35 129.084C144.086 129.084 143.279 128.229 143.252 126.767H148.372V126.329C148.372 124.196 147.189 122.754 145.248 122.754C143.306 122.754 142.049 124.265 142.049 126.466V126.473C142.049 128.708 143.279 130.137 145.323 130.137ZM145.241 123.807C146.28 123.807 147.046 124.456 147.162 125.837H143.272C143.402 124.511 144.209 123.807 145.241 123.807ZM152.248 130.137C153.266 130.137 154.059 129.624 154.504 128.797H154.531V130H155.72V120.136H154.531V124.08H154.504C154.059 123.26 153.232 122.754 152.227 122.754C150.443 122.754 149.226 124.196 149.226 126.438V126.445C149.226 128.688 150.429 130.137 152.248 130.137ZM152.48 129.084C151.222 129.084 150.443 128.079 150.443 126.445V126.438C150.443 124.818 151.222 123.807 152.48 123.807C153.677 123.807 154.538 124.853 154.538 126.438V126.445C154.538 128.038 153.683 129.084 152.48 129.084Z" fill="#333333"/>
<g filter="url(#filter2_d)">
<rect x="176" y="150" width="202" height="40" rx="6" fill="white"/>
</g>
<path d="M220.549 175.164C222.6 175.164 224.056 173.783 224.062 171.808V171.794C224.062 169.9 222.695 168.526 220.802 168.526C219.845 168.526 219.024 168.882 218.56 169.545H218.532L218.867 166.229H223.502V165.136H217.855L217.35 170.762H218.437C218.566 170.536 218.724 170.345 218.901 170.181C219.339 169.784 219.913 169.586 220.583 169.586C221.889 169.586 222.825 170.516 222.832 171.814V171.828C222.832 173.154 221.902 174.084 220.562 174.084C219.38 174.084 218.505 173.339 218.382 172.361L218.375 172.307H217.165L217.172 172.382C217.315 173.988 218.662 175.164 220.549 175.164ZM231.603 175.164C233.858 175.164 235.246 174.057 235.246 172.307V172.3C235.246 170.796 234.398 169.976 232.375 169.531L231.281 169.292C229.996 169.012 229.401 168.506 229.401 167.699V167.692C229.401 166.742 230.263 166.113 231.582 166.106C232.833 166.106 233.674 166.701 233.824 167.706L233.838 167.802H235.068L235.062 167.699C234.952 166.086 233.544 164.972 231.616 164.972C229.586 164.972 228.15 166.106 228.144 167.727V167.733C228.144 169.176 229.046 170.044 230.974 170.468L232.067 170.707C233.421 171.008 233.988 171.493 233.988 172.361V172.368C233.988 173.387 233.093 174.029 231.671 174.029C230.242 174.029 229.285 173.421 229.142 172.43L229.128 172.334H227.897L227.904 172.43C228.027 174.118 229.47 175.164 231.603 175.164ZM238.931 175.137C240.011 175.137 240.735 174.651 241.118 173.988H241.146V175H242.335V167.891H241.146V172.074C241.146 173.284 240.414 174.084 239.293 174.084C238.199 174.084 237.659 173.448 237.659 172.293V167.891H236.47V172.505C236.47 174.125 237.372 175.137 238.931 175.137ZM247.421 175.137C249.239 175.137 250.442 173.688 250.442 171.445V171.438C250.442 169.196 249.226 167.754 247.441 167.754C246.437 167.754 245.609 168.26 245.165 169.08H245.138V165.136H243.948V175H245.138V173.797H245.165C245.609 174.624 246.402 175.137 247.421 175.137ZM247.188 174.084C245.985 174.084 245.131 173.038 245.131 171.445V171.438C245.131 169.853 245.992 168.807 247.188 168.807C248.446 168.807 249.226 169.818 249.226 171.438V171.445C249.226 173.079 248.446 174.084 247.188 174.084ZM254.161 175.137C255.747 175.137 256.923 174.262 256.923 173.018V173.011C256.923 171.999 256.403 171.432 254.968 171.083L253.84 170.81C253.054 170.618 252.732 170.283 252.732 169.798V169.791C252.732 169.162 253.266 168.745 254.127 168.745C255.009 168.745 255.535 169.203 255.631 169.894L255.638 169.941H256.772L256.766 169.853C256.677 168.663 255.686 167.754 254.127 167.754C252.589 167.754 251.516 168.622 251.516 169.846V169.853C251.516 170.878 252.165 171.5 253.505 171.821L254.633 172.095C255.439 172.293 255.706 172.58 255.706 173.093V173.1C255.706 173.742 255.132 174.146 254.168 174.146C253.197 174.146 252.671 173.729 252.527 173.018L252.514 172.949H251.324L251.331 173.011C251.475 174.282 252.486 175.137 254.161 175.137ZM261.106 175.137C262.713 175.137 263.882 174.091 264.073 172.737L264.08 172.689H262.911L262.897 172.744C262.699 173.537 262.077 174.084 261.106 174.084C259.876 174.084 259.028 173.106 259.028 171.452V171.445C259.028 169.832 259.855 168.807 261.093 168.807C262.139 168.807 262.713 169.436 262.891 170.146L262.904 170.201H264.066L264.06 170.146C263.909 168.93 262.863 167.754 261.093 167.754C259.117 167.754 257.812 169.189 257.812 171.432V171.438C257.812 173.701 259.09 175.137 261.106 175.137ZM265.174 175H266.363V170.557C266.363 169.552 266.965 168.889 267.888 168.889C268.175 168.889 268.428 168.923 268.523 168.957V167.802C268.428 167.788 268.25 167.754 268.045 167.754C267.211 167.754 266.555 168.253 266.322 169.039H266.295V167.891H265.174V175ZM270.164 166.688C270.581 166.688 270.909 166.353 270.909 165.942C270.909 165.525 270.581 165.197 270.164 165.197C269.754 165.197 269.419 165.525 269.419 165.942C269.419 166.353 269.754 166.688 270.164 166.688ZM269.569 175H270.759V167.891H269.569V175ZM272.379 177.393H273.568V173.811H273.596C274.04 174.631 274.867 175.137 275.872 175.137C277.656 175.137 278.873 173.694 278.873 171.452V171.445C278.873 169.203 277.67 167.754 275.852 167.754C274.833 167.754 274.04 168.267 273.596 169.094H273.568V167.891H272.379V177.393ZM275.619 174.084C274.423 174.084 273.562 173.038 273.562 171.452V171.445C273.562 169.853 274.416 168.807 275.619 168.807C276.877 168.807 277.656 169.812 277.656 171.445V171.452C277.656 173.072 276.877 174.084 275.619 174.084ZM282.387 175.137C282.619 175.137 282.872 175.109 283.022 175.089V174.125C282.92 174.132 282.783 174.152 282.64 174.152C282.004 174.152 281.669 173.94 281.669 173.182V168.875H283.022V167.891H281.669V165.97H280.438V167.891H279.399V168.875H280.438V173.188C280.438 174.549 281.081 175.137 282.387 175.137ZM284.971 166.688C285.388 166.688 285.716 166.353 285.716 165.942C285.716 165.525 285.388 165.197 284.971 165.197C284.561 165.197 284.226 165.525 284.226 165.942C284.226 166.353 284.561 166.688 284.971 166.688ZM284.376 175H285.565V167.891H284.376V175ZM290.132 175.137C292.094 175.137 293.42 173.715 293.42 171.445V171.432C293.42 169.162 292.087 167.754 290.125 167.754C288.163 167.754 286.837 169.169 286.837 171.432V171.445C286.837 173.708 288.156 175.137 290.132 175.137ZM290.139 174.084C288.881 174.084 288.054 173.12 288.054 171.445V171.432C288.054 169.771 288.888 168.807 290.125 168.807C291.383 168.807 292.203 169.764 292.203 171.432V171.445C292.203 173.113 291.39 174.084 290.139 174.084ZM294.623 175H295.812V170.816C295.812 169.606 296.544 168.807 297.665 168.807C298.759 168.807 299.299 169.442 299.299 170.598V175H300.488V170.386C300.488 168.766 299.586 167.754 298.027 167.754C296.947 167.754 296.223 168.239 295.84 168.902H295.812V167.891H294.623V175ZM304.528 175.137C306.114 175.137 307.29 174.262 307.29 173.018V173.011C307.29 171.999 306.771 171.432 305.335 171.083L304.207 170.81C303.421 170.618 303.1 170.283 303.1 169.798V169.791C303.1 169.162 303.633 168.745 304.494 168.745C305.376 168.745 305.902 169.203 305.998 169.894L306.005 169.941H307.14L307.133 169.853C307.044 168.663 306.053 167.754 304.494 167.754C302.956 167.754 301.883 168.622 301.883 169.846V169.853C301.883 170.878 302.532 171.5 303.872 171.821L305 172.095C305.807 172.293 306.073 172.58 306.073 173.093V173.1C306.073 173.742 305.499 174.146 304.535 174.146C303.564 174.146 303.038 173.729 302.895 173.018L302.881 172.949H301.691L301.698 173.011C301.842 174.282 302.854 175.137 304.528 175.137ZM311.583 175H315.309C317.407 175 318.651 173.968 318.651 172.231V172.218C318.651 170.912 317.79 169.955 316.368 169.791V169.764C317.387 169.62 318.152 168.629 318.152 167.61V167.597C318.152 166.12 317.011 165.136 315.322 165.136H311.583V175ZM315.042 166.223C316.231 166.223 316.908 166.756 316.908 167.727V167.74C316.908 168.807 316.115 169.388 314.659 169.388H312.813V166.223H315.042ZM315.008 170.447C316.58 170.447 317.387 171.028 317.387 172.17V172.184C317.387 173.318 316.601 173.913 315.124 173.913H312.813V170.447H315.008ZM319.923 175H321.112V165.136H319.923V175ZM325.665 175.137C327.627 175.137 328.953 173.715 328.953 171.445V171.432C328.953 169.162 327.62 167.754 325.658 167.754C323.696 167.754 322.37 169.169 322.37 171.432V171.445C322.37 173.708 323.689 175.137 325.665 175.137ZM325.672 174.084C324.414 174.084 323.587 173.12 323.587 171.445V171.432C323.587 169.771 324.421 168.807 325.658 168.807C326.916 168.807 327.736 169.764 327.736 171.432V171.445C327.736 173.113 326.923 174.084 325.672 174.084ZM333.103 175.137C334.709 175.137 335.878 174.091 336.069 172.737L336.076 172.689H334.907L334.894 172.744C334.695 173.537 334.073 174.084 333.103 174.084C331.872 174.084 331.024 173.106 331.024 171.452V171.445C331.024 169.832 331.852 168.807 333.089 168.807C334.135 168.807 334.709 169.436 334.887 170.146L334.9 170.201H336.062L336.056 170.146C335.905 168.93 334.859 167.754 333.089 167.754C331.113 167.754 329.808 169.189 329.808 171.432V171.438C329.808 173.701 331.086 175.137 333.103 175.137ZM337.266 175H338.455V172.32L339.118 171.685L341.757 175H343.138L339.959 170.96L343.042 167.891H341.6L338.482 171.028H338.455V165.136H337.266V175ZM346.549 175.137C348.101 175.137 349.263 174.207 349.495 173.031L349.509 172.963H348.34L348.319 173.024C348.114 173.633 347.479 174.084 346.576 174.084C345.312 174.084 344.505 173.229 344.478 171.767H349.598V171.329C349.598 169.196 348.415 167.754 346.474 167.754C344.532 167.754 343.274 169.265 343.274 171.466V171.473C343.274 173.708 344.505 175.137 346.549 175.137ZM346.467 168.807C347.506 168.807 348.271 169.456 348.388 170.837H344.498C344.628 169.511 345.435 168.807 346.467 168.807ZM353.474 175.137C354.492 175.137 355.285 174.624 355.729 173.797H355.757V175H356.946V165.136H355.757V169.08H355.729C355.285 168.26 354.458 167.754 353.453 167.754C351.669 167.754 350.452 169.196 350.452 171.438V171.445C350.452 173.688 351.655 175.137 353.474 175.137ZM353.706 174.084C352.448 174.084 351.669 173.079 351.669 171.445V171.438C351.669 169.818 352.448 168.807 353.706 168.807C354.902 168.807 355.764 169.853 355.764 171.438V171.445C355.764 173.038 354.909 174.084 353.706 174.084Z" fill="#333333"/>
<path d="M199.14 159.349C193.18 159.349 188.348 164.181 188.348 170.141C188.348 176.102 193.18 180.934 199.14 180.934C205.101 180.934 209.933 176.102 209.933 170.141C209.933 164.181 205.101 159.349 199.14 159.349ZM205.295 163.987C208.479 167.171 208.648 172.138 205.99 175.513L193.768 163.292C197.145 160.633 202.111 160.803 205.295 163.987ZM192.986 176.296C189.801 173.111 189.633 168.145 192.291 164.769L204.513 176.99C201.136 179.65 196.17 179.479 192.986 176.296Z" fill="#EB001B"/>
</g>
<defs>
<filter id="filter0_d" x="24" y="16" width="350" height="253" filterUnits="userSpaceOnUse" color-interpolation-filters="sRGB">
<feFlood flood-opacity="0" result="BackgroundImageFix"/>
<feColorMatrix in="SourceAlpha" type="matrix" values="0 0 0 0 0 0 0 0 0 0 0 0 0 0 0 0 0 0 127 0"/>
<feOffset/>
<feGaussianBlur stdDeviation="6"/>
<feColorMatrix type="matrix" values="0 0 0 0 0 0 0 0 0 0 0 0 0 0 0 0 0 0 0.16 0"/>
<feBlend mode="normal" in2="BackgroundImageFix" result="effect1_dropShadow"/>
<feBlend mode="normal" in="SourceGraphic" in2="effect1_dropShadow" result="shape"/>
</filter>
<filter id="filter1_d" x="-3.25967" y="91.7403" width="192.519" height="66.5193" filterUnits="userSpaceOnUse" color-interpolation-filters="sRGB">
<feFlood flood-opacity="0" result="BackgroundImageFix"/>
<feColorMatrix in="SourceAlpha" type="matrix" values="0 0 0 0 0 0 0 0 0 0 0 0 0 0 0 0 0 0 127 0"/>
<feOffset/>
<feGaussianBlur stdDeviation="6.62983"/>
<feColorMatrix type="matrix" values="0 0 0 0 0 0 0 0 0 0 0 0 0 0 0 0 0 0 0.15 0"/>
<feBlend mode="normal" in2="BackgroundImageFix" result="effect1_dropShadow"/>
<feBlend mode="normal" in="SourceGraphic" in2="effect1_dropShadow" result="shape"/>
</filter>
<filter id="filter2_d" x="160.808" y="134.808" width="232.384" height="70.384" filterUnits="userSpaceOnUse" color-interpolation-filters="sRGB">
<feFlood flood-opacity="0" result="BackgroundImageFix"/>
<feColorMatrix in="SourceAlpha" type="matrix" values="0 0 0 0 0 0 0 0 0 0 0 0 0 0 0 0 0 0 127 0"/>
<feOffset/>
<feGaussianBlur stdDeviation="7.59599"/>
<feColorMatrix type="matrix" values="0 0 0 0 0 0 0 0 0 0 0 0 0 0 0 0 0 0 0.15 0"/>
<feBlend mode="normal" in2="BackgroundImageFix" result="effect1_dropShadow"/>
<feBlend mode="normal" in="SourceGraphic" in2="effect1_dropShadow" result="shape"/>
</filter>
<clipPath id="clip0">
<rect width="436" height="205" fill="white"/>
</clipPath>
<clipPath id="clip1">
<rect width="19.4475" height="19.4475" fill="white" transform="translate(22 115)"/>
</clipPath>
</defs>
</svg>
