<svg width="480" height="240" viewBox="0 0 480 240" fill="none" xmlns="http://www.w3.org/2000/svg">
<g clip-path="url(#clip0)">
<rect width="480" height="240" fill="white"/>
<g clip-path="url(#clip1)">
<path d="M222.061 44.9772L218.094 42.7085L158.098 8.3856C158.088 8.3795 158.079 8.37294 158.069 8.36732L146.79 1.91636C141.024 -1.1713 133.182 -0.631766 124.573 4.29387C106.975 14.3612 92.5773 39.0733 92.5773 59.209V197.288L103.243 203.39L113.908 197.288V160.821L156.568 185.228V233.898L167.234 240L177.899 233.898V197.431L209.894 178.982V203.39L220.559 209.491L231.224 203.39V65.3102C231.224 55.3816 227.72 48.3508 222.061 44.9772Z" fill="#2B4ECA"/>
<path d="M135.237 47.0052V10.3953L188.563 40.9035L189.135 77.8406L135.237 47.0052Z" fill="#1336B3"/>
<path d="M103.242 65.3101L135.237 47.0054L189.135 77.8407L156.568 95.8188" fill="#294DCC"/>
<path d="M222.999 45.5889C223.419 45.7746 223.833 45.9738 224.233 46.195L220.71 44.1794L146.79 1.91636C141.024 -1.1713 133.182 -0.631766 124.573 4.29387C106.975 14.3617 92.5773 39.0733 92.5773 59.209V197.288L103.243 203.39V154.576L156.569 185.227V233.898L167.234 240L177.899 233.898V197.43L209.894 178.982V203.39L220.559 209.491L231.224 203.39V65.3102C231.224 55.9437 228.103 49.1599 222.999 45.5889ZM156.568 95.8189L103.242 65.3102C103.242 52.1796 109.368 37.105 118.508 25.412L171.88 55.8593C162.714 67.5607 156.568 82.6653 156.568 95.8189Z" fill="#5373E5"/>
<path d="M149.268 123.683L127.499 132.248L108.867 100.569L149.268 123.683Z" fill="white"/>
<path d="M127.075 136.529L108.867 105.571V130.237L149.268 153.352V127.798L127.075 136.529Z" fill="white"/>
<path d="M199.228 47.0054C181.631 57.0728 167.233 81.7848 167.233 101.921V240L177.898 233.899V197.43L220.558 172.882V209.492L231.224 203.39V65.3101C231.224 45.1749 216.826 36.9376 199.228 47.0054Z" fill="#2B4ECA"/>
</g>
<g filter="url(#filter0_d)">
<rect x="221" y="44" width="166" height="170" rx="6" fill="white"/>
</g>
<rect x="289" width="98" height="38" rx="6" fill="#69B6F3"/>
<path d="M361.292 16L365.5 19.7085L369.708 16L371 17.1417L365.5 22L360 17.1417L361.292 16Z" fill="white"/>
<path d="M310.148 26H312.667V20.248H318.576V18.1973H312.667V14.0273H319.132V11.9082H310.148V26ZM322.013 14.1641C322.775 14.1641 323.361 13.5586 323.361 12.8359C323.361 12.0938 322.775 11.498 322.013 11.498C321.251 11.498 320.656 12.0938 320.656 12.8359C320.656 13.5586 321.251 14.1641 322.013 14.1641ZM320.792 26H323.224V15.6484H320.792V26ZM325.363 26H327.794V11.9082H325.363V26ZM333.712 26.2051C334.201 26.2051 334.63 26.1562 334.914 26.1172V24.291C334.747 24.3008 334.562 24.3301 334.328 24.3301C333.439 24.3301 332.99 24.0078 332.99 22.9922V17.5234H334.914V15.6484H332.99V13.0215H330.519V15.6484H329.054V17.5234H330.519V23.1973C330.519 25.3262 331.544 26.2051 333.712 26.2051ZM340.939 26.2051C343.644 26.2051 345.167 24.6035 345.49 23.0117L345.519 22.9043H343.244L343.224 22.9727C342.99 23.666 342.199 24.3105 340.988 24.3105C339.406 24.3105 338.41 23.2363 338.371 21.4199H345.617V20.6387C345.617 17.5137 343.781 15.4336 340.822 15.4336C337.863 15.4336 335.958 17.582 335.958 20.8438V20.8535C335.958 24.1445 337.833 26.2051 340.939 26.2051ZM340.851 17.3379C342.14 17.3379 343.078 18.1582 343.253 19.7988H338.4C338.595 18.207 339.562 17.3379 340.851 17.3379ZM347.189 26H349.621V19.9355C349.621 18.4805 350.451 17.5918 351.828 17.5918C352.238 17.5918 352.609 17.6504 352.814 17.7285V15.5312C352.628 15.4824 352.345 15.4336 352.042 15.4336C350.822 15.4336 349.914 16.166 349.601 17.377H349.552V15.6484H347.189V26Z" fill="white"/>
<path d="M256.987 198H259.254V192.823H264.571V190.978H259.254V187.225H265.072V185.317H256.987V198ZM266.145 198H268.334V192.542C268.334 191.232 269.081 190.433 270.32 190.433C270.689 190.433 271.023 190.485 271.208 190.556V188.578C271.041 188.534 270.786 188.49 270.513 188.49C269.415 188.49 268.597 189.149 268.316 190.239H268.272V188.684H266.145V198ZM275.743 198.185C278.476 198.185 280.252 196.365 280.252 193.342V193.324C280.252 190.318 278.45 188.49 275.734 188.49C273.027 188.49 271.234 190.336 271.234 193.324V193.342C271.234 196.356 273.001 198.185 275.743 198.185ZM275.752 196.418C274.354 196.418 273.467 195.302 273.467 193.342V193.324C273.467 191.391 274.372 190.266 275.734 190.266C277.123 190.266 278.019 191.382 278.019 193.324V193.342C278.019 195.293 277.132 196.418 275.752 196.418ZM281.298 198H283.487V192.296C283.487 191.162 284.225 190.336 285.28 190.336C286.299 190.336 286.932 190.986 286.932 192.032V198H289.059V192.243C289.059 191.118 289.78 190.336 290.834 190.336C291.907 190.336 292.504 190.995 292.504 192.146V198H294.693V191.602C294.693 189.738 293.489 188.49 291.652 188.49C290.307 188.49 289.199 189.211 288.751 190.371H288.699C288.356 189.176 287.415 188.49 286.115 188.49C284.884 188.49 283.926 189.158 283.531 190.178H283.487V188.684H281.298V198ZM299.554 198H301.821V193.808H304.44C307.007 193.808 308.756 192.103 308.756 189.571V189.554C308.756 187.014 307.007 185.317 304.44 185.317H299.554V198ZM303.878 187.172C305.504 187.172 306.453 188.042 306.453 189.562V189.58C306.453 191.101 305.504 191.979 303.878 191.979H301.821V187.172H303.878ZM313.581 198.185C316.016 198.185 317.387 196.743 317.677 195.311L317.703 195.214H315.656L315.638 195.275C315.427 195.899 314.715 196.479 313.625 196.479C312.202 196.479 311.305 195.513 311.27 193.878H317.791V193.175C317.791 190.362 316.139 188.49 313.476 188.49C310.813 188.49 309.099 190.424 309.099 193.359V193.368C309.099 196.33 310.786 198.185 313.581 198.185ZM313.502 190.204C314.662 190.204 315.506 190.942 315.664 192.419H311.296C311.472 190.986 312.342 190.204 313.502 190.204ZM322.968 198.185C325.702 198.185 327.477 196.365 327.477 193.342V193.324C327.477 190.318 325.676 188.49 322.96 188.49C320.253 188.49 318.46 190.336 318.46 193.324V193.342C318.46 196.356 320.226 198.185 322.968 198.185ZM322.977 196.418C321.58 196.418 320.692 195.302 320.692 193.342V193.324C320.692 191.391 321.597 190.266 322.96 190.266C324.348 190.266 325.245 191.382 325.245 193.324V193.342C325.245 195.293 324.357 196.418 322.977 196.418ZM328.524 201.076H330.712V196.427H330.756C331.283 197.517 332.347 198.185 333.674 198.185C336.012 198.185 337.506 196.339 337.506 193.351V193.342C337.506 190.336 336.012 188.49 333.648 188.49C332.312 188.49 331.292 189.176 330.756 190.292H330.712V188.684H328.524V201.076ZM332.997 196.339C331.644 196.339 330.694 195.17 330.694 193.351V193.342C330.694 191.514 331.644 190.336 332.997 190.336C334.395 190.336 335.274 191.479 335.274 193.342V193.351C335.274 195.188 334.395 196.339 332.997 196.339ZM338.614 198H340.802V185.317H338.614V198ZM346.401 198.185C348.836 198.185 350.207 196.743 350.497 195.311L350.523 195.214H348.475L348.458 195.275C348.247 195.899 347.535 196.479 346.445 196.479C345.021 196.479 344.125 195.513 344.09 193.878H350.611V193.175C350.611 190.362 348.959 188.49 346.296 188.49C343.633 188.49 341.919 190.424 341.919 193.359V193.368C341.919 196.33 343.606 198.185 346.401 198.185ZM346.322 190.204C347.482 190.204 348.326 190.942 348.484 192.419H344.116C344.292 190.986 345.162 190.204 346.322 190.204Z" fill="#333333"/>
<path d="M259.25 156H261.438L263.996 146.903H264.048L266.606 156H268.794L272.196 143.317H269.84L267.634 152.889H267.59L265.05 143.317H262.994L260.454 152.889H260.41L258.204 143.317H255.848L259.25 156ZM274.27 145.348C274.956 145.348 275.483 144.803 275.483 144.152C275.483 143.484 274.956 142.948 274.27 142.948C273.585 142.948 273.049 143.484 273.049 144.152C273.049 144.803 273.585 145.348 274.27 145.348ZM273.172 156H275.36V146.684H273.172V156ZM280.326 156.185C280.766 156.185 281.153 156.141 281.407 156.105V154.462C281.258 154.471 281.091 154.497 280.88 154.497C280.08 154.497 279.676 154.207 279.676 153.293V148.371H281.407V146.684H279.676V144.319H277.452V146.684H276.134V148.371H277.452V153.478C277.452 155.394 278.375 156.185 280.326 156.185ZM282.612 156H284.8V150.63C284.8 149.276 285.609 148.336 286.848 148.336C288.105 148.336 288.826 149.197 288.826 150.63V156H291.014V150.199C291.014 147.949 289.731 146.49 287.727 146.49C286.33 146.49 285.337 147.132 284.853 148.248H284.8V143.317H282.612V156ZM296.543 156.185C299.276 156.185 301.052 154.365 301.052 151.342V151.324C301.052 148.318 299.25 146.49 296.534 146.49C293.827 146.49 292.034 148.336 292.034 151.324V151.342C292.034 154.356 293.801 156.185 296.543 156.185ZM296.552 154.418C295.154 154.418 294.267 153.302 294.267 151.342V151.324C294.267 149.391 295.172 148.266 296.534 148.266C297.923 148.266 298.819 149.382 298.819 151.324V151.342C298.819 153.293 297.932 154.418 296.552 154.418ZM305.271 156.185C306.677 156.185 307.635 155.534 308.118 154.541H308.162V156H310.351V146.684H308.162V152.08C308.162 153.434 307.363 154.339 306.106 154.339C304.858 154.339 304.243 153.592 304.243 152.273V146.684H302.054V152.704C302.054 154.866 303.223 156.185 305.271 156.185ZM315.256 156.185C315.695 156.185 316.082 156.141 316.337 156.105V154.462C316.187 154.471 316.02 154.497 315.809 154.497C315.009 154.497 314.605 154.207 314.605 153.293V148.371H316.337V146.684H314.605V144.319H312.382V146.684H311.063V148.371H312.382V153.478C312.382 155.394 313.304 156.185 315.256 156.185ZM325.399 156.22C328.493 156.22 330.356 154.717 330.356 152.353V152.344C330.356 150.366 329.204 149.294 326.568 148.749L325.197 148.468C323.667 148.151 322.973 147.624 322.973 146.728V146.719C322.973 145.708 323.896 145.014 325.381 145.005C326.805 145.005 327.781 145.664 327.93 146.771L327.948 146.877H330.119L330.11 146.728C329.978 144.557 328.167 143.098 325.399 143.098C322.665 143.098 320.705 144.609 320.697 146.842V146.851C320.697 148.74 321.927 149.9 324.423 150.419L325.786 150.7C327.42 151.043 328.079 151.553 328.079 152.502V152.511C328.079 153.601 327.078 154.312 325.478 154.312C323.887 154.312 322.771 153.636 322.604 152.546L322.586 152.44H320.415L320.424 152.572C320.574 154.849 322.49 156.22 325.399 156.22ZM334.935 156.185C335.375 156.185 335.761 156.141 336.016 156.105V154.462C335.867 154.471 335.7 154.497 335.489 154.497C334.689 154.497 334.285 154.207 334.285 153.293V148.371H336.016V146.684H334.285V144.319H332.061V146.684H330.743V148.371H332.061V153.478C332.061 155.394 332.984 156.185 334.935 156.185ZM339.787 156.158C341.018 156.158 342.055 155.543 342.591 154.567H342.644V156H344.832V149.593C344.832 147.721 343.329 146.49 341 146.49C338.636 146.49 337.203 147.729 337.071 149.382L337.063 149.487H339.093L339.11 149.408C339.251 148.723 339.884 148.239 340.921 148.239C342.028 148.239 342.644 148.811 342.644 149.751V150.393L340.209 150.542C337.95 150.683 336.667 151.676 336.667 153.328V153.346C336.667 155.007 337.924 156.158 339.787 156.158ZM338.847 153.258V153.249C338.847 152.511 339.436 152.045 340.517 151.975L342.644 151.843V152.546C342.644 153.653 341.694 154.488 340.438 154.488C339.48 154.488 338.847 154.022 338.847 153.258ZM346.239 156H348.427V150.542C348.427 149.232 349.174 148.433 350.414 148.433C350.783 148.433 351.117 148.485 351.301 148.556V146.578C351.134 146.534 350.879 146.49 350.607 146.49C349.508 146.49 348.691 147.149 348.41 148.239H348.366V146.684H346.239V156Z" fill="#333333"/>
<path d="M263.094 113.22C266.803 113.22 269.106 110.697 269.106 106.663V106.646C269.106 102.62 266.794 100.098 263.094 100.098C259.403 100.098 257.073 102.62 257.073 106.646V106.663C257.073 110.697 259.385 113.22 263.094 113.22ZM263.094 111.251C260.826 111.251 259.385 109.484 259.385 106.663V106.646C259.385 103.824 260.835 102.066 263.094 102.066C265.362 102.066 266.803 103.833 266.803 106.646V106.663C266.803 109.458 265.388 111.251 263.094 111.251ZM270.336 113H272.525V107.595C272.525 106.25 273.325 105.336 274.582 105.336C275.83 105.336 276.445 106.083 276.445 107.41V113H278.633V106.971C278.633 104.809 277.464 103.49 275.417 103.49C274.002 103.49 273.052 104.141 272.569 105.143H272.525V103.684H270.336V113ZM280.093 113H282.281V100.317H280.093V113ZM285.033 116.094C286.975 116.094 288.065 115.364 288.777 113.316L292.125 103.684H289.823L287.634 111.137H287.573L285.393 103.684H283.002L286.351 113.009L286.219 113.387C285.938 114.169 285.472 114.406 284.637 114.406C284.329 114.406 284.074 114.362 283.908 114.327V115.997C284.171 116.041 284.611 116.094 285.033 116.094ZM301.46 113.22C304.686 113.22 306.663 111.33 306.663 108.526V100.317H304.404V108.342C304.404 110.1 303.341 111.251 301.46 111.251C299.579 111.251 298.507 110.1 298.507 108.342V100.317H296.239V108.526C296.239 111.33 298.243 113.22 301.46 113.22ZM308.333 113H310.522V107.595C310.522 106.25 311.322 105.336 312.578 105.336C313.827 105.336 314.442 106.083 314.442 107.41V113H316.63V106.971C316.63 104.809 315.461 103.49 313.413 103.49C311.998 103.49 311.049 104.141 310.566 105.143H310.522V103.684H308.333V113ZM318.028 113H320.217V107.542C320.217 106.232 320.964 105.433 322.203 105.433C322.572 105.433 322.906 105.485 323.091 105.556V103.578C322.924 103.534 322.669 103.49 322.396 103.49C321.298 103.49 320.48 104.149 320.199 105.239H320.155V103.684H318.028V113ZM327.6 113.185C330.034 113.185 331.405 111.743 331.695 110.311L331.722 110.214H329.674L329.656 110.275C329.445 110.899 328.733 111.479 327.644 111.479C326.22 111.479 325.323 110.513 325.288 108.878H331.81V108.175C331.81 105.362 330.157 103.49 327.494 103.49C324.831 103.49 323.117 105.424 323.117 108.359V108.368C323.117 111.33 324.805 113.185 327.6 113.185ZM327.521 105.204C328.681 105.204 329.524 105.942 329.683 107.419H325.315C325.49 105.986 326.36 105.204 327.521 105.204ZM335.616 113.158C336.846 113.158 337.883 112.543 338.419 111.567H338.472V113H340.661V106.593C340.661 104.721 339.158 103.49 336.829 103.49C334.464 103.49 333.032 104.729 332.9 106.382L332.891 106.487H334.921L334.939 106.408C335.08 105.723 335.712 105.239 336.749 105.239C337.857 105.239 338.472 105.811 338.472 106.751V107.393L336.038 107.542C333.779 107.683 332.496 108.676 332.496 110.328V110.346C332.496 112.007 333.752 113.158 335.616 113.158ZM334.675 110.258V110.249C334.675 109.511 335.264 109.045 336.345 108.975L338.472 108.843V109.546C338.472 110.653 337.523 111.488 336.266 111.488C335.308 111.488 334.675 111.022 334.675 110.258ZM345.53 113.185C346.875 113.185 347.903 112.517 348.43 111.418H348.483V113H350.672V100.317H348.483V105.283H348.43C347.903 104.167 346.84 103.49 345.521 103.49C343.183 103.49 341.68 105.327 341.68 108.333V108.342C341.68 111.339 343.175 113.185 345.53 113.185ZM346.189 111.339C344.783 111.339 343.913 110.196 343.913 108.342V108.333C343.913 106.479 344.792 105.336 346.189 105.336C347.534 105.336 348.483 106.514 348.483 108.333V108.342C348.483 110.17 347.543 111.339 346.189 111.339Z" fill="#333333"/>
<path d="M264.931 71.2197C268.639 71.2197 270.942 68.6973 270.942 64.6631V64.6455C270.942 60.6201 268.631 58.0977 264.931 58.0977C261.239 58.0977 258.91 60.6201 258.91 64.6455V64.6631C258.91 68.6973 261.222 71.2197 264.931 71.2197ZM264.931 69.251C262.663 69.251 261.222 67.4844 261.222 64.6631V64.6455C261.222 61.8242 262.672 60.0664 264.931 60.0664C267.198 60.0664 268.639 61.833 268.639 64.6455V64.6631C268.639 67.458 267.224 69.251 264.931 69.251ZM272.235 71H274.423V58.3174H272.235V71ZM279.389 71.1846C280.734 71.1846 281.762 70.5166 282.29 69.418H282.342V71H284.531V58.3174H282.342V63.2832H282.29C281.762 62.167 280.699 61.4902 279.38 61.4902C277.043 61.4902 275.54 63.3271 275.54 66.333V66.3418C275.54 69.3389 277.034 71.1846 279.389 71.1846ZM280.048 69.3389C278.642 69.3389 277.772 68.1963 277.772 66.3418V66.333C277.772 64.4785 278.651 63.3359 280.048 63.3359C281.393 63.3359 282.342 64.5137 282.342 66.333V66.3418C282.342 68.1699 281.402 69.3389 280.048 69.3389ZM290.103 71.1846C292.538 71.1846 293.909 69.7432 294.199 68.3105L294.226 68.2139H292.178L292.16 68.2754C291.949 68.8994 291.237 69.4795 290.147 69.4795C288.724 69.4795 287.827 68.5127 287.792 66.8779H294.313V66.1748C294.313 63.3623 292.661 61.4902 289.998 61.4902C287.335 61.4902 285.621 63.4238 285.621 66.3594V66.3682C285.621 69.3301 287.309 71.1846 290.103 71.1846ZM290.024 63.2041C291.184 63.2041 292.028 63.9424 292.186 65.4189H287.818C287.994 63.9863 288.864 63.2041 290.024 63.2041ZM295.368 71H297.557V65.542C297.557 64.2324 298.304 63.4326 299.543 63.4326C299.912 63.4326 300.246 63.4854 300.431 63.5557V61.5781C300.264 61.5342 300.009 61.4902 299.737 61.4902C298.638 61.4902 297.821 62.1494 297.539 63.2393H297.495V61.6836H295.368V71ZM307.902 71.1846C308.342 71.1846 308.729 71.1406 308.983 71.1055V69.4619C308.834 69.4707 308.667 69.4971 308.456 69.4971C307.656 69.4971 307.252 69.207 307.252 68.293V63.3711H308.983V61.6836H307.252V59.3193H305.028V61.6836H303.71V63.3711H305.028V68.4775C305.028 70.3936 305.951 71.1846 307.902 71.1846ZM310.188 71H312.376V65.6299C312.376 64.2764 313.185 63.3359 314.424 63.3359C315.681 63.3359 316.402 64.1973 316.402 65.6299V71H318.59V65.1992C318.59 62.9492 317.307 61.4902 315.303 61.4902C313.906 61.4902 312.912 62.1318 312.429 63.248H312.376V58.3174H310.188V71ZM322.748 71.1582C323.978 71.1582 325.015 70.543 325.551 69.5674H325.604V71H327.793V64.5928C327.793 62.7207 326.29 61.4902 323.961 61.4902C321.596 61.4902 320.164 62.7295 320.032 64.3818L320.023 64.4873H322.053L322.071 64.4082C322.212 63.7227 322.844 63.2393 323.882 63.2393C324.989 63.2393 325.604 63.8105 325.604 64.751V65.3926L323.17 65.542C320.911 65.6826 319.628 66.6758 319.628 68.3281V68.3457C319.628 70.0068 320.884 71.1582 322.748 71.1582ZM321.807 68.2578V68.249C321.807 67.5107 322.396 67.0449 323.477 66.9746L325.604 66.8428V67.5459C325.604 68.6533 324.655 69.4883 323.398 69.4883C322.44 69.4883 321.807 69.0225 321.807 68.2578ZM329.199 71H331.388V65.5947C331.388 64.25 332.188 63.3359 333.444 63.3359C334.692 63.3359 335.308 64.083 335.308 65.4102V71H337.496V64.9707C337.496 62.8086 336.327 61.4902 334.279 61.4902C332.864 61.4902 331.915 62.1406 331.432 63.1426H331.388V61.6836H329.199V71ZM340.081 71.1406C340.792 71.1406 341.346 70.5781 341.346 69.8662C341.346 69.1631 340.792 68.6006 340.081 68.6006C339.369 68.6006 338.806 69.1631 338.806 69.8662C338.806 70.5781 339.369 71.1406 340.081 71.1406ZM343.887 71.1406C344.598 71.1406 345.152 70.5781 345.152 69.8662C345.152 69.1631 344.598 68.6006 343.887 68.6006C343.175 68.6006 342.612 69.1631 342.612 69.8662C342.612 70.5781 343.175 71.1406 343.887 71.1406ZM347.693 71.1406C348.404 71.1406 348.958 70.5781 348.958 69.8662C348.958 69.1631 348.404 68.6006 347.693 68.6006C346.981 68.6006 346.418 69.1631 346.418 69.8662C346.418 70.5781 346.981 71.1406 347.693 71.1406Z" fill="#333333"/>
<rect x="221" y="86" width="166" height="1" fill="#F2F2F2"/>
<rect x="221" y="129" width="166" height="1" fill="#F2F2F2"/>
<rect x="221" y="171" width="166" height="1" fill="#F2F2F2"/>
</g>
<defs>
<filter id="filter0_d" x="196" y="25" width="216" height="220" filterUnits="userSpaceOnUse" color-interpolation-filters="sRGB">
<feFlood flood-opacity="0" result="BackgroundImageFix"/>
<feColorMatrix in="SourceAlpha" type="matrix" values="0 0 0 0 0 0 0 0 0 0 0 0 0 0 0 0 0 0 127 0"/>
<feOffset dy="6"/>
<feGaussianBlur stdDeviation="12.5"/>
<feColorMatrix type="matrix" values="0 0 0 0 0 0 0 0 0 0 0 0 0 0 0 0 0 0 0.15 0"/>
<feBlend mode="normal" in2="BackgroundImageFix" result="effect1_dropShadow"/>
<feBlend mode="normal" in="SourceGraphic" in2="effect1_dropShadow" result="shape"/>
</filter>
<clipPath id="clip0">
<rect width="480" height="240" fill="white"/>
</clipPath>
<clipPath id="clip1">
<rect width="190" height="240" fill="white" transform="translate(93)"/>
</clipPath>
</defs>
</svg>
