<svg width="16" height="16" viewBox="0 0 16 16" fill="none" xmlns="http://www.w3.org/2000/svg">
<circle cx="8" cy="8" r="7.55" stroke="#272727" stroke-width="0.9"/>
<path d="M11.9136 8C11.9136 10.1487 11.4376 12.0717 10.6905 13.4414C9.9341 14.8281 8.96311 15.55 8 15.55C7.03688 15.55 6.06589 14.8281 5.30949 13.4414C4.56238 12.0717 4.08636 10.1487 4.08636 8C4.08636 5.85132 4.56238 3.92834 5.30949 2.55863C6.06589 1.1719 7.03688 0.45 8 0.45C8.96311 0.45 9.9341 1.1719 10.6905 2.55863C11.4376 3.92834 11.9136 5.85132 11.9136 8Z" stroke="#272727" stroke-width="0.9"/>
<rect x="0.727272" y="5.09094" width="14.5455" height="0.9" fill="#272727"/>
<rect x="0.727272" y="10.1818" width="14.5455" height="0.9" fill="#272727"/>
</svg>
