<svg width="480" height="260" viewBox="0 0 480 260" fill="none" xmlns="http://www.w3.org/2000/svg">
<g clip-path="url(#clip0)">
<rect width="480" height="260" fill="white"/>
<path d="M274.422 52.1859C274.422 49.3567 272.127 47.0632 269.296 47.0632H111.712C108.881 47.0632 106.586 49.3567 106.586 52.1859V129.34C106.586 132.169 108.881 134.463 111.712 134.463H269.296C272.127 134.463 274.422 132.169 274.422 129.34V52.1859Z" fill="white"/>
<path fill-rule="evenodd" clip-rule="evenodd" d="M111.712 48.1148H269.296C271.546 48.1148 273.37 49.9375 273.37 52.1859V129.34C273.37 131.589 271.546 133.411 269.296 133.411H111.712C109.462 133.411 107.638 131.589 107.638 129.34V52.1859C107.638 49.9375 109.462 48.1148 111.712 48.1148ZM269.296 47.0632C272.127 47.0632 274.422 49.3567 274.422 52.1859V129.34C274.422 132.169 272.127 134.463 269.296 134.463H111.712C108.881 134.463 106.586 132.169 106.586 129.34V52.1859C106.586 49.3567 108.881 47.0632 111.712 47.0632H269.296Z" fill="#E0E0E0"/>
<path d="M285.472 45.8678C285.472 43.0386 283.177 40.7451 280.346 40.7451H100.664C97.8327 40.7451 95.5376 43.0386 95.5376 45.8678V123.022C95.5376 125.851 97.8327 128.145 100.664 128.145H280.346C283.177 128.145 285.472 125.851 285.472 123.022V45.8678Z" fill="white"/>
<path fill-rule="evenodd" clip-rule="evenodd" d="M100.664 41.7967H280.346C282.596 41.7967 284.42 43.6194 284.42 45.8678V123.022C284.42 125.27 282.596 127.093 280.346 127.093H100.664C98.4138 127.093 96.5899 125.27 96.5899 123.022V45.8678C96.5899 43.6194 98.4138 41.7967 100.664 41.7967ZM280.346 40.7451C283.177 40.7451 285.472 43.0386 285.472 45.8678V123.022C285.472 125.851 283.177 128.145 280.346 128.145H100.664C97.8327 128.145 95.5376 125.851 95.5376 123.022V45.8678C95.5376 43.0386 97.8327 40.7451 100.664 40.7451H280.346Z" fill="#E0E0E0"/>
<g filter="url(#filter0_d)">
<path d="M298 21.1365C298 18.2997 295.631 16 292.709 16H95.2912C92.369 16 90 18.2997 90 21.1365V114.864C90 117.7 92.369 120 95.2912 120H292.709C295.631 120 298 117.7 298 114.864V21.1365Z" fill="white"/>
</g>
<path d="M124.417 38.7177H126.017V31H124.411L122.415 32.3852V33.8186L124.385 32.4815H124.417V38.7177Z" fill="#333333"/>
<path d="M131.385 36.2628V34.899H127.869V36.2628H131.385Z" fill="#333333"/>
<path d="M135.565 38.8888C137.336 38.8888 138.551 37.7817 138.551 36.1505C138.551 34.6797 137.497 33.6207 136.025 33.6207C135.244 33.6207 134.607 33.9363 134.286 34.455H134.254L134.441 32.2836H138.086V31H133.156L132.803 35.5301H134.211C134.473 35.0648 134.955 34.776 135.576 34.776C136.421 34.776 137.01 35.3589 137.01 36.1879C137.01 37.0276 136.421 37.6106 135.57 37.6106C134.826 37.6106 134.254 37.172 134.163 36.5035H132.669C132.712 37.9047 133.911 38.8888 135.565 38.8888Z" fill="#333333"/>
<path d="M141.586 38.7177H143.148V35.2573C143.148 34.6155 143.55 34.1662 144.144 34.1662C144.722 34.1662 145.07 34.5299 145.07 35.145V38.7177H146.574V35.2359C146.574 34.5995 146.964 34.1662 147.558 34.1662C148.163 34.1662 148.495 34.5299 148.495 35.1931V38.7177H150.058V34.8027C150.058 33.6474 149.303 32.8773 148.179 32.8773C147.339 32.8773 146.654 33.3319 146.397 34.0539H146.365C146.172 33.3051 145.594 32.8773 144.765 32.8773C143.983 32.8773 143.368 33.3319 143.127 34.0218H143.095V32.9842H141.586V38.7177Z" fill="#333333"/>
<path d="M153.622 34.0165C154.318 34.0165 154.794 34.5192 154.826 35.252H152.391C152.445 34.5353 152.937 34.0165 153.622 34.0165ZM154.848 36.9634C154.703 37.402 154.264 37.6855 153.692 37.6855C152.894 37.6855 152.375 37.1239 152.375 36.3056V36.2093H156.33V35.7333C156.33 33.9897 155.276 32.8612 153.606 32.8612C151.91 32.8612 150.839 34.0486 150.839 35.8777C150.839 37.7122 151.899 38.8407 153.665 38.8407C155.083 38.8407 156.111 38.0866 156.282 36.9634H154.848Z" fill="#333333"/>
<path d="M159.788 37.4983C159.012 37.4983 158.53 36.8886 158.53 35.8403C158.53 34.7973 159.017 34.1448 159.788 34.1448C160.569 34.1448 161.067 34.808 161.067 35.8403C161.067 36.8779 160.569 37.4983 159.788 37.4983ZM159.761 40.8784C161.479 40.8784 162.624 40.0067 162.624 38.6375V32.9842H161.083V33.9844H161.056C160.756 33.3265 160.109 32.8933 159.285 32.8933C157.829 32.8933 156.93 34.0111 156.93 35.8296C156.93 37.6213 157.856 38.7017 159.258 38.7017C160.087 38.7017 160.762 38.2845 161.029 37.6748H161.061V38.6803C161.061 39.3435 160.612 39.7927 159.804 39.7927C159.21 39.7927 158.76 39.52 158.637 39.1242H157.106C157.229 40.1457 158.252 40.8784 159.761 40.8784Z" fill="#333333"/>
<path d="M165.862 37.6801C165.332 37.6801 164.979 37.4127 164.979 36.9848C164.979 36.5784 165.311 36.3163 165.894 36.2735L167.104 36.1986V36.6158C167.104 37.2362 166.542 37.6801 165.862 37.6801ZM165.348 38.8086C166.065 38.8086 166.777 38.4503 167.098 37.8406H167.13V38.7177H168.64V34.776C168.64 33.6207 167.682 32.8612 166.21 32.8612C164.69 32.8612 163.743 33.6261 163.684 34.7385H165.113C165.188 34.316 165.557 34.0272 166.14 34.0272C166.729 34.0272 167.104 34.3374 167.104 34.8722V35.252L165.659 35.3375C164.23 35.4231 163.427 36.0275 163.427 37.0704C163.427 38.1026 164.257 38.8086 165.348 38.8086Z" fill="#333333"/>
<path d="M173.06 38.8086C174.505 38.8086 175.389 37.6962 175.389 35.851C175.389 34.0004 174.5 32.8933 173.055 32.8933C172.236 32.8933 171.599 33.2998 171.284 33.979H171.251V31H169.689V38.7177H171.23V37.7336H171.262C171.578 38.4021 172.22 38.8086 173.06 38.8086ZM172.52 34.1448C173.296 34.1448 173.788 34.808 173.788 35.851C173.788 36.8993 173.301 37.5518 172.52 37.5518C171.76 37.5518 171.246 36.8886 171.246 35.851C171.246 34.8241 171.765 34.1448 172.52 34.1448Z" fill="#333333"/>
<path d="M176.801 40.841C178.262 40.841 178.985 40.3169 179.472 38.8461L181.447 32.9842H179.798L178.584 37.4662H178.551L177.331 32.9842H175.619L177.615 38.723C177.62 38.7444 177.561 38.9744 177.561 38.9958C177.454 39.4504 177.171 39.6323 176.603 39.6323C176.545 39.6323 176.261 39.6323 176.207 39.6216V40.825C176.261 40.8357 176.743 40.841 176.801 40.841Z" fill="#333333"/>
<path d="M182.442 31.6632V32.9842H181.634V34.1609H182.442V37.172C182.442 38.2898 182.967 38.7391 184.316 38.7391C184.631 38.7391 184.899 38.7124 185.059 38.6749V37.525C184.963 37.5411 184.819 37.5518 184.679 37.5518C184.219 37.5518 184.005 37.3432 184.005 36.9046V34.1609H185.065V32.9842H184.005V31.6632H182.442Z" fill="#333333"/>
<path d="M188.41 34.0165C189.105 34.0165 189.582 34.5192 189.614 35.252H187.179C187.232 34.5353 187.725 34.0165 188.41 34.0165ZM189.635 36.9634C189.491 37.402 189.052 37.6855 188.479 37.6855C187.682 37.6855 187.163 37.1239 187.163 36.3056V36.2093H191.118V35.7333C191.118 33.9897 190.063 32.8612 188.394 32.8612C186.697 32.8612 185.627 34.0486 185.627 35.8777C185.627 37.7122 186.686 38.8407 188.453 38.8407C189.871 38.8407 190.898 38.0866 191.07 36.9634H189.635Z" fill="#333333"/>
<path d="M191.83 34.669C191.83 35.5301 192.392 36.0863 193.499 36.3216L194.479 36.5249C195.041 36.6532 195.239 36.8244 195.239 37.1292C195.239 37.5036 194.875 37.7443 194.286 37.7443C193.665 37.7443 193.307 37.4769 193.21 36.9741H191.685C191.787 38.1026 192.702 38.8407 194.286 38.8407C195.763 38.8407 196.796 38.0973 196.796 36.9688C196.796 36.1291 196.304 35.6584 195.105 35.4071L194.126 35.1985C193.548 35.0755 193.334 34.8776 193.334 34.5834C193.334 34.2037 193.692 33.9576 194.233 33.9576C194.811 33.9576 195.159 34.2732 195.207 34.7385H196.646C196.614 33.6154 195.704 32.8612 194.233 32.8612C192.772 32.8612 191.83 33.5779 191.83 34.669Z" fill="#333333"/>
<path d="M103 32.081C103 30.3794 104.381 29 106.085 29H113.915C115.619 29 117 30.3794 117 32.081V39.919C117 41.6206 115.619 43 113.915 43H106.085C104.381 43 103 41.6206 103 39.919V32.081Z" fill="#5373E5"/>
<path fill-rule="evenodd" clip-rule="evenodd" d="M113.804 33.1962C114.065 33.458 114.065 33.8828 113.805 34.145L110.169 37.8032C109.934 38.0397 109.562 38.0663 109.296 37.8656L106.267 35.5792C105.972 35.3567 105.912 34.9361 106.134 34.6398C106.355 34.3436 106.774 34.2838 107.069 34.5063L109.634 36.4428L112.86 33.1968C113.121 32.9346 113.543 32.9344 113.804 33.1962Z" fill="white"/>
<path d="M237.688 35.217C237.688 37.3978 235.922 39.1657 233.742 39.1657C231.563 39.1657 229.796 37.3978 229.796 35.217C229.796 33.0361 231.563 31.2682 233.742 31.2682C235.922 31.2682 237.688 33.0361 237.688 35.217Z" fill="#69B6F3"/>
<path d="M240.451 35.2912C240.451 32.097 243.042 29.4996 246.238 29.4996H272.545C275.741 29.4996 278.332 32.097 278.332 35.2912C278.332 38.4854 275.741 41.0827 272.545 41.0827H246.238C243.042 41.0827 240.451 38.4854 240.451 35.2912Z" fill="#E0E0E0"/>
<path d="M247.486 37.5724C248.536 37.5724 249.261 36.9928 249.261 36.1661V36.1595C249.261 35.5008 248.796 35.0859 248.095 35.02V35.0035C248.665 34.885 249.093 34.493 249.093 33.9035V33.8969C249.093 33.1592 248.457 32.6553 247.476 32.6553C246.517 32.6553 245.868 33.1888 245.799 33.9924L245.796 34.0319H246.586L246.59 33.999C246.633 33.5906 246.975 33.3304 247.476 33.3304C247.986 33.3304 248.276 33.5807 248.276 34.0089V34.0155C248.276 34.4305 247.927 34.7269 247.403 34.7269H246.86V35.3592H247.423C248.029 35.3592 248.398 35.6359 248.398 36.1365V36.1431C248.398 36.5745 248.032 36.8775 247.482 36.8775C246.926 36.8775 246.557 36.5976 246.511 36.2122L246.507 36.176H245.694L245.697 36.2155C245.763 37.0126 246.442 37.5724 247.486 37.5724ZM251.131 37.4901H251.965V32.7376H251.125L249.883 33.6104V34.3909L251.112 33.5478H251.131V37.4901ZM255.95 37.5593C256.862 37.5593 257.376 37.0191 257.485 36.4823L257.494 36.4461H256.727L256.721 36.4691C256.641 36.703 256.375 36.9203 255.966 36.9203C255.433 36.9203 255.097 36.5581 255.084 35.9455H257.527V35.682C257.527 34.6281 256.908 33.9266 255.91 33.9266C254.912 33.9266 254.27 34.6511 254.27 35.7511V35.7544C254.27 36.8643 254.903 37.5593 255.95 37.5593ZM255.92 34.5688C256.355 34.5688 256.671 34.8454 256.73 35.3987H255.094C255.159 34.8619 255.485 34.5688 255.92 34.5688ZM258.058 37.4901H258.878V35.3526C258.878 34.9278 259.154 34.6182 259.55 34.6182C259.932 34.6182 260.169 34.8619 260.169 35.2538V37.4901H260.966V35.3329C260.966 34.9113 261.236 34.6182 261.631 34.6182C262.033 34.6182 262.257 34.8652 262.257 35.2966V37.4901H263.077V35.0924C263.077 34.3942 262.626 33.9266 261.937 33.9266C261.434 33.9266 261.019 34.1966 260.851 34.6314H260.831C260.702 34.1834 260.35 33.9266 259.863 33.9266C259.401 33.9266 259.042 34.1769 258.894 34.5589H258.878V33.999H258.058V37.4901ZM264.767 37.5494C265.228 37.5494 265.616 37.3189 265.817 36.9533H265.837V37.4901H266.657V35.0892C266.657 34.3876 266.094 33.9266 265.221 33.9266C264.335 33.9266 263.798 34.3909 263.749 35.0101L263.746 35.0496H264.506L264.513 35.02C264.566 34.7631 264.803 34.582 265.191 34.582C265.606 34.582 265.837 34.796 265.837 35.1484V35.3889L264.925 35.4449C264.078 35.4975 263.597 35.8697 263.597 36.4889V36.4955C263.597 37.1179 264.068 37.5494 264.767 37.5494ZM264.414 36.4625V36.4592C264.414 36.1826 264.635 36.008 265.04 35.9817L265.837 35.9323V36.1958C265.837 36.6107 265.481 36.9236 265.01 36.9236C264.651 36.9236 264.414 36.7491 264.414 36.4625ZM267.754 33.4984C268.011 33.4984 268.208 33.2942 268.208 33.0505C268.208 32.8002 268.011 32.5993 267.754 32.5993C267.497 32.5993 267.296 32.8002 267.296 33.0505C267.296 33.2942 267.497 33.4984 267.754 33.4984ZM267.342 37.4901H268.162V33.999H267.342V37.4901ZM268.883 37.4901H269.703V32.7376H268.883V37.4901ZM271.765 37.5593C272.622 37.5593 273.231 37.1179 273.231 36.4592V36.456C273.231 35.9488 272.951 35.6655 272.23 35.5041L271.647 35.3757C271.284 35.2934 271.149 35.1616 271.149 34.9607V34.9574C271.149 34.7005 271.377 34.5326 271.739 34.5326C272.121 34.5326 272.345 34.7368 272.381 35.0167L272.384 35.043H273.148L273.145 35.0068C273.116 34.4041 272.608 33.9266 271.739 33.9266C270.896 33.9266 270.339 34.358 270.339 34.9969V35.0002C270.339 35.5173 270.675 35.8434 271.344 35.9916L271.923 36.12C272.286 36.2024 272.407 36.3209 272.407 36.5317V36.535C272.407 36.7919 272.167 36.9533 271.768 36.9533C271.354 36.9533 271.126 36.7754 271.064 36.4757L271.057 36.4461H270.25L270.253 36.4757C270.326 37.1245 270.85 37.5593 271.765 37.5593Z" fill="#4F4F4F"/>
<path d="M279 59.3011C279 57.478 277.44 56 275.516 56H106.484C104.56 56 103 57.478 103 59.3011V60.6989C103 62.522 104.56 64 106.484 64H275.516C277.44 64 279 62.522 279 60.6989V59.3011Z" fill="#F2F2F2"/>
<path d="M278.631 72.6531C278.631 70.7333 277.074 69.177 275.153 69.177H106.381C104.46 69.177 102.903 70.7333 102.903 72.6531V74.125C102.903 76.0448 104.46 77.6011 106.381 77.6011H275.153C277.074 77.6011 278.631 76.0448 278.631 74.125V72.6531Z" fill="#F2F2F2"/>
<path d="M278.631 87.3943C278.631 85.4745 277.074 83.9182 275.153 83.9182H106.381C104.46 83.9182 102.903 85.4745 102.903 87.3943V88.8662C102.903 90.786 104.46 92.3423 106.381 92.3423H275.153C277.074 92.3423 278.631 90.786 278.631 88.8662V87.3943Z" fill="#F2F2F2"/>
<path d="M278.631 102.137C278.631 100.218 277.074 98.6614 275.153 98.6614H106.381C104.46 98.6614 102.903 100.218 102.903 102.137V103.609C102.903 105.529 104.46 107.085 106.381 107.085H275.153C277.074 107.085 278.631 105.529 278.631 103.609V102.137Z" fill="#F2F2F2"/>
<path d="M208 60.7946C208 66.9832 212.869 72 218.875 72H429.125C435.131 72 440 66.9832 440 60.7946V11.2054C440 5.01684 435.131 0 429.125 0H218.875C212.869 0 208 5.01685 208 11.2054V60.7946Z" fill="#5373E3"/>
<path d="M229.669 49.9014V42.8871H232.298V42H226V42.8871H228.629V49.9014H229.669Z" fill="white"/>
<path d="M231.911 49.9014H232.916V46.3532C232.916 45.5483 233.424 45.0171 234.204 45.0171C234.447 45.0171 234.661 45.0445 234.742 45.0719V44.1465C234.661 44.1355 234.511 44.1081 234.337 44.1081C233.632 44.1081 233.078 44.5079 232.881 45.1376H232.858V44.2067H231.911V49.9014Z" fill="white"/>
<path d="M237.428 49.1896C236.706 49.1896 236.227 48.8337 236.227 48.2916C236.227 47.755 236.689 47.4155 237.498 47.3662L239.104 47.2731V47.7385C239.104 48.5599 238.376 49.1896 237.428 49.1896ZM237.203 50C238.012 50 238.775 49.5729 239.133 48.9213H239.156V49.9014H240.109V45.9644C240.109 44.8309 239.22 44.1081 237.81 44.1081C236.388 44.1081 235.499 44.8638 235.429 45.8494H236.4C236.527 45.2909 237.012 44.9459 237.787 44.9459C238.619 44.9459 239.104 45.3621 239.104 46.0575V46.5339L237.382 46.627C235.996 46.7036 235.204 47.3169 235.204 48.2916C235.204 49.3155 236.007 50 237.203 50Z" fill="white"/>
<path d="M241.282 45.7782C241.282 46.5996 241.831 47.0979 242.964 47.3552L243.917 47.5743C244.604 47.7331 244.841 47.9685 244.841 48.3792C244.841 48.8939 244.339 49.2225 243.524 49.2225C242.709 49.2225 242.247 48.9103 242.126 48.2587H241.12C241.236 49.3265 242.114 50 243.524 50C244.864 50 245.852 49.2991 245.852 48.308C245.852 47.4921 245.413 47.0431 244.2 46.7639L243.247 46.5448C242.576 46.3915 242.27 46.1232 242.27 45.729C242.27 45.2307 242.756 44.8857 243.489 44.8857C244.229 44.8857 244.691 45.2526 244.766 45.8494H245.725C245.685 44.8419 244.807 44.1081 243.489 44.1081C242.189 44.1081 241.282 44.8036 241.282 45.7782Z" fill="white"/>
<path d="M246.95 49.9014H247.956V46.5832C247.956 45.5975 248.574 44.9514 249.573 44.9514C250.515 44.9514 250.995 45.4935 250.995 46.397V49.9014H252V46.2218C252 44.9514 251.203 44.1081 249.885 44.1081C248.972 44.1081 248.314 44.4805 247.979 45.1157H247.956V42H246.95V49.9014Z" fill="white"/>
<g clip-path="url(#clip1)">
<path d="M246.732 19.875H243.25L242.125 18.5625C241.975 18.3878 241.781 18.2461 241.558 18.1485C241.335 18.0508 241.089 18 240.839 18H238.161C237.911 18 237.665 18.0508 237.442 18.1485C237.219 18.2461 237.025 18.3878 236.875 18.5625L235.75 19.875H232.268C232.197 19.875 232.129 19.8997 232.078 19.9436C232.028 19.9876 232 20.0472 232 20.1094V20.5781C232 20.6403 232.028 20.6999 232.078 20.7439C232.129 20.7878 232.197 20.8125 232.268 20.8125H232.901L234.012 31.7197C234.048 32.0694 234.232 32.3947 234.529 32.6316C234.825 32.8685 235.211 32.9999 235.613 33H243.387C243.789 32.9999 244.175 32.8685 244.471 32.6316C244.768 32.3947 244.952 32.0694 244.988 31.7197L246.099 20.8125H246.732C246.803 20.8125 246.871 20.7878 246.922 20.7439C246.972 20.6999 247 20.6403 247 20.5781V20.1094C247 20.0472 246.972 19.9876 246.922 19.9436C246.871 19.8997 246.803 19.875 246.732 19.875ZM237.732 19.125C237.782 19.067 237.847 19.0198 237.921 18.9873C237.996 18.9548 238.078 18.9377 238.161 18.9375H240.839C240.922 18.9377 241.004 18.9548 241.079 18.9873C241.153 19.0198 241.218 19.067 241.268 19.125L241.911 19.875H237.089L237.732 19.125ZM243.92 31.6348C243.909 31.7516 243.848 31.8604 243.749 31.9397C243.65 32.019 243.521 32.0628 243.387 32.0625H235.613C235.479 32.0628 235.35 32.019 235.251 31.9397C235.152 31.8604 235.091 31.7516 235.08 31.6348L233.975 20.8125H245.025L243.92 31.6348Z" fill="white"/>
</g>
<path d="M277.084 49.9801H278.175L275.102 41.6489H274.074L271 49.9801H272.092L272.93 47.5957H276.246L277.084 49.9801ZM274.57 42.9133H274.605L275.94 46.7123H273.236L274.57 42.9133Z" fill="white"/>
<path d="M278.973 49.9801H279.978V46.2389C279.978 45.3902 280.486 44.8301 281.266 44.8301C281.509 44.8301 281.723 44.859 281.804 44.8879V43.9121C281.723 43.9006 281.573 43.8717 281.399 43.8717C280.694 43.8717 280.14 44.2932 279.943 44.9572H279.92V43.9757H278.973V49.9801Z" fill="white"/>
<path d="M287.327 45.9444C287.2 44.8648 286.304 43.8717 284.802 43.8717C283.144 43.8717 282.041 45.0842 282.041 46.9779C282.041 48.912 283.15 50.084 284.814 50.084C286.177 50.084 287.182 49.2411 287.338 48.046H286.35C286.177 48.7677 285.64 49.2007 284.819 49.2007C283.78 49.2007 283.063 48.3751 283.063 46.9779C283.063 45.6153 283.768 44.7551 284.808 44.7551C285.692 44.7551 286.2 45.292 286.345 45.9444H287.327Z" fill="white"/>
<path d="M288.315 49.9801H289.32V46.4814C289.32 45.4421 289.938 44.7609 290.938 44.7609C291.879 44.7609 292.359 45.3324 292.359 46.2851V49.9801H293.364V46.1003C293.364 44.7609 292.567 43.8717 291.25 43.8717C290.337 43.8717 289.678 44.2643 289.343 44.9341H289.32V41.6489H288.315V49.9801Z" fill="white"/>
<path d="M294.693 49.9801H295.698V43.9757H294.693V49.9801ZM295.196 42.9076C295.548 42.9076 295.825 42.6247 295.825 42.2782C295.825 41.9261 295.548 41.6489 295.196 41.6489C294.849 41.6489 294.566 41.9261 294.566 42.2782C294.566 42.6247 294.849 42.9076 295.196 42.9076Z" fill="white"/>
<path d="M301.984 43.9757H300.938L299.274 48.912H299.251L297.593 43.9757H296.536L298.749 49.9801H299.777L301.984 43.9757Z" fill="white"/>
<path d="M305.011 44.7435C305.959 44.7435 306.589 45.4594 306.612 46.464H303.347C303.411 45.4652 304.07 44.7435 305.011 44.7435ZM306.589 48.2596C306.421 48.8254 305.861 49.2122 305.098 49.2122C304.018 49.2122 303.342 48.4559 303.342 47.307V47.2492H307.652V46.8682C307.652 45.0495 306.652 43.8717 305.029 43.8717C303.371 43.8717 302.308 45.1361 302.308 47.001C302.308 48.8889 303.353 50.084 305.075 50.084C306.386 50.084 307.403 49.3104 307.576 48.2596H306.589Z" fill="white"/>
<g clip-path="url(#clip2)">
<path d="M294.594 18.9379H282.406C281.63 18.9379 281 19.5677 281 20.3441V22.2191C281 22.4769 281.211 22.6879 281.469 22.6879H281.938V30.6566C281.938 31.433 282.567 32.0629 283.344 32.0629H293.656C294.433 32.0629 295.062 31.433 295.062 30.6566V22.6879H295.531C295.789 22.6879 296 22.4769 296 22.2191V20.3441C296 19.5677 295.37 18.9379 294.594 18.9379ZM294.125 30.6566C294.125 30.9144 293.914 31.1254 293.656 31.1254H283.344C283.086 31.1254 282.875 30.9144 282.875 30.6566V22.6879H294.125V30.6566ZM295.062 21.7504H281.938V20.3441C281.938 20.0863 282.148 19.8754 282.406 19.8754H294.594C294.852 19.8754 295.062 20.0863 295.062 20.3441V21.7504ZM286.977 25.5004H290.023C290.217 25.5004 290.375 25.3422 290.375 25.1488V24.9144C290.375 24.7211 290.217 24.5629 290.023 24.5629H286.977C286.783 24.5629 286.625 24.7211 286.625 24.9144V25.1488C286.625 25.3422 286.783 25.5004 286.977 25.5004Z" fill="white"/>
</g>
<path d="M371.033 42.8761H372.966C374.034 42.8761 374.676 43.4401 374.676 44.3874C374.676 45.3566 374.074 45.9042 373.012 45.9042H371.033V42.8761ZM371.033 46.7748H373.012L374.785 49.9014H375.996L374.079 46.6215C375.118 46.3094 375.743 45.4552 375.743 44.3546C375.743 42.9309 374.699 42 373.104 42H370V49.9014H371.033V46.7748Z" fill="white"/>
<path d="M379.283 44.935C380.224 44.935 380.85 45.614 380.873 46.5667H377.631C377.694 45.6194 378.348 44.935 379.283 44.935ZM380.85 48.2697C380.683 48.8063 380.127 49.1732 379.37 49.1732C378.297 49.1732 377.625 48.4559 377.625 47.3662V47.3114H381.906V46.95C381.906 45.2252 380.913 44.1081 379.301 44.1081C377.654 44.1081 376.598 45.3073 376.598 47.076C376.598 48.8665 377.637 50 379.347 50C380.649 50 381.659 49.2663 381.831 48.2697H380.85Z" fill="white"/>
<path d="M384.883 49.1896C384.166 49.1896 383.69 48.8337 383.69 48.2916C383.69 47.755 384.149 47.4155 384.952 47.3662L386.547 47.2731V47.7385C386.547 48.5599 385.824 49.1896 384.883 49.1896ZM384.66 50C385.463 50 386.22 49.5729 386.576 48.9213H386.599V49.9014H387.546V45.9644C387.546 44.8309 386.662 44.1081 385.262 44.1081C383.851 44.1081 382.967 44.8638 382.898 45.8494H383.862C383.988 45.2909 384.47 44.9459 385.239 44.9459C386.065 44.9459 386.547 45.3621 386.547 46.0575V46.5339L384.837 46.627C383.46 46.7036 382.674 47.3169 382.674 48.2916C382.674 49.3155 383.472 50 384.66 50Z" fill="white"/>
<path d="M391.074 50C391.935 50 392.618 49.5948 393.002 48.9377H393.019V49.9014H393.972V42H392.973V45.1321H392.95C392.595 44.5079 391.906 44.1081 391.051 44.1081C389.548 44.1081 388.521 45.269 388.521 47.0541C388.521 48.8392 389.554 50 391.074 50ZM391.264 44.9459C392.291 44.9459 392.979 45.7837 392.979 47.0541C392.979 48.3299 392.291 49.1622 391.264 49.1622C390.208 49.1622 389.542 48.3463 389.542 47.0541C389.542 45.7673 390.208 44.9459 391.264 44.9459Z" fill="white"/>
<path d="M402.911 49.0144H398.918V42H397.885V49.9014H402.911V49.0144Z" fill="white"/>
<path d="M405.86 49.1896C405.143 49.1896 404.667 48.8337 404.667 48.2916C404.667 47.755 405.126 47.4155 405.929 47.3662L407.524 47.2731V47.7385C407.524 48.5599 406.801 49.1896 405.86 49.1896ZM405.636 50C406.44 50 407.197 49.5729 407.553 48.9213H407.576V49.9014H408.522V45.9644C408.522 44.8309 407.639 44.1081 406.239 44.1081C404.827 44.1081 403.944 44.8638 403.875 45.8494H404.839C404.965 45.2909 405.447 44.9459 406.216 44.9459C407.042 44.9459 407.524 45.3621 407.524 46.0575V46.5339L405.814 46.627C404.437 46.7036 403.651 47.3169 403.651 48.2916C403.651 49.3155 404.449 50 405.636 50Z" fill="white"/>
<path d="M410.112 42.8323V44.2067H409.222V44.9897H410.112V48.423C410.112 49.5181 410.536 49.9452 411.632 49.9452C411.867 49.9452 412.143 49.9288 412.263 49.9014V49.102C412.194 49.1129 411.965 49.1294 411.85 49.1294C411.34 49.1294 411.11 48.8939 411.11 48.3737V44.9897H412.269V44.2067H411.11V42.8323H410.112Z" fill="white"/>
<path d="M415.557 44.935C416.498 44.935 417.123 45.614 417.146 46.5667H413.904C413.967 45.6194 414.621 44.935 415.557 44.935ZM417.123 48.2697C416.957 48.8063 416.4 49.1732 415.643 49.1732C414.57 49.1732 413.898 48.4559 413.898 47.3662V47.3114H418.179V46.95C418.179 45.2252 417.186 44.1081 415.574 44.1081C413.927 44.1081 412.871 45.3073 412.871 47.076C412.871 48.8665 413.91 50 415.62 50C416.922 50 417.932 49.2663 418.104 48.2697H417.123Z" fill="white"/>
<path d="M419.189 49.9014H420.187V46.3532C420.187 45.5483 420.692 45.0171 421.466 45.0171C421.707 45.0171 421.92 45.0445 422 45.0719V44.1465C421.92 44.1355 421.77 44.1081 421.598 44.1081C420.898 44.1081 420.348 44.5079 420.152 45.1376H420.13V44.2067H419.189V49.9014Z" fill="white"/>
<path d="M400.375 18H390.625C389.728 18 389 18.6296 389 19.4062V33L395.5 29.7188L402 33V19.4062C402 18.6296 401.272 18 400.375 18ZM400.917 31.3678L395.5 28.6334L390.083 31.3678V19.4062C390.083 19.1478 390.326 18.9375 390.625 18.9375H400.375C400.674 18.9375 400.917 19.1478 400.917 19.4062V31.3678Z" fill="white"/>
<path d="M327.04 42.5727H328.987C330.061 42.5727 330.709 43.1674 330.709 44.1662C330.709 45.1881 330.102 45.7654 329.033 45.7654H327.04V42.5727ZM327.04 46.6834H329.033L330.818 49.9801H332.037L330.108 46.5218C331.153 46.1927 331.783 45.292 331.783 44.1315C331.783 42.6304 330.732 41.6489 329.126 41.6489H326V49.9801H327.04V46.6834Z" fill="white"/>
<path d="M335.348 44.7435C336.295 44.7435 336.925 45.4594 336.948 46.464H333.684C333.747 45.4652 334.406 44.7435 335.348 44.7435ZM336.925 48.2596C336.757 48.8254 336.197 49.2122 335.434 49.2122C334.354 49.2122 333.678 48.4559 333.678 47.307V47.2492H337.988V46.8682C337.988 45.0495 336.989 43.8717 335.365 43.8717C333.707 43.8717 332.644 45.1361 332.644 47.001C332.644 48.8889 333.69 50.084 335.411 50.084C336.723 50.084 337.74 49.3104 337.913 48.2596H336.925Z" fill="white"/>
<path d="M340.986 49.2296C340.264 49.2296 339.785 48.8543 339.785 48.2827C339.785 47.7169 340.247 47.3589 341.056 47.307L342.662 47.2088V47.6996C342.662 48.5656 341.934 49.2296 340.986 49.2296ZM340.761 50.084C341.57 50.084 342.333 49.6337 342.691 48.9467H342.714V49.9801H343.667V45.829C343.667 44.6338 342.777 43.8717 341.368 43.8717C339.947 43.8717 339.057 44.6685 338.988 45.7077H339.958C340.085 45.1188 340.57 44.7551 341.345 44.7551C342.177 44.7551 342.662 45.1939 342.662 45.9271V46.4294L340.94 46.5276C339.554 46.6084 338.762 47.255 338.762 48.2827C338.762 49.3623 339.565 50.084 340.761 50.084Z" fill="white"/>
<path d="M347.22 50.084C348.087 50.084 348.774 49.6568 349.161 48.964H349.179V49.9801H350.138V41.6489H349.133V44.9514H349.109C348.751 44.2932 348.058 43.8717 347.197 43.8717C345.683 43.8717 344.649 45.0957 344.649 46.9779C344.649 48.8601 345.689 50.084 347.22 50.084ZM347.411 44.7551C348.445 44.7551 349.138 45.6384 349.138 46.9779C349.138 48.3231 348.445 49.2007 347.411 49.2007C346.348 49.2007 345.678 48.3404 345.678 46.9779C345.678 45.6211 346.348 44.7551 347.411 44.7551Z" fill="white"/>
<path d="M341.312 25.2656V24.7969C341.312 24.6674 341.208 24.5625 341.078 24.5625H335.922C335.792 24.5625 335.688 24.6674 335.688 24.7969V25.2656C335.688 25.3951 335.792 25.5 335.922 25.5H341.078C341.208 25.5 341.312 25.3951 341.312 25.2656ZM335.922 23.625H341.078C341.208 23.625 341.312 23.5201 341.312 23.3906V22.9219C341.312 22.7924 341.208 22.6875 341.078 22.6875H335.922C335.792 22.6875 335.688 22.7924 335.688 22.9219V23.3906C335.688 23.5201 335.792 23.625 335.922 23.625ZM345.49 22.8199C345.432 22.7722 344.84 22.2952 344.125 21.7204V20.8125C344.125 20.2948 343.705 19.875 343.188 19.875H341.826C341.705 19.778 341.6 19.6945 341.527 19.6365C340.88 19.1188 339.773 18 338.5 18C337.234 18 336.138 19.1051 335.472 19.6365C335.398 19.6954 335.294 19.7792 335.174 19.875H333.812C333.295 19.875 332.875 20.2948 332.875 20.8125V21.7201C332.157 22.2976 331.564 22.7751 331.513 22.8167C331.353 22.9486 331.224 23.1144 331.135 23.3022C331.046 23.4899 331 23.695 331 23.9027V31.5938C331 32.3704 331.63 33 332.406 33H344.594C345.37 33 346 32.3704 346 31.5938V23.9036C346 23.4844 345.813 23.0868 345.49 22.8199ZM338.5 18.9375C339.138 18.9375 339.808 19.4273 340.35 19.875H336.651C337.194 19.4276 337.865 18.9375 338.5 18.9375ZM333.812 20.8125H343.188V25.8911C342.24 26.6528 341.274 27.4274 340.651 27.9226C340.157 28.316 339.18 29.2608 338.5 29.25C337.82 29.2611 336.843 28.316 336.349 27.9223C335.726 27.4271 334.76 26.6528 333.812 25.8908V20.8125ZM331.938 23.9027C331.938 23.7621 332 23.63 332.109 23.5406C332.145 23.5107 332.449 23.2658 332.875 22.923V25.1364C332.537 24.8646 332.216 24.6053 331.938 24.3812V23.9027ZM345.062 31.5938C345.062 31.8521 344.852 32.0625 344.594 32.0625H332.406C332.148 32.0625 331.938 31.8521 331.938 31.5938V25.5853C333.19 26.5942 334.847 27.9267 335.766 28.6562C336.366 29.1354 337.428 30.1951 338.5 30.1872C339.568 30.1948 340.617 29.1483 341.234 28.6562C342.154 27.9258 343.81 26.5939 345.062 25.585V31.5938ZM345.062 24.3812C344.781 24.6082 344.469 24.8599 344.125 25.1367V22.9236C344.548 23.2641 344.852 23.5087 344.893 23.5424C345.001 23.6317 345.062 23.7633 345.062 23.9036V24.3812Z" fill="white"/>
<path d="M330.441 95.5666C330.441 91.163 326.869 87.5931 322.463 87.5931H77.1849C72.7784 87.5931 69.2061 91.163 69.2061 95.5665V215.656C69.2061 220.059 72.7784 223.629 77.1849 223.629H322.463C326.869 223.629 330.441 220.059 330.441 215.656V95.5666Z" fill="white"/>
<path fill-rule="evenodd" clip-rule="evenodd" d="M76.9715 87.6483H322.028C325.527 87.6483 328.364 90.5055 328.364 94.0299V214.97C328.364 218.495 325.527 221.352 322.028 221.352H76.9715C73.4727 221.352 70.6364 218.495 70.6364 214.97V94.0299C70.6364 90.5055 73.4727 87.6483 76.9715 87.6483ZM322.028 86C326.431 86 330 89.5951 330 94.0299V214.97C330 219.405 326.431 223 322.028 223H76.9715C72.569 223 69 219.405 69 214.97V94.0299C69 89.5951 72.569 86 76.9715 86H322.028Z" fill="#EEEEEE"/>
<path d="M347.638 85.6206C347.638 81.217 344.066 77.6472 339.66 77.6472H59.9872C55.5807 77.6472 52.0085 81.217 52.0085 85.6206V205.71C52.0085 210.114 55.5807 213.683 59.9872 213.683H339.66C344.066 213.683 347.638 210.114 347.638 205.71V85.6206Z" fill="white"/>
<path fill-rule="evenodd" clip-rule="evenodd" d="M59.9887 78.6363H340.011C343.518 78.6363 346.36 81.4726 346.36 84.9713V205.029C346.36 208.527 343.518 211.364 340.011 211.364H59.9887C56.4823 211.364 53.6399 208.527 53.6399 205.029V84.9713C53.6399 81.4726 56.4823 78.6363 59.9887 78.6363ZM340.011 77C344.423 77 348 80.5689 348 84.9713V205.029C348 209.431 344.423 213 340.011 213H59.9887C55.5767 213 52 209.431 52 205.029V84.9713C52 80.5689 55.5767 77 59.9887 77H340.011Z" fill="#EEEEEE"/>
<g filter="url(#filter1_d)">
<path d="M356 69.9145C356 66.0957 352.401 63 347.961 63H48.0386C43.599 63 40 66.0957 40 69.9145V196.086C40 199.904 43.599 203 48.0386 203H347.961C352.401 203 356 199.904 356 196.086V69.9145Z" fill="white"/>
</g>
<path d="M92.6656 101.216C96.3745 101.216 98.6828 98.7349 98.6828 94.7667V94.7494C98.6828 90.7898 96.3659 88.3085 92.6656 88.3085C88.974 88.3085 86.6484 90.7811 86.6484 94.7494V94.7667C86.6484 98.7349 88.9567 101.216 92.6656 101.216ZM92.6656 99.0029C90.6167 99.0029 89.3112 97.3776 89.3112 94.7667V94.7494C89.3112 92.1384 90.6253 90.5218 92.6656 90.5218C94.7146 90.5218 96.02 92.1471 96.02 94.7494V94.7667C96.02 97.3516 94.7405 99.0029 92.6656 99.0029ZM100.213 101H102.738V88.5247H100.213V101ZM107.873 101.19C109.213 101.19 110.233 100.516 110.726 99.4179H110.778V101H113.302V88.5247H110.778V93.3402H110.726C110.224 92.2163 109.187 91.5419 107.873 91.5419C105.539 91.5419 104.104 93.3402 104.104 96.3574V96.3661C104.104 99.3747 105.539 101.19 107.873 101.19ZM108.72 99.098C107.458 99.098 106.671 98.0519 106.671 96.3661V96.3574C106.671 94.6629 107.467 93.6341 108.72 93.6341C109.939 93.6341 110.786 94.6888 110.786 96.3574V96.3661C110.786 98.0433 109.948 99.098 108.72 99.098ZM118.714 101H121.325V97.0663H123.729C126.357 97.0663 128.112 95.3718 128.112 92.8041V92.7869C128.112 90.2192 126.357 88.5247 123.729 88.5247H118.714V101ZM123.089 90.5909C124.585 90.5909 125.466 91.3776 125.466 92.7955V92.8128C125.466 94.2306 124.585 95.026 123.089 95.026H121.325V90.5909H123.089ZM129.443 101H131.968V95.7782C131.968 94.4727 132.694 93.7206 133.939 93.7206C134.302 93.7206 134.648 93.7724 134.855 93.8589V91.637C134.665 91.5851 134.406 91.5419 134.129 91.5419C133.031 91.5419 132.244 92.1903 131.976 93.3142H131.924V91.7321H129.443V101ZM139.835 101.19C142.636 101.19 144.426 99.392 144.426 96.3661V96.3488C144.426 93.3488 142.602 91.5419 139.826 91.5419C137.06 91.5419 135.244 93.3661 135.244 96.3488V96.3661C135.244 99.3833 137.017 101.19 139.835 101.19ZM139.844 99.2104C138.599 99.2104 137.812 98.1816 137.812 96.3661V96.3488C137.812 94.5592 138.607 93.5217 139.826 93.5217C141.054 93.5217 141.858 94.5592 141.858 96.3488V96.3661C141.858 98.1729 141.071 99.2104 139.844 99.2104ZM147.037 90.539C147.797 90.539 148.385 89.9425 148.385 89.2249C148.385 88.5074 147.797 87.9108 147.037 87.9108C146.276 87.9108 145.688 88.5074 145.688 89.2249C145.688 89.9425 146.276 90.539 147.037 90.539ZM144.979 104.052C147.149 104.052 148.299 103.075 148.299 101.19V91.7321H145.774V101.121C145.774 101.873 145.446 102.141 144.607 102.141C144.495 102.141 144.383 102.133 144.287 102.124V104.026C144.443 104.043 144.746 104.052 144.979 104.052ZM154.204 101.19C156.849 101.19 158.129 99.6254 158.414 98.2594L158.44 98.1643H156.123L156.106 98.2162C155.924 98.7349 155.293 99.3055 154.256 99.3055C152.967 99.3055 152.163 98.441 152.137 96.9626H158.518V96.1845C158.518 93.3834 156.815 91.5419 154.1 91.5419C151.385 91.5419 149.648 93.4266 149.648 96.3747V96.3833C149.648 99.3487 151.368 101.19 154.204 101.19ZM154.143 93.4266C155.189 93.4266 155.941 94.0923 156.097 95.3718H152.163C152.328 94.1182 153.106 93.4266 154.143 93.4266ZM164.059 101.19C166.532 101.19 168.131 99.6513 168.253 97.6283V97.5764H165.901L165.892 97.6542C165.719 98.5879 165.088 99.2104 164.077 99.2104C162.832 99.2104 162.054 98.1816 162.054 96.3661V96.3574C162.054 94.5851 162.832 93.5217 164.068 93.5217C165.114 93.5217 165.728 94.1961 165.884 95.0779L165.901 95.1557H168.244V95.0952C168.149 93.0894 166.549 91.5419 164.034 91.5419C161.258 91.5419 159.486 93.3834 159.486 96.3488V96.3574C159.486 99.3487 161.232 101.19 164.059 101.19ZM173.154 101.19C173.682 101.19 174.088 101.138 174.373 101.095V99.245C174.218 99.2623 174.054 99.2882 173.829 99.2882C173.068 99.2882 172.679 98.9943 172.679 98.1297V93.6341H174.373V91.7321H172.679V89.467H170.129V91.7321H168.84V93.6341H170.129V98.4064C170.129 100.395 171.097 101.19 173.154 101.19Z" fill="#333333"/>
<path d="M58 89.4015C58 86.9706 59.9733 85 62.4075 85H73.5925C76.0267 85 78 86.9706 78 89.4015V100.599C78 103.029 76.0267 105 73.5925 105H62.4075C59.9733 105 58 103.029 58 100.599V89.4015Z" fill="#5373E5"/>
<path fill-rule="evenodd" clip-rule="evenodd" d="M73.7062 91.3139C74.0976 91.7328 74.098 92.4125 73.7072 92.8319L68.2542 98.6851C67.9017 99.0634 67.3431 99.106 66.9442 98.7849L62.4001 95.1267C61.9579 94.7707 61.8686 94.0978 62.2007 93.6237C62.5329 93.1497 63.1606 93.054 63.6028 93.41L67.4516 96.5084L72.29 91.3149C72.6808 90.8954 73.3149 90.895 73.7062 91.3139Z" fill="white"/>
<path d="M273 95C273 98.3137 270.314 101 267 101C263.686 101 261 98.3137 261 95C261 91.6863 263.686 89 267 89C270.314 89 273 91.6863 273 95Z" fill="#69B6F3"/>
<path d="M278 95C278 90.0362 282.104 86 287.167 86H328.833C333.896 86 338 90.0362 338 95C338 99.9638 333.896 104 328.833 104H287.167C282.104 104 278 99.9638 278 95Z" fill="#E0E0E0"/>
<path d="M289.067 99.1221C290.586 99.1221 291.699 98.1016 291.699 96.6807V96.6709C291.699 95.3477 290.747 94.3711 289.39 94.3711C288.433 94.3711 287.73 94.8594 287.451 95.5039H287.427C287.422 94.0781 287.891 92.8623 289.087 92.8623C289.717 92.8623 290.151 93.1748 290.337 93.6582L290.356 93.7021H291.606L291.597 93.6484C291.372 92.584 290.4 91.832 289.097 91.832C287.3 91.832 286.221 93.2236 286.221 95.5527V95.5625C286.221 98.0332 287.51 99.1221 289.067 99.1221ZM287.642 96.7002V96.6953C287.642 95.9092 288.257 95.3428 289.063 95.3428C289.868 95.3428 290.459 95.9141 290.459 96.7148V96.7246C290.459 97.4863 289.834 98.0918 289.048 98.0918C288.262 98.0918 287.642 97.4814 287.642 96.7002ZM296.079 99H297.28V97.6475H298.237V96.6123H297.28V91.9541H295.488L292.563 96.5732V97.6475H296.079V99ZM293.696 96.6416V96.6074L296.069 92.9062H296.099V96.6416H293.696ZM303.296 99.1025C304.648 99.1025 305.41 98.3018 305.571 97.5059L305.586 97.4521H304.448L304.438 97.4863C304.321 97.833 303.926 98.1553 303.32 98.1553C302.529 98.1553 302.031 97.6182 302.012 96.71H305.635V96.3193C305.635 94.7568 304.717 93.7168 303.237 93.7168C301.758 93.7168 300.806 94.791 300.806 96.4219V96.4268C300.806 98.0723 301.743 99.1025 303.296 99.1025ZM303.252 94.6689C303.896 94.6689 304.365 95.0791 304.453 95.8994H302.026C302.124 95.1035 302.607 94.6689 303.252 94.6689ZM306.421 99H307.637V95.8311C307.637 95.2012 308.047 94.7422 308.633 94.7422C309.199 94.7422 309.551 95.1035 309.551 95.6846V99H310.732V95.8018C310.732 95.1768 311.133 94.7422 311.719 94.7422C312.314 94.7422 312.646 95.1084 312.646 95.748V99H313.862V95.4453C313.862 94.4102 313.193 93.7168 312.173 93.7168C311.426 93.7168 310.811 94.1172 310.562 94.7617H310.532C310.342 94.0977 309.819 93.7168 309.097 93.7168C308.413 93.7168 307.881 94.0879 307.661 94.6543H307.637V93.8242H306.421V99ZM316.367 99.0879C317.051 99.0879 317.627 98.7461 317.925 98.2041H317.954V99H319.17V95.4404C319.17 94.4004 318.335 93.7168 317.041 93.7168C315.728 93.7168 314.932 94.4053 314.858 95.3232L314.854 95.3818H315.981L315.991 95.3379C316.069 94.957 316.421 94.6885 316.997 94.6885C317.612 94.6885 317.954 95.0059 317.954 95.5283V95.8848L316.602 95.9678C315.347 96.0459 314.634 96.5977 314.634 97.5156V97.5254C314.634 98.4482 315.332 99.0879 316.367 99.0879ZM315.845 97.4766V97.4717C315.845 97.0615 316.172 96.8027 316.772 96.7637L317.954 96.6904V97.0811C317.954 97.6963 317.427 98.1602 316.729 98.1602C316.196 98.1602 315.845 97.9014 315.845 97.4766ZM320.796 93.082C321.177 93.082 321.47 92.7793 321.47 92.418C321.47 92.0469 321.177 91.749 320.796 91.749C320.415 91.749 320.117 92.0469 320.117 92.418C320.117 92.7793 320.415 93.082 320.796 93.082ZM320.186 99H321.401V93.8242H320.186V99ZM322.471 99H323.687V91.9541H322.471V99ZM326.743 99.1025C328.013 99.1025 328.916 98.4482 328.916 97.4717V97.4668C328.916 96.7148 328.501 96.2949 327.432 96.0557L326.567 95.8652C326.03 95.7432 325.83 95.5479 325.83 95.25V95.2451C325.83 94.8643 326.167 94.6152 326.704 94.6152C327.271 94.6152 327.603 94.918 327.656 95.333L327.661 95.3721H328.794L328.789 95.3184C328.745 94.4248 327.993 93.7168 326.704 93.7168C325.454 93.7168 324.629 94.3564 324.629 95.3037V95.3086C324.629 96.0752 325.127 96.5586 326.118 96.7783L326.978 96.9688C327.515 97.0908 327.695 97.2666 327.695 97.5791V97.584C327.695 97.9648 327.339 98.2041 326.748 98.2041C326.133 98.2041 325.796 97.9404 325.703 97.4961L325.693 97.4521H324.497L324.502 97.4961C324.609 98.458 325.386 99.1025 326.743 99.1025Z" fill="#4F4F4F"/>
<path d="M338 127.952C338 125.217 335.519 123 332.458 123H63.5424C60.4814 123 58 125.217 58 127.952V130.048C58 132.783 60.4814 135 63.5424 135H332.458C335.519 135 338 132.783 338 130.048V127.952Z" fill="#F2F2F2"/>
<path d="M338 151.952C338 149.217 335.519 147 332.458 147H63.5424C60.4814 147 58 149.217 58 151.952V154.048C58 156.783 60.4814 159 63.5424 159H332.458C335.519 159 338 156.783 338 154.048V151.952Z" fill="#F2F2F2"/>
<path d="M338 175.952C338 173.217 335.519 171 332.458 171H63.5424C60.4814 171 58 173.217 58 175.952V178.048C58 180.783 60.4814 183 63.5424 183H332.458C335.519 183 338 180.783 338 178.048V175.952Z" fill="#F2F2F2"/>
<path fill-rule="evenodd" clip-rule="evenodd" d="M154.639 163.179H387.361C390.275 163.179 392.637 165.223 392.637 167.744V254.256C392.637 256.777 390.275 258.821 387.361 258.821H154.639C151.725 258.821 149.363 256.777 149.363 254.256V167.744C149.363 165.223 151.725 163.179 154.639 163.179ZM387.361 162C391.028 162 394 164.572 394 167.744V254.256C394 257.428 391.028 260 387.361 260H154.639C150.973 260 148 257.428 148 254.256V167.744C148 164.572 150.973 162 154.639 162H387.361Z" fill="#E9E9E9"/>
<g filter="url(#filter2_d)">
<path d="M401 138.63C401 135.521 398.039 133 394.386 133H147.614C143.961 133 141 135.521 141 138.63V241.37C141 244.479 143.961 247 147.614 247H394.386C398.039 247 401 244.479 401 241.37V138.63Z" fill="white"/>
</g>
<path d="M188.304 161.563H190.565L187.029 151.515H184.529L181 161.563H183.184L183.958 159.126H187.53L188.304 161.563ZM185.719 153.437H185.769L187.072 157.552H184.416L185.719 153.437Z" fill="#333333"/>
<path d="M195.841 153.98C194.749 153.98 193.911 154.523 193.503 155.401H193.46V154.099H191.432V164H193.488V160.31H193.531C193.932 161.152 194.777 161.681 195.876 161.681C197.764 161.681 198.933 160.233 198.933 157.831C198.933 155.422 197.757 153.98 195.841 153.98ZM195.151 160.045C194.144 160.045 193.481 159.182 193.481 157.831C193.481 156.494 194.144 155.61 195.151 155.61C196.179 155.61 196.827 156.48 196.827 157.831C196.827 159.189 196.179 160.045 195.151 160.045Z" fill="#333333"/>
<path d="M199.997 161.563H202.054V157.392C202.054 156.341 202.645 155.728 203.66 155.728C203.955 155.728 204.237 155.777 204.406 155.846V154.057C204.265 154.015 204.061 153.98 203.822 153.98C202.934 153.98 202.293 154.495 202.025 155.442H201.983V154.099H199.997V161.563Z" fill="#333333"/>
<path d="M205.287 161.563H207.343V154.099H205.287V161.563ZM206.308 153.089C206.907 153.089 207.379 152.615 207.379 152.044C207.379 151.467 206.907 151 206.308 151C205.709 151 205.237 151.467 205.237 152.044C205.237 152.615 205.709 153.089 206.308 153.089Z" fill="#333333"/>
<path d="M208.766 161.563H210.823V151.515H208.766V161.563Z" fill="#333333"/>
<path d="M215 154.572H216.972C216.972 153.604 217.74 152.929 218.754 152.929C219.67 152.929 220.297 153.542 220.297 154.349C220.297 155.046 220.008 155.526 218.719 156.751L215.12 160.122V161.563H222.508V159.892H217.902V159.85L220.036 157.831C221.755 156.208 222.368 155.449 222.368 154.217C222.368 152.546 220.931 151.292 218.754 151.292C216.55 151.292 215 152.636 215 154.572Z" fill="#333333"/>
<path d="M227.798 161.786C230.376 161.786 231.94 159.76 231.94 156.515C231.94 153.27 230.362 151.285 227.798 151.285C225.234 151.285 223.65 153.277 223.65 156.522C223.65 159.773 225.22 161.786 227.798 161.786ZM227.798 160.101C226.545 160.101 225.812 158.826 225.812 156.522C225.812 154.238 226.559 152.971 227.798 152.971C229.045 152.971 229.778 154.231 229.778 156.522C229.778 158.826 229.052 160.101 227.798 160.101Z" fill="#333333"/>
<path d="M233.06 154.572H235.032C235.032 153.604 235.8 152.929 236.814 152.929C237.73 152.929 238.357 153.542 238.357 154.349C238.357 155.046 238.068 155.526 236.779 156.751L233.18 160.122V161.563H240.569V159.892H235.962V159.85L238.096 157.831C239.815 156.208 240.428 155.449 240.428 154.217C240.428 152.546 238.991 151.292 236.814 151.292C234.61 151.292 233.06 152.636 233.06 154.572Z" fill="#333333"/>
<path d="M245.858 161.786C248.436 161.786 250 159.76 250 156.515C250 153.27 248.422 151.285 245.858 151.285C243.294 151.285 241.71 153.277 241.71 156.522C241.71 159.773 243.28 161.786 245.858 161.786ZM245.858 160.101C244.605 160.101 243.872 158.826 243.872 156.522C243.872 154.238 244.619 152.971 245.858 152.971C247.105 152.971 247.838 154.231 247.838 156.522C247.838 158.826 247.112 160.101 245.858 160.101Z" fill="#333333"/>
<path d="M157 152.658C157 150.638 158.64 149 160.663 149H169.337C171.36 149 173 150.638 173 152.658V161.342C173 163.362 171.36 165 169.337 165H160.663C158.64 165 157 163.362 157 161.342V152.658Z" fill="#5373E5"/>
<path fill-rule="evenodd" clip-rule="evenodd" d="M169.773 154.242C170.076 154.565 170.076 155.089 169.773 155.413L165.71 159.757C165.437 160.049 165.005 160.082 164.696 159.834L161.31 157.119C160.967 156.844 160.898 156.325 161.155 155.96C161.413 155.594 161.899 155.52 162.241 155.795L165.089 158.079L168.676 154.243C168.979 153.919 169.47 153.919 169.773 154.242Z" fill="white"/>
<path d="M330 157.5C330 159.985 327.985 162 325.5 162C323.015 162 321 159.985 321 157.5C321 155.015 323.015 153 325.5 153C327.985 153 330 155.015 330 157.5Z" fill="#69B6F3"/>
<path d="M335 157C335 153.139 338.352 150 342.486 150H376.514C380.648 150 384 153.139 384 157C384 160.861 380.648 164 376.514 164H342.486C338.352 164 335 160.861 335 157Z" fill="#E0E0E0"/>
<path d="M342.398 160H343.359V158.918H344.125V158.09H343.359V154.363H341.926L339.586 158.059V158.918H342.398V160ZM340.492 158.113V158.086L342.391 155.125H342.414V158.113H340.492ZM346.852 160.098C348.098 160.098 348.969 159.301 348.969 158.141V158.133C348.969 157.062 348.195 156.285 347.121 156.285C346.555 156.285 346.09 156.508 345.844 156.887H345.824L345.98 155.188H348.637V154.363H345.176L344.906 157.641H345.785C345.852 157.516 345.945 157.406 346.051 157.32C346.266 157.141 346.543 157.043 346.863 157.043C347.523 157.043 347.996 157.504 347.996 158.148V158.156C347.996 158.816 347.531 159.277 346.859 159.277C346.266 159.277 345.836 158.914 345.754 158.441L345.75 158.414H344.805L344.809 158.465C344.883 159.398 345.68 160.098 346.852 160.098ZM351.68 160.098C352.926 160.098 353.785 159.41 353.785 158.43V158.422C353.785 157.641 353.234 157.148 352.402 157.07V157.051C353.078 156.91 353.586 156.445 353.586 155.746V155.738C353.586 154.863 352.832 154.266 351.668 154.266C350.531 154.266 349.762 154.898 349.68 155.852L349.676 155.898H350.613L350.617 155.859C350.668 155.375 351.074 155.066 351.668 155.066C352.273 155.066 352.617 155.363 352.617 155.871V155.879C352.617 156.371 352.203 156.723 351.582 156.723H350.938V157.473H351.605C352.324 157.473 352.762 157.801 352.762 158.395V158.402C352.762 158.914 352.328 159.273 351.676 159.273C351.016 159.273 350.578 158.941 350.523 158.484L350.52 158.441H349.555L349.559 158.488C349.637 159.434 350.441 160.098 351.68 160.098ZM357.984 160.082C359.066 160.082 359.676 159.441 359.805 158.805L359.816 158.762H358.906L358.898 158.789C358.805 159.066 358.488 159.324 358.004 159.324C357.371 159.324 356.973 158.895 356.957 158.168H359.855V157.855C359.855 156.605 359.121 155.773 357.938 155.773C356.754 155.773 355.992 156.633 355.992 157.938V157.941C355.992 159.258 356.742 160.082 357.984 160.082ZM357.949 156.535C358.465 156.535 358.84 156.863 358.91 157.52H356.969C357.047 156.883 357.434 156.535 357.949 156.535ZM360.484 160H361.457V157.465C361.457 156.961 361.785 156.594 362.254 156.594C362.707 156.594 362.988 156.883 362.988 157.348V160H363.934V157.441C363.934 156.941 364.254 156.594 364.723 156.594C365.199 156.594 365.465 156.887 365.465 157.398V160H366.438V157.156C366.438 156.328 365.902 155.773 365.086 155.773C364.488 155.773 363.996 156.094 363.797 156.609H363.773C363.621 156.078 363.203 155.773 362.625 155.773C362.078 155.773 361.652 156.07 361.477 156.523H361.457V155.859H360.484V160ZM368.441 160.07C368.988 160.07 369.449 159.797 369.688 159.363H369.711V160H370.684V157.152C370.684 156.32 370.016 155.773 368.98 155.773C367.93 155.773 367.293 156.324 367.234 157.059L367.23 157.105H368.133L368.141 157.07C368.203 156.766 368.484 156.551 368.945 156.551C369.438 156.551 369.711 156.805 369.711 157.223V157.508L368.629 157.574C367.625 157.637 367.055 158.078 367.055 158.812V158.82C367.055 159.559 367.613 160.07 368.441 160.07ZM368.023 158.781V158.777C368.023 158.449 368.285 158.242 368.766 158.211L369.711 158.152V158.465C369.711 158.957 369.289 159.328 368.73 159.328C368.305 159.328 368.023 159.121 368.023 158.781ZM371.984 155.266C372.289 155.266 372.523 155.023 372.523 154.734C372.523 154.438 372.289 154.199 371.984 154.199C371.68 154.199 371.441 154.438 371.441 154.734C371.441 155.023 371.68 155.266 371.984 155.266ZM371.496 160H372.469V155.859H371.496V160ZM373.324 160H374.297V154.363H373.324V160ZM376.742 160.082C377.758 160.082 378.48 159.559 378.48 158.777V158.773C378.48 158.172 378.148 157.836 377.293 157.645L376.602 157.492C376.172 157.395 376.012 157.238 376.012 157V156.996C376.012 156.691 376.281 156.492 376.711 156.492C377.164 156.492 377.43 156.734 377.473 157.066L377.477 157.098H378.383L378.379 157.055C378.344 156.34 377.742 155.773 376.711 155.773C375.711 155.773 375.051 156.285 375.051 157.043V157.047C375.051 157.66 375.449 158.047 376.242 158.223L376.93 158.375C377.359 158.473 377.504 158.613 377.504 158.863V158.867C377.504 159.172 377.219 159.363 376.746 159.363C376.254 159.363 375.984 159.152 375.91 158.797L375.902 158.762H374.945L374.949 158.797C375.035 159.566 375.656 160.082 376.742 160.082Z" fill="#4F4F4F"/>
<path d="M384 185.126C384 182.847 381.988 181 379.507 181H161.493C159.012 181 157 182.847 157 185.126V186.874C157 189.153 159.012 191 161.493 191H379.507C381.988 191 384 189.153 384 186.874V185.126Z" fill="#F2F2F2"/>
<path d="M384 205.126C384 202.847 381.988 201 379.507 201H161.493C159.012 201 157 202.847 157 205.126V206.874C157 209.153 159.012 211 161.493 211H379.507C381.988 211 384 209.153 384 206.874V205.126Z" fill="#F2F2F2"/>
<path d="M321 225.126C321 222.847 319.547 221 317.754 221H160.246C158.453 221 157 222.847 157 225.126V226.874C157 229.153 158.453 231 160.246 231H317.754C319.547 231 321 229.153 321 226.874V225.126Z" fill="#F2F2F2"/>
</g>
<defs>
<filter id="filter0_d" x="83.2549" y="9.25493" width="221.49" height="117.49" filterUnits="userSpaceOnUse" color-interpolation-filters="sRGB">
<feFlood flood-opacity="0" result="BackgroundImageFix"/>
<feColorMatrix in="SourceAlpha" type="matrix" values="0 0 0 0 0 0 0 0 0 0 0 0 0 0 0 0 0 0 127 0"/>
<feOffset/>
<feGaussianBlur stdDeviation="3.37254"/>
<feColorMatrix type="matrix" values="0 0 0 0 0 0 0 0 0 0 0 0 0 0 0 0 0 0 0.12 0"/>
<feBlend mode="normal" in2="BackgroundImageFix" result="effect1_dropShadow"/>
<feBlend mode="normal" in="SourceGraphic" in2="effect1_dropShadow" result="shape"/>
</filter>
<filter id="filter1_d" x="20" y="43" width="356" height="180" filterUnits="userSpaceOnUse" color-interpolation-filters="sRGB">
<feFlood flood-opacity="0" result="BackgroundImageFix"/>
<feColorMatrix in="SourceAlpha" type="matrix" values="0 0 0 0 0 0 0 0 0 0 0 0 0 0 0 0 0 0 127 0"/>
<feOffset/>
<feGaussianBlur stdDeviation="10"/>
<feColorMatrix type="matrix" values="0 0 0 0 0 0 0 0 0 0 0 0 0 0 0 0 0 0 0.15 0"/>
<feBlend mode="normal" in2="BackgroundImageFix" result="effect1_dropShadow"/>
<feBlend mode="normal" in="SourceGraphic" in2="effect1_dropShadow" result="shape"/>
</filter>
<filter id="filter2_d" x="117" y="109" width="308" height="162" filterUnits="userSpaceOnUse" color-interpolation-filters="sRGB">
<feFlood flood-opacity="0" result="BackgroundImageFix"/>
<feColorMatrix in="SourceAlpha" type="matrix" values="0 0 0 0 0 0 0 0 0 0 0 0 0 0 0 0 0 0 127 0"/>
<feOffset/>
<feGaussianBlur stdDeviation="12"/>
<feColorMatrix type="matrix" values="0 0 0 0 0 0 0 0 0 0 0 0 0 0 0 0 0 0 0.16 0"/>
<feBlend mode="normal" in2="BackgroundImageFix" result="effect1_dropShadow"/>
<feBlend mode="normal" in="SourceGraphic" in2="effect1_dropShadow" result="shape"/>
</filter>
<clipPath id="clip0">
<rect width="480" height="260" fill="white"/>
</clipPath>
<clipPath id="clip1">
<rect width="15" height="15" fill="white" transform="translate(232 18)"/>
</clipPath>
<clipPath id="clip2">
<rect width="15" height="15" fill="white" transform="translate(281 18)"/>
</clipPath>
</defs>
</svg>
