<svg width="418" height="65" viewBox="0 0 418 65" fill="none" xmlns="http://www.w3.org/2000/svg">
<g clip-path="url(#clip0)">
<rect width="418" height="65" fill="white"/>
<rect width="444" height="65" fill="white"/>
<path d="M48.8682 30H55.1094V28.5166H50.6318V20.1357H48.8682V30ZM57.1055 21.7148C57.6387 21.7148 58.0488 21.291 58.0488 20.7852C58.0488 20.2656 57.6387 19.8486 57.1055 19.8486C56.5723 19.8486 56.1553 20.2656 56.1553 20.7852C56.1553 21.291 56.5723 21.7148 57.1055 21.7148ZM56.251 30H57.9531V22.7539H56.251V30ZM59.4023 30H61.1045V25.7959C61.1045 24.75 61.7266 24.0391 62.7041 24.0391C63.6748 24.0391 64.1533 24.6201 64.1533 25.6523V30H65.8555V25.3105C65.8555 23.6289 64.9463 22.6035 63.3535 22.6035C62.2529 22.6035 61.5146 23.1094 61.1387 23.8887H61.1045V22.7539H59.4023V30ZM67.2979 30H69V27.4844L69.5742 26.8828L71.8643 30H73.8262L70.8389 25.8711L73.71 22.7539H71.7412L69.0342 25.7617H69V20.1357H67.2979V30ZM77.3262 30.1436C79.2197 30.1436 80.2861 29.0225 80.5117 27.9082L80.5322 27.833H78.9395L78.9258 27.8809C78.7617 28.3662 78.208 28.8174 77.3604 28.8174C76.2529 28.8174 75.5557 28.0654 75.5283 26.7939H80.6006V26.2471C80.6006 24.0596 79.3154 22.6035 77.2441 22.6035C75.1729 22.6035 73.8398 24.1074 73.8398 26.3906V26.3975C73.8398 28.7012 75.1523 30.1436 77.3262 30.1436ZM77.2646 23.9365C78.167 23.9365 78.8232 24.5107 78.9463 25.6592H75.5488C75.6855 24.5449 76.3623 23.9365 77.2646 23.9365ZM84.3945 30.1436C85.4404 30.1436 86.2402 29.624 86.6504 28.7695H86.6914V30H88.3936V20.1357H86.6914V23.998H86.6504C86.2402 23.1299 85.4131 22.6035 84.3877 22.6035C82.5693 22.6035 81.4004 24.0322 81.4004 26.3701V26.377C81.4004 28.708 82.5625 30.1436 84.3945 30.1436ZM84.9072 28.708C83.8135 28.708 83.1367 27.8193 83.1367 26.377V26.3701C83.1367 24.9277 83.8203 24.0391 84.9072 24.0391C85.9531 24.0391 86.6914 24.9551 86.6914 26.3701V26.377C86.6914 27.7988 85.96 28.708 84.9072 28.708ZM89.9932 30H91.7568V20.1357H89.9932V30ZM93.3223 30H95.0244V25.7959C95.0244 24.75 95.6465 24.0391 96.624 24.0391C97.5947 24.0391 98.0732 24.6201 98.0732 25.6523V30H99.7754V25.3105C99.7754 23.6289 98.8662 22.6035 97.2734 22.6035C96.1729 22.6035 95.4346 23.1094 95.0586 23.8887H95.0244V22.7539H93.3223V30Z" fill="black"/>
<rect x="48" y="35" width="129" height="12" rx="6" fill="#F2F2F2"/>
<path d="M304.432 24.0282L301.536 19.6084C301.413 19.4199 301.251 19.2666 301.064 19.1609C300.877 19.0551 300.67 19 300.46 19H292.942C292.732 19 292.525 19.0551 292.338 19.1609C292.151 19.2666 291.989 19.4199 291.866 19.6084L288.969 24.0282C288.804 24.2807 288.715 24.5848 288.715 24.8971V29.3409C288.715 30.1568 289.311 30.8182 290.046 30.8182H303.356C304.091 30.8182 304.687 30.1568 304.687 29.3409V24.8971C304.687 24.5848 304.598 24.2807 304.432 24.0282ZM292.583 20.1876C292.624 20.1249 292.678 20.0739 292.741 20.0386C292.803 20.0034 292.872 19.985 292.942 19.9848H300.46C300.601 19.9848 300.735 20.0607 300.819 20.1876L303.267 23.9242H299.48L298.593 25.8939H294.809L293.922 23.9242H290.135L292.583 20.1876V20.1876ZM303.8 25.4015V29.3409C303.8 29.6125 303.601 29.8333 303.356 29.8333H290.046C289.801 29.8333 289.602 29.6125 289.602 29.3409V25.4015C289.602 25.1295 289.801 24.9091 290.046 24.9091H293.373L294.261 26.8788H299.141L300.028 24.9091H303.356C303.601 24.9091 303.8 25.1295 303.8 25.4015Z" fill="#5373E5"/>
<path d="M271.94 45.2727H273.253V42.0266H275.058L276.78 45.2727H278.292L276.399 41.8274C277.413 41.4817 278.04 40.5676 278.04 39.4192V39.4075C278.04 37.8196 276.95 36.8176 275.222 36.8176H271.94V45.2727ZM273.253 40.9485V37.9192H275.058C276.065 37.9192 276.686 38.4817 276.686 39.4192V39.4309C276.686 40.3918 276.106 40.9485 275.093 40.9485H273.253ZM281.647 45.3958C283.141 45.3958 284.09 44.5051 284.289 43.5266L284.301 43.4622H283.1L283.082 43.509C282.924 43.9719 282.426 44.3586 281.676 44.3586C280.668 44.3586 280.029 43.679 280.006 42.5129H284.371V42.0852C284.371 40.2336 283.311 38.9915 281.582 38.9915C279.854 38.9915 278.74 40.2805 278.74 42.2083V42.2141C278.74 44.1594 279.836 45.3958 281.647 45.3958ZM281.588 40.0286C282.414 40.0286 283.012 40.55 283.117 41.6165H280.024C280.135 40.5852 280.768 40.0286 281.588 40.0286ZM287.046 45.384C287.861 45.384 288.575 44.9622 288.933 44.3H288.956V45.2727H290.228V41.0247C290.228 39.7883 289.273 38.9915 287.767 38.9915C286.249 38.9915 285.329 39.8059 285.241 40.8665L285.236 40.9309H286.431L286.443 40.8782C286.548 40.386 286.999 40.0403 287.732 40.0403C288.517 40.0403 288.956 40.4504 288.956 41.1301V41.593L287.28 41.6926C285.821 41.7805 284.989 42.4368 284.989 43.509V43.5208C284.989 44.6282 285.816 45.384 287.046 45.384ZM286.267 43.4915V43.4797C286.267 42.9583 286.689 42.6243 287.45 42.5774L288.956 42.4836V42.9641C288.956 43.7668 288.282 44.3704 287.392 44.3704C286.712 44.3704 286.267 44.0305 286.267 43.4915ZM293.641 45.3958C294.526 45.3958 295.205 44.9504 295.575 44.2297H295.598V45.2727H296.869V36.8176H295.598V40.1575H295.575C295.205 39.4309 294.502 38.9915 293.629 38.9915C292.082 38.9915 291.063 40.2219 291.063 42.1848V42.1907C291.063 44.1536 292.071 45.3958 293.641 45.3958ZM293.975 44.3059C292.973 44.3059 292.358 43.5032 292.358 42.1907V42.1848C292.358 40.884 292.979 40.0754 293.975 40.0754C294.924 40.0754 295.604 40.9075 295.604 42.1848V42.1907C295.604 43.4739 294.93 44.3059 293.975 44.3059ZM300.52 45.2727H305.77V44.1418H301.833V36.8176H300.52V45.2727ZM308.433 45.384C309.248 45.384 309.963 44.9622 310.32 44.3H310.343V45.2727H311.615V41.0247C311.615 39.7883 310.66 38.9915 309.154 38.9915C307.636 38.9915 306.716 39.8059 306.629 40.8665L306.623 40.9309H307.818L307.83 40.8782C307.935 40.386 308.386 40.0403 309.119 40.0403C309.904 40.0403 310.343 40.4504 310.343 41.1301V41.593L308.668 41.6926C307.209 41.7805 306.377 42.4368 306.377 43.509V43.5208C306.377 44.6282 307.203 45.384 308.433 45.384ZM307.654 43.4915V43.4797C307.654 42.9583 308.076 42.6243 308.838 42.5774L310.343 42.4836V42.9641C310.343 43.7668 309.67 44.3704 308.779 44.3704C308.099 44.3704 307.654 44.0305 307.654 43.4915ZM314.888 45.3958C315.145 45.3958 315.386 45.3665 315.532 45.343V44.3645C315.438 44.3762 315.327 44.3879 315.192 44.3879C314.659 44.3879 314.378 44.2004 314.378 43.5735V40.1165H315.532V39.1086H314.378V37.5032H313.083V39.1086H312.198V40.1165H313.083V43.6497C313.083 44.8801 313.669 45.3958 314.888 45.3958ZM318.939 45.3958C320.434 45.3958 321.383 44.5051 321.582 43.5266L321.594 43.4622H320.393L320.375 43.509C320.217 43.9719 319.719 44.3586 318.969 44.3586C317.961 44.3586 317.322 43.679 317.299 42.5129H321.664V42.0852C321.664 40.2336 320.603 38.9915 318.875 38.9915C317.146 38.9915 316.033 40.2805 316.033 42.2083V42.2141C316.033 44.1594 317.129 45.3958 318.939 45.3958ZM318.881 40.0286C319.707 40.0286 320.305 40.55 320.41 41.6165H317.316C317.428 40.5852 318.06 40.0286 318.881 40.0286ZM322.528 45.2727H323.794V41.5637C323.794 40.6907 324.298 40.1458 325.112 40.1458C325.358 40.1458 325.581 40.175 325.681 40.2161V39.0383C325.581 39.0208 325.423 38.9915 325.241 38.9915C324.515 38.9915 323.964 39.425 323.776 40.1282H323.747V39.1086H322.528V45.2727Z" fill="#5373E5"/>
<path d="M197.283 45.1406C199.41 45.1406 200.699 43.8809 200.699 42.0293V36.5449H199.393V41.9238C199.393 43.1543 198.631 43.9805 197.283 43.9805C195.936 43.9805 195.168 43.1543 195.168 41.9238V36.5449H193.855V42.0293C193.855 43.8809 195.162 45.1406 197.283 45.1406ZM202.105 45H203.371V41.4082C203.371 40.4473 203.945 39.8027 204.836 39.8027C205.715 39.8027 206.148 40.3242 206.148 41.25V45H207.42V41.0098C207.42 39.5918 206.641 38.7188 205.287 38.7188C204.355 38.7188 203.723 39.1406 203.4 39.7676H203.371V38.8359H202.105V45ZM210.953 45.123C212.406 45.123 213.461 44.3496 213.461 43.2246V43.2188C213.461 42.334 212.98 41.8359 211.721 41.543L210.719 41.3145C210.057 41.1562 209.805 40.8984 209.805 40.5176V40.5117C209.805 40.0195 210.232 39.6973 210.912 39.6973C211.627 39.6973 212.049 40.0723 212.125 40.6113L212.131 40.6523H213.32L213.314 40.582C213.25 39.5332 212.371 38.7188 210.912 38.7188C209.494 38.7188 208.533 39.4746 208.533 40.5762V40.582C208.533 41.4785 209.113 42.041 210.285 42.3105L211.293 42.5391C211.955 42.6973 212.178 42.9258 212.178 43.3242V43.3301C212.178 43.8281 211.721 44.1445 210.959 44.1445C210.18 44.1445 209.758 43.8105 209.641 43.2422L209.629 43.1836H208.375L208.381 43.2363C208.51 44.3613 209.412 45.123 210.953 45.123ZM216.543 45.123C217.48 45.123 218.107 44.6953 218.43 44.0742H218.459V45H219.73V38.8359H218.459V42.4336C218.459 43.3945 217.885 44.0332 216.994 44.0332C216.115 44.0332 215.682 43.5176 215.682 42.5859V38.8359H214.416V42.832C214.416 44.25 215.189 45.123 216.543 45.123ZM224.26 45.123C225.824 45.123 226.838 43.8809 226.838 41.918V41.9121C226.838 39.9492 225.818 38.7188 224.271 38.7188C223.398 38.7188 222.695 39.1582 222.326 39.8848H222.297V36.5449H221.031V45H222.297V43.957H222.326C222.689 44.6777 223.375 45.123 224.26 45.123ZM223.926 44.0332C222.965 44.0332 222.291 43.2012 222.291 41.918V41.9121C222.291 40.6348 222.971 39.8027 223.926 39.8027C224.922 39.8027 225.543 40.6113 225.543 41.9121V41.918C225.543 43.2305 224.922 44.0332 223.926 44.0332ZM230.125 45.123C231.578 45.123 232.633 44.3496 232.633 43.2246V43.2188C232.633 42.334 232.152 41.8359 230.893 41.543L229.891 41.3145C229.229 41.1562 228.977 40.8984 228.977 40.5176V40.5117C228.977 40.0195 229.404 39.6973 230.084 39.6973C230.799 39.6973 231.221 40.0723 231.297 40.6113L231.303 40.6523H232.492L232.486 40.582C232.422 39.5332 231.543 38.7188 230.084 38.7188C228.666 38.7188 227.705 39.4746 227.705 40.5762V40.582C227.705 41.4785 228.285 42.041 229.457 42.3105L230.465 42.5391C231.127 42.6973 231.35 42.9258 231.35 43.3242V43.3301C231.35 43.8281 230.893 44.1445 230.131 44.1445C229.352 44.1445 228.93 43.8105 228.812 43.2422L228.801 43.1836H227.547L227.553 43.2363C227.682 44.3613 228.584 45.123 230.125 45.123ZM236.266 45.123C237.748 45.123 238.779 44.1738 238.914 42.9375L238.92 42.8965H237.701L237.695 42.9434C237.543 43.6113 237.045 44.0625 236.266 44.0625C235.287 44.0625 234.637 43.2715 234.637 41.9238V41.918C234.637 40.5996 235.275 39.7793 236.26 39.7793C237.086 39.7793 237.555 40.2891 237.689 40.8926L237.701 40.9395H238.908L238.902 40.8984C238.797 39.7383 237.836 38.7188 236.248 38.7188C234.49 38.7188 233.342 39.9551 233.342 41.9062V41.9121C233.342 43.8867 234.467 45.123 236.266 45.123ZM239.816 45H241.082V41.291C241.082 40.418 241.586 39.873 242.4 39.873C242.646 39.873 242.869 39.9023 242.969 39.9434V38.7656C242.869 38.748 242.711 38.7188 242.529 38.7188C241.803 38.7188 241.252 39.1523 241.064 39.8555H241.035V38.8359H239.816V45ZM244.439 37.8867C244.855 37.8867 245.178 37.5586 245.178 37.1602C245.178 36.7559 244.855 36.4277 244.439 36.4277C244.029 36.4277 243.701 36.7559 243.701 37.1602C243.701 37.5586 244.029 37.8867 244.439 37.8867ZM243.807 45H245.072V38.8359H243.807V45ZM249.654 45.123C251.219 45.123 252.232 43.8809 252.232 41.918V41.9121C252.232 39.9492 251.213 38.7188 249.666 38.7188C248.793 38.7188 248.09 39.1582 247.721 39.8848H247.691V36.5449H246.426V45H247.691V43.957H247.721C248.084 44.6777 248.77 45.123 249.654 45.123ZM249.32 44.0332C248.359 44.0332 247.686 43.2012 247.686 41.918V41.9121C247.686 40.6348 248.365 39.8027 249.32 39.8027C250.316 39.8027 250.938 40.6113 250.938 41.9121V41.918C250.938 43.2305 250.316 44.0332 249.32 44.0332ZM255.842 45.123C257.336 45.123 258.285 44.2324 258.484 43.2539L258.496 43.1895H257.295L257.277 43.2363C257.119 43.6992 256.621 44.0859 255.871 44.0859C254.863 44.0859 254.225 43.4062 254.201 42.2402H258.566V41.8125C258.566 39.9609 257.506 38.7188 255.777 38.7188C254.049 38.7188 252.936 40.0078 252.936 41.9355V41.9414C252.936 43.8867 254.031 45.123 255.842 45.123ZM255.783 39.7559C256.609 39.7559 257.207 40.2773 257.312 41.3438H254.219C254.33 40.3125 254.963 39.7559 255.783 39.7559Z" fill="#EB001B"/>
<path d="M234.84 30.8795L218.956 18.096C218.773 17.945 218.506 17.9754 218.359 18.1641L218.093 18.5056C217.946 18.6943 217.976 18.9696 218.159 19.1205L234.044 31.904C234.227 32.055 234.494 32.0243 234.641 31.8359L234.907 31.4944C235.053 31.3057 235.024 31.0304 234.84 30.8795ZM231.175 25V23.6875C231.175 23.4458 230.985 23.25 230.75 23.25H230.325C230.09 23.25 229.9 23.4458 229.9 23.6875V25C229.9 25.0752 229.882 25.1452 229.877 25.219L231.025 26.1427C231.113 25.7744 231.175 25.3959 231.175 25ZM228.625 30.6875H227.138V29.7641C227.687 29.6864 228.204 29.5063 228.676 29.2498L227.531 28.3286C227.103 28.4691 226.642 28.5314 226.16 28.483C224.394 28.3056 223.1 26.671 223.1 24.8441V24.7627L221.825 23.7364V24.7856C221.825 27.2367 223.524 29.4218 225.863 29.7537V30.6875H224.375C224.14 30.6875 223.95 30.8833 223.95 31.125V31.5625C223.95 31.8042 224.14 32 224.375 32H228.625C228.86 32 229.05 31.8042 229.05 31.5625V31.125C229.05 30.8833 228.86 30.6875 228.625 30.6875ZM225.225 20.625C225.225 19.9012 225.797 19.3125 226.5 19.3125C227.203 19.3125 227.775 19.9012 227.775 20.625V23.5273L229.05 24.5535V20.625C229.05 19.1752 227.908 18 226.5 18C225.146 18 224.049 19.0896 223.966 20.4618L225.225 21.4748V20.625Z" fill="#EB001B"/>
<path d="M339.067 45.2576H340.379V42.4333L341.241 41.4373L344.036 45.2576H345.659L342.178 40.5408L345.383 36.8025H343.825L340.414 40.8513H340.379V36.8025H339.067V45.2576ZM348.492 45.3806C349.986 45.3806 350.935 44.49 351.134 43.5115L351.146 43.447H349.945L349.927 43.4939C349.769 43.9568 349.271 44.3435 348.521 44.3435C347.513 44.3435 346.875 43.6638 346.851 42.4978H351.216V42.0701C351.216 40.2185 350.156 38.9763 348.427 38.9763C346.699 38.9763 345.585 40.2654 345.585 42.1931V42.199C345.585 44.1443 346.681 45.3806 348.492 45.3806ZM348.433 40.0134C349.259 40.0134 349.857 40.5349 349.962 41.6013H346.869C346.98 40.5701 347.613 40.0134 348.433 40.0134ZM354.712 45.3806C356.206 45.3806 357.155 44.49 357.354 43.5115L357.366 43.447H356.165L356.147 43.4939C355.989 43.9568 355.491 44.3435 354.741 44.3435C353.733 44.3435 353.094 43.6638 353.071 42.4978H357.436V42.0701C357.436 40.2185 356.376 38.9763 354.647 38.9763C352.919 38.9763 351.805 40.2654 351.805 42.1931V42.199C351.805 44.1443 352.901 45.3806 354.712 45.3806ZM354.653 40.0134C355.479 40.0134 356.077 40.5349 356.182 41.6013H353.089C353.2 40.5701 353.833 40.0134 354.653 40.0134ZM358.301 47.3083H359.566V44.2205H359.595C359.959 44.9353 360.668 45.3806 361.541 45.3806C363.088 45.3806 364.101 44.1443 364.101 42.1814V42.1755C364.101 40.2068 363.094 38.9763 361.523 38.9763C360.644 38.9763 359.965 39.4216 359.595 40.1541H359.566V39.0935H358.301V47.3083ZM361.195 44.2908C360.24 44.2908 359.56 43.4587 359.56 42.1814V42.1755C359.56 40.8923 360.234 40.0603 361.195 40.0603C362.185 40.0603 362.812 40.863 362.812 42.1755V42.1814C362.812 43.4822 362.191 44.2908 361.195 44.2908ZM367.436 45.2576H368.736V38.9939H368.771L373.125 45.2576H374.332V36.8025H373.031V43.0544H372.996L368.648 36.8025H367.436V45.2576ZM378.255 45.3806C379.749 45.3806 380.698 44.49 380.898 43.5115L380.909 43.447H379.708L379.691 43.4939C379.532 43.9568 379.034 44.3435 378.284 44.3435C377.276 44.3435 376.638 43.6638 376.614 42.4978H380.98V42.0701C380.98 40.2185 379.919 38.9763 378.191 38.9763C376.462 38.9763 375.349 40.2654 375.349 42.1931V42.199C375.349 44.1443 376.444 45.3806 378.255 45.3806ZM378.196 40.0134C379.023 40.0134 379.62 40.5349 379.726 41.6013H376.632C376.743 40.5701 377.376 40.0134 378.196 40.0134ZM383.045 45.2576H384.352L385.635 40.6404H385.664L386.959 45.2576H388.278L389.965 39.0935H388.711L387.586 43.9451H387.557L386.268 39.0935H385.049L383.766 43.9451H383.742L382.617 39.0935H381.352L383.045 45.2576ZM393.214 45.3806C394.708 45.3806 395.658 44.49 395.857 43.5115L395.869 43.447H394.667L394.65 43.4939C394.492 43.9568 393.994 44.3435 393.244 44.3435C392.236 44.3435 391.597 43.6638 391.574 42.4978H395.939V42.0701C395.939 40.2185 394.878 38.9763 393.15 38.9763C391.421 38.9763 390.308 40.2654 390.308 42.1931V42.199C390.308 44.1443 391.404 45.3806 393.214 45.3806ZM393.156 40.0134C393.982 40.0134 394.579 40.5349 394.685 41.6013H391.591C391.702 40.5701 392.335 40.0134 393.156 40.0134ZM399.112 45.3806C400.565 45.3806 401.62 44.6072 401.62 43.4822V43.4763C401.62 42.5916 401.139 42.0935 399.879 41.8005L398.877 41.572C398.215 41.4138 397.963 41.156 397.963 40.7751V40.7693C397.963 40.2771 398.391 39.9548 399.071 39.9548C399.786 39.9548 400.207 40.3298 400.284 40.8689L400.29 40.9099H401.479L401.473 40.8396C401.409 39.7908 400.53 38.9763 399.071 38.9763C397.653 38.9763 396.692 39.7322 396.692 40.8337V40.8396C396.692 41.7361 397.272 42.2986 398.444 42.5681L399.452 42.7966C400.114 42.9548 400.336 43.1833 400.336 43.5818V43.5876C400.336 44.0857 399.879 44.4021 399.118 44.4021C398.338 44.4021 397.916 44.0681 397.799 43.4998L397.788 43.4412H396.534L396.54 43.4939C396.668 44.6189 397.571 45.3806 399.112 45.3806ZM404.646 45.3806C404.904 45.3806 405.144 45.3513 405.291 45.3279V44.3494C405.197 44.3611 405.086 44.3728 404.951 44.3728C404.418 44.3728 404.136 44.1853 404.136 43.5583V40.1013H405.291V39.0935H404.136V37.488H402.841V39.0935H401.957V40.1013H402.841V43.6345C402.841 44.865 403.427 45.3806 404.646 45.3806Z" fill="#5373E5"/>
<path d="M377.542 19.8617H377.656C377.846 19.8617 378 19.7171 378 19.5386V19.3232C378 19.1447 377.846 19 377.656 19H367.344C367.154 19 367 19.1447 367 19.3232V19.5386C367 19.7171 367.154 19.8617 367.344 19.8617H367.458C367.458 22.3344 368.722 25.0768 371.172 25.8939C368.714 26.7137 367.458 29.4615 367.458 31.9261H367.344C367.154 31.9261 367 32.0708 367 32.2493V32.4647C367 32.6432 367.154 32.7879 367.344 32.7879H377.656C377.846 32.7879 378 32.6432 378 32.4647V32.2493C378 32.0708 377.846 31.9261 377.656 31.9261H377.542C377.542 29.4534 376.278 26.7111 373.828 25.8939C376.286 25.0742 377.542 22.3264 377.542 19.8617ZM368.375 19.8617H376.625C376.625 22.8363 374.778 25.2476 372.5 25.2476C370.222 25.2476 368.375 22.8363 368.375 19.8617ZM376.625 31.9261H368.375C368.375 28.9516 370.222 26.5402 372.5 26.5402C374.778 26.5402 376.625 28.9516 376.625 31.9261ZM375.182 21.5852H369.818C369.742 21.5852 369.669 21.5617 369.609 21.5184C369.549 21.475 369.505 21.4143 369.486 21.3455C369.464 21.2702 369.445 21.1945 369.427 21.1185C369.379 20.9159 369.541 20.7235 369.762 20.7235H375.238C375.459 20.7235 375.621 20.9159 375.573 21.1185C375.555 21.1945 375.536 21.2702 375.514 21.3455C375.495 21.4143 375.451 21.475 375.391 21.5184C375.331 21.5617 375.258 21.5852 375.182 21.5852ZM374.725 22.9563C374.663 23.037 374.599 23.1156 374.531 23.1916C374.465 23.2653 374.368 23.3087 374.266 23.3087H370.734C370.632 23.3087 370.535 23.2653 370.469 23.1916C370.402 23.1155 370.337 23.037 370.275 22.9563C370.113 22.7432 370.278 22.447 370.556 22.447H374.444C374.722 22.447 374.887 22.7433 374.725 22.9563Z" fill="#5373E5"/>
<path d="M31.7917 20H17.2083C14.3323 20 12 22.3323 12 25.2083V39.7917C12 42.6677 14.3323 45 17.2083 45H31.7917C34.6687 45 37 42.6677 37 39.7917V25.2083C37 22.3323 34.6687 20 31.7917 20ZM20.3333 39.7917H17.2083V28.3333H20.3333V39.7917ZM18.7708 27.0125C17.7646 27.0125 16.9479 26.1896 16.9479 25.175C16.9479 24.1604 17.7646 23.3375 18.7708 23.3375C19.7771 23.3375 20.5937 24.1604 20.5937 25.175C20.5937 26.1896 19.7781 27.0125 18.7708 27.0125ZM32.8333 39.7917H29.7083V33.9542C29.7083 30.4458 25.5417 30.7115 25.5417 33.9542V39.7917H22.4167V28.3333H25.5417V30.1719C26.9958 27.4781 32.8333 27.2792 32.8333 32.751V39.7917Z" fill="#0D5BBA"/>
</g>
<defs>
<clipPath id="clip0">
<rect width="418" height="65" fill="white"/>
</clipPath>
</defs>
</svg>
