<svg width="256" height="59" viewBox="0 0 256 59" fill="none" xmlns="http://www.w3.org/2000/svg">
<g clip-path="url(#clip0)">
<rect width="256" height="65" fill="#F9FBFF"/>
<rect x="7" y="23" width="14" height="14" rx="1.84615" fill="#5373E5"/>
<path d="M11 29.5L13.7273 32L17 28" stroke="white" stroke-width="1.38462" stroke-linecap="round" stroke-linejoin="round"/>
<path d="M37.6821 15.04H39.0679V11.6777H42.8384V15.04H44.2188V7.28955H42.8384V10.5122H39.0679V7.28955H37.6821V15.04ZM47.957 15.1528C49.4448 15.1528 50.2827 14.272 50.46 13.3965L50.4761 13.3374H49.2246L49.2139 13.375C49.085 13.7563 48.6499 14.1108 47.9839 14.1108C47.1138 14.1108 46.5659 13.52 46.5444 12.521H50.5298V12.0913C50.5298 10.3726 49.52 9.22852 47.8926 9.22852C46.2651 9.22852 45.2178 10.4102 45.2178 12.2041V12.2095C45.2178 14.0195 46.249 15.1528 47.957 15.1528ZM47.9087 10.2759C48.6177 10.2759 49.1333 10.7271 49.23 11.6294H46.5605C46.668 10.7539 47.1997 10.2759 47.9087 10.2759ZM51.3945 15.04H52.7319V11.7368C52.7319 10.915 53.2207 10.3564 53.9888 10.3564C54.7515 10.3564 55.1274 10.813 55.1274 11.624V15.04H56.4648V11.3555C56.4648 10.0342 55.7505 9.22852 54.499 9.22852C53.6343 9.22852 53.0542 9.62598 52.7588 10.2383H52.7319V9.34668H51.3945V15.04ZM57.5391 15.04H58.8765V11.7046C58.8765 10.9043 59.333 10.4155 60.0903 10.4155C60.3159 10.4155 60.52 10.4478 60.6328 10.4907V9.28223C60.5308 9.25537 60.375 9.22852 60.2085 9.22852C59.5371 9.22852 59.0376 9.63135 58.8657 10.2974H58.8389V9.34668H57.5391V15.04ZM62.083 16.9307C63.27 16.9307 63.936 16.4849 64.3711 15.2334L66.4175 9.34668H65.0103L63.6729 13.9014H63.6353L62.3032 9.34668H60.8423L62.8887 15.0454L62.8081 15.2764C62.6362 15.7544 62.3516 15.8994 61.8413 15.8994C61.6533 15.8994 61.4976 15.8726 61.3955 15.8511V16.8716C61.5566 16.8984 61.8252 16.9307 62.083 16.9307ZM69.3716 15.04H72.6211C74.2754 15.04 75.2798 14.2021 75.2798 12.8379V12.8271C75.2798 11.8066 74.5386 11.0439 73.4482 10.9473V10.915C74.2754 10.8022 74.9038 10.061 74.9038 9.23389V9.22314C74.9038 8.04688 73.9961 7.28955 72.5889 7.28955H69.3716V15.04ZM72.2397 8.36914C73.0615 8.36914 73.5342 8.74512 73.5342 9.41113V9.42188C73.5342 10.1362 72.9917 10.5444 72.0249 10.5444H70.7573V8.36914H72.2397ZM72.2451 11.5488C73.3086 11.5488 73.8672 11.9624 73.8672 12.7466V12.7573C73.8672 13.5469 73.3193 13.9604 72.3042 13.9604H70.7573V11.5488H72.2451ZM78.6367 15.1528C80.1245 15.1528 80.9624 14.272 81.1396 13.3965L81.1558 13.3374H79.9043L79.8936 13.375C79.7646 13.7563 79.3296 14.1108 78.6636 14.1108C77.7935 14.1108 77.2456 13.52 77.2241 12.521H81.2095V12.0913C81.2095 10.3726 80.1997 9.22852 78.5723 9.22852C76.9448 9.22852 75.8975 10.4102 75.8975 12.2041V12.2095C75.8975 14.0195 76.9287 15.1528 78.6367 15.1528ZM78.5884 10.2759C79.2974 10.2759 79.813 10.7271 79.9097 11.6294H77.2402C77.3477 10.7539 77.8794 10.2759 78.5884 10.2759ZM82.0742 15.04H83.4116V11.5542C83.4116 10.8613 83.8628 10.3564 84.5073 10.3564C85.1304 10.3564 85.5171 10.7539 85.5171 11.3931V15.04H86.8169V11.522C86.8169 10.8345 87.2573 10.3564 87.9019 10.3564C88.5571 10.3564 88.9224 10.7593 88.9224 11.4629V15.04H90.2598V11.1299C90.2598 9.99121 89.5239 9.22852 88.4014 9.22852C87.5796 9.22852 86.9028 9.66895 86.6289 10.3779H86.5967C86.3872 9.64746 85.8125 9.22852 85.0176 9.22852C84.2656 9.22852 83.6802 9.63672 83.4385 10.2598H83.4116V9.34668H82.0742V15.04ZM92.043 8.53027C92.4619 8.53027 92.7842 8.19727 92.7842 7.7998C92.7842 7.3916 92.4619 7.06396 92.043 7.06396C91.624 7.06396 91.2964 7.3916 91.2964 7.7998C91.2964 8.19727 91.624 8.53027 92.043 8.53027ZM91.3716 15.04H92.709V9.34668H91.3716V15.04ZM96.0713 15.1528C97.4678 15.1528 98.4614 14.4331 98.4614 13.3589V13.3535C98.4614 12.5264 98.0049 12.0645 96.8286 11.8013L95.8779 11.5918C95.2871 11.4575 95.0669 11.2427 95.0669 10.915V10.9097C95.0669 10.4907 95.4375 10.2168 96.0283 10.2168C96.6514 10.2168 97.0166 10.5498 97.0757 11.0063L97.0811 11.0493H98.3271L98.3218 10.9902C98.2734 10.0073 97.4463 9.22852 96.0283 9.22852C94.6533 9.22852 93.7456 9.93213 93.7456 10.9741V10.9795C93.7456 11.8228 94.2935 12.3545 95.3838 12.5962L96.3291 12.8057C96.9199 12.9399 97.1187 13.1333 97.1187 13.4771V13.4824C97.1187 13.9014 96.7266 14.1646 96.0767 14.1646C95.3999 14.1646 95.0293 13.8745 94.9272 13.3857L94.9165 13.3374H93.6006L93.606 13.3857C93.7241 14.4438 94.5781 15.1528 96.0713 15.1528Z" fill="#272727"/>
<circle cx="29" cy="11" r="4" fill="#71B6F7"/>
<rect x="210" y="7" width="38" height="11" rx="5.5" fill="#D9D9D9"/>
<path d="M216.492 15.082C217.538 15.082 218.28 14.4805 218.28 13.6362V13.6294C218.28 12.939 217.794 12.5015 217.07 12.4365V12.4194C217.671 12.293 218.109 11.8828 218.109 11.271V11.2642C218.109 10.5054 217.466 9.98584 216.485 9.98584C215.521 9.98584 214.865 10.5293 214.79 11.353L214.787 11.3872H215.504L215.508 11.3564C215.556 10.8984 215.938 10.6113 216.485 10.6113C217.042 10.6113 217.364 10.8882 217.364 11.3633V11.3701C217.364 11.8281 216.981 12.1597 216.417 12.1597H215.839V12.7544H216.438C217.097 12.7544 217.5 13.0654 217.5 13.6226V13.6294C217.5 14.1079 217.094 14.4429 216.492 14.4429C215.88 14.4429 215.467 14.1353 215.419 13.6978L215.416 13.6602H214.681L214.684 13.7046C214.752 14.5078 215.439 15.082 216.492 15.082ZM220.795 9.98584C219.753 9.98584 218.991 10.6934 218.991 11.6777V11.6846C218.991 12.6177 219.674 13.3047 220.618 13.3047C221.288 13.3047 221.787 12.9561 221.981 12.5117H221.999C221.999 12.5562 221.999 12.6006 221.995 12.645C221.964 13.6226 221.619 14.4395 220.771 14.4395C220.3 14.4395 219.979 14.207 219.838 13.8379L219.825 13.8037H219.059L219.069 13.8447C219.227 14.5796 219.886 15.082 220.765 15.082C221.999 15.082 222.733 14.1113 222.733 12.4673V12.4604C222.733 10.6865 221.804 9.98584 220.795 9.98584ZM220.792 12.6826C220.194 12.6826 219.753 12.2588 219.753 11.6641V11.6572C219.753 11.083 220.221 10.6284 220.802 10.6284C221.39 10.6284 221.848 11.0898 221.848 11.6743V11.6777C221.848 12.2622 221.394 12.6826 220.792 12.6826ZM226.356 15.0718C227.228 15.0718 227.782 14.5522 227.898 13.9814L227.905 13.9438H227.204L227.194 13.9712C227.102 14.2412 226.811 14.4668 226.374 14.4668C225.786 14.4668 225.413 14.0703 225.399 13.3901H227.946V13.1406C227.946 12.0605 227.327 11.3359 226.319 11.3359C225.311 11.3359 224.661 12.0879 224.661 13.2124V13.2158C224.661 14.3506 225.3 15.0718 226.356 15.0718ZM226.322 11.9409C226.804 11.9409 227.153 12.2451 227.214 12.8672H225.41C225.475 12.2656 225.844 11.9409 226.322 11.9409ZM228.52 15H229.258V12.7783C229.258 12.3135 229.569 11.9683 230.007 11.9683C230.424 11.9683 230.687 12.2349 230.687 12.6519V15H231.412V12.751C231.412 12.2964 231.716 11.9683 232.153 11.9683C232.591 11.9683 232.84 12.2383 232.84 12.7065V15H233.582V12.5288C233.582 11.8076 233.117 11.3359 232.406 11.3359C231.894 11.3359 231.47 11.606 231.285 12.0435H231.268C231.125 11.5923 230.762 11.3359 230.267 11.3359C229.795 11.3359 229.429 11.5854 229.275 11.9614H229.258V11.4043H228.52V15ZM235.353 15.0649C235.828 15.0649 236.245 14.8188 236.453 14.4326H236.467V15H237.208V12.522C237.208 11.8008 236.651 11.3359 235.773 11.3359C234.888 11.3359 234.351 11.811 234.3 12.4297L234.296 12.4673H234.994L235 12.4365C235.062 12.1494 235.325 11.9478 235.752 11.9478C236.21 11.9478 236.467 12.187 236.467 12.5835V12.8535L235.489 12.9116C234.638 12.9629 234.153 13.3457 234.153 13.9712V13.978C234.153 14.624 234.635 15.0649 235.353 15.0649ZM234.898 13.9609V13.9541C234.898 13.6499 235.144 13.4551 235.588 13.4277L236.467 13.373V13.6533C236.467 14.1216 236.074 14.4736 235.554 14.4736C235.158 14.4736 234.898 14.2754 234.898 13.9609ZM238.326 10.8506C238.569 10.8506 238.757 10.6592 238.757 10.4268C238.757 10.1909 238.569 9.99951 238.326 9.99951C238.087 9.99951 237.896 10.1909 237.896 10.4268C237.896 10.6592 238.087 10.8506 238.326 10.8506ZM237.957 15H238.695V11.4043H237.957V15ZM239.485 15H240.223V10.0679H239.485V15ZM242.329 15.0718C243.176 15.0718 243.792 14.6206 243.792 13.9644V13.9609C243.792 13.4448 243.511 13.1543 242.776 12.9834L242.192 12.8501C241.806 12.7578 241.659 12.6074 241.659 12.3853V12.3818C241.659 12.0947 241.908 11.9067 242.305 11.9067C242.722 11.9067 242.968 12.1255 243.012 12.4399L243.016 12.4639H243.709L243.706 12.4229C243.668 11.811 243.156 11.3359 242.305 11.3359C241.478 11.3359 240.917 11.7769 240.917 12.4194V12.4229C240.917 12.9458 241.255 13.2739 241.939 13.4312L242.527 13.5645C242.913 13.6567 243.043 13.79 243.043 14.0225V14.0259C243.043 14.3164 242.776 14.501 242.332 14.501C241.877 14.501 241.631 14.3062 241.563 13.9746L241.556 13.9404H240.825L240.828 13.9712C240.903 14.6274 241.43 15.0718 242.329 15.0718Z" fill="#4F4F4F"/>
<rect x="200" y="42" width="48" height="10" rx="5" fill="#DFE5ED"/>
<rect x="210" y="25" width="38" height="10" rx="5" fill="#DFE5ED"/>
<rect x="27" y="25" width="96" height="10" rx="5" fill="#DFE5ED"/>
<rect x="27" y="42" width="119" height="10" rx="5" fill="#DFE5ED"/>
<rect x="170" y="7" width="36" height="11" rx="5.5" fill="#69B6F3"/>
<path d="M176.257 9.98584C175.215 9.98584 174.453 10.6934 174.453 11.6777V11.6846C174.453 12.6177 175.136 13.3047 176.08 13.3047C176.75 13.3047 177.249 12.9561 177.443 12.5117H177.46C177.46 12.5562 177.46 12.6006 177.457 12.645C177.426 13.6226 177.081 14.4395 176.233 14.4395C175.762 14.4395 175.44 14.207 175.3 13.8379L175.287 13.8037H174.521L174.531 13.8447C174.688 14.5796 175.348 15.082 176.227 15.082C177.46 15.082 178.195 14.1113 178.195 12.4673V12.4604C178.195 10.6865 177.266 9.98584 176.257 9.98584ZM176.254 12.6826C175.656 12.6826 175.215 12.2588 175.215 11.6641V11.6572C175.215 11.083 175.683 10.6284 176.264 10.6284C176.852 10.6284 177.31 11.0898 177.31 11.6743V11.6777C177.31 12.2622 176.855 12.6826 176.254 12.6826ZM181.507 15.0718C182.054 15.0718 182.42 14.8223 182.608 14.46H182.625V15H183.367V11.4043H182.625V13.5029C182.625 14.0635 182.29 14.436 181.771 14.436C181.258 14.436 181.005 14.1353 181.005 13.5918V11.4043H180.267V13.7354C180.267 14.5625 180.718 15.0718 181.507 15.0718ZM184.098 15H184.836V12.9048C184.836 12.3442 185.171 11.9683 185.691 11.9683C186.204 11.9683 186.457 12.2725 186.457 12.8125V15H187.198V12.6724C187.198 11.8452 186.744 11.3359 185.954 11.3359C185.411 11.3359 185.042 11.582 184.854 11.9478H184.836V11.4043H184.098V15ZM187.913 15H188.651V12.8364C188.651 12.3271 188.945 12.0093 189.42 12.0093C189.563 12.0093 189.693 12.0264 189.751 12.0503V11.3633C189.693 11.353 189.601 11.3359 189.495 11.3359C189.071 11.3359 188.75 11.5889 188.641 11.999H188.624V11.4043H187.913V15ZM191.587 15.0718C192.458 15.0718 193.012 14.5522 193.128 13.9814L193.135 13.9438H192.435L192.424 13.9712C192.332 14.2412 192.042 14.4668 191.604 14.4668C191.016 14.4668 190.644 14.0703 190.63 13.3901H193.176V13.1406C193.176 12.0605 192.558 11.3359 191.549 11.3359C190.541 11.3359 189.892 12.0879 189.892 13.2124V13.2158C189.892 14.3506 190.531 15.0718 191.587 15.0718ZM191.553 11.9409C192.035 11.9409 192.383 12.2451 192.445 12.8672H190.64C190.705 12.2656 191.074 11.9409 191.553 11.9409ZM194.807 15.0649C195.282 15.0649 195.699 14.8188 195.907 14.4326H195.921V15H196.663V12.522C196.663 11.8008 196.105 11.3359 195.227 11.3359C194.342 11.3359 193.805 11.811 193.754 12.4297L193.75 12.4673H194.448L194.455 12.4365C194.516 12.1494 194.779 11.9478 195.207 11.9478C195.665 11.9478 195.921 12.187 195.921 12.5835V12.8535L194.943 12.9116C194.092 12.9629 193.607 13.3457 193.607 13.9712V13.978C193.607 14.624 194.089 15.0649 194.807 15.0649ZM194.352 13.9609V13.9541C194.352 13.6499 194.598 13.4551 195.042 13.4277L195.921 13.373V13.6533C195.921 14.1216 195.528 14.4736 195.008 14.4736C194.612 14.4736 194.352 14.2754 194.352 13.9609ZM198.724 15.0718C199.24 15.0718 199.636 14.812 199.852 14.3916H199.865V15H200.607V10.0679H199.865V12.0161H199.852C199.636 11.5923 199.226 11.3359 198.717 11.3359C197.814 11.3359 197.22 12.0537 197.22 13.1987V13.2021C197.22 14.3472 197.808 15.0718 198.724 15.0718ZM198.918 14.436C198.334 14.436 197.975 13.9678 197.975 13.2021V13.1987C197.975 12.4399 198.337 11.9683 198.918 11.9683C199.472 11.9683 199.869 12.4536 199.869 13.1987V13.2021C199.869 13.9507 199.476 14.436 198.918 14.436Z" fill="white"/>
</g>
<defs>
<clipPath id="clip0">
<rect width="256" height="59" fill="white"/>
</clipPath>
</defs>
</svg>
