<svg width="717" height="104" viewBox="0 0 717 104" fill="none" xmlns="http://www.w3.org/2000/svg">
<rect width="717" height="104" fill="white"/>
<path d="M25.4062 39H28.9453V22.0898H25.4062V39ZM31.4648 39H34.8867V31.7812C34.8867 30.1406 35.8594 29.0156 37.3945 29.0156C38.9297 29.0156 39.7031 29.9531 39.7031 31.5938V39H43.125V30.8906C43.125 27.9492 41.5547 26.1797 38.7891 26.1797C36.8906 26.1797 35.6016 27.0586 34.957 28.5H34.8867V26.4375H31.4648V39ZM52.7344 39.2578C55.8984 39.2578 57.8555 36.7969 57.8555 32.7188V32.707C57.8555 28.6172 55.8984 26.1797 52.7461 26.1797C50.9531 26.1797 49.5586 27.0938 48.8672 28.6172H48.7969V22.0898H45.375V39H48.7969V36.8555H48.8672C49.5469 38.3438 50.9297 39.2578 52.7344 39.2578ZM51.5977 36.4219C49.9336 36.4219 48.7969 34.9922 48.7969 32.7188V32.707C48.7969 30.4453 49.9453 29.0156 51.5977 29.0156C53.2969 29.0156 54.375 30.4102 54.375 32.707V32.7188C54.375 35.0039 53.2969 36.4219 51.5977 36.4219ZM65.3789 39.2578C69.1758 39.2578 71.6016 36.8203 71.6016 32.7188V32.6953C71.6016 28.6289 69.1289 26.1797 65.3672 26.1797C61.6172 26.1797 59.1562 28.6523 59.1562 32.6953V32.7188C59.1562 36.8086 61.5586 39.2578 65.3789 39.2578ZM65.3906 36.5742C63.7031 36.5742 62.6367 35.1797 62.6367 32.7188V32.6953C62.6367 30.2695 63.7148 28.8633 65.3672 28.8633C67.0312 28.8633 68.1211 30.2695 68.1211 32.6953V32.7188C68.1211 35.168 67.0547 36.5742 65.3906 36.5742ZM71.625 39H75.2227L77.5781 34.6406H77.6484L80.0391 39H83.7539L79.8633 32.6484L83.7891 26.4375H80.0625L77.8359 30.6797H77.7656L75.5039 26.4375H71.6484L75.5625 32.7422L71.625 39Z" fill="#272727"/>
<rect x="16" y="57" width="241" height="31" rx="8" fill="#F4F4F4"/>
<path d="M53.7188 70.5653H54.9886C54.9503 69.1676 53.7145 68.1534 51.9418 68.1534C50.1903 68.1534 48.848 69.1548 48.848 70.6591C48.848 71.8736 49.7173 72.5852 51.1193 72.9645L52.1506 73.2457C53.0838 73.4929 53.804 73.7997 53.804 74.5753C53.804 75.4276 52.9901 75.9901 51.8693 75.9901C50.8551 75.9901 50.0114 75.5384 49.9347 74.5881H48.6136C48.6989 76.169 49.9219 77.1449 51.8778 77.1449C53.9276 77.1449 55.108 76.0668 55.108 74.5881C55.108 73.0156 53.706 72.4062 52.598 72.1335L51.7457 71.9119C51.0639 71.7372 50.1562 71.4176 50.1605 70.5824C50.1605 69.8409 50.8381 69.2912 51.9119 69.2912C52.9134 69.2912 53.625 69.7599 53.7188 70.5653ZM59.2802 77.1321C60.7078 77.1321 61.7177 76.429 62.0075 75.3636L60.8015 75.1463C60.5714 75.7642 60.0174 76.0795 59.293 76.0795C58.2021 76.0795 57.4691 75.3722 57.435 74.1108H62.0885V73.6591C62.0885 71.294 60.6737 70.3693 59.1907 70.3693C57.3669 70.3693 56.1652 71.7585 56.1652 73.7699C56.1652 75.8026 57.3498 77.1321 59.2802 77.1321ZM57.4393 73.1562C57.4904 72.2273 58.1637 71.4219 59.1992 71.4219C60.1879 71.4219 60.8356 72.1548 60.8399 73.1562H57.4393ZM65.287 77.1449C66.3694 77.1449 66.9788 76.5952 67.2216 76.1051H67.2728V77H68.5171V72.6534C68.5171 70.7486 67.0171 70.3693 65.9773 70.3693C64.7927 70.3693 63.7018 70.8466 63.2756 72.0398L64.4731 72.3125C64.6606 71.848 65.1378 71.4006 65.9944 71.4006C66.8168 71.4006 67.2387 71.831 67.2387 72.5724V72.6023C67.2387 73.0668 66.7614 73.0582 65.5853 73.1946C64.3452 73.3395 63.0753 73.6634 63.0753 75.1506C63.0753 76.4375 64.0427 77.1449 65.287 77.1449ZM65.564 76.1222C64.8438 76.1222 64.3239 75.7983 64.3239 75.1676C64.3239 74.4858 64.929 74.2429 65.6663 74.1449C66.0796 74.0895 67.0597 73.9787 67.243 73.7955V74.6392C67.243 75.4148 66.6251 76.1222 65.564 76.1222ZM70.0942 77H71.3683V73.0028C71.3683 72.1463 72.0288 71.5284 72.9323 71.5284C73.1965 71.5284 73.4948 71.5753 73.597 71.6051V70.3864C73.4692 70.3693 73.2178 70.3565 73.0558 70.3565C72.2888 70.3565 71.6325 70.7912 71.3939 71.4943H71.3257V70.4545H70.0942V77ZM77.1024 77.1321C78.6493 77.1321 79.6507 76.2031 79.7913 74.929H78.5513C78.3893 75.6364 77.8396 76.054 77.1109 76.054C76.0328 76.054 75.3382 75.1548 75.3382 73.7273C75.3382 72.3253 76.0456 71.4432 77.1109 71.4432C77.9206 71.4432 78.4149 71.9545 78.5513 72.5682H79.7913C79.6549 71.2472 78.5768 70.3693 77.0896 70.3693C75.2444 70.3693 74.0513 71.7585 74.0513 73.7571C74.0513 75.7301 75.2018 77.1321 77.1024 77.1321ZM82.308 73.1136C82.308 72.0696 82.9685 71.473 83.8762 71.473C84.7541 71.473 85.2782 72.0312 85.2782 72.9901V77H86.5523V72.8366C86.5523 71.2045 85.6575 70.3693 84.3109 70.3693C83.2924 70.3693 82.6788 70.8125 82.3719 71.5199H82.291V68.2727H81.0339V77H82.308V73.1136ZM91.1884 77H92.4626V72.9645C92.4626 72.0824 93.0805 71.4688 93.8049 71.4688C94.5123 71.4688 95.0023 71.9375 95.0023 72.6491V77H96.2722V72.8281C96.2722 72.0398 96.7537 71.4688 97.5847 71.4688C98.258 71.4688 98.812 71.8438 98.812 72.7301V77H100.086V72.6108C100.086 71.1151 99.2509 70.3693 98.0662 70.3693C97.1245 70.3693 96.4171 70.821 96.1018 71.5199H96.0336C95.7481 70.804 95.1472 70.3693 94.2736 70.3693C93.4086 70.3693 92.7651 70.7997 92.4924 71.5199H92.4114V70.4545H91.1884V77ZM103.579 77.1449C104.661 77.1449 105.27 76.5952 105.513 76.1051H105.565V77H106.809V72.6534C106.809 70.7486 105.309 70.3693 104.269 70.3693C103.084 70.3693 101.993 70.8466 101.567 72.0398L102.765 72.3125C102.952 71.848 103.43 71.4006 104.286 71.4006C105.109 71.4006 105.53 71.831 105.53 72.5724V72.6023C105.53 73.0668 105.053 73.0582 103.877 73.1946C102.637 73.3395 101.367 73.6634 101.367 75.1506C101.367 76.4375 102.334 77.1449 103.579 77.1449ZM103.856 76.1222C103.136 76.1222 102.616 75.7983 102.616 75.1676C102.616 74.4858 103.221 74.2429 103.958 74.1449C104.371 74.0895 105.351 73.9787 105.535 73.7955V74.6392C105.535 75.4148 104.917 76.1222 103.856 76.1222ZM108.386 77H109.66V70.4545H108.386V77ZM109.029 69.4446C109.468 69.4446 109.835 69.1037 109.835 68.6861C109.835 68.2685 109.468 67.9233 109.029 67.9233C108.586 67.9233 108.224 68.2685 108.224 68.6861C108.224 69.1037 108.586 69.4446 109.029 69.4446ZM112.528 68.2727H111.254V77H112.528V68.2727Z" fill="#828282"/>
<path fill-rule="evenodd" clip-rule="evenodd" d="M35.8966 74.8786L39.4637 78.4884C39.6235 78.6602 39.7098 78.887 39.7043 79.1209C39.6988 79.3548 39.6019 79.5774 39.4341 79.7415C39.2664 79.9056 39.041 79.9983 38.8057 80C38.5704 80.0017 38.3437 79.9122 38.1736 79.7505L34.6083 76.1443C33.2326 77.1747 31.5146 77.6468 29.802 77.4651C28.0894 77.2833 26.5103 76.4613 25.3843 75.1654C24.2584 73.8695 23.6698 72.1965 23.7377 70.4853C23.8056 68.7741 24.525 67.1525 25.7502 65.9489C26.9753 64.7453 28.6147 64.0495 30.3364 64.0025C32.0581 63.9556 33.7333 64.5609 35.023 65.6959C36.3127 66.831 37.1205 68.4109 37.2826 70.1158C37.4448 71.8207 36.9494 73.5232 35.8966 74.8786V74.8786ZM30.5224 75.7023C31.843 75.7023 33.1096 75.1806 34.0434 74.2521C34.9773 73.3236 35.5019 72.0642 35.5019 70.7511C35.5019 69.438 34.9773 68.1786 34.0434 67.2501C33.1096 66.3215 31.843 65.7999 30.5224 65.7999C29.2018 65.7999 27.9352 66.3215 27.0014 67.2501C26.0675 68.1786 25.5429 69.438 25.5429 70.7511C25.5429 72.0642 26.0675 73.3236 27.0014 74.2521C27.9352 75.1806 29.2018 75.7023 30.5224 75.7023V75.7023Z" fill="#828282"/>
<path d="M281.171 77H282.463L283.461 74.1768H287.433L288.431 77H289.723L286.059 67.1357H284.842L281.171 77ZM285.437 68.6123H285.464L287.063 73.1309H283.837L285.437 68.6123ZM293.544 79.5293C295.472 79.5293 296.682 78.4492 296.682 76.8018V69.8906H295.492V71.0938H295.465C295.027 70.3008 294.234 69.7539 293.229 69.7539C291.425 69.7539 290.188 71.1895 290.188 73.3975V73.4043C290.188 75.626 291.411 77.0684 293.202 77.0684C294.221 77.0684 295.041 76.5625 295.465 75.7764H295.492V76.6855C295.492 77.7861 294.781 78.4766 293.53 78.4766C292.56 78.4766 291.883 78.1621 291.657 77.6494L291.63 77.5879H290.434L290.447 77.6494C290.68 78.7021 291.787 79.5293 293.544 79.5293ZM293.462 76.0156C292.197 76.0156 291.404 75.0176 291.404 73.4043V73.3975C291.404 71.8184 292.197 70.8066 293.462 70.8066C294.665 70.8066 295.492 71.832 295.492 73.3975V73.4043C295.492 74.9834 294.672 76.0156 293.462 76.0156ZM301.146 77.1367C302.697 77.1367 303.859 76.207 304.092 75.0312L304.105 74.9629H302.937L302.916 75.0244C302.711 75.6328 302.075 76.084 301.173 76.084C299.908 76.084 299.102 75.2295 299.074 73.7666H304.194V73.3291C304.194 71.1963 303.012 69.7539 301.07 69.7539C299.129 69.7539 297.871 71.2646 297.871 73.4658V73.4727C297.871 75.708 299.102 77.1367 301.146 77.1367ZM301.063 70.8066C302.103 70.8066 302.868 71.4561 302.984 72.8369H299.095C299.225 71.5107 300.031 70.8066 301.063 70.8066Z" fill="black"/>
<path d="M310.218 72L312.897 74.4723L315.576 72L316.398 72.7611L312.897 76L309.395 72.7611L310.218 72Z" fill="#272727"/>
<rect x="340" y="59" width="72" height="27" rx="6" fill="#F7F8FE"/>
<path d="M352.908 77.1641C355.39 77.1641 356.894 75.6943 356.894 73.5342V67.1357H355.369V73.4111C355.369 74.8467 354.48 75.8105 352.908 75.8105C351.336 75.8105 350.44 74.8467 350.44 73.4111V67.1357H348.909V73.5342C348.909 75.6943 350.434 77.1641 352.908 77.1641ZM358.534 77H360.011V72.8096C360.011 71.6885 360.681 70.9365 361.72 70.9365C362.745 70.9365 363.251 71.5449 363.251 72.625V77H364.734V72.3447C364.734 70.6904 363.825 69.6719 362.246 69.6719C361.159 69.6719 360.421 70.1641 360.045 70.8955H360.011V69.8086H358.534V77ZM366.163 77H367.64V72.6729C367.64 71.6543 368.228 71.0186 369.178 71.0186C369.465 71.0186 369.725 71.0527 369.841 71.1006V69.7266C369.725 69.7061 369.54 69.6719 369.328 69.6719C368.48 69.6719 367.838 70.1777 367.619 70.998H367.585V69.8086H366.163V77ZM373.512 77.1436C375.255 77.1436 376.362 76.1045 376.595 74.9629L376.608 74.8877H375.207L375.187 74.9424C375.002 75.4824 374.421 75.9336 373.546 75.9336C372.37 75.9336 371.625 75.1406 371.598 73.7803H376.69V73.2812C376.69 71.1211 375.453 69.6719 373.437 69.6719C371.42 69.6719 370.121 71.1758 370.121 73.4248V73.4316C370.121 75.7012 371.399 77.1436 373.512 77.1436ZM373.443 70.8818C374.407 70.8818 375.104 71.4902 375.228 72.7344H371.618C371.748 71.5312 372.486 70.8818 373.443 70.8818ZM379.951 77.1299C380.901 77.1299 381.735 76.6377 382.152 75.8652H382.18V77H383.663V72.0439C383.663 70.6016 382.549 69.6719 380.792 69.6719C379.021 69.6719 377.948 70.6221 377.846 71.8594L377.839 71.9346H379.233L379.247 71.873C379.37 71.2988 379.896 70.8955 380.751 70.8955C381.667 70.8955 382.18 71.374 382.18 72.167V72.707L380.225 72.8232C378.522 72.9258 377.552 73.6914 377.552 74.9424V74.9561C377.552 76.248 378.516 77.1299 379.951 77.1299ZM379.042 74.9219V74.9082C379.042 74.2998 379.534 73.9102 380.423 73.8555L382.18 73.7461V74.3066C382.18 75.2432 381.394 75.9473 380.354 75.9473C379.562 75.9473 379.042 75.5508 379.042 74.9219ZM387.785 77.1436C388.817 77.1436 389.61 76.624 390.041 75.7832H390.068V77H391.552V67.1357H390.068V71.0322H390.041C389.61 70.1846 388.79 69.6719 387.771 69.6719C385.967 69.6719 384.777 71.1074 384.777 73.3975V73.4043C384.777 75.6943 385.953 77.1436 387.785 77.1436ZM388.175 75.8721C387.006 75.8721 386.288 74.9355 386.288 73.4043V73.3975C386.288 71.8799 387.013 70.9365 388.175 70.9365C389.282 70.9365 390.075 71.9072 390.075 73.3975V73.4043C390.075 74.9014 389.289 75.8721 388.175 75.8721Z" fill="#5373E5"/>
<path d="M398.259 72L400.938 74.4723L403.617 72L404.439 72.7611L400.938 76L397.436 72.7611L398.259 72Z" fill="#5373E5"/>
<path d="M440.184 77.1641C442.439 77.1641 443.827 76.0566 443.827 74.3066V74.2998C443.827 72.7959 442.979 71.9756 440.956 71.5312L439.862 71.292C438.577 71.0117 437.982 70.5059 437.982 69.6992V69.6924C437.982 68.7422 438.844 68.1133 440.163 68.1064C441.414 68.1064 442.255 68.7012 442.405 69.7061L442.419 69.8018H443.649L443.643 69.6992C443.533 68.0859 442.125 66.9717 440.197 66.9717C438.167 66.9717 436.731 68.1064 436.725 69.7266V69.7334C436.725 71.1758 437.627 72.0439 439.555 72.4678L440.648 72.707C442.002 73.0078 442.569 73.4932 442.569 74.3613V74.3682C442.569 75.3867 441.674 76.0293 440.252 76.0293C438.823 76.0293 437.866 75.4209 437.723 74.4297L437.709 74.334H436.479L436.485 74.4297C436.608 76.1182 438.051 77.1641 440.184 77.1641ZM447.396 77.1367C447.628 77.1367 447.881 77.1094 448.031 77.0889V76.125C447.929 76.1318 447.792 76.1523 447.648 76.1523C447.013 76.1523 446.678 75.9404 446.678 75.1816V70.875H448.031V69.8906H446.678V67.9697H445.447V69.8906H444.408V70.875H445.447V75.1885C445.447 76.5488 446.09 77.1367 447.396 77.1367ZM451.251 77.1367C452.201 77.1367 453.056 76.624 453.473 75.8447H453.5V77H454.689V72.085C454.689 70.6631 453.637 69.7539 451.955 69.7539C450.28 69.7539 449.262 70.6973 449.159 71.8662L449.152 71.9414H450.301L450.314 71.8799C450.451 71.2441 451.025 70.8066 451.941 70.8066C452.933 70.8066 453.5 71.333 453.5 72.2012V72.7959L451.463 72.9121C449.829 73.0078 448.886 73.7666 448.886 74.9766V74.9902C448.886 76.2822 449.836 77.1367 451.251 77.1367ZM450.103 74.9902V74.9766C450.103 74.3135 450.649 73.8896 451.6 73.835L453.5 73.7188V74.2998C453.5 75.332 452.639 76.1045 451.518 76.1045C450.663 76.1045 450.103 75.6738 450.103 74.9902ZM456.2 77H457.39V72.5566C457.39 71.5518 457.991 70.8887 458.914 70.8887C459.201 70.8887 459.454 70.9229 459.55 70.957V69.8018C459.454 69.7881 459.276 69.7539 459.071 69.7539C458.237 69.7539 457.581 70.2529 457.349 71.0391H457.321V69.8906H456.2V77Z" fill="black"/>
<path d="M465.288 72L467.967 74.4723L470.646 72L471.469 72.7611L467.967 76L464.465 72.7611L465.288 72Z" fill="#272727"/>
<rect x="495" y="59" width="101" height="27" rx="6" fill="#F7F8FE"/>
<path d="M503.909 77H505.44V72.8711H509.679V71.5791H505.44V68.4551H510.068V67.1357H503.909V77ZM511.224 77H512.7V72.6729C512.7 71.6543 513.288 71.0186 514.238 71.0186C514.525 71.0186 514.785 71.0527 514.901 71.1006V69.7266C514.785 69.7061 514.601 69.6719 514.389 69.6719C513.541 69.6719 512.898 70.1777 512.68 70.998H512.646V69.8086H511.224V77ZM518.593 77.1436C520.65 77.1436 522.004 75.7217 522.004 73.4043V73.3906C522.004 71.0869 520.637 69.6719 518.586 69.6719C516.542 69.6719 515.182 71.0938 515.182 73.3906V73.4043C515.182 75.7148 516.528 77.1436 518.593 77.1436ZM518.6 75.9062C517.444 75.9062 516.692 74.9971 516.692 73.4043V73.3906C516.692 71.8184 517.451 70.9092 518.586 70.9092C519.741 70.9092 520.493 71.8184 520.493 73.3906V73.4043C520.493 74.9902 519.755 75.9062 518.6 75.9062ZM523.146 77H524.622V72.5566C524.622 71.627 525.244 70.9365 526.119 70.9365C526.953 70.9365 527.479 71.4697 527.479 72.3037V77H528.929V72.502C528.929 71.5928 529.537 70.9365 530.412 70.9365C531.287 70.9365 531.786 71.4766 531.786 72.4131V77H533.27V72.0576C533.27 70.6152 532.34 69.6719 530.918 69.6719C529.893 69.6719 529.045 70.2119 528.676 71.0869H528.642C528.354 70.1846 527.63 69.6719 526.639 69.6719C525.695 69.6719 524.964 70.1709 524.656 70.9229H524.622V69.8086H523.146V77ZM537.72 77H539.251V73.6299H541.391C543.325 73.6299 544.665 72.3105 544.665 70.3828V70.3691C544.665 68.4346 543.325 67.1357 541.391 67.1357H537.72V77ZM541.008 68.4277C542.341 68.4277 543.106 69.1455 543.106 70.376V70.3896C543.106 71.627 542.341 72.3447 541.008 72.3447H539.251V68.4277H541.008ZM548.582 77.1436C550.325 77.1436 551.433 76.1045 551.665 74.9629L551.679 74.8877H550.277L550.257 74.9424C550.072 75.4824 549.491 75.9336 548.616 75.9336C547.44 75.9336 546.695 75.1406 546.668 73.7803H551.761V73.2812C551.761 71.1211 550.523 69.6719 548.507 69.6719C546.49 69.6719 545.191 71.1758 545.191 73.4248V73.4316C545.191 75.7012 546.47 77.1436 548.582 77.1436ZM548.514 70.8818C549.478 70.8818 550.175 71.4902 550.298 72.7344H546.688C546.818 71.5312 547.557 70.8818 548.514 70.8818ZM555.999 77.1436C558.057 77.1436 559.41 75.7217 559.41 73.4043V73.3906C559.41 71.0869 558.043 69.6719 555.992 69.6719C553.948 69.6719 552.588 71.0938 552.588 73.3906V73.4043C552.588 75.7148 553.935 77.1436 555.999 77.1436ZM556.006 75.9062C554.851 75.9062 554.099 74.9971 554.099 73.4043V73.3906C554.099 71.8184 554.857 70.9092 555.992 70.9092C557.147 70.9092 557.899 71.8184 557.899 73.3906V73.4043C557.899 74.9902 557.161 75.9062 556.006 75.9062ZM560.552 79.3926H562.028V75.79H562.062C562.486 76.624 563.313 77.1436 564.332 77.1436C566.137 77.1436 567.319 75.7012 567.319 73.4111V73.4043C567.319 71.1074 566.144 69.6719 564.312 69.6719C563.286 69.6719 562.493 70.1914 562.062 71.0459H562.028V69.8086H560.552V79.3926ZM563.929 75.8721C562.814 75.8721 562.021 74.9014 562.021 73.4111V73.4043C562.021 71.9072 562.808 70.9365 563.929 70.9365C565.084 70.9365 565.815 71.873 565.815 73.4043V73.4111C565.815 74.9287 565.091 75.8721 563.929 75.8721ZM568.522 77H569.999V67.1357H568.522V77ZM574.586 77.1436C576.329 77.1436 577.437 76.1045 577.669 74.9629L577.683 74.8877H576.281L576.261 74.9424C576.076 75.4824 575.495 75.9336 574.62 75.9336C573.444 75.9336 572.699 75.1406 572.672 73.7803H577.765V73.2812C577.765 71.1211 576.527 69.6719 574.511 69.6719C572.494 69.6719 571.195 71.1758 571.195 73.4248V73.4316C571.195 75.7012 572.474 77.1436 574.586 77.1436ZM574.518 70.8818C575.481 70.8818 576.179 71.4902 576.302 72.7344H572.692C572.822 71.5312 573.561 70.8818 574.518 70.8818Z" fill="#5373E5"/>
<path d="M582.341 72L585.02 74.4723L587.699 72L588.521 72.7611L585.02 76L581.518 72.7611L582.341 72Z" fill="#5373E5"/>
<path d="M640.171 77H641.463L642.461 74.1768H646.433L647.431 77H648.723L645.059 67.1357H643.842L640.171 77ZM644.437 68.6123H644.464L646.063 73.1309H642.837L644.437 68.6123ZM649.734 77H650.924V67.1357H649.734V77ZM652.592 77H653.781V67.1357H652.592V77ZM658.443 77H659.674V72.7275H664.042V71.6338H659.674V68.2432H664.432V67.1357H658.443V77ZM666.325 68.6875C666.742 68.6875 667.07 68.3525 667.07 67.9424C667.07 67.5254 666.742 67.1973 666.325 67.1973C665.915 67.1973 665.58 67.5254 665.58 67.9424C665.58 68.3525 665.915 68.6875 666.325 68.6875ZM665.73 77H666.92V69.8906H665.73V77ZM668.602 77H669.791V67.1357H668.602V77ZM673.708 77.1367C673.94 77.1367 674.193 77.1094 674.344 77.0889V76.125C674.241 76.1318 674.104 76.1523 673.961 76.1523C673.325 76.1523 672.99 75.9404 672.99 75.1816V70.875H674.344V69.8906H672.99V67.9697H671.76V69.8906H670.721V70.875H671.76V75.1885C671.76 76.5488 672.402 77.1367 673.708 77.1367ZM678.343 77.1367C679.895 77.1367 681.057 76.207 681.289 75.0312L681.303 74.9629H680.134L680.113 75.0244C679.908 75.6328 679.272 76.084 678.37 76.084C677.105 76.084 676.299 75.2295 676.271 73.7666H681.392V73.3291C681.392 71.1963 680.209 69.7539 678.268 69.7539C676.326 69.7539 675.068 71.2646 675.068 73.4658V73.4727C675.068 75.708 676.299 77.1367 678.343 77.1367ZM678.261 70.8066C679.3 70.8066 680.065 71.4561 680.182 72.8369H676.292C676.422 71.5107 677.229 70.8066 678.261 70.8066ZM682.595 77H683.784V72.5566C683.784 71.5518 684.386 70.8887 685.309 70.8887C685.596 70.8887 685.849 70.9229 685.944 70.957V69.8018C685.849 69.7881 685.671 69.7539 685.466 69.7539C684.632 69.7539 683.976 70.2529 683.743 71.0391H683.716V69.8906H682.595V77ZM689.438 77.1367C691.023 77.1367 692.199 76.2617 692.199 75.0176V75.0107C692.199 73.999 691.68 73.4316 690.244 73.083L689.116 72.8096C688.33 72.6182 688.009 72.2832 688.009 71.7979V71.791C688.009 71.1621 688.542 70.7451 689.403 70.7451C690.285 70.7451 690.812 71.2031 690.907 71.8936L690.914 71.9414H692.049L692.042 71.8525C691.953 70.6631 690.962 69.7539 689.403 69.7539C687.865 69.7539 686.792 70.6221 686.792 71.8457V71.8525C686.792 72.8779 687.441 73.5 688.781 73.8213L689.909 74.0947C690.716 74.293 690.982 74.5801 690.982 75.0928V75.0996C690.982 75.7422 690.408 76.1455 689.444 76.1455C688.474 76.1455 687.947 75.7285 687.804 75.0176L687.79 74.9492H686.601L686.607 75.0107C686.751 76.2822 687.763 77.1367 689.438 77.1367Z" fill="black"/>
<g clip-path="url(#clip0)">
<path d="M634.498 65H621.502C620.169 65 619.497 66.6166 620.441 67.5607L625.5 72.6213V78C625.5 78.4721 625.722 78.9167 626.1 79.25L628.1 80.7208C629.077 81.4038 630.5 80.7689 630.5 79.5208V72.6213L635.559 67.5607C636.501 66.6185 635.834 65 634.498 65ZM629 72V79.5L627 78V72L621.5 66.5H634.5L629 72Z" fill="#333333"/>
</g>
<defs>
<clipPath id="clip0">
<rect width="16" height="16" fill="white" transform="translate(620 65)"/>
</clipPath>
</defs>
</svg>
