<svg width="116" height="88" viewBox="0 0 116 88" fill="none" xmlns="http://www.w3.org/2000/svg">
<g clip-path="url(#clip0)">
<rect x="-6" y="-20" width="128" height="128" fill="#5373E5"/>
<path d="M19.75 65H21.5859L22.6094 61.9531H26.9141L27.9375 65H29.7812L25.7109 53.7266H23.8203L19.75 65ZM24.7422 55.5938H24.7812L26.4453 60.5469H23.0781L24.7422 55.5938ZM33.3672 65.1641C34.6172 65.1641 35.4531 64.5938 35.8828 63.7656H35.9219V65H37.6172V56.7812H35.9219V61.5781C35.9219 62.8594 35.1562 63.7109 33.9688 63.7109C32.7969 63.7109 32.2188 63.0234 32.2188 61.7812V56.7812H30.5312V62.1094C30.5312 64 31.5625 65.1641 33.3672 65.1641ZM42.1719 65.1641C42.5156 65.1641 42.8359 65.125 43.0312 65.0938V63.7891C42.9062 63.8047 42.7578 63.8203 42.5781 63.8203C41.8672 63.8203 41.4922 63.5703 41.4922 62.7344V58.125H43.0312V56.7812H41.4922V54.6406H39.7656V56.7812H38.5859V58.125H39.7656V62.8359C39.7656 64.4766 40.5469 65.1641 42.1719 65.1641ZM47.7578 65.1641C50.1094 65.1641 51.6562 63.5391 51.6562 60.8906V60.875C51.6562 58.2422 50.0938 56.625 47.75 56.625C45.4141 56.625 43.8594 58.25 43.8594 60.875V60.8906C43.8594 63.5312 45.3984 65.1641 47.7578 65.1641ZM47.7656 63.75C46.4453 63.75 45.5859 62.7109 45.5859 60.8906V60.875C45.5859 59.0781 46.4531 58.0391 47.75 58.0391C49.0703 58.0391 49.9297 59.0781 49.9297 60.875V60.8906C49.9297 62.7031 49.0859 63.75 47.7656 63.75ZM61.2344 65.1875C63.7266 65.1875 65.5938 63.6797 65.9453 61.4375L65.9531 61.3594H64.2188L64.1953 61.4297C63.7734 62.8594 62.7344 63.6406 61.2344 63.6406C59.1484 63.6406 57.7969 61.9688 57.7969 59.3594V59.3516C57.7969 56.7422 59.1406 55.0859 61.2344 55.0859C62.75 55.0859 63.7969 55.8906 64.1719 57.2109L64.2188 57.3672H65.9531L65.9375 57.2969C65.5859 55.0703 63.7188 53.5391 61.2344 53.5391C58.0391 53.5391 56.0078 55.7734 56.0078 59.3516V59.3594C56.0078 62.9375 58.0391 65.1875 61.2344 65.1875ZM67.3984 65H69.0859V53.7266H67.3984V65ZM74.3281 65.1641C76.3203 65.1641 77.5859 63.9766 77.8516 62.6719L77.8672 62.5859H76.2656L76.2422 62.6484C76.0312 63.2656 75.3672 63.7812 74.3672 63.7812C73.0234 63.7812 72.1719 62.875 72.1406 61.3203H77.9609V60.75C77.9609 58.2812 76.5469 56.625 74.2422 56.625C71.9375 56.625 70.4531 58.3438 70.4531 60.9141V60.9219C70.4531 63.5156 71.9141 65.1641 74.3281 65.1641ZM74.25 58.0078C75.3516 58.0078 76.1484 58.7031 76.2891 60.125H72.1641C72.3125 58.75 73.1562 58.0078 74.25 58.0078ZM81.6875 65.1484C82.7734 65.1484 83.7266 64.5859 84.2031 63.7031H84.2344V65H85.9297V59.3359C85.9297 57.6875 84.6562 56.625 82.6484 56.625C80.625 56.625 79.3984 57.7109 79.2812 59.125L79.2734 59.2109H80.8672L80.8828 59.1406C81.0234 58.4844 81.625 58.0234 82.6016 58.0234C83.6484 58.0234 84.2344 58.5703 84.2344 59.4766V60.0938L82 60.2266C80.0547 60.3438 78.9453 61.2188 78.9453 62.6484V62.6641C78.9453 64.1406 80.0469 65.1484 81.6875 65.1484ZM80.6484 62.625V62.6094C80.6484 61.9141 81.2109 61.4688 82.2266 61.4062L84.2344 61.2812V61.9219C84.2344 62.9922 83.3359 63.7969 82.1484 63.7969C81.2422 63.7969 80.6484 63.3438 80.6484 62.625ZM87.5703 65H89.2578V60.2109C89.2578 58.9297 90.0234 58.0703 91.2109 58.0703C92.3828 58.0703 92.9609 58.7656 92.9609 60V65H94.6562V59.6797C94.6562 57.7891 93.6172 56.625 91.8125 56.625C90.5703 56.625 89.7266 57.1875 89.2969 58.0234H89.2578V56.7812H87.5703V65Z" fill="white"/>
<path d="M51.6111 39.3832L55.0556 39.9773V38.303L51.6111 37.6549V39.3832ZM72.2778 29.9318H70.5556V28.2576C70.5556 27.598 70.4219 26.9448 70.1623 26.3354C69.9026 25.726 69.522 25.1723 69.0423 24.7059C68.5625 24.2395 67.9929 23.8696 67.3661 23.6171C66.7392 23.3647 66.0674 23.2348 65.3889 23.2348H59.3611L59.3611 19.8371C59.3611 19.6151 59.2704 19.4022 59.1089 19.2452C58.9474 19.0882 58.7284 19 58.5 19C58.2716 19 58.0526 19.0882 57.8911 19.2452C57.7296 19.4022 57.6389 19.6151 57.6389 19.8371L57.6389 23.2348H51.6111C50.9326 23.2348 50.2608 23.3647 49.6339 23.6171C49.0071 23.8696 48.4375 24.2395 47.9577 24.7059C47.478 25.1723 47.0974 25.726 46.8377 26.3354C46.5781 26.9448 46.4444 27.598 46.4444 28.2576V29.9318H44.7222C44.4961 29.9318 44.2721 29.9751 44.0631 30.0592C43.8542 30.1434 43.6643 30.2667 43.5044 30.4222C43.3445 30.5776 43.2176 30.7622 43.1311 30.9653C43.0445 31.1685 43 31.3862 43 31.606V38.303C43 38.7471 43.1815 39.1729 43.5044 39.4869C43.8274 39.8009 44.2655 39.9773 44.7222 39.9773H46.4444C46.4444 40.6369 46.5781 41.29 46.8377 41.8994C47.0974 42.5088 47.478 43.0625 47.9577 43.5289C48.4375 43.9953 49.0071 44.3653 49.6339 44.6177C50.2608 44.8701 50.9326 45 51.6111 45H65.3889C66.0674 45 66.7392 44.8701 67.3661 44.6177C67.9929 44.3653 68.5625 43.9953 69.0423 43.5289C69.522 43.0625 69.9026 42.5088 70.1623 41.8994C70.4219 41.29 70.5556 40.6369 70.5556 39.9773H72.2778C72.7345 39.9773 73.1726 39.8009 73.4956 39.4869C73.8185 39.1729 74 38.7471 74 38.303V31.606C74 31.3862 73.9555 31.1685 73.8689 30.9653C73.7824 30.7622 73.6555 30.5776 73.4956 30.4222C73.3357 30.2667 73.1458 30.1434 72.9369 30.0592C72.7279 29.9751 72.5039 29.9318 72.2778 29.9318ZM46.4444 38.303H44.7222V31.606H46.4444V38.303ZM68.8333 39.9773C68.8306 40.8645 68.4669 41.7147 67.8215 42.3421C67.1761 42.9695 66.3016 43.3231 65.3889 43.3258H51.6111C50.6984 43.3231 49.8239 42.9695 49.1785 42.3421C48.5331 41.7147 48.1694 40.8645 48.1667 39.9773V28.2576C48.1667 27.8178 48.2558 27.3824 48.4289 26.9761C48.6019 26.5699 48.8557 26.2007 49.1755 25.8898C49.4954 25.5789 49.8751 25.3322 50.293 25.1639C50.7109 24.9957 51.1588 24.9091 51.6111 24.9091H65.3889C65.8412 24.9091 66.2891 24.9957 66.707 25.1639C67.1249 25.3322 67.5046 25.5789 67.8245 25.8898C68.1443 26.2007 68.3981 26.5699 68.5711 26.9761C68.7442 27.3824 68.8333 27.8178 68.8333 28.2576V39.9773ZM72.2778 38.303H70.5556V31.606H72.2778V38.303ZM63.6667 28.2576C62.9854 28.2576 62.3195 28.4539 61.753 28.8219C61.1866 29.1898 60.7451 29.7128 60.4844 30.3246C60.2237 30.9365 60.1555 31.6098 60.2884 32.2593C60.4213 32.9088 60.7494 33.5055 61.2311 33.9738C61.7128 34.4421 62.3265 34.761 62.9947 34.8902C63.6628 35.0194 64.3554 34.9531 64.9848 34.6996C65.6142 34.4462 66.1521 34.017 66.5306 33.4664C66.9091 32.9157 67.1111 32.2683 67.1111 31.606C67.1101 30.7183 66.7468 29.8672 66.1011 29.2394C65.4554 28.6117 64.5799 28.2586 63.6667 28.2576ZM63.6667 33.2803C63.326 33.2803 62.9931 33.1821 62.7098 32.9981C62.4266 32.8142 62.2059 32.5527 62.0755 32.2468C61.9452 31.9408 61.9111 31.6042 61.9775 31.2794C62.044 30.9546 62.208 30.6563 62.4489 30.4222C62.6897 30.188 62.9966 30.0286 63.3307 29.964C63.6648 29.8994 64.011 29.9325 64.3257 30.0592C64.6404 30.186 64.9094 30.4006 65.0986 30.6759C65.2879 30.9512 65.3889 31.2749 65.3889 31.606C65.3891 31.826 65.3447 32.0438 65.2582 32.247C65.1717 32.4502 65.0449 32.6348 64.8849 32.7903C64.7249 32.9459 64.535 33.0692 64.326 33.1532C64.1169 33.2373 63.8929 33.2805 63.6667 33.2803ZM61.9444 39.9773L65.4336 39.3832V37.6549L61.9444 38.303V39.9773ZM56.7778 39.9773H60.2222V38.303H56.7778V39.9773ZM53.3333 28.2576C52.6521 28.2576 51.9861 28.4539 51.4197 28.8219C50.8533 29.1898 50.4118 29.7128 50.1511 30.3246C49.8904 30.9365 49.8222 31.6098 49.9551 32.2593C50.088 32.9088 50.416 33.5055 50.8977 33.9738C51.3795 34.4421 51.9932 34.761 52.6614 34.8902C53.3295 35.0194 54.0221 34.9531 54.6515 34.6996C55.2809 34.4462 55.8188 34.017 56.1973 33.4664C56.5758 32.9157 56.7778 32.2683 56.7778 31.606C56.7767 30.7183 56.4135 29.8672 55.7678 29.2394C55.122 28.6117 54.2465 28.2586 53.3333 28.2576ZM53.3333 33.2803C52.9927 33.2803 52.6597 33.1821 52.3765 32.9981C52.0933 32.8142 51.8726 32.5527 51.7422 32.2468C51.6119 31.9408 51.5777 31.6042 51.6442 31.2794C51.7107 30.9546 51.8747 30.6563 52.1155 30.4222C52.3564 30.188 52.6633 30.0286 52.9973 29.964C53.3314 29.8994 53.6777 29.9325 53.9924 30.0592C54.3071 30.186 54.5761 30.4006 54.7653 30.6759C54.9545 30.9512 55.0556 31.2749 55.0556 31.606C55.0558 31.826 55.0113 32.0438 54.9249 32.247C54.8384 32.4502 54.7115 32.6348 54.5516 32.7903C54.3916 32.9459 54.2017 33.0692 53.9926 33.1532C53.7836 33.2373 53.5596 33.2805 53.3333 33.2803Z" fill="white"/>
</g>
<defs>
<clipPath id="clip0">
<rect width="116" height="88" fill="white"/>
</clipPath>
</defs>
</svg>
