<svg width="256" height="59" viewBox="0 0 256 59" fill="none" xmlns="http://www.w3.org/2000/svg">
<g clip-path="url(#clip0)">
<rect width="256" height="65" fill="#F9FBFF"/>
<path d="M10.145 15.04H11.5952L12.2505 13.0366H15.1348L15.79 15.04H17.2456L14.4741 7.28955H12.9165L10.145 15.04ZM13.6792 8.66992H13.7114L14.7856 11.9678H12.5996L13.6792 8.66992ZM17.9385 16.9199H19.2759V14.0786H19.3027C19.625 14.7446 20.2749 15.1528 21.0859 15.1528C22.5146 15.1528 23.4277 14.0249 23.4277 12.1987V12.1934C23.4277 10.3564 22.5146 9.22852 21.0698 9.22852C20.2534 9.22852 19.6304 9.64746 19.3027 10.3296H19.2759V9.34668H17.9385V16.9199ZM20.6724 14.0249C19.8452 14.0249 19.2651 13.3105 19.2651 12.1987V12.1934C19.2651 11.0762 19.8452 10.3564 20.6724 10.3564C21.5264 10.3564 22.0635 11.0547 22.0635 12.1934V12.1987C22.0635 13.3213 21.5264 14.0249 20.6724 14.0249ZM24.2871 15.04H25.6245V11.7046C25.6245 10.9043 26.0811 10.4155 26.8384 10.4155C27.064 10.4155 27.2681 10.4478 27.3809 10.4907V9.28223C27.2788 9.25537 27.123 9.22852 26.9565 9.22852C26.2852 9.22852 25.7856 9.63135 25.6138 10.2974H25.5869V9.34668H24.2871V15.04ZM28.7773 8.53027C29.1963 8.53027 29.5186 8.19727 29.5186 7.7998C29.5186 7.3916 29.1963 7.06396 28.7773 7.06396C28.3584 7.06396 28.0308 7.3916 28.0308 7.7998C28.0308 8.19727 28.3584 8.53027 28.7773 8.53027ZM28.106 15.04H29.4434V9.34668H28.106V15.04ZM30.6196 15.04H31.957V7.28955H30.6196V15.04ZM35.3247 15.04H40.771V13.9067H37.1562V13.8477L38.8643 12.2256C40.2285 10.915 40.6528 10.2974 40.6528 9.38428V9.37354C40.6528 8.09521 39.5679 7.15527 38.0156 7.15527C36.4419 7.15527 35.2495 8.17041 35.2495 9.58838V9.62598H36.5493V9.58838C36.5654 8.8418 37.167 8.26709 38.0264 8.26709C38.7729 8.26709 39.2939 8.76123 39.2993 9.4541V9.46484C39.2993 10.0396 39.0791 10.4316 38.064 11.4253L35.3247 14.0947V15.04ZM44.7241 15.1743C46.6201 15.1743 47.7695 13.6328 47.7695 11.1675V11.1567C47.7695 8.69141 46.6201 7.15527 44.7241 7.15527C42.8228 7.15527 41.6787 8.69141 41.6787 11.1567V11.1675C41.6787 13.6328 42.8228 15.1743 44.7241 15.1743ZM44.7241 14.041C43.6768 14.041 43.0752 12.9561 43.0752 11.1675V11.1567C43.0752 9.36816 43.6768 8.29395 44.7241 8.29395C45.7661 8.29395 46.373 9.36816 46.373 11.1567V11.1675C46.373 12.9561 45.7661 14.041 44.7241 14.041ZM50.686 15.04H52.0449V7.28955H50.6753L48.6504 8.71289V9.98584L50.6538 8.61084H50.686V15.04ZM54.2847 15.04H55.7349L59.0488 8.44434V7.28955H53.6562V8.42285H57.6846V8.44971L54.2847 15.04Z" fill="#272727"/>
<rect x="209" y="7" width="39" height="11" rx="5.5" fill="#D9D9D9"/>
<path d="M213.358 15H214.106V10.0679H213.351L212.052 10.9907V11.7153L213.341 10.8267H213.358V15ZM215.31 15H218.683V14.354H216.335V14.3232L217.456 13.2227C218.341 12.3477 218.604 11.9478 218.604 11.3838V11.377C218.604 10.5806 217.928 9.98584 216.981 9.98584C216.017 9.98584 215.269 10.625 215.269 11.5068V11.5273H215.993V11.5068C216 11.0078 216.414 10.6182 216.991 10.6182C217.49 10.6182 217.846 10.9531 217.849 11.4214V11.4282C217.849 11.811 217.702 12.0708 217.046 12.7271L215.31 14.4736V15ZM219.363 15H222.737V14.354H220.389V14.3232L221.51 13.2227C222.395 12.3477 222.658 11.9478 222.658 11.3838V11.377C222.658 10.5806 221.981 9.98584 221.035 9.98584C220.071 9.98584 219.322 10.625 219.322 11.5068V11.5273H220.047V11.5068C220.054 11.0078 220.467 10.6182 221.045 10.6182C221.544 10.6182 221.899 10.9531 221.903 11.4214V11.4282C221.903 11.811 221.756 12.0708 221.1 12.7271L219.363 14.4736V15ZM226.356 15.0718C227.228 15.0718 227.782 14.5522 227.898 13.9814L227.905 13.9438H227.204L227.194 13.9712C227.102 14.2412 226.811 14.4668 226.374 14.4668C225.786 14.4668 225.413 14.0703 225.399 13.3901H227.946V13.1406C227.946 12.0605 227.327 11.3359 226.319 11.3359C225.311 11.3359 224.661 12.0879 224.661 13.2124V13.2158C224.661 14.3506 225.3 15.0718 226.356 15.0718ZM226.322 11.9409C226.804 11.9409 227.153 12.2451 227.214 12.8672H225.41C225.475 12.2656 225.844 11.9409 226.322 11.9409ZM228.52 15H229.258V12.7783C229.258 12.3135 229.569 11.9683 230.007 11.9683C230.424 11.9683 230.687 12.2349 230.687 12.6519V15H231.412V12.751C231.412 12.2964 231.716 11.9683 232.153 11.9683C232.591 11.9683 232.84 12.2383 232.84 12.7065V15H233.582V12.5288C233.582 11.8076 233.117 11.3359 232.406 11.3359C231.894 11.3359 231.47 11.606 231.285 12.0435H231.268C231.125 11.5923 230.762 11.3359 230.267 11.3359C229.795 11.3359 229.429 11.5854 229.275 11.9614H229.258V11.4043H228.52V15ZM235.353 15.0649C235.828 15.0649 236.245 14.8188 236.453 14.4326H236.467V15H237.208V12.522C237.208 11.8008 236.651 11.3359 235.773 11.3359C234.888 11.3359 234.351 11.811 234.3 12.4297L234.296 12.4673H234.994L235 12.4365C235.062 12.1494 235.325 11.9478 235.752 11.9478C236.21 11.9478 236.467 12.187 236.467 12.5835V12.8535L235.489 12.9116C234.638 12.9629 234.153 13.3457 234.153 13.9712V13.978C234.153 14.624 234.635 15.0649 235.353 15.0649ZM234.898 13.9609V13.9541C234.898 13.6499 235.144 13.4551 235.588 13.4277L236.467 13.373V13.6533C236.467 14.1216 236.074 14.4736 235.554 14.4736C235.158 14.4736 234.898 14.2754 234.898 13.9609ZM238.326 10.8506C238.569 10.8506 238.757 10.6592 238.757 10.4268C238.757 10.1909 238.569 9.99951 238.326 9.99951C238.087 9.99951 237.896 10.1909 237.896 10.4268C237.896 10.6592 238.087 10.8506 238.326 10.8506ZM237.957 15H238.695V11.4043H237.957V15ZM239.485 15H240.223V10.0679H239.485V15ZM242.329 15.0718C243.176 15.0718 243.792 14.6206 243.792 13.9644V13.9609C243.792 13.4448 243.511 13.1543 242.776 12.9834L242.192 12.8501C241.806 12.7578 241.659 12.6074 241.659 12.3853V12.3818C241.659 12.0947 241.908 11.9067 242.305 11.9067C242.722 11.9067 242.968 12.1255 243.012 12.4399L243.016 12.4639H243.709L243.706 12.4229C243.668 11.811 243.156 11.3359 242.305 11.3359C241.478 11.3359 240.917 11.7769 240.917 12.4194V12.4229C240.917 12.9458 241.255 13.2739 241.939 13.4312L242.527 13.5645C242.913 13.6567 243.043 13.79 243.043 14.0225V14.0259C243.043 14.3164 242.776 14.501 242.332 14.501C241.877 14.501 241.631 14.3062 241.563 13.9746L241.556 13.9404H240.825L240.828 13.9712C240.903 14.6274 241.43 15.0718 242.329 15.0718Z" fill="#4F4F4F"/>
</g>
<defs>
<clipPath id="clip0">
<rect width="256" height="59" fill="white"/>
</clipPath>
</defs>
</svg>
