<svg width="117" height="30" viewBox="0 0 117 30" fill="none" xmlns="http://www.w3.org/2000/svg">
<rect width="117" height="30" fill="#EB001B"/>
<path d="M99 19.7075L102.708 15.5L99 11.2925L100.142 10L105 15.5L100.142 21L99 19.7075Z" fill="white"/>
<path d="M17.2808 20.1831C19.9688 20.1831 21.6167 18.6084 21.6167 16.272V9.43115H19.7344V16.1182C19.7344 17.583 18.8481 18.5425 17.2808 18.5425C15.7134 18.5425 14.8198 17.583 14.8198 16.1182V9.43115H12.9302V16.272C12.9302 18.6084 14.6001 20.1831 17.2808 20.1831ZM23.3086 20H25.1323V15.4956C25.1323 14.375 25.7988 13.6133 26.8462 13.6133C27.8862 13.6133 28.3989 14.2358 28.3989 15.3418V20H30.2227V14.9756C30.2227 13.1738 29.2485 12.0752 27.542 12.0752C26.3628 12.0752 25.5718 12.6172 25.1689 13.4521H25.1323V12.2363H23.3086V20ZM34.7197 20.1538C36.624 20.1538 37.979 19.1724 37.979 17.7075V17.7002C37.979 16.5723 37.3564 15.9424 35.7524 15.5835L34.4561 15.2979C33.6504 15.1147 33.3501 14.8218 33.3501 14.375V14.3677C33.3501 13.7964 33.8555 13.4229 34.6611 13.4229C35.5107 13.4229 36.0088 13.877 36.0894 14.4995L36.0967 14.5581H37.7959L37.7886 14.4775C37.7227 13.1372 36.5947 12.0752 34.6611 12.0752C32.7861 12.0752 31.5483 13.0347 31.5483 14.4556V14.4629C31.5483 15.6128 32.2954 16.3379 33.7822 16.6675L35.0713 16.9531C35.877 17.1362 36.1479 17.3999 36.1479 17.8687V17.876C36.1479 18.4473 35.6133 18.8062 34.7271 18.8062C33.8042 18.8062 33.2988 18.4106 33.1597 17.7441L33.145 17.6782H31.3506L31.3579 17.7441C31.519 19.187 32.6836 20.1538 34.7197 20.1538ZM41.7876 20.1538C42.9595 20.1538 43.7578 19.6118 44.1606 18.7842H44.1973V20H46.021V12.2363H44.1973V16.7334C44.1973 17.8613 43.5308 18.6157 42.4834 18.6157C41.4434 18.6157 40.9307 17.9932 40.9307 16.8945V12.2363H39.1069V17.2534C39.1069 19.0552 40.0811 20.1538 41.7876 20.1538ZM51.8584 20.1538C53.8213 20.1538 55.0664 18.6157 55.0664 16.1182V16.1108C55.0664 13.606 53.814 12.0752 51.8657 12.0752C50.7671 12.0752 49.8809 12.6392 49.4414 13.5693H49.3975V9.43115H47.5737V20H49.3975V18.6816H49.4414C49.8809 19.5972 50.7378 20.1538 51.8584 20.1538ZM51.3091 18.6157C50.1812 18.6157 49.3975 17.6416 49.3975 16.1182V16.1108C49.3975 14.5947 50.1885 13.6133 51.3091 13.6133C52.4736 13.6133 53.2061 14.5654 53.2061 16.1108V16.1182C53.2061 17.6636 52.481 18.6157 51.3091 18.6157ZM59.2705 20.1538C61.1748 20.1538 62.5298 19.1724 62.5298 17.7075V17.7002C62.5298 16.5723 61.9072 15.9424 60.3032 15.5835L59.0068 15.2979C58.2012 15.1147 57.9009 14.8218 57.9009 14.375V14.3677C57.9009 13.7964 58.4062 13.4229 59.2119 13.4229C60.0615 13.4229 60.5596 13.877 60.6401 14.4995L60.6475 14.5581H62.3467L62.3394 14.4775C62.2734 13.1372 61.1455 12.0752 59.2119 12.0752C57.3369 12.0752 56.0991 13.0347 56.0991 14.4556V14.4629C56.0991 15.6128 56.8462 16.3379 58.333 16.6675L59.6221 16.9531C60.4277 17.1362 60.6987 17.3999 60.6987 17.8687V17.876C60.6987 18.4473 60.1641 18.8062 59.2778 18.8062C58.355 18.8062 57.8496 18.4106 57.7104 17.7441L57.6958 17.6782H55.9014L55.9087 17.7441C56.0698 19.187 57.2344 20.1538 59.2705 20.1538ZM67.1221 20.1538C69.085 20.1538 70.396 18.9233 70.5352 17.3047L70.5425 17.2534H68.8213L68.8066 17.3193C68.6382 18.1323 68.0522 18.6816 67.1294 18.6816C65.9795 18.6816 65.2324 17.7441 65.2324 16.1255V16.1182C65.2324 14.5288 65.9722 13.5547 67.1221 13.5547C68.0889 13.5547 68.6455 14.1626 68.7993 14.917L68.814 14.9829H70.5352L70.5278 14.9243C70.418 13.3716 69.1436 12.0752 67.1001 12.0752C64.8369 12.0752 63.3721 13.6279 63.3721 16.1035V16.1108C63.3721 18.6011 64.8149 20.1538 67.1221 20.1538ZM71.6338 20H73.4575V15.4517C73.4575 14.3604 74.0801 13.6938 75.1128 13.6938C75.4204 13.6938 75.6987 13.7378 75.8525 13.7964V12.1484C75.7134 12.1118 75.501 12.0752 75.2739 12.0752C74.3584 12.0752 73.6772 12.6245 73.4429 13.5327H73.4062V12.2363H71.6338V20ZM77.7568 11.123C78.3281 11.123 78.7676 10.6689 78.7676 10.127C78.7676 9.57031 78.3281 9.12354 77.7568 9.12354C77.1855 9.12354 76.7388 9.57031 76.7388 10.127C76.7388 10.6689 77.1855 11.123 77.7568 11.123ZM76.8413 20H78.665V12.2363H76.8413V20ZM84.5537 20.1538C86.5166 20.1538 87.7617 18.6157 87.7617 16.1182V16.1108C87.7617 13.606 86.5093 12.0752 84.561 12.0752C83.4624 12.0752 82.5762 12.6392 82.1367 13.5693H82.0928V9.43115H80.269V20H82.0928V18.6816H82.1367C82.5762 19.5972 83.4331 20.1538 84.5537 20.1538ZM84.0044 18.6157C82.8765 18.6157 82.0928 17.6416 82.0928 16.1182V16.1108C82.0928 14.5947 82.8838 13.6133 84.0044 13.6133C85.1689 13.6133 85.9014 14.5654 85.9014 16.1108V16.1182C85.9014 17.6636 85.1763 18.6157 84.0044 18.6157ZM92.3467 20.1538C94.3755 20.1538 95.5181 18.9526 95.7598 17.7588L95.7817 17.6782H94.0752L94.0605 17.7295C93.8848 18.2495 93.2915 18.7329 92.3833 18.7329C91.1968 18.7329 90.4497 17.9272 90.4204 16.5649H95.855V15.979C95.855 13.6353 94.478 12.0752 92.2588 12.0752C90.0396 12.0752 88.6113 13.6865 88.6113 16.1328V16.1401C88.6113 18.6084 90.0176 20.1538 92.3467 20.1538ZM92.2808 13.5034C93.2476 13.5034 93.9507 14.1187 94.0825 15.3491H90.4424C90.5889 14.1553 91.314 13.5034 92.2808 13.5034Z" fill="white"/>
</svg>
