<svg width="385" height="45" viewBox="0 0 385 45" fill="none" xmlns="http://www.w3.org/2000/svg">
<rect width="385" height="45" fill="white"/>
<path d="M29.6786 14.5H25.5L24.15 12.75C23.9704 12.5171 23.7374 12.3281 23.4696 12.1979C23.2018 12.0678 22.9065 12 22.6071 12H19.3929C19.0935 12 18.7982 12.0678 18.5304 12.1979C18.2626 12.3281 18.0296 12.5171 17.85 12.75L16.5 14.5H12.3214C12.2362 14.5 12.1544 14.5329 12.0941 14.5915C12.0339 14.6501 12 14.7296 12 14.8125V15.4375C12 15.5204 12.0339 15.5999 12.0941 15.6585C12.1544 15.7171 12.2362 15.75 12.3214 15.75H13.0808L14.4147 30.293C14.4579 30.7592 14.6789 31.193 15.0343 31.5088C15.3897 31.8247 15.8537 31.9999 16.3353 32H25.6647C26.1463 31.9999 26.6104 31.8247 26.9657 31.5088C27.3211 31.193 27.5421 30.7592 27.5853 30.293L28.9192 15.75H29.6786C29.7638 15.75 29.8456 15.7171 29.9059 15.6585C29.9661 15.5999 30 15.5204 30 15.4375V14.8125C30 14.7296 29.9661 14.6501 29.9059 14.5915C29.8456 14.5329 29.7638 14.5 29.6786 14.5ZM18.8786 13.5C18.9387 13.4226 19.0164 13.3598 19.1056 13.3164C19.1948 13.273 19.2931 13.2503 19.3929 13.25H22.6071C22.7069 13.2503 22.8052 13.273 22.8944 13.3164C22.9836 13.3598 23.0613 13.4226 23.1214 13.5L23.8929 14.5H18.1071L18.8786 13.5ZM26.3036 30.1797C26.2903 30.3354 26.2172 30.4806 26.0989 30.5863C25.9805 30.692 25.8255 30.7504 25.6647 30.75H16.3353C16.1745 30.7504 16.0195 30.692 15.9011 30.5863C15.7828 30.4806 15.7097 30.3354 15.6964 30.1797L14.3705 15.75H27.6295L26.3036 30.1797Z" fill="#EB001B"/>
<path d="M38.9092 27H40.3037V19.7197H40.3516L43.3252 27H44.46L47.4336 19.7197H47.4814V27H48.876V17.1357H47.1123L43.9131 25.0107H43.8721L40.6797 17.1357H38.9092V27ZM53.6064 27.1436C55.6641 27.1436 57.0176 25.7217 57.0176 23.4043V23.3906C57.0176 21.0869 55.6504 19.6719 53.5996 19.6719C51.5557 19.6719 50.1953 21.0938 50.1953 23.3906V23.4043C50.1953 25.7148 51.542 27.1436 53.6064 27.1436ZM53.6133 25.9062C52.458 25.9062 51.7061 24.9971 51.7061 23.4043V23.3906C51.7061 21.8184 52.4648 20.9092 53.5996 20.9092C54.7549 20.9092 55.5068 21.8184 55.5068 23.3906V23.4043C55.5068 24.9902 54.7686 25.9062 53.6133 25.9062ZM59.8613 27H61.4473L64.0244 19.8086H62.4863L60.6816 25.5576H60.6475L58.8428 19.8086H57.2705L59.8613 27ZM67.668 27.1436C69.4111 27.1436 70.5186 26.1045 70.751 24.9629L70.7646 24.8877H69.3633L69.3428 24.9424C69.1582 25.4824 68.5771 25.9336 67.7021 25.9336C66.5264 25.9336 65.7812 25.1406 65.7539 23.7803H70.8467V23.2812C70.8467 21.1211 69.6094 19.6719 67.5928 19.6719C65.5762 19.6719 64.2773 21.1758 64.2773 23.4248V23.4316C64.2773 25.7012 65.5557 27.1436 67.668 27.1436ZM67.5996 20.8818C68.5635 20.8818 69.2607 21.4902 69.3838 22.7344H65.7744C65.9043 21.5312 66.6426 20.8818 67.5996 20.8818ZM77.3613 27.1436C77.6621 27.1436 77.9424 27.1094 78.1133 27.082V25.9404C78.0039 25.9541 77.874 25.9678 77.7168 25.9678C77.0947 25.9678 76.7666 25.749 76.7666 25.0176V20.9844H78.1133V19.8086H76.7666V17.9355H75.2559V19.8086H74.2236V20.9844H75.2559V25.1064C75.2559 26.542 75.9395 27.1436 77.3613 27.1436ZM82.249 27.1436C84.3066 27.1436 85.6602 25.7217 85.6602 23.4043V23.3906C85.6602 21.0869 84.293 19.6719 82.2422 19.6719C80.1982 19.6719 78.8379 21.0938 78.8379 23.3906V23.4043C78.8379 25.7148 80.1846 27.1436 82.249 27.1436ZM82.2559 25.9062C81.1006 25.9062 80.3486 24.9971 80.3486 23.4043V23.3906C80.3486 21.8184 81.1074 20.9092 82.2422 20.9092C83.3975 20.9092 84.1494 21.8184 84.1494 23.3906V23.4043C84.1494 24.9902 83.4111 25.9062 82.2559 25.9062ZM92.0928 27H94.1572V18.8379H97.0146V17.1357H89.2422V18.8379H92.0928V27ZM97.0557 27H99.0518V22.8711C99.0518 21.8389 99.626 21.2441 100.61 21.2441C100.897 21.2441 101.171 21.2852 101.335 21.3535V19.5967C101.185 19.5557 100.979 19.5215 100.761 19.5215C99.8926 19.5215 99.2705 20.0342 99.0586 20.9229H99.0176V19.6719H97.0557V27ZM104.158 27.1162C105.122 27.1162 105.901 26.6582 106.318 25.9062H106.359V27H108.355V21.9756C108.355 20.499 107.132 19.5215 105.238 19.5215C103.304 19.5215 102.142 20.4922 102.032 21.8457L102.025 21.9277H103.851L103.864 21.8662C103.96 21.3945 104.411 21.0459 105.156 21.0459C105.936 21.0459 106.359 21.4492 106.359 22.0986V22.5498L104.548 22.6592C102.729 22.7754 101.697 23.5547 101.697 24.8877V24.9014C101.697 26.1934 102.688 27.1162 104.158 27.1162ZM103.673 24.7988V24.7852C103.673 24.2656 104.076 23.9375 104.849 23.8896L106.359 23.7939V24.3203C106.359 25.0859 105.703 25.6602 104.808 25.6602C104.117 25.6602 103.673 25.3389 103.673 24.7988ZM112.662 27.1504C114.549 27.1504 115.868 26.207 115.868 24.7715V24.7646C115.868 23.6846 115.239 23.083 113.708 22.7617L112.464 22.4951C111.726 22.3379 111.473 22.0918 111.473 21.7158V21.709C111.473 21.2373 111.903 20.9297 112.594 20.9297C113.332 20.9297 113.763 21.3262 113.831 21.8525L113.838 21.9072H115.677V21.8389C115.629 20.5537 114.542 19.5215 112.594 19.5215C110.728 19.5215 109.524 20.4238 109.524 21.8184V21.8252C109.524 22.9189 110.242 23.6299 111.664 23.9307L112.908 24.1904C113.626 24.3477 113.872 24.5732 113.872 24.9629V24.9697C113.872 25.4414 113.414 25.7354 112.662 25.7354C111.862 25.7354 111.432 25.4004 111.302 24.8262L111.288 24.7646H109.34L109.347 24.8262C109.504 26.2139 110.632 27.1504 112.662 27.1504ZM116.9 27H118.896V22.8027C118.896 21.8457 119.464 21.1758 120.346 21.1758C121.255 21.1758 121.761 21.7842 121.761 22.8096V27H123.757V22.3994C123.757 20.6289 122.772 19.5215 121.187 19.5215C120.086 19.5215 119.313 20.0273 118.938 20.9365H118.896V17.1357H116.9V27ZM131.037 27.1436C132.78 27.1436 133.888 26.1045 134.12 24.9629L134.134 24.8877H132.732L132.712 24.9424C132.527 25.4824 131.946 25.9336 131.071 25.9336C129.896 25.9336 129.15 25.1406 129.123 23.7803H134.216V23.2812C134.216 21.1211 132.979 19.6719 130.962 19.6719C128.945 19.6719 127.646 21.1758 127.646 23.4248V23.4316C127.646 25.7012 128.925 27.1436 131.037 27.1436ZM130.969 20.8818C131.933 20.8818 132.63 21.4902 132.753 22.7344H129.144C129.273 21.5312 130.012 20.8818 130.969 20.8818ZM135.364 27H136.841V22.5566C136.841 21.627 137.463 20.9365 138.338 20.9365C139.172 20.9365 139.698 21.4697 139.698 22.3037V27H141.147V22.502C141.147 21.5928 141.756 20.9365 142.631 20.9365C143.506 20.9365 144.005 21.4766 144.005 22.4131V27H145.488V22.0576C145.488 20.6152 144.559 19.6719 143.137 19.6719C142.111 19.6719 141.264 20.2119 140.895 21.0869H140.86C140.573 20.1846 139.849 19.6719 138.857 19.6719C137.914 19.6719 137.183 20.1709 136.875 20.9229H136.841V19.8086H135.364V27ZM149.029 27.1299C149.979 27.1299 150.813 26.6377 151.23 25.8652H151.258V27H152.741V22.0439C152.741 20.6016 151.627 19.6719 149.87 19.6719C148.1 19.6719 147.026 20.6221 146.924 21.8594L146.917 21.9346H148.312L148.325 21.873C148.448 21.2988 148.975 20.8955 149.829 20.8955C150.745 20.8955 151.258 21.374 151.258 22.167V22.707L149.303 22.8232C147.601 22.9258 146.63 23.6914 146.63 24.9424V24.9561C146.63 26.248 147.594 27.1299 149.029 27.1299ZM148.12 24.9219V24.9082C148.12 24.2998 148.612 23.9102 149.501 23.8555L151.258 23.7461V24.3066C151.258 25.2432 150.472 25.9473 149.433 25.9473C148.64 25.9473 148.12 25.5508 148.12 24.9219ZM154.977 18.7012C155.462 18.7012 155.838 18.3184 155.838 17.8535C155.838 17.3818 155.462 16.999 154.977 16.999C154.498 16.999 154.115 17.3818 154.115 17.8535C154.115 18.3184 154.498 18.7012 154.977 18.7012ZM154.238 27H155.715V19.8086H154.238V27ZM157.294 27H158.771V17.1357H157.294V27ZM162.981 27.1436C164.677 27.1436 165.907 26.2412 165.907 24.9287V24.9219C165.907 23.8896 165.347 23.3086 163.877 22.9668L162.708 22.7002C161.936 22.5156 161.642 22.2148 161.642 21.7705V21.7637C161.642 21.1895 162.141 20.8135 162.934 20.8135C163.768 20.8135 164.26 21.251 164.349 21.8799L164.355 21.9277H165.743L165.736 21.8457C165.661 20.6221 164.636 19.6719 162.934 19.6719C161.279 19.6719 160.158 20.5537 160.158 21.8389V21.8457C160.158 22.8916 160.835 23.5479 162.202 23.8623L163.378 24.1289C164.15 24.3135 164.41 24.5801 164.41 25.0449V25.0518C164.41 25.6328 163.877 26.002 162.988 26.002C162.079 26.002 161.587 25.6123 161.45 24.9492L161.437 24.8809H159.974L159.98 24.9424C160.131 26.2549 161.184 27.1436 162.981 27.1436ZM170.699 18.7012C171.185 18.7012 171.561 18.3184 171.561 17.8535C171.561 17.3818 171.185 16.999 170.699 16.999C170.221 16.999 169.838 17.3818 169.838 17.8535C169.838 18.3184 170.221 18.7012 170.699 18.7012ZM169.961 27H171.438V19.8086H169.961V27ZM172.962 27H174.438V22.8096C174.438 21.6885 175.108 20.9365 176.147 20.9365C177.173 20.9365 177.679 21.5449 177.679 22.625V27H179.162V22.3447C179.162 20.6904 178.253 19.6719 176.674 19.6719C175.587 19.6719 174.849 20.1641 174.473 20.8955H174.438V19.8086H172.962V27ZM185.294 17.1357H184.255L183.257 20.6357H184.727L185.294 17.1357ZM187.557 17.1357H186.518L185.52 20.6357H186.996L187.557 17.1357ZM189.026 27H190.558V23.2129H192.663L194.673 27H196.437L194.229 22.9805C195.411 22.5771 196.143 21.5107 196.143 20.1709V20.1572C196.143 18.3047 194.871 17.1357 192.854 17.1357H189.026V27ZM190.558 21.9551V18.4209H192.663C193.839 18.4209 194.563 19.0771 194.563 20.1709V20.1846C194.563 21.3057 193.887 21.9551 192.704 21.9551H190.558ZM200.49 27.1436C202.233 27.1436 203.341 26.1045 203.573 24.9629L203.587 24.8877H202.186L202.165 24.9424C201.98 25.4824 201.399 25.9336 200.524 25.9336C199.349 25.9336 198.604 25.1406 198.576 23.7803H203.669V23.2812C203.669 21.1211 202.432 19.6719 200.415 19.6719C198.398 19.6719 197.1 21.1758 197.1 23.4248V23.4316C197.1 25.7012 198.378 27.1436 200.49 27.1436ZM200.422 20.8818C201.386 20.8818 202.083 21.4902 202.206 22.7344H198.597C198.727 21.5312 199.465 20.8818 200.422 20.8818ZM206.93 27.1299C207.88 27.1299 208.714 26.6377 209.131 25.8652H209.158V27H210.642V22.0439C210.642 20.6016 209.527 19.6719 207.771 19.6719C206 19.6719 204.927 20.6221 204.824 21.8594L204.817 21.9346H206.212L206.226 21.873C206.349 21.2988 206.875 20.8955 207.729 20.8955C208.646 20.8955 209.158 21.374 209.158 22.167V22.707L207.203 22.8232C205.501 22.9258 204.53 23.6914 204.53 24.9424V24.9561C204.53 26.248 205.494 27.1299 206.93 27.1299ZM206.021 24.9219V24.9082C206.021 24.2998 206.513 23.9102 207.401 23.8555L209.158 23.7461V24.3066C209.158 25.2432 208.372 25.9473 207.333 25.9473C206.54 25.9473 206.021 25.5508 206.021 24.9219ZM214.764 27.1436C215.796 27.1436 216.589 26.624 217.02 25.7832H217.047V27H218.53V17.1357H217.047V21.0322H217.02C216.589 20.1846 215.769 19.6719 214.75 19.6719C212.945 19.6719 211.756 21.1074 211.756 23.3975V23.4043C211.756 25.6943 212.932 27.1436 214.764 27.1436ZM215.153 25.8721C213.984 25.8721 213.267 24.9355 213.267 23.4043V23.3975C213.267 21.8799 213.991 20.9365 215.153 20.9365C216.261 20.9365 217.054 21.9072 217.054 23.3975V23.4043C217.054 24.9014 216.268 25.8721 215.153 25.8721ZM223.069 27H229.194V25.6807H224.601V17.1357H223.069V27ZM232.441 27.1299C233.392 27.1299 234.226 26.6377 234.643 25.8652H234.67V27H236.153V22.0439C236.153 20.6016 235.039 19.6719 233.282 19.6719C231.512 19.6719 230.438 20.6221 230.336 21.8594L230.329 21.9346H231.724L231.737 21.873C231.86 21.2988 232.387 20.8955 233.241 20.8955C234.157 20.8955 234.67 21.374 234.67 22.167V22.707L232.715 22.8232C231.013 22.9258 230.042 23.6914 230.042 24.9424V24.9561C230.042 26.248 231.006 27.1299 232.441 27.1299ZM231.532 24.9219V24.9082C231.532 24.2998 232.024 23.9102 232.913 23.8555L234.67 23.7461V24.3066C234.67 25.2432 233.884 25.9473 232.845 25.9473C232.052 25.9473 231.532 25.5508 231.532 24.9219ZM240.111 27.1436C240.412 27.1436 240.692 27.1094 240.863 27.082V25.9404C240.754 25.9541 240.624 25.9678 240.467 25.9678C239.845 25.9678 239.517 25.749 239.517 25.0176V20.9844H240.863V19.8086H239.517V17.9355H238.006V19.8086H236.974V20.9844H238.006V25.1064C238.006 26.542 238.689 27.1436 240.111 27.1436ZM244.979 27.1436C246.722 27.1436 247.829 26.1045 248.062 24.9629L248.075 24.8877H246.674L246.653 24.9424C246.469 25.4824 245.888 25.9336 245.013 25.9336C243.837 25.9336 243.092 25.1406 243.064 23.7803H248.157V23.2812C248.157 21.1211 246.92 19.6719 244.903 19.6719C242.887 19.6719 241.588 21.1758 241.588 23.4248V23.4316C241.588 25.7012 242.866 27.1436 244.979 27.1436ZM244.91 20.8818C245.874 20.8818 246.571 21.4902 246.694 22.7344H243.085C243.215 21.5312 243.953 20.8818 244.91 20.8818ZM249.306 27H250.782V22.6729C250.782 21.6543 251.37 21.0186 252.32 21.0186C252.607 21.0186 252.867 21.0527 252.983 21.1006V19.7266C252.867 19.7061 252.683 19.6719 252.471 19.6719C251.623 19.6719 250.98 20.1777 250.762 20.998H250.728V19.8086H249.306V27ZM253.722 20.6357H254.761L255.759 17.1357H254.282L253.722 20.6357ZM255.984 20.6357H257.023L258.021 17.1357H256.545L255.984 20.6357ZM265.37 27.1504C267.585 27.1504 269 25.7285 269 23.3359V23.3223C269 20.9502 267.558 19.5215 265.363 19.5215C263.176 19.5215 261.74 20.9639 261.74 23.3223V23.3359C261.74 25.7217 263.142 27.1504 265.37 27.1504ZM265.377 25.585C264.393 25.585 263.771 24.7715 263.771 23.3359V23.3223C263.771 21.9072 264.399 21.0869 265.363 21.0869C266.334 21.0869 266.97 21.9072 266.97 23.3223V23.3359C266.97 24.7646 266.348 25.585 265.377 25.585ZM270.08 27H272.076V17.1357H270.08V27ZM276.137 27.1504C277.196 27.1504 278.003 26.6172 278.393 25.749H278.434V27H280.43V17.1357H278.434V20.9434H278.393C277.996 20.0547 277.176 19.5215 276.137 19.5215C274.291 19.5215 273.156 20.9434 273.156 23.3291V23.3359C273.156 25.7148 274.291 27.1504 276.137 27.1504ZM276.807 25.4961C275.809 25.4961 275.187 24.6689 275.187 23.3359V23.3291C275.187 21.9893 275.815 21.1758 276.807 21.1758C277.771 21.1758 278.44 22.0098 278.44 23.3291V23.3359C278.44 24.6621 277.777 25.4961 276.807 25.4961ZM285.099 27.1504C287.19 27.1504 288.202 25.9131 288.428 24.833L288.448 24.7578H286.616L286.603 24.7988C286.459 25.209 285.96 25.6602 285.14 25.6602C284.121 25.6602 283.485 24.9766 283.465 23.8076H288.51V23.1924C288.51 20.9775 287.163 19.5215 285.017 19.5215C282.87 19.5215 281.496 21.0117 281.496 23.3428V23.3496C281.496 25.6943 282.856 27.1504 285.099 27.1504ZM285.051 21.0117C285.878 21.0117 286.473 21.5381 286.596 22.5498H283.485C283.615 21.5586 284.23 21.0117 285.051 21.0117ZM289.542 27H291.538V22.8711C291.538 21.8389 292.112 21.2441 293.097 21.2441C293.384 21.2441 293.657 21.2852 293.821 21.3535V19.5967C293.671 19.5557 293.466 19.5215 293.247 19.5215C292.379 19.5215 291.757 20.0342 291.545 20.9229H291.504V19.6719H289.542V27ZM300.329 27.1504C300.746 27.1504 301.067 27.1094 301.293 27.0752V25.6123C301.17 25.626 301.04 25.6465 300.862 25.6465C300.261 25.6465 299.953 25.4141 299.953 24.7305V21.1758H301.293V19.6719H299.953V17.8809H297.937V19.6719H296.918V21.1758H297.937V24.9492C297.937 26.5215 298.702 27.1504 300.329 27.1504ZM302.441 27H304.438V22.8027C304.438 21.8457 305.005 21.1758 305.887 21.1758C306.796 21.1758 307.302 21.7842 307.302 22.8096V27H309.298V22.3994C309.298 20.6289 308.313 19.5215 306.728 19.5215C305.627 19.5215 304.854 20.0273 304.479 20.9365H304.438V17.1357H302.441V27ZM312.764 27.1162C313.728 27.1162 314.507 26.6582 314.924 25.9062H314.965V27H316.961V21.9756C316.961 20.499 315.737 19.5215 313.844 19.5215C311.909 19.5215 310.747 20.4922 310.638 21.8457L310.631 21.9277H312.456L312.47 21.8662C312.565 21.3945 313.017 21.0459 313.762 21.0459C314.541 21.0459 314.965 21.4492 314.965 22.0986V22.5498L313.153 22.6592C311.335 22.7754 310.303 23.5547 310.303 24.8877V24.9014C310.303 26.1934 311.294 27.1162 312.764 27.1162ZM312.278 24.7988V24.7852C312.278 24.2656 312.682 23.9375 313.454 23.8896L314.965 23.7939V24.3203C314.965 25.0859 314.309 25.6602 313.413 25.6602C312.723 25.6602 312.278 25.3389 312.278 24.7988ZM318.253 27H320.249V22.7891C320.249 21.832 320.816 21.1758 321.712 21.1758C322.607 21.1758 323.059 21.7227 323.059 22.6797V27H325.055V22.2695C325.055 20.5537 324.139 19.5215 322.525 19.5215C321.418 19.5215 320.666 20.0342 320.29 20.875H320.249V19.6719H318.253V27ZM331.275 27.1162C332.239 27.1162 333.019 26.6582 333.436 25.9062H333.477V27H335.473V21.9756C335.473 20.499 334.249 19.5215 332.355 19.5215C330.421 19.5215 329.259 20.4922 329.149 21.8457L329.143 21.9277H330.968L330.981 21.8662C331.077 21.3945 331.528 21.0459 332.273 21.0459C333.053 21.0459 333.477 21.4492 333.477 22.0986V22.5498L331.665 22.6592C329.847 22.7754 328.814 23.5547 328.814 24.8877V24.9014C328.814 26.1934 329.806 27.1162 331.275 27.1162ZM330.79 24.7988V24.7852C330.79 24.2656 331.193 23.9375 331.966 23.8896L333.477 23.7939V24.3203C333.477 25.0859 332.82 25.6602 331.925 25.6602C331.234 25.6602 330.79 25.3389 330.79 24.7988ZM340.969 27H343.067L344.387 21.8184H344.428L345.754 27H347.88L349.821 19.6719H347.853L346.738 25.1064H346.697L345.392 19.6719H343.478L342.179 25.1064H342.138L341.03 19.6719H339.021L340.969 27ZM353.827 27.1504C355.919 27.1504 356.931 25.9131 357.156 24.833L357.177 24.7578H355.345L355.331 24.7988C355.188 25.209 354.688 25.6602 353.868 25.6602C352.85 25.6602 352.214 24.9766 352.193 23.8076H357.238V23.1924C357.238 20.9775 355.892 19.5215 353.745 19.5215C351.599 19.5215 350.225 21.0117 350.225 23.3428V23.3496C350.225 25.6943 351.585 27.1504 353.827 27.1504ZM353.779 21.0117C354.606 21.0117 355.201 21.5381 355.324 22.5498H352.214C352.344 21.5586 352.959 21.0117 353.779 21.0117ZM361.606 27.1504C363.698 27.1504 364.71 25.9131 364.936 24.833L364.956 24.7578H363.124L363.11 24.7988C362.967 25.209 362.468 25.6602 361.647 25.6602C360.629 25.6602 359.993 24.9766 359.973 23.8076H365.018V23.1924C365.018 20.9775 363.671 19.5215 361.524 19.5215C359.378 19.5215 358.004 21.0117 358.004 23.3428V23.3496C358.004 25.6943 359.364 27.1504 361.606 27.1504ZM361.559 21.0117C362.386 21.0117 362.98 21.5381 363.104 22.5498H359.993C360.123 21.5586 360.738 21.0117 361.559 21.0117ZM366.118 27H368.114V24.5732L368.627 24.0059L370.726 27H373.029L370.124 22.8232L372.893 19.6719H370.63L368.155 22.6045H368.114V17.1357H366.118V27Z" fill="black"/>
</svg>
