<svg width="244" height="217" viewBox="0 0 244 217" fill="none" xmlns="http://www.w3.org/2000/svg">
<rect width="244" height="217" fill="white"/>
<g clip-path="url(#clip0)">
<path d="M34.8371 60.6902L33.2059 60.6902C33.0047 60.4747 32.1722 59.5044 30.5637 59.5044C29.2077 59.5044 28.3382 60.1806 27.8735 60.6902L23.4423 60.6902C19.6664 60.6902 16.6055 63.8787 16.6055 67.8123L16.6055 72.5605L17.7449 72.5605L17.7449 77.3087C17.7449 77.9642 18.2552 78.4957 18.8844 78.4957L21.1634 78.4957C21.7926 78.4957 22.3029 77.9642 22.3029 77.3087L22.3029 74.341C24.0274 75.239 25.2609 75.7679 28.0002 74.341L28.0002 77.3087C28.0002 77.9642 28.5105 78.4957 29.1397 78.4957L31.4187 78.4957C32.0479 78.4957 32.5582 77.9642 32.5582 77.3087L32.5582 70.1863L35.9766 70.1863L35.9766 71.3732L34.8371 71.3732C34.2079 71.3732 33.6976 71.9047 33.6976 72.5602L33.6976 72.9782C33.6976 74.5301 34.7666 75.9478 36.2486 76.1051C37.9525 76.2861 39.395 74.8918 39.395 73.1533L39.395 65.4381C39.395 62.8156 37.3543 60.6902 34.8371 60.6902V60.6902ZM31.4187 77.3087L29.1397 77.3087L29.1397 72.4203L27.4907 73.2794C25.5386 74.2961 24.7677 74.2979 22.8124 73.2794L21.1634 72.4203L21.1634 77.3087L18.8844 77.3087L18.8844 71.3736L17.7449 71.3736L17.7449 67.8123C17.7449 64.5397 20.3009 61.8772 23.4423 61.8772L27.1595 61.8772C27.1204 61.9777 27.0634 62.0697 27.0331 62.1739C26.7141 63.2674 26.8401 64.3947 27.3871 65.3442C27.7976 66.056 28.4165 66.6072 29.1397 66.9218C29.1397 68.411 30.1076 69.6566 31.4187 70.0472L31.4187 77.3087ZM38.2556 73.154C38.2556 74.1359 37.4889 74.9345 36.5463 74.9345C35.6038 74.9345 34.8371 74.1359 34.8371 73.154L34.8371 72.5605L35.9766 72.5605L35.9766 73.154C35.9766 73.4815 36.2326 73.7475 36.5463 73.7475C36.86 73.7475 37.1161 73.4815 37.1161 73.154L37.1161 68.9993L32.2733 68.9993C31.1737 68.9993 30.2792 68.0675 30.2792 66.9221L30.2792 66.1313L29.5788 65.8268C28.555 65.3813 27.6595 64.1098 28.1235 62.5193C28.429 61.471 29.368 60.6914 30.5637 60.6914C31.7338 60.6914 32.2274 61.3445 32.7252 61.8772L34.8371 61.8772C36.7222 61.8772 38.2556 63.4748 38.2556 65.4384L38.2556 73.154ZM35.4069 64.2511C35.0921 64.2511 34.8371 64.5167 34.8371 64.8446C34.8371 65.1725 35.0921 65.4381 35.4069 65.4381C35.7216 65.4381 35.9766 65.1725 35.9766 64.8446C35.9766 64.5167 35.7216 64.2511 35.4069 64.2511Z" fill="#7AB2EA" stroke="#69B6F3" stroke-width="0.4"/>
</g>
<path d="M57.0254 74L63.5732 74L63.5732 72.8135L58.3437 72.8135L58.3437 69.1807L63.3022 69.1807L63.3022 68.0088L58.3437 68.0088L58.3437 64.6177L63.5732 64.6177L63.5732 63.4312L57.0254 63.4312L57.0254 74ZM65.1187 74L66.3931 74L66.3931 69.2246C66.3931 68.1626 67.1255 67.3643 68.1362 67.3643C69.0811 67.3643 69.6963 67.9722 69.6963 68.895L69.6963 74L70.9707 74L70.9707 69.1587C70.9707 68.1187 71.6812 67.3643 72.6919 67.3643C73.6953 67.3643 74.2739 67.9868 74.2739 69.0342L74.2739 74L75.5483 74L75.5483 68.7412C75.5483 67.2251 74.5742 66.2363 73.0654 66.2363C71.9961 66.2363 71.1025 66.7856 70.6777 67.7012L70.6484 67.7012C70.3188 66.771 69.5498 66.2363 68.5098 66.2363C67.5283 66.2363 66.7666 66.7417 66.4224 67.4961L66.3931 67.4961L66.3931 66.3828L65.1187 66.3828L65.1187 74ZM79.4009 74.1465C80.4189 74.1465 81.3345 73.5972 81.7812 72.7622L81.8105 72.7622L81.8105 74L83.085 74L83.085 68.7339C83.085 67.2104 81.957 66.2363 80.1553 66.2363C78.3608 66.2363 77.2695 67.2471 77.1597 68.4995L77.1523 68.5801L78.3828 68.5801L78.3975 68.5142C78.5439 67.833 79.1592 67.3643 80.1406 67.3643C81.2026 67.3643 81.8105 67.9282 81.8105 68.8584L81.8105 69.4956L79.6279 69.6201C77.8774 69.7227 76.8667 70.5356 76.8667 71.832L76.8667 71.8467C76.8667 73.231 77.8848 74.1465 79.4009 74.1465ZM78.1704 71.8467L78.1704 71.832C78.1704 71.1216 78.7563 70.6675 79.7744 70.6089L81.8105 70.4844L81.8105 71.1069C81.8105 72.2129 80.8877 73.0405 79.6865 73.0405C78.771 73.0405 78.1704 72.5791 78.1704 71.8467ZM85.4214 65.0938C85.8682 65.0938 86.2197 64.7349 86.2197 64.2954C86.2197 63.8486 85.8682 63.4971 85.4214 63.4971C84.9819 63.4971 84.623 63.8486 84.623 64.2954C84.623 64.7349 84.9819 65.0938 85.4214 65.0938ZM84.7842 74L86.0586 74L86.0586 66.3828L84.7842 66.3828L84.7842 74ZM87.8604 74L89.1348 74L89.1348 63.4312L87.8604 63.4312L87.8604 74ZM93.5586 74.1465C95.2578 74.1465 96.5176 73.209 96.5176 71.876L96.5176 71.8687C96.5176 70.7847 95.9609 70.1768 94.4229 69.8032L93.2144 69.5103C92.3721 69.3052 92.0278 68.9463 92.0278 68.4263L92.0278 68.4189C92.0278 67.7451 92.5991 67.2983 93.522 67.2983C94.4668 67.2983 95.0308 67.7891 95.1333 68.5288L95.1406 68.5801L96.3564 68.5801L96.3491 68.4849C96.2539 67.2104 95.1919 66.2363 93.522 66.2363C91.874 66.2363 90.7241 67.1665 90.7241 68.4775L90.7241 68.4849C90.7241 69.5835 91.4199 70.25 92.8555 70.5942L94.064 70.8872C94.9282 71.0996 95.2139 71.4072 95.2139 71.9565L95.2139 71.9639C95.2139 72.6523 94.5986 73.0845 93.5659 73.0845C92.5259 73.0845 91.9619 72.6377 91.8081 71.876L91.7935 71.8027L90.519 71.8027L90.5264 71.8687C90.6802 73.231 91.7642 74.1465 93.5586 74.1465ZM100.985 74L102.26 74L102.26 63.4312L100.985 63.4312L100.985 74ZM106.208 74.1465C107.226 74.1465 108.141 73.5972 108.588 72.7622L108.617 72.7622L108.617 74L109.892 74L109.892 68.7339C109.892 67.2104 108.764 66.2363 106.962 66.2363C105.167 66.2363 104.076 67.2471 103.966 68.4995L103.959 68.5801L105.189 68.5801L105.204 68.5142C105.351 67.833 105.966 67.3643 106.947 67.3643C108.009 67.3643 108.617 67.9282 108.617 68.8584L108.617 69.4956L106.435 69.6201C104.684 69.7227 103.673 70.5356 103.673 71.832L103.673 71.8467C103.673 73.231 104.691 74.1465 106.208 74.1465ZM104.977 71.8467L104.977 71.832C104.977 71.1216 105.563 70.6675 106.581 70.6089L108.617 70.4844L108.617 71.1069C108.617 72.2129 107.694 73.0405 106.493 73.0405C105.578 73.0405 104.977 72.5791 104.977 71.8467ZM111.51 74L112.785 74L112.785 69.2393C112.785 68.1626 113.429 67.4521 114.418 67.4521C114.726 67.4521 114.997 67.4888 115.099 67.5254L115.099 66.2876C114.997 66.2729 114.806 66.2363 114.586 66.2363C113.693 66.2363 112.99 66.771 112.741 67.6133L112.711 67.6133L112.711 66.3828L111.51 66.3828L111.51 74ZM118.996 76.71C121.061 76.71 122.357 75.5527 122.357 73.7876L122.357 66.3828L121.083 66.3828L121.083 67.6719L121.054 67.6719C120.585 66.8223 119.735 66.2363 118.659 66.2363C116.725 66.2363 115.399 67.7744 115.399 70.1401L115.399 70.1475C115.399 72.5278 116.71 74.0732 118.629 74.0732C119.721 74.0732 120.6 73.5313 121.054 72.689L121.083 72.689L121.083 73.6631C121.083 74.8423 120.321 75.582 118.981 75.582C117.941 75.582 117.216 75.2451 116.974 74.6958L116.945 74.6299L115.663 74.6299L115.678 74.6958C115.927 75.8237 117.113 76.71 118.996 76.71ZM118.908 72.9453C117.553 72.9453 116.703 71.876 116.703 70.1475L116.703 70.1401C116.703 68.4482 117.553 67.3643 118.908 67.3643C120.197 67.3643 121.083 68.4629 121.083 70.1401L121.083 70.1475C121.083 71.8394 120.204 72.9453 118.908 72.9453ZM127.14 74.1465C128.803 74.1465 130.048 73.1504 130.297 71.8906L130.312 71.8174L129.059 71.8174L129.037 71.8833C128.817 72.5352 128.136 73.0186 127.169 73.0186C125.814 73.0186 124.95 72.103 124.921 70.5356L130.407 70.5356L130.407 70.0669C130.407 67.7817 129.14 66.2363 127.06 66.2363C124.979 66.2363 123.632 67.855 123.632 70.2134L123.632 70.2207C123.632 72.6157 124.95 74.1465 127.14 74.1465ZM127.052 67.3643C128.166 67.3643 128.986 68.0601 129.11 69.5396L124.943 69.5396C125.082 68.1187 125.946 67.3643 127.052 67.3643ZM131.696 74L132.97 74L132.97 69.2393C132.97 68.1626 133.615 67.4521 134.604 67.4521C134.911 67.4521 135.182 67.4888 135.285 67.5254L135.285 66.2876C135.182 66.2729 134.992 66.2363 134.772 66.2363C133.878 66.2363 133.175 66.771 132.926 67.6133L132.897 67.6133L132.897 66.3828L131.696 66.3828L131.696 74ZM141.876 74.1465C142.125 74.1465 142.396 74.1172 142.558 74.0952L142.558 73.0625C142.448 73.0698 142.301 73.0918 142.147 73.0918C141.466 73.0918 141.107 72.8647 141.107 72.0518L141.107 67.4375L142.558 67.4375L142.558 66.3828L141.107 66.3828L141.107 64.3247L139.789 64.3247L139.789 66.3828L138.676 66.3828L138.676 67.4375L139.789 67.4375L139.789 72.0591C139.789 73.5166 140.478 74.1465 141.876 74.1465ZM143.993 74L145.268 74L145.268 69.5542C145.268 68.2578 146.051 67.3643 147.23 67.3643C148.417 67.3643 149.12 68.1772 149.12 69.5542L149.12 74L150.395 74L150.395 69.3345C150.395 67.4888 149.289 66.2363 147.67 66.2363C146.535 66.2363 145.707 66.7417 145.297 67.5986L145.268 67.5986L145.268 63.4312L143.993 63.4312L143.993 74ZM154.24 74.1465C155.258 74.1465 156.173 73.5972 156.62 72.7622L156.649 72.7622L156.649 74L157.924 74L157.924 68.7339C157.924 67.2104 156.796 66.2363 154.994 66.2363C153.2 66.2363 152.108 67.2471 151.999 68.4995L151.991 68.5801L153.222 68.5801L153.236 68.5142C153.383 67.833 153.998 67.3643 154.979 67.3643C156.042 67.3643 156.649 67.9282 156.649 68.8584L156.649 69.4956L154.467 69.6201C152.716 69.7227 151.706 70.5356 151.706 71.832L151.706 71.8467C151.706 73.231 152.724 74.1465 154.24 74.1465ZM153.009 71.8467L153.009 71.832C153.009 71.1216 153.595 70.6675 154.613 70.6089L156.649 70.4844L156.649 71.1069C156.649 72.2129 155.727 73.0405 154.525 73.0405C153.61 73.0405 153.009 72.5791 153.009 71.8467ZM159.542 74L160.817 74L160.817 69.5176C160.817 68.2212 161.601 67.3643 162.802 67.3643C163.974 67.3643 164.552 68.0454 164.552 69.2832L164.552 74L165.827 74L165.827 69.0562C165.827 67.3203 164.86 66.2363 163.19 66.2363C162.033 66.2363 161.256 66.7563 160.846 67.4668L160.817 67.4668L160.817 66.3828L159.542 66.3828L159.542 74ZM173.253 74L174.528 74L174.528 63.4312L173.239 63.4312L170.426 65.4526L170.426 66.7783L173.224 64.8301L173.253 64.8301L173.253 74ZM177.377 74L178.607 74L178.607 65.8335L178.651 65.8335L182.028 74L183.141 74L186.518 65.8335L186.562 65.8335L186.562 74L187.792 74L187.792 63.4312L186.269 63.4312L182.606 72.3374L182.562 72.3374L178.9 63.4312L177.377 63.4312L177.377 74ZM189.843 74L193.834 74C196.083 74 197.416 72.894 197.416 71.0337L197.416 71.019C197.416 69.6201 196.493 68.5947 194.97 68.4189L194.97 68.3896C196.061 68.2358 196.881 67.1738 196.881 66.0825L196.881 66.0679C196.881 64.4858 195.658 63.4312 193.849 63.4312L189.843 63.4312L189.843 74ZM193.549 64.5957C194.823 64.5957 195.548 65.167 195.548 66.207L195.548 66.2217C195.548 67.3643 194.699 67.9868 193.139 67.9868L191.161 67.9868L191.161 64.5957L193.549 64.5957ZM193.512 69.1221C195.197 69.1221 196.061 69.7446 196.061 70.9678L196.061 70.9824C196.061 72.1982 195.219 72.8354 193.637 72.8354L191.161 72.8354L191.161 69.1221L193.512 69.1221Z" fill="#828282"/>
<path d="M40.05 179.125H25.75C24.6747 179.125 23.8 180.05 23.8 181.188V181.875H25.1V181.188C25.1 180.808 25.3909 180.5 25.75 180.5H40.05C40.4091 180.5 40.7 180.808 40.7 181.188V190.812C40.7 191.192 40.4091 191.5 40.05 191.5H32.9V192.875H40.05C41.1253 192.875 42 191.95 42 190.812V181.188C42 180.05 41.1253 179.125 40.05 179.125ZM19.9 177.062C19.9 176.683 20.1909 176.375 20.55 176.375H32.25C32.6091 176.375 32.9 176.683 32.9 177.062V177.75H34.2V177.062C34.2 175.925 33.3253 175 32.25 175H20.55C19.4747 175 18.6 175.925 18.6 177.062V181.875H19.9V177.062ZM38.75 186C39.1091 186 39.4 185.692 39.4 185.312V182.562C39.4 182.183 39.1091 181.875 38.75 181.875H36.15C35.7909 181.875 35.5 182.183 35.5 182.562V185.312C35.5 185.692 35.7909 186 36.15 186H38.75ZM36.8 183.25H38.1V184.625H36.8V183.25ZM29.65 183.25H17.95C16.8747 183.25 16 184.175 16 185.312V194.938C16 196.075 16.8747 197 17.95 197H29.65C30.7253 197 31.6 196.075 31.6 194.938V185.312C31.6 184.175 30.7253 183.25 29.65 183.25ZM30.3 194.938C30.3 195.317 30.0091 195.625 29.65 195.625H17.95C17.5909 195.625 17.3 195.317 17.3 194.938V188.475C17.82 188.888 18.6 189.575 21.2 191.5C21.72 191.913 22.76 192.875 23.8 192.875C24.84 192.875 25.88 191.913 26.4 191.5C29 189.575 29.78 188.888 30.3 188.475V194.938ZM30.3 186.825C29.26 187.65 29.39 187.65 25.62 190.538C25.23 190.675 24.45 191.5 23.8 191.5C23.15 191.5 22.37 190.675 21.98 190.4C18.21 187.512 18.34 187.513 17.3 186.688V185.312C17.3 184.933 17.5909 184.625 17.95 184.625H29.65C30.0091 184.625 30.3 184.933 30.3 185.312V186.825Z" fill="#69B6F3"/>
<path d="M57.0254 191L63.5732 191L63.5732 189.813L58.3437 189.813L58.3437 186.181L63.3022 186.181L63.3022 185.009L58.3437 185.009L58.3437 181.618L63.5732 181.618L63.5732 180.431L57.0254 180.431L57.0254 191ZM65.1187 191L66.3931 191L66.3931 186.225C66.3931 185.163 67.1255 184.364 68.1362 184.364C69.0811 184.364 69.6963 184.972 69.6963 185.895L69.6963 191L70.9707 191L70.9707 186.159C70.9707 185.119 71.6812 184.364 72.6919 184.364C73.6953 184.364 74.2739 184.987 74.2739 186.034L74.2739 191L75.5483 191L75.5483 185.741C75.5483 184.225 74.5742 183.236 73.0654 183.236C71.9961 183.236 71.1025 183.786 70.6777 184.701L70.6484 184.701C70.3188 183.771 69.5498 183.236 68.5098 183.236C67.5283 183.236 66.7666 183.742 66.4224 184.496L66.3931 184.496L66.3931 183.383L65.1187 183.383L65.1187 191ZM79.4009 191.146C80.4189 191.146 81.3345 190.597 81.7812 189.762L81.8105 189.762L81.8105 191L83.085 191L83.085 185.734C83.085 184.21 81.957 183.236 80.1553 183.236C78.3608 183.236 77.2695 184.247 77.1597 185.5L77.1523 185.58L78.3828 185.58L78.3975 185.514C78.5439 184.833 79.1592 184.364 80.1406 184.364C81.2026 184.364 81.8105 184.928 81.8105 185.858L81.8105 186.496L79.6279 186.62C77.8774 186.723 76.8667 187.536 76.8667 188.832L76.8667 188.847C76.8667 190.231 77.8848 191.146 79.4009 191.146ZM78.1704 188.847L78.1704 188.832C78.1704 188.122 78.7563 187.667 79.7744 187.609L81.8105 187.484L81.8105 188.107C81.8105 189.213 80.8877 190.041 79.6865 190.041C78.771 190.041 78.1704 189.579 78.1704 188.847ZM85.4214 182.094C85.8682 182.094 86.2197 181.735 86.2197 181.295C86.2197 180.849 85.8682 180.497 85.4214 180.497C84.9819 180.497 84.623 180.849 84.623 181.295C84.623 181.735 84.9819 182.094 85.4214 182.094ZM84.7842 191L86.0586 191L86.0586 183.383L84.7842 183.383L84.7842 191ZM87.8604 191L89.1348 191L89.1348 180.431L87.8604 180.431L87.8604 191ZM93.5586 191.146C95.2578 191.146 96.5176 190.209 96.5176 188.876L96.5176 188.869C96.5176 187.785 95.9609 187.177 94.4229 186.803L93.2144 186.51C92.3721 186.305 92.0278 185.946 92.0278 185.426L92.0278 185.419C92.0278 184.745 92.5991 184.298 93.522 184.298C94.4668 184.298 95.0308 184.789 95.1333 185.529L95.1406 185.58L96.3564 185.58L96.3491 185.485C96.2539 184.21 95.1919 183.236 93.522 183.236C91.874 183.236 90.7241 184.167 90.7241 185.478L90.7241 185.485C90.7241 186.583 91.4199 187.25 92.8555 187.594L94.064 187.887C94.9282 188.1 95.2139 188.407 95.2139 188.957L95.2139 188.964C95.2139 189.652 94.5986 190.084 93.5659 190.084C92.5259 190.084 91.9619 189.638 91.8081 188.876L91.7935 188.803L90.519 188.803L90.5264 188.869C90.6802 190.231 91.7642 191.146 93.5586 191.146ZM101.33 191L102.604 191L102.604 184.438L104.157 184.438L104.157 183.383L102.589 183.383L102.589 182.453C102.589 181.698 102.941 181.339 103.644 181.339C103.842 181.339 104.04 181.347 104.193 181.369L104.193 180.336C104.003 180.307 103.703 180.285 103.417 180.285C102.011 180.285 101.33 180.98 101.33 182.445L101.33 183.383L100.268 183.383L100.268 184.438L101.33 184.438L101.33 191ZM105.475 191L106.75 191L106.75 186.239C106.75 185.163 107.394 184.452 108.383 184.452C108.69 184.452 108.961 184.489 109.064 184.525L109.064 183.288C108.961 183.273 108.771 183.236 108.551 183.236C107.658 183.236 106.955 183.771 106.706 184.613L106.676 184.613L106.676 183.383L105.475 183.383L105.475 191ZM112.895 191.146C114.997 191.146 116.417 189.623 116.417 187.191L116.417 187.177C116.417 184.745 114.989 183.236 112.887 183.236C110.785 183.236 109.364 184.752 109.364 187.177L109.364 187.191C109.364 189.616 110.778 191.146 112.895 191.146ZM112.902 190.019C111.554 190.019 110.668 188.986 110.668 187.191L110.668 187.177C110.668 185.397 111.562 184.364 112.887 184.364C114.235 184.364 115.114 185.39 115.114 187.177L115.114 187.191C115.114 188.979 114.242 190.019 112.902 190.019ZM117.707 191L118.981 191L118.981 186.225C118.981 185.163 119.713 184.364 120.724 184.364C121.669 184.364 122.284 184.972 122.284 185.895L122.284 191L123.559 191L123.559 186.159C123.559 185.119 124.269 184.364 125.28 184.364C126.283 184.364 126.862 184.987 126.862 186.034L126.862 191L128.136 191L128.136 185.741C128.136 184.225 127.162 183.236 125.653 183.236C124.584 183.236 123.69 183.786 123.266 184.701L123.236 184.701C122.907 183.771 122.138 183.236 121.098 183.236C120.116 183.236 119.354 183.742 119.01 184.496L118.981 184.496L118.981 183.383L117.707 183.383L117.707 191ZM132.633 184.013L133.542 184.013L134.611 180.431L133.278 180.431L132.633 184.013ZM134.867 184.013L135.775 184.013L136.845 180.431L135.512 180.431L134.867 184.013ZM140.287 191.146C141.378 191.146 142.228 190.597 142.704 189.711L142.733 189.711L142.733 191L144.008 191L144.008 180.431L142.733 180.431L142.733 184.657L142.704 184.657C142.228 183.778 141.342 183.236 140.265 183.236C138.354 183.236 137.05 184.782 137.05 187.184L137.05 187.191C137.05 189.594 138.339 191.146 140.287 191.146ZM140.536 190.019C139.188 190.019 138.354 188.942 138.354 187.191L138.354 187.184C138.354 185.448 139.188 184.364 140.536 184.364C141.818 184.364 142.741 185.485 142.741 187.184L142.741 187.191C142.741 188.898 141.825 190.019 140.536 190.019ZM148.864 191.146C150.526 191.146 151.771 190.15 152.021 188.891L152.035 188.817L150.783 188.817L150.761 188.883C150.541 189.535 149.86 190.019 148.893 190.019C147.538 190.019 146.674 189.103 146.645 187.536L152.13 187.536L152.13 187.067C152.13 184.782 150.863 183.236 148.783 183.236C146.703 183.236 145.355 184.855 145.355 187.213L145.355 187.221C145.355 189.616 146.674 191.146 148.864 191.146ZM148.776 184.364C149.889 184.364 150.709 185.06 150.834 186.54L146.667 186.54C146.806 185.119 147.67 184.364 148.776 184.364ZM155.646 191.146C156.664 191.146 157.58 190.597 158.026 189.762L158.056 189.762L158.056 191L159.33 191L159.33 185.734C159.33 184.21 158.202 183.236 156.4 183.236C154.606 183.236 153.515 184.247 153.405 185.5L153.397 185.58L154.628 185.58L154.643 185.514C154.789 184.833 155.404 184.364 156.386 184.364C157.448 184.364 158.056 184.928 158.056 185.858L158.056 186.496L155.873 186.62C154.123 186.723 153.112 187.536 153.112 188.832L153.112 188.847C153.112 190.231 154.13 191.146 155.646 191.146ZM154.416 188.847L154.416 188.832C154.416 188.122 155.001 187.667 156.02 187.609L158.056 187.484L158.056 188.107C158.056 189.213 157.133 190.041 155.932 190.041C155.016 190.041 154.416 189.579 154.416 188.847ZM163.812 191.146C164.904 191.146 165.753 190.597 166.229 189.711L166.259 189.711L166.259 191L167.533 191L167.533 180.431L166.259 180.431L166.259 184.657L166.229 184.657C165.753 183.778 164.867 183.236 163.791 183.236C161.879 183.236 160.575 184.782 160.575 187.184L160.575 187.191C160.575 189.594 161.864 191.146 163.812 191.146ZM164.062 190.019C162.714 190.019 161.879 188.942 161.879 187.191L161.879 187.184C161.879 185.448 162.714 184.364 164.062 184.364C165.343 184.364 166.266 185.485 166.266 187.184L166.266 187.191C166.266 188.898 165.351 190.019 164.062 190.019ZM175.465 191.146C177.128 191.146 178.373 190.15 178.622 188.891L178.637 188.817L177.384 188.817L177.362 188.883C177.143 189.535 176.461 190.019 175.495 190.019C174.14 190.019 173.275 189.103 173.246 187.536L178.732 187.536L178.732 187.067C178.732 184.782 177.465 183.236 175.385 183.236C173.305 183.236 171.957 184.855 171.957 187.213L171.957 187.221C171.957 189.616 173.275 191.146 175.465 191.146ZM175.377 184.364C176.491 184.364 177.311 185.06 177.436 186.54L173.268 186.54C173.407 185.119 174.271 184.364 175.377 184.364ZM180.021 191L181.295 191L181.295 186.518C181.295 185.221 182.079 184.364 183.28 184.364C184.452 184.364 185.031 185.045 185.031 186.283L185.031 191L186.305 191L186.305 186.056C186.305 184.32 185.338 183.236 183.668 183.236C182.511 183.236 181.735 183.756 181.325 184.467L181.295 184.467L181.295 183.383L180.021 183.383L180.021 191ZM190.795 191.146C191.886 191.146 192.736 190.597 193.212 189.711L193.241 189.711L193.241 191L194.516 191L194.516 180.431L193.241 180.431L193.241 184.657L193.212 184.657C192.736 183.778 191.85 183.236 190.773 183.236C188.861 183.236 187.558 184.782 187.558 187.184L187.558 187.191C187.558 189.594 188.847 191.146 190.795 191.146ZM191.044 190.019C189.696 190.019 188.861 188.942 188.861 187.191L188.861 187.184C188.861 185.448 189.696 184.364 191.044 184.364C192.326 184.364 193.249 185.485 193.249 187.184L193.249 187.191C193.249 188.898 192.333 190.019 191.044 190.019ZM198.939 191.146C200.639 191.146 201.898 190.209 201.898 188.876L201.898 188.869C201.898 187.785 201.342 187.177 199.804 186.803L198.595 186.51C197.753 186.305 197.409 185.946 197.409 185.426L197.409 185.419C197.409 184.745 197.98 184.298 198.903 184.298C199.848 184.298 200.412 184.789 200.514 185.529L200.521 185.58L201.737 185.58L201.73 185.485C201.635 184.21 200.573 183.236 198.903 183.236C197.255 183.236 196.105 184.167 196.105 185.478L196.105 185.485C196.105 186.583 196.801 187.25 198.236 187.594L199.445 187.887C200.309 188.1 200.595 188.407 200.595 188.957L200.595 188.964C200.595 189.652 199.979 190.084 198.947 190.084C197.907 190.084 197.343 189.638 197.189 188.876L197.174 188.803L195.9 188.803L195.907 188.869C196.061 190.231 197.145 191.146 198.939 191.146ZM202.433 184.013L203.341 184.013L204.411 180.431L203.078 180.431L202.433 184.013ZM204.667 184.013L205.575 184.013L206.645 180.431L205.312 180.431L204.667 184.013Z" fill="#828282"/>
<path d="M43.95 35.125H40.8V31.972L39.8104 31L40.8 30.028V26.4724L39.8104 25.5L40.7838 24.5427L40.7414 24.2088C40.4321 21.8094 38.3513 20 35.9 20H20.5C18.5698 20 17 21.5421 17 23.4375V27.2188C17 27.7872 17.4716 28.25 18.05 28.25H22.6V30.028L23.5896 31L22.6 31.972V37.6786C22.6 39.8821 24.2555 41.7705 26.3695 41.9789C26.4351 41.9854 26.5007 41.985 26.5664 41.9888V42H40.2164C42.8536 42 45 39.8924 45 37.3022V36.1562C45 35.5878 44.5284 35.125 43.95 35.125ZM22.6 26.875H18.4V23.4375C18.4 22.3001 19.3419 21.375 20.5 21.375C21.6581 21.375 22.6 22.3001 22.6 23.4375V26.875ZM24 37.6791V32.5417L25.5698 31L24 29.4583V23.4375C24 22.6641 23.7388 21.9499 23.2987 21.375H35.9C37.5367 21.375 38.9432 22.5089 39.2946 24.0605L37.8302 25.5L39.4 27.0417V29.4587L37.8302 31L39.4 32.5417V35.125H36.1896L35.2 36.097L34.2104 35.125H31C30.2274 35.125 29.6 35.742 29.6 36.5V37.875C29.6 38.6506 29.2636 39.3935 28.6786 39.9147C28.0841 40.4432 27.3171 40.692 26.5091 40.6108C25.1021 40.4725 24 39.1847 24 37.6791ZM43.6 37.3022C43.6 39.1344 42.0823 40.625 40.2164 40.625H29.8988C30.5909 39.8709 31 38.8985 31 37.875V36.5H33.6302L35.2 38.0417L36.7697 36.5H43.6V37.3022Z" fill="#69B6F3"/>
<path d="M57.0254 36L63.5732 36L63.5732 34.8135L58.3437 34.8135L58.3437 31.1807L63.3022 31.1807L63.3022 30.0088L58.3437 30.0088L58.3437 26.6177L63.5732 26.6177L63.5732 25.4312L57.0254 25.4312L57.0254 36ZM65.1187 36L66.3931 36L66.3931 31.2246C66.3931 30.1626 67.1255 29.3643 68.1362 29.3643C69.0811 29.3643 69.6963 29.9722 69.6963 30.895L69.6963 36L70.9707 36L70.9707 31.1587C70.9707 30.1187 71.6812 29.3643 72.6919 29.3643C73.6953 29.3643 74.2739 29.9868 74.2739 31.0342L74.2739 36L75.5483 36L75.5483 30.7412C75.5483 29.2251 74.5742 28.2363 73.0654 28.2363C71.9961 28.2363 71.1025 28.7856 70.6777 29.7012L70.6484 29.7012C70.3188 28.771 69.5498 28.2363 68.5098 28.2363C67.5283 28.2363 66.7666 28.7417 66.4224 29.4961L66.3931 29.4961L66.3931 28.3828L65.1187 28.3828L65.1187 36ZM79.4009 36.1465C80.4189 36.1465 81.3345 35.5972 81.7812 34.7622L81.8105 34.7622L81.8105 36L83.085 36L83.085 30.7339C83.085 29.2104 81.957 28.2363 80.1553 28.2363C78.3608 28.2363 77.2695 29.2471 77.1597 30.4995L77.1523 30.5801L78.3828 30.5801L78.3975 30.5142C78.5439 29.833 79.1592 29.3643 80.1406 29.3643C81.2026 29.3643 81.8105 29.9282 81.8105 30.8584L81.8105 31.4956L79.6279 31.6201C77.8774 31.7227 76.8667 32.5356 76.8667 33.832L76.8667 33.8467C76.8667 35.231 77.8848 36.1465 79.4009 36.1465ZM78.1704 33.8467L78.1704 33.832C78.1704 33.1216 78.7563 32.6675 79.7744 32.6089L81.8105 32.4844L81.8105 33.1069C81.8105 34.2129 80.8877 35.0405 79.6865 35.0405C78.771 35.0405 78.1704 34.5791 78.1704 33.8467ZM85.4214 27.0938C85.8682 27.0938 86.2197 26.7349 86.2197 26.2954C86.2197 25.8486 85.8682 25.4971 85.4214 25.4971C84.9819 25.4971 84.623 25.8486 84.623 26.2954C84.623 26.7349 84.9819 27.0938 85.4214 27.0938ZM84.7842 36L86.0586 36L86.0586 28.3828L84.7842 28.3828L84.7842 36ZM87.8604 36L89.1348 36L89.1348 25.4312L87.8604 25.4312L87.8604 36ZM93.5586 36.1465C95.2578 36.1465 96.5176 35.209 96.5176 33.876L96.5176 33.8687C96.5176 32.7847 95.9609 32.1768 94.4229 31.8032L93.2144 31.5103C92.3721 31.3052 92.0278 30.9463 92.0278 30.4263L92.0278 30.4189C92.0278 29.7451 92.5991 29.2983 93.522 29.2983C94.4668 29.2983 95.0308 29.7891 95.1333 30.5288L95.1406 30.5801L96.3564 30.5801L96.3491 30.4849C96.2539 29.2104 95.1919 28.2363 93.522 28.2363C91.874 28.2363 90.7241 29.1665 90.7241 30.4775L90.7241 30.4849C90.7241 31.5835 91.4199 32.25 92.8555 32.5942L94.064 32.8872C94.9282 33.0996 95.2139 33.4072 95.2139 33.9565L95.2139 33.9639C95.2139 34.6523 94.5986 35.0845 93.5659 35.0845C92.5259 35.0845 91.9619 34.6377 91.8081 33.876L91.7935 33.8027L90.519 33.8027L90.5264 33.8687C90.6802 35.231 91.7642 36.1465 93.5586 36.1465ZM104.076 36.1465C106.178 36.1465 107.599 34.623 107.599 32.1914L107.599 32.1768C107.599 29.7451 106.171 28.2363 104.069 28.2363C101.967 28.2363 100.546 29.7524 100.546 32.1768L100.546 32.1914C100.546 34.6157 101.959 36.1465 104.076 36.1465ZM104.083 35.0186C102.736 35.0186 101.85 33.9858 101.85 32.1914L101.85 32.1768C101.85 30.397 102.743 29.3643 104.069 29.3643C105.417 29.3643 106.295 30.3896 106.295 32.1768L106.295 32.1914C106.295 33.9785 105.424 35.0186 104.083 35.0186ZM108.954 36L110.229 36L110.229 25.4312L108.954 25.4312L108.954 36ZM114.813 36.1465C115.905 36.1465 116.754 35.5972 117.23 34.7109L117.26 34.7109L117.26 36L118.534 36L118.534 25.4312L117.26 25.4312L117.26 29.6572L117.23 29.6572C116.754 28.7783 115.868 28.2363 114.792 28.2363C112.88 28.2363 111.576 29.7817 111.576 32.1841L111.576 32.1914C111.576 34.5938 112.865 36.1465 114.813 36.1465ZM115.062 35.0186C113.715 35.0186 112.88 33.9419 112.88 32.1914L112.88 32.1841C112.88 30.4482 113.715 29.3643 115.062 29.3643C116.344 29.3643 117.267 30.4849 117.267 32.1841L117.267 32.1914C117.267 33.8979 116.352 35.0186 115.062 35.0186ZM123.39 36.1465C125.053 36.1465 126.298 35.1504 126.547 33.8906L126.562 33.8174L125.309 33.8174L125.287 33.8833C125.067 34.5352 124.386 35.0186 123.419 35.0186C122.064 35.0186 121.2 34.103 121.171 32.5356L126.657 32.5356L126.657 32.0669C126.657 29.7817 125.39 28.2363 123.31 28.2363C121.229 28.2363 119.882 29.855 119.882 32.2134L119.882 32.2207C119.882 34.6157 121.2 36.1465 123.39 36.1465ZM123.302 29.3643C124.416 29.3643 125.236 30.0601 125.36 31.5396L121.193 31.5396C121.332 30.1187 122.196 29.3643 123.302 29.3643ZM127.946 36L129.22 36L129.22 31.2393C129.22 30.1626 129.865 29.4521 130.854 29.4521C131.161 29.4521 131.432 29.4888 131.535 29.5254L131.535 28.2876C131.432 28.2729 131.242 28.2363 131.022 28.2363C130.128 28.2363 129.425 28.771 129.176 29.6133L129.147 29.6133L129.147 28.3828L127.946 28.3828L127.946 36ZM138.126 36.1465C138.375 36.1465 138.646 36.1172 138.808 36.0952L138.808 35.0625C138.698 35.0698 138.551 35.0918 138.397 35.0918C137.716 35.0918 137.357 34.8647 137.357 34.0518L137.357 29.4375L138.808 29.4375L138.808 28.3828L137.357 28.3828L137.357 26.3247L136.039 26.3247L136.039 28.3828L134.926 28.3828L134.926 29.4375L136.039 29.4375L136.039 34.0591C136.039 35.5166 136.728 36.1465 138.126 36.1465ZM140.243 36L141.518 36L141.518 31.5542C141.518 30.2578 142.301 29.3643 143.48 29.3643C144.667 29.3643 145.37 30.1772 145.37 31.5542L145.37 36L146.645 36L146.645 31.3345C146.645 29.4888 145.539 28.2363 143.92 28.2363C142.785 28.2363 141.957 28.7417 141.547 29.5986L141.518 29.5986L141.518 25.4312L140.243 25.4312L140.243 36ZM150.49 36.1465C151.508 36.1465 152.423 35.5972 152.87 34.7622L152.899 34.7622L152.899 36L154.174 36L154.174 30.7339C154.174 29.2104 153.046 28.2363 151.244 28.2363C149.45 28.2363 148.358 29.2471 148.249 30.4995L148.241 30.5801L149.472 30.5801L149.486 30.5142C149.633 29.833 150.248 29.3643 151.229 29.3643C152.292 29.3643 152.899 29.9282 152.899 30.8584L152.899 31.4956L150.717 31.6201C148.966 31.7227 147.956 32.5356 147.956 33.832L147.956 33.8467C147.956 35.231 148.974 36.1465 150.49 36.1465ZM149.259 33.8467L149.259 33.832C149.259 33.1216 149.845 32.6675 150.863 32.6089L152.899 32.4844L152.899 33.1069C152.899 34.2129 151.977 35.0405 150.775 35.0405C149.86 35.0405 149.259 34.5791 149.259 33.8467ZM155.792 36L157.067 36L157.067 31.5176C157.067 30.2212 157.851 29.3643 159.052 29.3643C160.224 29.3643 160.802 30.0454 160.802 31.2832L160.802 36L162.077 36L162.077 31.0562C162.077 29.3203 161.11 28.2363 159.44 28.2363C158.283 28.2363 157.506 28.7563 157.096 29.4668L157.067 29.4668L157.067 28.3828L155.792 28.3828L155.792 36ZM169.503 36L170.778 36L170.778 25.4312L169.489 25.4312L166.676 27.4526L166.676 28.7783L169.474 26.8301L169.503 26.8301L169.503 36ZM177.238 38.5635C178.615 38.5635 179.281 37.9336 179.823 36.4761L182.797 28.3828L181.457 28.3828L179.347 34.7256L179.318 34.7256L177.216 28.3828L175.854 28.3828L178.681 36.0073L178.527 36.4395C178.219 37.3037 177.772 37.5088 176.967 37.5088C176.813 37.5088 176.667 37.4868 176.557 37.4648L176.557 38.5049C176.718 38.5342 176.989 38.5635 177.238 38.5635ZM186.642 36.1465C188.305 36.1465 189.55 35.1504 189.799 33.8906L189.813 33.8174L188.561 33.8174L188.539 33.8833C188.319 34.5352 187.638 35.0186 186.671 35.0186C185.316 35.0186 184.452 34.103 184.423 32.5356L189.909 32.5356L189.909 32.0669C189.909 29.7817 188.642 28.2363 186.562 28.2363C184.481 28.2363 183.134 29.855 183.134 32.2134L183.134 32.2207C183.134 34.6157 184.452 36.1465 186.642 36.1465ZM186.554 29.3643C187.667 29.3643 188.488 30.0601 188.612 31.5396L184.445 31.5396C184.584 30.1187 185.448 29.3643 186.554 29.3643ZM193.424 36.1465C194.442 36.1465 195.358 35.5972 195.805 34.7622L195.834 34.7622L195.834 36L197.108 36L197.108 30.7339C197.108 29.2104 195.98 28.2363 194.179 28.2363C192.384 28.2363 191.293 29.2471 191.183 30.4995L191.176 30.5801L192.406 30.5801L192.421 30.5142C192.567 29.833 193.183 29.3643 194.164 29.3643C195.226 29.3643 195.834 29.9282 195.834 30.8584L195.834 31.4956L193.651 31.6201C191.901 31.7227 190.89 32.5356 190.89 33.832L190.89 33.8467C190.89 35.231 191.908 36.1465 193.424 36.1465ZM192.194 33.8467L192.194 33.832C192.194 33.1216 192.78 32.6675 193.798 32.6089L195.834 32.4844L195.834 33.1069C195.834 34.2129 194.911 35.0405 193.71 35.0405C192.794 35.0405 192.194 34.5791 192.194 33.8467ZM198.727 36L200.001 36L200.001 31.2393C200.001 30.1626 200.646 29.4521 201.635 29.4521C201.942 29.4521 202.213 29.4888 202.316 29.5254L202.316 28.2876C202.213 28.2729 202.023 28.2363 201.803 28.2363C200.91 28.2363 200.207 28.771 199.958 29.6133L199.928 29.6133L199.928 28.3828L198.727 28.3828L198.727 36Z" fill="#828282"/>
<path d="M60.4824 112.176C62.8994 112.176 64.3862 110.989 64.3862 109.114V109.107C64.3862 107.496 63.478 106.617 61.3101 106.141L60.1382 105.884C58.7612 105.584 58.124 105.042 58.124 104.178V104.17C58.124 103.152 59.0469 102.479 60.4604 102.471C61.8008 102.471 62.7017 103.108 62.8628 104.185L62.8774 104.288H64.1958L64.1885 104.178C64.0713 102.449 62.5625 101.255 60.4971 101.255C58.3218 101.255 56.7837 102.471 56.7764 104.207V104.214C56.7764 105.76 57.7432 106.69 59.8086 107.144L60.9805 107.4C62.4307 107.723 63.0386 108.243 63.0386 109.173V109.18C63.0386 110.271 62.0791 110.96 60.5557 110.96C59.0249 110.96 57.9995 110.308 57.8457 109.246L57.8311 109.144H56.5127L56.52 109.246C56.6519 111.055 58.1973 112.176 60.4824 112.176ZM68.8906 112.146C70.9927 112.146 72.4136 110.623 72.4136 108.191V108.177C72.4136 105.745 70.9854 104.236 68.8833 104.236C66.7812 104.236 65.3604 105.752 65.3604 108.177V108.191C65.3604 110.616 66.7739 112.146 68.8906 112.146ZM68.8979 111.019C67.5503 111.019 66.6641 109.986 66.6641 108.191V108.177C66.6641 106.397 67.5576 105.364 68.8833 105.364C70.231 105.364 71.1099 106.39 71.1099 108.177V108.191C71.1099 109.979 70.2383 111.019 68.8979 111.019ZM76.8594 112.146C78.5806 112.146 79.833 111.026 80.0381 109.576L80.0454 109.524H78.793L78.7783 109.583C78.5659 110.433 77.8994 111.019 76.8594 111.019C75.541 111.019 74.6328 109.971 74.6328 108.199V108.191C74.6328 106.463 75.519 105.364 76.8447 105.364C77.9653 105.364 78.5806 106.038 78.771 106.8L78.7856 106.858H80.0308L80.0234 106.8C79.8623 105.496 78.7417 104.236 76.8447 104.236C74.728 104.236 73.3291 105.774 73.3291 108.177V108.184C73.3291 110.608 74.6987 112.146 76.8594 112.146ZM81.9351 103.094C82.3818 103.094 82.7334 102.735 82.7334 102.295C82.7334 101.849 82.3818 101.497 81.9351 101.497C81.4956 101.497 81.1367 101.849 81.1367 102.295C81.1367 102.735 81.4956 103.094 81.9351 103.094ZM81.2979 112H82.5723V104.383H81.2979V112ZM86.5347 112.146C87.5527 112.146 88.4683 111.597 88.915 110.762H88.9443V112H90.2188V106.734C90.2188 105.21 89.0908 104.236 87.2891 104.236C85.4946 104.236 84.4033 105.247 84.2935 106.5L84.2861 106.58H85.5166L85.5312 106.514C85.6777 105.833 86.293 105.364 87.2744 105.364C88.3364 105.364 88.9443 105.928 88.9443 106.858V107.496L86.7617 107.62C85.0112 107.723 84.0005 108.536 84.0005 109.832V109.847C84.0005 111.231 85.0186 112.146 86.5347 112.146ZM85.3042 109.847V109.832C85.3042 109.122 85.8901 108.667 86.9082 108.609L88.9443 108.484V109.107C88.9443 110.213 88.0215 111.041 86.8203 111.041C85.9048 111.041 85.3042 110.579 85.3042 109.847ZM91.9033 112H93.1777V101.431H91.9033V112ZM98.1729 112H99.4766V103.658H99.5132L105.329 112H106.61V101.431H105.307V109.773H105.27L99.4546 101.431H98.1729V112ZM111.62 112.146C113.722 112.146 115.143 110.623 115.143 108.191V108.177C115.143 105.745 113.715 104.236 111.613 104.236C109.511 104.236 108.09 105.752 108.09 108.177V108.191C108.09 110.616 109.503 112.146 111.62 112.146ZM111.627 111.019C110.28 111.019 109.394 109.986 109.394 108.191V108.177C109.394 106.397 110.287 105.364 111.613 105.364C112.96 105.364 113.839 106.39 113.839 108.177V108.191C113.839 109.979 112.968 111.019 111.627 111.019ZM118.908 112.146C119.157 112.146 119.428 112.117 119.589 112.095V111.062C119.479 111.07 119.333 111.092 119.179 111.092C118.498 111.092 118.139 110.865 118.139 110.052V105.438H119.589V104.383H118.139V102.325H116.82V104.383H115.707V105.438H116.82V110.059C116.82 111.517 117.509 112.146 118.908 112.146ZM121.676 103.094C122.123 103.094 122.475 102.735 122.475 102.295C122.475 101.849 122.123 101.497 121.676 101.497C121.237 101.497 120.878 101.849 120.878 102.295C120.878 102.735 121.237 103.094 121.676 103.094ZM121.039 112H122.313V104.383H121.039V112ZM124.459 112H125.734V105.438H127.287V104.383H125.719V103.453C125.719 102.698 126.071 102.339 126.774 102.339C126.972 102.339 127.169 102.347 127.323 102.369V101.336C127.133 101.307 126.833 101.285 126.547 101.285C125.141 101.285 124.459 101.98 124.459 103.445V104.383H123.397V105.438H124.459V112ZM129.323 103.094C129.77 103.094 130.121 102.735 130.121 102.295C130.121 101.849 129.77 101.497 129.323 101.497C128.883 101.497 128.524 101.849 128.524 102.295C128.524 102.735 128.883 103.094 129.323 103.094ZM128.686 112H129.96V104.383H128.686V112ZM134.853 112.146C136.574 112.146 137.826 111.026 138.031 109.576L138.039 109.524H136.786L136.771 109.583C136.559 110.433 135.893 111.019 134.853 111.019C133.534 111.019 132.626 109.971 132.626 108.199V108.191C132.626 106.463 133.512 105.364 134.838 105.364C135.958 105.364 136.574 106.038 136.764 106.8L136.779 106.858H138.024L138.017 106.8C137.855 105.496 136.735 104.236 134.838 104.236C132.721 104.236 131.322 105.774 131.322 108.177V108.184C131.322 110.608 132.692 112.146 134.853 112.146ZM141.437 112.146C142.455 112.146 143.371 111.597 143.817 110.762H143.847V112H145.121V106.734C145.121 105.21 143.993 104.236 142.191 104.236C140.397 104.236 139.306 105.247 139.196 106.5L139.188 106.58H140.419L140.434 106.514C140.58 105.833 141.195 105.364 142.177 105.364C143.239 105.364 143.847 105.928 143.847 106.858V107.496L141.664 107.62C139.914 107.723 138.903 108.536 138.903 109.832V109.847C138.903 111.231 139.921 112.146 141.437 112.146ZM140.207 109.847V109.832C140.207 109.122 140.792 108.667 141.811 108.609L143.847 108.484V109.107C143.847 110.213 142.924 111.041 141.723 111.041C140.807 111.041 140.207 110.579 140.207 109.847ZM149.215 112.146C149.464 112.146 149.735 112.117 149.896 112.095V111.062C149.787 111.07 149.64 111.092 149.486 111.092C148.805 111.092 148.446 110.865 148.446 110.052V105.438H149.896V104.383H148.446V102.325H147.128V104.383H146.015V105.438H147.128V110.059C147.128 111.517 147.816 112.146 149.215 112.146ZM151.984 103.094C152.431 103.094 152.782 102.735 152.782 102.295C152.782 101.849 152.431 101.497 151.984 101.497C151.544 101.497 151.186 101.849 151.186 102.295C151.186 102.735 151.544 103.094 151.984 103.094ZM151.347 112H152.621V104.383H151.347V112ZM157.514 112.146C159.616 112.146 161.037 110.623 161.037 108.191V108.177C161.037 105.745 159.608 104.236 157.506 104.236C155.404 104.236 153.983 105.752 153.983 108.177V108.191C153.983 110.616 155.397 112.146 157.514 112.146ZM157.521 111.019C156.173 111.019 155.287 109.986 155.287 108.191V108.177C155.287 106.397 156.181 105.364 157.506 105.364C158.854 105.364 159.733 106.39 159.733 108.177V108.191C159.733 109.979 158.861 111.019 157.521 111.019ZM162.326 112H163.6V107.518C163.6 106.221 164.384 105.364 165.585 105.364C166.757 105.364 167.335 106.045 167.335 107.283V112H168.61V107.056C168.61 105.32 167.643 104.236 165.973 104.236C164.816 104.236 164.04 104.756 163.629 105.467H163.6V104.383H162.326V112ZM172.938 112.146C174.638 112.146 175.897 111.209 175.897 109.876V109.869C175.897 108.785 175.341 108.177 173.803 107.803L172.594 107.51C171.752 107.305 171.408 106.946 171.408 106.426V106.419C171.408 105.745 171.979 105.298 172.902 105.298C173.847 105.298 174.411 105.789 174.513 106.529L174.521 106.58H175.736L175.729 106.485C175.634 105.21 174.572 104.236 172.902 104.236C171.254 104.236 170.104 105.167 170.104 106.478V106.485C170.104 107.583 170.8 108.25 172.235 108.594L173.444 108.887C174.308 109.1 174.594 109.407 174.594 109.957V109.964C174.594 110.652 173.979 111.084 172.946 111.084C171.906 111.084 171.342 110.638 171.188 109.876L171.173 109.803H169.899L169.906 109.869C170.06 111.231 171.144 112.146 172.938 112.146Z" fill="#828282"/>
<path d="M37.6726 103.701L37.9915 101.916C38.0501 101.587 37.7977 101.286 37.4641 101.286H34.1244L34.7772 97.6299C34.8358 97.3015 34.5834 97 34.2499 97H32.4359C32.3102 97 32.1884 97.0442 32.092 97.125C31.9956 97.2057 31.9307 97.3178 31.9086 97.4416L31.2221 101.286H26.8188L27.4716 97.6299C27.5302 97.3015 27.2778 97 26.9442 97H25.1303C25.0045 97 24.8828 97.0442 24.7864 97.125C24.6899 97.2057 24.625 97.3178 24.6029 97.4416L23.9164 101.286H20.3854C20.2596 101.286 20.1379 101.33 20.0415 101.411C19.945 101.491 19.8801 101.603 19.858 101.727L19.5391 103.513C19.4805 103.841 19.733 104.143 20.0665 104.143H23.4062L22.3858 109.857H18.8547C18.729 109.857 18.6072 109.901 18.5108 109.982C18.4144 110.063 18.3495 110.175 18.3274 110.299L18.0085 112.084C17.9499 112.413 18.2023 112.714 18.5359 112.714H21.8756L21.2228 116.37C21.1642 116.698 21.4166 117 21.7501 117H23.5641C23.6898 117 23.8116 116.956 23.908 116.875C24.0044 116.794 24.0693 116.682 24.0914 116.558L24.7779 112.714H29.1812L28.5284 116.37C28.4698 116.698 28.7222 117 29.0558 117H30.8697C30.9955 117 31.1172 116.956 31.2136 116.875C31.3101 116.794 31.375 116.682 31.3971 116.558L32.0836 112.714H35.6146C35.7404 112.714 35.8621 112.67 35.9585 112.589C36.055 112.509 36.1199 112.397 36.142 112.273L36.4609 110.487C36.5195 110.159 36.2671 109.857 35.9335 109.857H32.5938L33.6142 104.143H37.1453C37.271 104.143 37.3928 104.099 37.4892 104.018C37.5856 103.937 37.6505 103.825 37.6726 103.701V103.701ZM29.6915 109.857H25.2882L26.3086 104.143H30.7119L29.6915 109.857Z" fill="#7AB2EA"/>
<path d="M56.0254 152H57.3291V143.658H57.3657L63.1812 152H64.4629V141.431H63.1592V149.773H63.1226L57.3071 141.431H56.0254V152ZM69.4727 152.146C71.5747 152.146 72.9956 150.623 72.9956 148.191V148.177C72.9956 145.745 71.5674 144.236 69.4653 144.236C67.3633 144.236 65.9424 145.752 65.9424 148.177V148.191C65.9424 150.616 67.356 152.146 69.4727 152.146ZM69.48 151.019C68.1323 151.019 67.2461 149.986 67.2461 148.191V148.177C67.2461 146.397 68.1396 145.364 69.4653 145.364C70.813 145.364 71.6919 146.39 71.6919 148.177V148.191C71.6919 149.979 70.8203 151.019 69.48 151.019ZM76.7603 152.146C77.0093 152.146 77.2803 152.117 77.4414 152.095V151.062C77.3315 151.07 77.1851 151.092 77.0312 151.092C76.3501 151.092 75.9912 150.865 75.9912 150.052V145.438H77.4414V144.383H75.9912V142.325H74.6729V144.383H73.5596V145.438H74.6729V150.059C74.6729 151.517 75.3613 152.146 76.7603 152.146ZM82.2974 152H83.5718V145.438H85.1245V144.383H83.5571V143.453C83.5571 142.698 83.9087 142.339 84.6118 142.339C84.8096 142.339 85.0073 142.347 85.1611 142.369V141.336C84.9707 141.307 84.6704 141.285 84.3848 141.285C82.9785 141.285 82.2974 141.98 82.2974 143.445V144.383H81.2354V145.438H82.2974V152ZM86.4429 152H87.7173V147.239C87.7173 146.163 88.3618 145.452 89.3506 145.452C89.6582 145.452 89.9292 145.489 90.0317 145.525V144.288C89.9292 144.273 89.7388 144.236 89.519 144.236C88.6255 144.236 87.9224 144.771 87.6733 145.613H87.644V144.383H86.4429V152ZM93.8623 152.146C95.9644 152.146 97.3853 150.623 97.3853 148.191V148.177C97.3853 145.745 95.957 144.236 93.855 144.236C91.7529 144.236 90.332 145.752 90.332 148.177V148.191C90.332 150.616 91.7456 152.146 93.8623 152.146ZM93.8696 151.019C92.522 151.019 91.6357 149.986 91.6357 148.191V148.177C91.6357 146.397 92.5293 145.364 93.855 145.364C95.2026 145.364 96.0815 146.39 96.0815 148.177V148.191C96.0815 149.979 95.21 151.019 93.8696 151.019ZM98.6743 152H99.9487V147.225C99.9487 146.163 100.681 145.364 101.692 145.364C102.637 145.364 103.252 145.972 103.252 146.895V152H104.526V147.159C104.526 146.119 105.237 145.364 106.248 145.364C107.251 145.364 107.83 145.987 107.83 147.034V152H109.104V146.741C109.104 145.225 108.13 144.236 106.621 144.236C105.552 144.236 104.658 144.786 104.233 145.701H104.204C103.875 144.771 103.105 144.236 102.065 144.236C101.084 144.236 100.322 144.742 99.978 145.496H99.9487V144.383H98.6743V152ZM114.539 154.563C115.916 154.563 116.582 153.934 117.124 152.476L120.098 144.383H118.757L116.648 150.726H116.619L114.517 144.383H113.154L115.981 152.007L115.828 152.439C115.52 153.304 115.073 153.509 114.268 153.509C114.114 153.509 113.967 153.487 113.857 153.465V154.505C114.019 154.534 114.29 154.563 114.539 154.563ZM123.965 152.146C126.067 152.146 127.488 150.623 127.488 148.191V148.177C127.488 145.745 126.06 144.236 123.958 144.236C121.855 144.236 120.435 145.752 120.435 148.177V148.191C120.435 150.616 121.848 152.146 123.965 152.146ZM123.972 151.019C122.625 151.019 121.738 149.986 121.738 148.191V148.177C121.738 146.397 122.632 145.364 123.958 145.364C125.305 145.364 126.184 146.39 126.184 148.177V148.191C126.184 149.979 125.312 151.019 123.972 151.019ZM131.377 152.146C132.534 152.146 133.311 151.626 133.721 150.916H133.75V152H135.024V144.383H133.75V148.865C133.75 150.162 132.966 151.019 131.765 151.019C130.593 151.019 130.015 150.337 130.015 149.1V144.383H128.74V149.327C128.74 151.062 129.707 152.146 131.377 152.146ZM136.174 154.073H137.083L138.152 150.491H136.819L136.174 154.073ZM142.253 152H143.528V147.518C143.528 146.221 144.312 145.364 145.513 145.364C146.685 145.364 147.263 146.045 147.263 147.283V152H148.538V147.056C148.538 145.32 147.571 144.236 145.901 144.236C144.744 144.236 143.967 144.756 143.557 145.467H143.528V144.383H142.253V152ZM153.32 152.146C155.422 152.146 156.843 150.623 156.843 148.191V148.177C156.843 145.745 155.415 144.236 153.313 144.236C151.211 144.236 149.79 145.752 149.79 148.177V148.191C149.79 150.616 151.204 152.146 153.32 152.146ZM153.328 151.019C151.98 151.019 151.094 149.986 151.094 148.191V148.177C151.094 146.397 151.987 145.364 153.313 145.364C154.661 145.364 155.54 146.39 155.54 148.177V148.191C155.54 149.979 154.668 151.019 153.328 151.019ZM160.608 152.146C160.857 152.146 161.128 152.117 161.289 152.095V151.062C161.179 151.07 161.033 151.092 160.879 151.092C160.198 151.092 159.839 150.865 159.839 150.052V145.438H161.289V144.383H159.839V142.325H158.521V144.383H157.407V145.438H158.521V150.059C158.521 151.517 159.209 152.146 160.608 152.146ZM168.21 152.146C168.459 152.146 168.73 152.117 168.892 152.095V151.062C168.782 151.07 168.635 151.092 168.481 151.092C167.8 151.092 167.441 150.865 167.441 150.052V145.438H168.892V144.383H167.441V142.325H166.123V144.383H165.01V145.438H166.123V150.059C166.123 151.517 166.812 152.146 168.21 152.146ZM173.198 152.146C175.3 152.146 176.721 150.623 176.721 148.191V148.177C176.721 145.745 175.293 144.236 173.191 144.236C171.089 144.236 169.668 145.752 169.668 148.177V148.191C169.668 150.616 171.082 152.146 173.198 152.146ZM173.206 151.019C171.858 151.019 170.972 149.986 170.972 148.191V148.177C170.972 146.397 171.865 145.364 173.191 145.364C174.539 145.364 175.417 146.39 175.417 148.177V148.191C175.417 149.979 174.546 151.019 173.206 151.019ZM181.819 154.563C183.196 154.563 183.862 153.934 184.404 152.476L187.378 144.383H186.038L183.928 150.726H183.899L181.797 144.383H180.435L183.262 152.007L183.108 152.439C182.8 153.304 182.354 153.509 181.548 153.509C181.394 153.509 181.248 153.487 181.138 153.465V154.505C181.299 154.534 181.57 154.563 181.819 154.563ZM191.245 152.146C193.347 152.146 194.768 150.623 194.768 148.191V148.177C194.768 145.745 193.34 144.236 191.238 144.236C189.136 144.236 187.715 145.752 187.715 148.177V148.191C187.715 150.616 189.128 152.146 191.245 152.146ZM191.252 151.019C189.905 151.019 189.019 149.986 189.019 148.191V148.177C189.019 146.397 189.912 145.364 191.238 145.364C192.585 145.364 193.464 146.39 193.464 148.177V148.191C193.464 149.979 192.593 151.019 191.252 151.019ZM198.657 152.146C199.814 152.146 200.591 151.626 201.001 150.916H201.03V152H202.305V144.383H201.03V148.865C201.03 150.162 200.247 151.019 199.045 151.019C197.874 151.019 197.295 150.337 197.295 149.1V144.383H196.021V149.327C196.021 151.062 196.987 152.146 198.657 152.146Z" fill="#828282"/>
<path d="M17 143.192L17 142.5C17 141.926 17.4617 141.462 18.0312 141.462L34.444 141.462L33.1349 140.262C32.7132 139.86 32.7039 139.187 33.1145 138.773L33.5803 138.304C33.9831 137.899 34.636 137.899 35.0387 138.304L38.5973 141.867C39.1342 142.408 39.1342 143.284 38.5973 143.825L35.0387 147.388C34.636 147.794 33.983 147.794 33.5803 147.388L33.1145 146.919C32.7039 146.506 32.7132 145.832 33.1349 145.431L34.444 144.231L18.0312 144.231C17.4617 144.231 17 143.766 17 143.192ZM37.9687 149.769L21.556 149.769L22.8651 148.569C23.2868 148.168 23.2961 147.494 22.8855 147.081L22.4197 146.612C22.0169 146.206 21.364 146.206 20.9613 146.612L17.4027 150.175C16.8658 150.716 16.8658 151.592 17.4027 152.133L20.9613 155.696C21.364 156.101 22.017 156.101 22.4197 155.696L22.8855 155.227C23.2961 154.813 23.2868 154.14 22.8651 153.738L21.556 152.538L37.9687 152.538C38.5383 152.538 39 152.074 39 151.5L39 150.808C39 150.234 38.5383 149.769 37.9687 149.769Z" fill="#7AB2EA"/>
<defs>
<clipPath id="clip0">
<rect width="24" height="20" fill="white" transform="translate(16 59)"/>
</clipPath>
</defs>
</svg>
