<svg width="319" height="45" viewBox="0 0 319 45" fill="none" xmlns="http://www.w3.org/2000/svg">
<rect width="319" height="45" fill="white"/>
<path d="M36.9092 26H38.3037V18.7197H38.3516L41.3252 26H42.46L45.4336 18.7197H45.4814V26H46.876V16.1357H45.1123L41.9131 24.0107H41.8721L38.6797 16.1357H36.9092V26ZM51.6064 26.1436C53.6641 26.1436 55.0176 24.7217 55.0176 22.4043V22.3906C55.0176 20.0869 53.6504 18.6719 51.5996 18.6719C49.5557 18.6719 48.1953 20.0938 48.1953 22.3906V22.4043C48.1953 24.7148 49.542 26.1436 51.6064 26.1436ZM51.6133 24.9062C50.458 24.9062 49.7061 23.9971 49.7061 22.4043V22.3906C49.7061 20.8184 50.4648 19.9092 51.5996 19.9092C52.7549 19.9092 53.5068 20.8184 53.5068 22.3906V22.4043C53.5068 23.9902 52.7686 24.9062 51.6133 24.9062ZM57.8613 26H59.4473L62.0244 18.8086H60.4863L58.6816 24.5576H58.6475L56.8428 18.8086H55.2705L57.8613 26ZM65.668 26.1436C67.4111 26.1436 68.5186 25.1045 68.751 23.9629L68.7646 23.8877H67.3633L67.3428 23.9424C67.1582 24.4824 66.5771 24.9336 65.7021 24.9336C64.5264 24.9336 63.7812 24.1406 63.7539 22.7803H68.8467V22.2812C68.8467 20.1211 67.6094 18.6719 65.5928 18.6719C63.5762 18.6719 62.2773 20.1758 62.2773 22.4248V22.4316C62.2773 24.7012 63.5557 26.1436 65.668 26.1436ZM65.5996 19.8818C66.5635 19.8818 67.2607 20.4902 67.3838 21.7344H63.7744C63.9043 20.5312 64.6426 19.8818 65.5996 19.8818ZM75.3613 26.1436C75.6621 26.1436 75.9424 26.1094 76.1133 26.082V24.9404C76.0039 24.9541 75.874 24.9678 75.7168 24.9678C75.0947 24.9678 74.7666 24.749 74.7666 24.0176V19.9844H76.1133V18.8086H74.7666V16.9355H73.2559V18.8086H72.2236V19.9844H73.2559V24.1064C73.2559 25.542 73.9395 26.1436 75.3613 26.1436ZM80.249 26.1436C82.3066 26.1436 83.6602 24.7217 83.6602 22.4043V22.3906C83.6602 20.0869 82.293 18.6719 80.2422 18.6719C78.1982 18.6719 76.8379 20.0938 76.8379 22.3906V22.4043C76.8379 24.7148 78.1846 26.1436 80.249 26.1436ZM80.2559 24.9062C79.1006 24.9062 78.3486 23.9971 78.3486 22.4043V22.3906C78.3486 20.8184 79.1074 19.9092 80.2422 19.9092C81.3975 19.9092 82.1494 20.8184 82.1494 22.3906V22.4043C82.1494 23.9902 81.4111 24.9062 80.2559 24.9062ZM89.5049 16.1357H88.4658L87.4678 19.6357H88.9375L89.5049 16.1357ZM91.7676 16.1357H90.7285L89.7305 19.6357H91.207L91.7676 16.1357ZM93.2852 26H94.5156V22.0967H96.874L98.9863 26H100.429L98.1455 21.9053C99.376 21.5156 100.128 20.4561 100.128 19.0889V19.0752C100.128 17.2979 98.8838 16.1357 96.9834 16.1357H93.2852V26ZM94.5156 21.0098V17.2295H96.8193C98.084 17.2295 98.8564 17.9268 98.8564 19.1025V19.1162C98.8564 20.3262 98.1387 21.0098 96.874 21.0098H94.5156ZM104.421 26.1367C105.973 26.1367 107.135 25.207 107.367 24.0312L107.381 23.9629H106.212L106.191 24.0244C105.986 24.6328 105.351 25.084 104.448 25.084C103.184 25.084 102.377 24.2295 102.35 22.7666H107.47V22.3291C107.47 20.1963 106.287 18.7539 104.346 18.7539C102.404 18.7539 101.146 20.2646 101.146 22.4658V22.4727C101.146 24.708 102.377 26.1367 104.421 26.1367ZM104.339 19.8066C105.378 19.8066 106.144 20.4561 106.26 21.8369H102.37C102.5 20.5107 103.307 19.8066 104.339 19.8066ZM110.751 26.1367C111.701 26.1367 112.556 25.624 112.973 24.8447H113V26H114.189V21.085C114.189 19.6631 113.137 18.7539 111.455 18.7539C109.78 18.7539 108.762 19.6973 108.659 20.8662L108.652 20.9414H109.801L109.814 20.8799C109.951 20.2441 110.525 19.8066 111.441 19.8066C112.433 19.8066 113 20.333 113 21.2012V21.7959L110.963 21.9121C109.329 22.0078 108.386 22.7666 108.386 23.9766V23.9902C108.386 25.2822 109.336 26.1367 110.751 26.1367ZM109.603 23.9902V23.9766C109.603 23.3135 110.149 22.8896 111.1 22.835L113 22.7188V23.2998C113 24.332 112.139 25.1045 111.018 25.1045C110.163 25.1045 109.603 24.6738 109.603 23.9902ZM118.373 26.1367C119.392 26.1367 120.185 25.624 120.629 24.7969H120.656V26H121.846V16.1357H120.656V20.0801H120.629C120.185 19.2598 119.357 18.7539 118.353 18.7539C116.568 18.7539 115.352 20.1963 115.352 22.4385V22.4453C115.352 24.6875 116.555 26.1367 118.373 26.1367ZM118.605 25.084C117.348 25.084 116.568 24.0791 116.568 22.4453V22.4385C116.568 20.8184 117.348 19.8066 118.605 19.8066C119.802 19.8066 120.663 20.8525 120.663 22.4385V22.4453C120.663 24.0381 119.809 25.084 118.605 25.084ZM126.508 26H132.496V24.8926H127.738V16.1357H126.508V26ZM135.743 26.1367C136.693 26.1367 137.548 25.624 137.965 24.8447H137.992V26H139.182V21.085C139.182 19.6631 138.129 18.7539 136.447 18.7539C134.772 18.7539 133.754 19.6973 133.651 20.8662L133.645 20.9414H134.793L134.807 20.8799C134.943 20.2441 135.518 19.8066 136.434 19.8066C137.425 19.8066 137.992 20.333 137.992 21.2012V21.7959L135.955 21.9121C134.321 22.0078 133.378 22.7666 133.378 23.9766V23.9902C133.378 25.2822 134.328 26.1367 135.743 26.1367ZM134.595 23.9902V23.9766C134.595 23.3135 135.142 22.8896 136.092 22.835L137.992 22.7188V23.2998C137.992 24.332 137.131 25.1045 136.01 25.1045C135.155 25.1045 134.595 24.6738 134.595 23.9902ZM143.003 26.1367C143.235 26.1367 143.488 26.1094 143.639 26.0889V25.125C143.536 25.1318 143.399 25.1523 143.256 25.1523C142.62 25.1523 142.285 24.9404 142.285 24.1816V19.875H143.639V18.8906H142.285V16.9697H141.055V18.8906H140.016V19.875H141.055V24.1885C141.055 25.5488 141.697 26.1367 143.003 26.1367ZM147.638 26.1367C149.189 26.1367 150.352 25.207 150.584 24.0312L150.598 23.9629H149.429L149.408 24.0244C149.203 24.6328 148.567 25.084 147.665 25.084C146.4 25.084 145.594 24.2295 145.566 22.7666H150.687V22.3291C150.687 20.1963 149.504 18.7539 147.562 18.7539C145.621 18.7539 144.363 20.2646 144.363 22.4658V22.4727C144.363 24.708 145.594 26.1367 147.638 26.1367ZM147.556 19.8066C148.595 19.8066 149.36 20.4561 149.477 21.8369H145.587C145.717 20.5107 146.523 19.8066 147.556 19.8066ZM151.89 26H153.079V21.5566C153.079 20.5518 153.681 19.8887 154.604 19.8887C154.891 19.8887 155.144 19.9229 155.239 19.957V18.8018C155.144 18.7881 154.966 18.7539 154.761 18.7539C153.927 18.7539 153.271 19.2529 153.038 20.0391H153.011V18.8906H151.89V26ZM155.991 19.6357H157.03L158.028 16.1357H156.552L155.991 19.6357ZM158.254 19.6357H159.293L160.291 16.1357H158.814L158.254 19.6357ZM164.345 26H166.341V21.7891C166.341 20.832 166.908 20.1758 167.804 20.1758C168.699 20.1758 169.15 20.7227 169.15 21.6797V26H171.146V21.2695C171.146 19.5537 170.23 18.5215 168.617 18.5215C167.51 18.5215 166.758 19.0342 166.382 19.875H166.341V18.6719H164.345V26ZM175.747 26.1504C177.839 26.1504 178.851 24.9131 179.076 23.833L179.097 23.7578H177.265L177.251 23.7988C177.107 24.209 176.608 24.6602 175.788 24.6602C174.77 24.6602 174.134 23.9766 174.113 22.8076H179.158V22.1924C179.158 19.9775 177.812 18.5215 175.665 18.5215C173.519 18.5215 172.145 20.0117 172.145 22.3428V22.3496C172.145 24.6943 173.505 26.1504 175.747 26.1504ZM175.699 20.0117C176.526 20.0117 177.121 20.5381 177.244 21.5498H174.134C174.264 20.5586 174.879 20.0117 175.699 20.0117ZM181.578 26H183.677L184.996 20.8184H185.037L186.363 26H188.489L190.431 18.6719H188.462L187.348 24.1064H187.307L186.001 18.6719H184.087L182.788 24.1064H182.747L181.64 18.6719H179.63L181.578 26ZM197.321 26.1504C199.413 26.1504 200.425 24.9131 200.65 23.833L200.671 23.7578H198.839L198.825 23.7988C198.682 24.209 198.183 24.6602 197.362 24.6602C196.344 24.6602 195.708 23.9766 195.688 22.8076H200.732V22.1924C200.732 19.9775 199.386 18.5215 197.239 18.5215C195.093 18.5215 193.719 20.0117 193.719 22.3428V22.3496C193.719 24.6943 195.079 26.1504 197.321 26.1504ZM197.273 20.0117C198.101 20.0117 198.695 20.5381 198.818 21.5498H195.708C195.838 20.5586 196.453 20.0117 197.273 20.0117ZM201.765 26H203.761V21.5771C203.761 20.75 204.273 20.1758 205.032 20.1758C205.771 20.1758 206.215 20.6406 206.215 21.4268V26H208.136V21.543C208.136 20.7295 208.635 20.1758 209.394 20.1758C210.166 20.1758 210.59 20.6406 210.59 21.4883V26H212.586V20.9893C212.586 19.5127 211.622 18.5215 210.187 18.5215C209.113 18.5215 208.238 19.1094 207.91 20.0322H207.869C207.623 19.0684 206.878 18.5215 205.853 18.5215C204.868 18.5215 204.103 19.0684 203.802 19.9023H203.761V18.6719H201.765V26ZM216.031 26.1162C216.995 26.1162 217.774 25.6582 218.191 24.9062H218.232V26H220.229V20.9756C220.229 19.499 219.005 18.5215 217.111 18.5215C215.177 18.5215 214.015 19.4922 213.905 20.8457L213.898 20.9277H215.724L215.737 20.8662C215.833 20.3945 216.284 20.0459 217.029 20.0459C217.809 20.0459 218.232 20.4492 218.232 21.0986V21.5498L216.421 21.6592C214.603 21.7754 213.57 22.5547 213.57 23.8877V23.9014C213.57 25.1934 214.562 26.1162 216.031 26.1162ZM215.546 23.7988V23.7852C215.546 23.2656 215.949 22.9375 216.722 22.8896L218.232 22.7939V23.3203C218.232 24.0859 217.576 24.6602 216.681 24.6602C215.99 24.6602 215.546 24.3389 215.546 23.7988ZM222.56 17.7285C223.161 17.7285 223.626 17.2568 223.626 16.6895C223.626 16.1221 223.161 15.6504 222.56 15.6504C221.958 15.6504 221.493 16.1221 221.493 16.6895C221.493 17.2568 221.958 17.7285 222.56 17.7285ZM221.562 26H223.558V18.6719H221.562V26ZM224.945 26H226.941V16.1357H224.945V26ZM231.303 26.1504C233.189 26.1504 234.509 25.207 234.509 23.7715V23.7646C234.509 22.6846 233.88 22.083 232.349 21.7617L231.104 21.4951C230.366 21.3379 230.113 21.0918 230.113 20.7158V20.709C230.113 20.2373 230.544 19.9297 231.234 19.9297C231.973 19.9297 232.403 20.3262 232.472 20.8525L232.479 20.9072H234.317V20.8389C234.27 19.5537 233.183 18.5215 231.234 18.5215C229.368 18.5215 228.165 19.4238 228.165 20.8184V20.8252C228.165 21.9189 228.883 22.6299 230.305 22.9307L231.549 23.1904C232.267 23.3477 232.513 23.5732 232.513 23.9629V23.9697C232.513 24.4414 232.055 24.7354 231.303 24.7354C230.503 24.7354 230.072 24.4004 229.942 23.8262L229.929 23.7646H227.98L227.987 23.8262C228.145 25.2139 229.272 26.1504 231.303 26.1504ZM238.85 26H240.333V19.9844H241.769V18.8086H240.306V18.0703C240.306 17.4346 240.62 17.1133 241.283 17.1133C241.468 17.1133 241.652 17.127 241.796 17.1475V16.0537C241.598 16.0195 241.27 15.9922 240.969 15.9922C239.506 15.9922 238.85 16.6484 238.85 18.043V18.8086H237.858V19.9844H238.85V26ZM242.931 26H244.407V21.6729C244.407 20.6543 244.995 20.0186 245.945 20.0186C246.232 20.0186 246.492 20.0527 246.608 20.1006V18.7266C246.492 18.7061 246.308 18.6719 246.096 18.6719C245.248 18.6719 244.605 19.1777 244.387 19.998H244.353V18.8086H242.931V26ZM250.3 26.1436C252.357 26.1436 253.711 24.7217 253.711 22.4043V22.3906C253.711 20.0869 252.344 18.6719 250.293 18.6719C248.249 18.6719 246.889 20.0938 246.889 22.3906V22.4043C246.889 24.7148 248.235 26.1436 250.3 26.1436ZM250.307 24.9062C249.151 24.9062 248.399 23.9971 248.399 22.4043V22.3906C248.399 20.8184 249.158 19.9092 250.293 19.9092C251.448 19.9092 252.2 20.8184 252.2 22.3906V22.4043C252.2 23.9902 251.462 24.9062 250.307 24.9062ZM254.853 26H256.329V21.5566C256.329 20.627 256.951 19.9365 257.826 19.9365C258.66 19.9365 259.187 20.4697 259.187 21.3037V26H260.636V21.502C260.636 20.5928 261.244 19.9365 262.119 19.9365C262.994 19.9365 263.493 20.4766 263.493 21.4131V26H264.977V21.0576C264.977 19.6152 264.047 18.6719 262.625 18.6719C261.6 18.6719 260.752 19.2119 260.383 20.0869H260.349C260.062 19.1846 259.337 18.6719 258.346 18.6719C257.402 18.6719 256.671 19.1709 256.363 19.9229H256.329V18.8086H254.853V26ZM273.788 26.1709C274.417 26.1709 274.998 26.082 275.524 25.9043L276.29 26.9229H278.211L276.885 25.1592C277.944 24.2773 278.539 22.8691 278.539 21.0713L278.546 21.0576C278.546 17.9268 276.714 15.9648 273.788 15.9648C270.869 15.9648 269.03 17.9199 269.03 21.0576V21.0713C269.03 24.209 270.855 26.1709 273.788 26.1709ZM273.788 24.4209C272.168 24.4209 271.136 23.1357 271.136 21.0713V21.0576C271.136 18.9932 272.175 17.7148 273.788 17.7148C275.408 17.7148 276.434 19 276.434 21.0576V21.0713C276.434 22.124 276.167 22.9785 275.682 23.5664L275.08 22.7529H273.159L274.362 24.3594C274.178 24.4004 273.986 24.4209 273.788 24.4209ZM282.203 26.1504C283.311 26.1504 284.062 25.6309 284.438 24.79H284.479V26H286.476V18.6719H284.479V22.8828C284.479 23.8398 283.912 24.4961 283.017 24.4961C282.121 24.4961 281.67 23.9424 281.67 22.9854V18.6719H279.674V23.4023C279.674 25.1182 280.59 26.1504 282.203 26.1504ZM291.138 26.1504C293.353 26.1504 294.768 24.7285 294.768 22.3359V22.3223C294.768 19.9502 293.325 18.5215 291.131 18.5215C288.943 18.5215 287.508 19.9639 287.508 22.3223V22.3359C287.508 24.7217 288.909 26.1504 291.138 26.1504ZM291.145 24.585C290.16 24.585 289.538 23.7715 289.538 22.3359V22.3223C289.538 20.9072 290.167 20.0869 291.131 20.0869C292.102 20.0869 292.737 20.9072 292.737 22.3223V22.3359C292.737 23.7646 292.115 24.585 291.145 24.585ZM295.8 26H297.796V21.8711C297.796 20.8389 298.37 20.2441 299.354 20.2441C299.642 20.2441 299.915 20.2852 300.079 20.3535V18.5967C299.929 18.5557 299.724 18.5215 299.505 18.5215C298.637 18.5215 298.015 19.0342 297.803 19.9229H297.762V18.6719H295.8V26ZM302.902 26.1162C303.866 26.1162 304.646 25.6582 305.062 24.9062H305.104V26H307.1V20.9756C307.1 19.499 305.876 18.5215 303.982 18.5215C302.048 18.5215 300.886 19.4922 300.776 20.8457L300.77 20.9277H302.595L302.608 20.8662C302.704 20.3945 303.155 20.0459 303.9 20.0459C304.68 20.0459 305.104 20.4492 305.104 21.0986V21.5498L303.292 21.6592C301.474 21.7754 300.441 22.5547 300.441 23.8877V23.9014C300.441 25.1934 301.433 26.1162 302.902 26.1162ZM302.417 23.7988V23.7852C302.417 23.2656 302.82 22.9375 303.593 22.8896L305.104 22.7939V23.3203C305.104 24.0859 304.447 24.6602 303.552 24.6602C302.861 24.6602 302.417 24.3389 302.417 23.7988Z" fill="black"/>
<path d="M26 12H14C12.8954 12 12 12.8814 12 13.9688V33L20 28.4062L28 33V13.9688C28 12.8814 27.1046 12 26 12ZM26 29.5723L20 26.127L14 29.5723V14.2148C14 14.1496 14.0263 14.087 14.0732 14.0408C14.1201 13.9947 14.1837 13.9688 14.25 13.9688H25.75C25.8881 13.9688 26 14.0788 26 14.2147V29.5723Z" fill="#272727"/>
</svg>
