<svg width="49" height="47" viewBox="0 0 49 47" fill="none" xmlns="http://www.w3.org/2000/svg">
<g clip-path="url(#clip0)">
<path d="M41.8729 36.2806C42.3034 36.6265 42.9329 36.5578 43.2787 36.1273L48.9153 29.1109C49.2611 28.6803 49.1925 28.0509 48.7619 27.705C48.3314 27.3591 47.7019 27.4278 47.3561 27.8583L42.3458 34.0951L36.109 29.0849C35.6785 28.739 35.049 28.8076 34.7032 29.2382C34.3573 29.6688 34.4259 30.2982 34.8565 30.6441L41.8729 36.2806ZM1.52203 18.8414C9.89273 13.4279 19.2171 11.0725 26.7121 13.2723C34.0915 15.4382 40.0351 22.1306 41.505 35.6094L43.4933 35.3926C41.9641 21.3704 35.6533 13.8123 27.2754 11.3533C19.013 8.92827 9.07688 11.5737 0.435937 17.162L1.52203 18.8414Z" fill="#5373E5"/>
</g>
<defs>
<clipPath id="clip0">
<rect width="47.4704" height="45.4111" fill="white" transform="translate(0.978516 0.598877)"/>
</clipPath>
</defs>
</svg>
