<svg width="480" height="200" viewBox="0 0 480 200" fill="none" xmlns="http://www.w3.org/2000/svg">
<g clip-path="url(#clip0)">
<rect width="480" height="200" fill="white"/>
<rect x="191.964" y="68" width="257.549" height="119" rx="11" stroke="#F2F2F2" stroke-width="2"/>
<rect x="176.99" y="80" width="261.542" height="119" rx="11" fill="white" stroke="#F2F2F2" stroke-width="2"/>
<path d="M172.817 110H176.583C179.543 110 181.287 108.161 181.287 105.03V105.017C181.287 101.893 179.537 100.136 176.583 100.136H172.817V110ZM174.881 108.291V101.838H176.337C178.149 101.838 179.181 102.966 179.181 105.023V105.037C179.181 107.17 178.183 108.291 176.337 108.291H174.881ZM184.588 110.116C185.552 110.116 186.332 109.658 186.749 108.906H186.79V110H188.786V104.976C188.786 103.499 187.562 102.521 185.668 102.521C183.734 102.521 182.572 103.492 182.462 104.846L182.456 104.928H184.281L184.294 104.866C184.39 104.395 184.841 104.046 185.586 104.046C186.366 104.046 186.79 104.449 186.79 105.099V105.55L184.978 105.659C183.16 105.775 182.127 106.555 182.127 107.888V107.901C182.127 109.193 183.119 110.116 184.588 110.116ZM184.103 107.799V107.785C184.103 107.266 184.506 106.938 185.279 106.89L186.79 106.794V107.32C186.79 108.086 186.133 108.66 185.238 108.66C184.547 108.66 184.103 108.339 184.103 107.799ZM191.117 101.729C191.718 101.729 192.183 101.257 192.183 100.689C192.183 100.122 191.718 99.6504 191.117 99.6504C190.515 99.6504 190.05 100.122 190.05 100.689C190.05 101.257 190.515 101.729 191.117 101.729ZM190.119 110H192.115V102.672H190.119V110ZM193.502 110H195.499V100.136H193.502V110ZM197.994 112.413C199.621 112.413 200.605 111.859 201.179 110.13L203.695 102.672H201.589L200.038 108.4H199.983L198.438 102.672H196.244L198.834 110L198.746 110.239C198.568 110.738 198.24 110.909 197.645 110.909C197.351 110.909 197.119 110.868 196.975 110.841V112.324C197.208 112.365 197.604 112.413 197.994 112.413ZM207.338 110H209.396V103.54H209.437L213.908 110H215.699V100.136H213.641V106.548H213.6L209.143 100.136H207.338V110ZM220.511 110.15C222.603 110.15 223.615 108.913 223.84 107.833L223.861 107.758H222.029L222.015 107.799C221.872 108.209 221.373 108.66 220.552 108.66C219.534 108.66 218.898 107.977 218.877 106.808H223.922V106.192C223.922 103.978 222.576 102.521 220.429 102.521C218.283 102.521 216.909 104.012 216.909 106.343V106.35C216.909 108.694 218.269 110.15 220.511 110.15ZM220.463 104.012C221.291 104.012 221.885 104.538 222.008 105.55H218.898C219.028 104.559 219.643 104.012 220.463 104.012ZM226.342 110H228.441L229.76 104.818H229.801L231.127 110H233.253L235.195 102.672H233.226L232.112 108.106H232.071L230.765 102.672H228.851L227.552 108.106H227.511L226.404 102.672H224.394L226.342 110ZM238.948 110.15C240.834 110.15 242.154 109.207 242.154 107.771V107.765C242.154 106.685 241.525 106.083 239.994 105.762L238.749 105.495C238.011 105.338 237.758 105.092 237.758 104.716V104.709C237.758 104.237 238.189 103.93 238.879 103.93C239.618 103.93 240.048 104.326 240.117 104.853L240.124 104.907H241.962V104.839C241.915 103.554 240.828 102.521 238.879 102.521C237.013 102.521 235.81 103.424 235.81 104.818V104.825C235.81 105.919 236.528 106.63 237.95 106.931L239.194 107.19C239.912 107.348 240.158 107.573 240.158 107.963V107.97C240.158 108.441 239.7 108.735 238.948 108.735C238.148 108.735 237.717 108.4 237.587 107.826L237.574 107.765H235.625L235.632 107.826C235.79 109.214 236.917 110.15 238.948 110.15ZM243.186 110H245.182V100.136H243.186V110ZM249.865 110.15C251.957 110.15 252.968 108.913 253.194 107.833L253.214 107.758H251.382L251.369 107.799C251.225 108.209 250.726 108.66 249.906 108.66C248.887 108.66 248.251 107.977 248.231 106.808H253.276V106.192C253.276 103.978 251.929 102.521 249.783 102.521C247.636 102.521 246.262 104.012 246.262 106.343V106.35C246.262 108.694 247.623 110.15 249.865 110.15ZM249.817 104.012C250.644 104.012 251.239 104.538 251.362 105.55H248.251C248.381 104.559 248.997 104.012 249.817 104.012ZM257.22 110.15C257.637 110.15 257.958 110.109 258.184 110.075V108.612C258.061 108.626 257.931 108.646 257.753 108.646C257.152 108.646 256.844 108.414 256.844 107.73V104.176H258.184V102.672H256.844V100.881H254.828V102.672H253.809V104.176H254.828V107.949C254.828 109.521 255.593 110.15 257.22 110.15ZM262.197 110.15C262.614 110.15 262.935 110.109 263.161 110.075V108.612C263.038 108.626 262.908 108.646 262.73 108.646C262.128 108.646 261.821 108.414 261.821 107.73V104.176H263.161V102.672H261.821V100.881H259.804V102.672H258.786V104.176H259.804V107.949C259.804 109.521 260.57 110.15 262.197 110.15ZM267.488 110.15C269.58 110.15 270.591 108.913 270.817 107.833L270.837 107.758H269.005L268.992 107.799C268.848 108.209 268.349 108.66 267.529 108.66C266.51 108.66 265.874 107.977 265.854 106.808H270.899V106.192C270.899 103.978 269.552 102.521 267.406 102.521C265.259 102.521 263.885 104.012 263.885 106.343V106.35C263.885 108.694 265.246 110.15 267.488 110.15ZM267.44 104.012C268.267 104.012 268.862 104.538 268.985 105.55H265.874C266.004 104.559 266.62 104.012 267.44 104.012ZM271.931 110H273.927V105.871C273.927 104.839 274.501 104.244 275.486 104.244C275.773 104.244 276.046 104.285 276.21 104.354V102.597C276.06 102.556 275.855 102.521 275.636 102.521C274.768 102.521 274.146 103.034 273.934 103.923H273.893V102.672H271.931V110Z" fill="#333333"/>
<ellipse cx="353.681" cy="105" rx="5.9896" ry="6" fill="#F8F8F8"/>
<rect x="364.662" y="97" width="57.8995" height="16" rx="8" fill="#F8F8F8"/>
<rect x="189.965" y="126" width="195.66" height="12" rx="6" fill="#F8F8F8"/>
<rect x="189.965" y="148" width="234.593" height="12" rx="6" fill="#F8F8F8"/>
<rect x="189.965" y="170" width="109.809" height="12" rx="6" fill="#F8F8F8"/>
<path d="M326 58C326 54.6863 328.686 52 332 52H416.832C420.146 52 422.832 54.6863 422.832 58V79H326V58Z" fill="#F2F2F2"/>
<path d="M343.798 72.4131C345.425 72.4131 346.409 71.8594 346.983 70.1299L349.499 62.6719H347.394L345.842 68.4004H345.787L344.242 62.6719H342.048L344.639 70L344.55 70.2393C344.372 70.7383 344.044 70.9092 343.449 70.9092C343.155 70.9092 342.923 70.8682 342.779 70.8408V72.3242C343.012 72.3652 343.408 72.4131 343.798 72.4131ZM353.412 70.1504C355.504 70.1504 356.516 68.9131 356.742 67.833L356.762 67.7578H354.93L354.916 67.7988C354.773 68.209 354.274 68.6602 353.453 68.6602C352.435 68.6602 351.799 67.9766 351.779 66.8076H356.824V66.1924C356.824 63.9775 355.477 62.5215 353.33 62.5215C351.184 62.5215 349.81 64.0117 349.81 66.3428V66.3496C349.81 68.6943 351.17 70.1504 353.412 70.1504ZM353.365 64.0117C354.192 64.0117 354.786 64.5381 354.91 65.5498H351.799C351.929 64.5586 352.544 64.0117 353.365 64.0117ZM361.01 70.1504C362.897 70.1504 364.217 69.207 364.217 67.7715V67.7646C364.217 66.6846 363.588 66.083 362.056 65.7617L360.812 65.4951C360.074 65.3379 359.821 65.0918 359.821 64.7158V64.709C359.821 64.2373 360.252 63.9297 360.942 63.9297C361.68 63.9297 362.111 64.3262 362.179 64.8525L362.186 64.9072H364.025V64.8389C363.977 63.5537 362.89 62.5215 360.942 62.5215C359.076 62.5215 357.873 63.4238 357.873 64.8184V64.8252C357.873 65.9189 358.591 66.6299 360.012 66.9307L361.257 67.1904C361.974 67.3477 362.22 67.5732 362.22 67.9629V67.9697C362.22 68.4414 361.762 68.7354 361.01 68.7354C360.211 68.7354 359.78 68.4004 359.65 67.8262L359.636 67.7646H357.688L357.695 67.8262C357.852 69.2139 358.98 70.1504 361.01 70.1504ZM368.253 70.1504C368.67 70.1504 368.991 70.1094 369.217 70.0752V68.6123C369.094 68.626 368.964 68.6465 368.786 68.6465C368.185 68.6465 367.877 68.4141 367.877 67.7305V64.1758H369.217V62.6719H367.877V60.8809H365.86V62.6719H364.842V64.1758H365.86V67.9492C365.86 69.5215 366.626 70.1504 368.253 70.1504ZM373.684 70.1504C375.776 70.1504 376.788 68.9131 377.013 67.833L377.034 67.7578H375.202L375.188 67.7988C375.044 68.209 374.545 68.6602 373.725 68.6602C372.706 68.6602 372.071 67.9766 372.05 66.8076H377.095V66.1924C377.095 63.9775 375.748 62.5215 373.602 62.5215C371.456 62.5215 370.081 64.0117 370.081 66.3428V66.3496C370.081 68.6943 371.442 70.1504 373.684 70.1504ZM373.636 64.0117C374.463 64.0117 375.058 64.5381 375.181 65.5498H372.071C372.201 64.5586 372.816 64.0117 373.636 64.0117ZM378.267 70H380.263V65.8711C380.263 64.8389 380.838 64.2441 381.822 64.2441C382.109 64.2441 382.383 64.2852 382.547 64.3535V62.5967C382.396 62.5557 382.191 62.5215 381.972 62.5215C381.104 62.5215 380.482 63.0342 380.27 63.9229H380.229V62.6719H378.267V70ZM385.975 70.1504C387.034 70.1504 387.841 69.6172 388.231 68.749H388.272V70H390.268V60.1357H388.272V63.9434H388.231C387.834 63.0547 387.014 62.5215 385.975 62.5215C384.129 62.5215 382.994 63.9434 382.994 66.3291V66.3359C382.994 68.7148 384.129 70.1504 385.975 70.1504ZM386.645 68.4961C385.647 68.4961 385.025 67.6689 385.025 66.3359V66.3291C385.025 64.9893 385.653 64.1758 386.645 64.1758C387.609 64.1758 388.278 65.0098 388.278 66.3291V66.3359C388.278 67.6621 387.615 68.4961 386.645 68.4961ZM393.921 70.1162C394.885 70.1162 395.665 69.6582 396.082 68.9062H396.123V70H398.119V64.9756C398.119 63.499 396.895 62.5215 395.001 62.5215C393.067 62.5215 391.905 63.4922 391.795 64.8457L391.789 64.9277H393.614L393.627 64.8662C393.723 64.3945 394.174 64.0459 394.919 64.0459C395.699 64.0459 396.123 64.4492 396.123 65.0986V65.5498L394.311 65.6592C392.493 65.7754 391.46 66.5547 391.46 67.8877V67.9014C391.46 69.1934 392.452 70.1162 393.921 70.1162ZM393.436 67.7988V67.7852C393.436 67.2656 393.839 66.9375 394.612 66.8896L396.123 66.7939V67.3203C396.123 68.0859 395.466 68.6602 394.571 68.6602C393.88 68.6602 393.436 68.3389 393.436 67.7988ZM400.658 72.4131C402.285 72.4131 403.269 71.8594 403.844 70.1299L406.359 62.6719H404.254L402.702 68.4004H402.647L401.102 62.6719H398.908L401.499 70L401.41 70.2393C401.232 70.7383 400.904 70.9092 400.309 70.9092C400.016 70.9092 399.783 70.8682 399.64 70.8408V72.3242C399.872 72.3652 400.268 72.4131 400.658 72.4131Z" fill="#828282"/>
<path opacity="0.3" d="M458 68L170 198" stroke="#FF3636" stroke-width="4"/>
<rect width="72" height="72" rx="36" transform="matrix(-1 8.74228e-08 8.74228e-08 1 94 92)" fill="#FCB827"/>
<g filter="url(#filter0_d)">
<rect x="38" y="27" width="280" height="121" rx="12" fill="white"/>
</g>
<path d="M54.8203 58H58.5869C61.5469 58 63.29 56.1611 63.29 53.0303V53.0166C63.29 49.8926 61.54 48.1357 58.5869 48.1357H54.8203V58ZM56.8848 56.291V49.8379H58.3408C60.1523 49.8379 61.1846 50.9658 61.1846 53.0234V53.0371C61.1846 55.1699 60.1865 56.291 58.3408 56.291H56.8848ZM66.5918 58.1162C67.5557 58.1162 68.335 57.6582 68.752 56.9062H68.793V58H70.7891V52.9756C70.7891 51.499 69.5654 50.5215 67.6719 50.5215C65.7373 50.5215 64.5752 51.4922 64.4658 52.8457L64.459 52.9277H66.2842L66.2979 52.8662C66.3936 52.3945 66.8447 52.0459 67.5898 52.0459C68.3691 52.0459 68.793 52.4492 68.793 53.0986V53.5498L66.9814 53.6592C65.1631 53.7754 64.1309 54.5547 64.1309 55.8877V55.9014C64.1309 57.1934 65.1221 58.1162 66.5918 58.1162ZM66.1064 55.7988V55.7852C66.1064 55.2656 66.5098 54.9375 67.2822 54.8896L68.793 54.7939V55.3203C68.793 56.0859 68.1367 56.6602 67.2412 56.6602C66.5508 56.6602 66.1064 56.3389 66.1064 55.7988ZM73.1201 49.7285C73.7217 49.7285 74.1865 49.2568 74.1865 48.6895C74.1865 48.1221 73.7217 47.6504 73.1201 47.6504C72.5186 47.6504 72.0537 48.1221 72.0537 48.6895C72.0537 49.2568 72.5186 49.7285 73.1201 49.7285ZM72.1221 58H74.1182V50.6719H72.1221V58ZM75.5059 58H77.502V48.1357H75.5059V58ZM79.9971 60.4131C81.624 60.4131 82.6084 59.8594 83.1826 58.1299L85.6982 50.6719H83.5928L82.041 56.4004H81.9863L80.4414 50.6719H78.2471L80.8379 58L80.749 58.2393C80.5713 58.7383 80.2432 58.9092 79.6484 58.9092C79.3545 58.9092 79.1221 58.8682 78.9785 58.8408V60.3242C79.2109 60.3652 79.6074 60.4131 79.9971 60.4131ZM89.3418 58H91.3994V51.54H91.4404L95.9111 58H97.7021V48.1357H95.6445V54.5479H95.6035L91.1465 48.1357H89.3418V58ZM102.515 58.1504C104.606 58.1504 105.618 56.9131 105.844 55.833L105.864 55.7578H104.032L104.019 55.7988C103.875 56.209 103.376 56.6602 102.556 56.6602C101.537 56.6602 100.901 55.9766 100.881 54.8076H105.926V54.1924C105.926 51.9775 104.579 50.5215 102.433 50.5215C100.286 50.5215 98.9121 52.0117 98.9121 54.3428V54.3496C98.9121 56.6943 100.272 58.1504 102.515 58.1504ZM102.467 52.0117C103.294 52.0117 103.889 52.5381 104.012 53.5498H100.901C101.031 52.5586 101.646 52.0117 102.467 52.0117ZM108.346 58H110.444L111.764 52.8184H111.805L113.131 58H115.257L117.198 50.6719H115.229L114.115 56.1064H114.074L112.769 50.6719H110.854L109.556 56.1064H109.515L108.407 50.6719H106.397L108.346 58ZM120.951 58.1504C122.838 58.1504 124.157 57.207 124.157 55.7715V55.7646C124.157 54.6846 123.528 54.083 121.997 53.7617L120.753 53.4951C120.015 53.3379 119.762 53.0918 119.762 52.7158V52.709C119.762 52.2373 120.192 51.9297 120.883 51.9297C121.621 51.9297 122.052 52.3262 122.12 52.8525L122.127 52.9072H123.966V52.8389C123.918 51.5537 122.831 50.5215 120.883 50.5215C119.017 50.5215 117.813 51.4238 117.813 52.8184V52.8252C117.813 53.9189 118.531 54.6299 119.953 54.9307L121.197 55.1904C121.915 55.3477 122.161 55.5732 122.161 55.9629V55.9697C122.161 56.4414 121.703 56.7354 120.951 56.7354C120.151 56.7354 119.721 56.4004 119.591 55.8262L119.577 55.7646H117.629L117.636 55.8262C117.793 57.2139 118.921 58.1504 120.951 58.1504ZM125.189 58H127.186V48.1357H125.189V58ZM131.868 58.1504C133.96 58.1504 134.972 56.9131 135.197 55.833L135.218 55.7578H133.386L133.372 55.7988C133.229 56.209 132.729 56.6602 131.909 56.6602C130.891 56.6602 130.255 55.9766 130.234 54.8076H135.279V54.1924C135.279 51.9775 133.933 50.5215 131.786 50.5215C129.64 50.5215 128.266 52.0117 128.266 54.3428V54.3496C128.266 56.6943 129.626 58.1504 131.868 58.1504ZM131.82 52.0117C132.647 52.0117 133.242 52.5381 133.365 53.5498H130.255C130.385 52.5586 131 52.0117 131.82 52.0117ZM139.224 58.1504C139.641 58.1504 139.962 58.1094 140.188 58.0752V56.6123C140.064 56.626 139.935 56.6465 139.757 56.6465C139.155 56.6465 138.848 56.4141 138.848 55.7305V52.1758H140.188V50.6719H138.848V48.8809H136.831V50.6719H135.812V52.1758H136.831V55.9492C136.831 57.5215 137.597 58.1504 139.224 58.1504ZM144.2 58.1504C144.617 58.1504 144.938 58.1094 145.164 58.0752V56.6123C145.041 56.626 144.911 56.6465 144.733 56.6465C144.132 56.6465 143.824 56.4141 143.824 55.7305V52.1758H145.164V50.6719H143.824V48.8809H141.808V50.6719H140.789V52.1758H141.808V55.9492C141.808 57.5215 142.573 58.1504 144.2 58.1504ZM149.491 58.1504C151.583 58.1504 152.595 56.9131 152.82 55.833L152.841 55.7578H151.009L150.995 55.7988C150.852 56.209 150.353 56.6602 149.532 56.6602C148.514 56.6602 147.878 55.9766 147.857 54.8076H152.902V54.1924C152.902 51.9775 151.556 50.5215 149.409 50.5215C147.263 50.5215 145.889 52.0117 145.889 54.3428V54.3496C145.889 56.6943 147.249 58.1504 149.491 58.1504ZM149.443 52.0117C150.271 52.0117 150.865 52.5381 150.988 53.5498H147.878C148.008 52.5586 148.623 52.0117 149.443 52.0117ZM153.935 58H155.931V53.8711C155.931 52.8389 156.505 52.2441 157.489 52.2441C157.776 52.2441 158.05 52.2852 158.214 52.3535V50.5967C158.063 50.5557 157.858 50.5215 157.64 50.5215C156.771 50.5215 156.149 51.0342 155.938 51.9229H155.896V50.6719H153.935V58Z" fill="#333333"/>
<circle cx="233" cy="54" r="6" fill="#69B6F3"/>
<rect x="244" y="45" width="58" height="18" rx="9" fill="#F2F2F2"/>
<path d="M255.055 58H256.537V49.5449H255.043L252.834 51.0977V52.4863L255.02 50.9863H255.055V58ZM263.627 58.123C265.25 58.123 266.164 57.1621 266.357 56.207L266.375 56.1426H265.01L264.998 56.1836C264.857 56.5996 264.383 56.9863 263.656 56.9863C262.707 56.9863 262.109 56.3418 262.086 55.252H266.434V54.7832C266.434 52.9082 265.332 51.6602 263.557 51.6602C261.781 51.6602 260.639 52.9492 260.639 54.9062V54.9121C260.639 56.8867 261.764 58.123 263.627 58.123ZM263.574 52.8027C264.348 52.8027 264.91 53.2949 265.016 54.2793H262.104C262.221 53.3242 262.801 52.8027 263.574 52.8027ZM267.377 58H268.836V54.1973C268.836 53.4414 269.328 52.8906 270.031 52.8906C270.711 52.8906 271.133 53.3242 271.133 54.0215V58H272.551V54.1621C272.551 53.4121 273.031 52.8906 273.734 52.8906C274.449 52.8906 274.848 53.3301 274.848 54.0977V58H276.307V53.7344C276.307 52.4922 275.504 51.6602 274.279 51.6602C273.383 51.6602 272.645 52.1406 272.346 52.9141H272.311C272.082 52.1172 271.455 51.6602 270.588 51.6602C269.768 51.6602 269.129 52.1055 268.865 52.7852H268.836V51.7891H267.377V58ZM279.312 58.1055C280.133 58.1055 280.824 57.6953 281.182 57.0449H281.217V58H282.676V53.7285C282.676 52.4805 281.674 51.6602 280.121 51.6602C278.545 51.6602 277.59 52.4863 277.502 53.5879L277.496 53.6582H278.85L278.861 53.6055C278.955 53.1484 279.377 52.8262 280.068 52.8262C280.807 52.8262 281.217 53.207 281.217 53.834V54.2617L279.594 54.3613C278.088 54.4551 277.232 55.1172 277.232 56.2188V56.2305C277.232 57.3379 278.07 58.1055 279.312 58.1055ZM278.686 56.1719V56.166C278.686 55.6738 279.078 55.3633 279.799 55.3164L281.217 55.2285V55.6973C281.217 56.4355 280.584 56.9922 279.746 56.9922C279.107 56.9922 278.686 56.6816 278.686 56.1719ZM284.627 50.8984C285.084 50.8984 285.436 50.5352 285.436 50.1016C285.436 49.6562 285.084 49.2988 284.627 49.2988C284.17 49.2988 283.812 49.6562 283.812 50.1016C283.812 50.5352 284.17 50.8984 284.627 50.8984ZM283.895 58H285.354V51.7891H283.895V58ZM286.637 58H288.096V49.5449H286.637V58ZM291.764 58.123C293.287 58.123 294.371 57.3379 294.371 56.166V56.1602C294.371 55.2578 293.873 54.7539 292.59 54.4668L291.553 54.2383C290.908 54.0918 290.668 53.8574 290.668 53.5V53.4941C290.668 53.0371 291.072 52.7383 291.717 52.7383C292.396 52.7383 292.795 53.1016 292.859 53.5996L292.865 53.6465H294.225L294.219 53.582C294.166 52.5098 293.264 51.6602 291.717 51.6602C290.217 51.6602 289.227 52.4277 289.227 53.5645V53.5703C289.227 54.4902 289.824 55.0703 291.014 55.334L292.045 55.5625C292.689 55.709 292.906 55.9199 292.906 56.2949V56.3008C292.906 56.7578 292.479 57.0449 291.77 57.0449C291.031 57.0449 290.627 56.7285 290.516 56.1953L290.504 56.1426H289.068L289.074 56.1953C289.203 57.3496 290.135 58.123 291.764 58.123Z" fill="#333333"/>
<rect x="54" y="74" width="207" height="12" rx="6" fill="#F8F8F8"/>
<rect x="54" y="96" width="248" height="12" rx="6" fill="#F8F8F8"/>
<rect x="54" y="118" width="116" height="12" rx="6" fill="#F8F8F8"/>
<path d="M212 6C212 2.68629 214.686 0 218 0H296C299.314 0 302 2.68629 302 6V27H212V6Z" fill="#5373E5"/>
<path d="M241.562 19.1504C241.979 19.1504 242.3 19.1094 242.525 19.0752V17.6123C242.402 17.626 242.272 17.6465 242.095 17.6465C241.493 17.6465 241.186 17.4141 241.186 16.7305V13.1758H242.525V11.6719H241.186V9.88086H239.169V11.6719H238.15V13.1758H239.169V16.9492C239.169 18.5215 239.935 19.1504 241.562 19.1504ZM246.88 19.1504C249.095 19.1504 250.51 17.7285 250.51 15.3359V15.3223C250.51 12.9502 249.067 11.5215 246.873 11.5215C244.686 11.5215 243.25 12.9639 243.25 15.3223V15.3359C243.25 17.7217 244.651 19.1504 246.88 19.1504ZM246.887 17.585C245.902 17.585 245.28 16.7715 245.28 15.3359V15.3223C245.28 13.9072 245.909 13.0869 246.873 13.0869C247.844 13.0869 248.479 13.9072 248.479 15.3223V15.3359C248.479 16.7646 247.857 17.585 246.887 17.585ZM254.256 19.1504C255.315 19.1504 256.122 18.6172 256.512 17.749H256.553V19H258.549V9.13574H256.553V12.9434H256.512C256.115 12.0547 255.295 11.5215 254.256 11.5215C252.41 11.5215 251.275 12.9434 251.275 15.3291V15.3359C251.275 17.7148 252.41 19.1504 254.256 19.1504ZM254.926 17.4961C253.928 17.4961 253.306 16.6689 253.306 15.3359V15.3291C253.306 13.9893 253.935 13.1758 254.926 13.1758C255.89 13.1758 256.56 14.0098 256.56 15.3291V15.3359C256.56 16.6621 255.896 17.4961 254.926 17.4961ZM262.062 19.1162C263.026 19.1162 263.806 18.6582 264.223 17.9062H264.264V19H266.26V13.9756C266.26 12.499 265.036 11.5215 263.143 11.5215C261.208 11.5215 260.046 12.4922 259.937 13.8457L259.93 13.9277H261.755L261.769 13.8662C261.864 13.3945 262.315 13.0459 263.061 13.0459C263.84 13.0459 264.264 13.4492 264.264 14.0986V14.5498L262.452 14.6592C260.634 14.7754 259.602 15.5547 259.602 16.8877V16.9014C259.602 18.1934 260.593 19.1162 262.062 19.1162ZM261.577 16.7988V16.7852C261.577 16.2656 261.98 15.9375 262.753 15.8896L264.264 15.7939V16.3203C264.264 17.0859 263.607 17.6602 262.712 17.6602C262.021 17.6602 261.577 17.3389 261.577 16.7988ZM268.659 21.4131C270.286 21.4131 271.271 20.8594 271.845 19.1299L274.36 11.6719H272.255L270.703 17.4004H270.648L269.104 11.6719H266.909L269.5 19L269.411 19.2393C269.233 19.7383 268.905 19.9092 268.311 19.9092C268.017 19.9092 267.784 19.8682 267.641 19.8408V21.3242C267.873 21.3652 268.27 21.4131 268.659 21.4131Z" fill="white"/>
</g>
<defs>
<filter id="filter0_d" x="14" y="11" width="328" height="169" filterUnits="userSpaceOnUse" color-interpolation-filters="sRGB">
<feFlood flood-opacity="0" result="BackgroundImageFix"/>
<feColorMatrix in="SourceAlpha" type="matrix" values="0 0 0 0 0 0 0 0 0 0 0 0 0 0 0 0 0 0 127 0"/>
<feOffset dy="8"/>
<feGaussianBlur stdDeviation="12"/>
<feColorMatrix type="matrix" values="0 0 0 0 0 0 0 0 0 0 0 0 0 0 0 0 0 0 0.16 0"/>
<feBlend mode="normal" in2="BackgroundImageFix" result="effect1_dropShadow"/>
<feBlend mode="normal" in="SourceGraphic" in2="effect1_dropShadow" result="shape"/>
</filter>
<clipPath id="clip0">
<rect width="480" height="200" fill="white"/>
</clipPath>
</defs>
</svg>
