<svg width="450" height="250" viewBox="0 0 450 250" fill="none" xmlns="http://www.w3.org/2000/svg">
<g clip-path="url(#clip0)">
<rect width="450" height="250" fill="white"/>
<rect width="140" height="140" rx="32" transform="matrix(-0.927184 -0.374607 -0.374607 0.927184 173.251 43.4448)" fill="#FCB827"/>
<path d="M379 122L438 122C444.627 122 450 127.373 450 134V200C450 206.627 444.627 212 438 212H379V122Z" fill="#EB001B"/>
<path d="M431.055 156.961H424.769L422.738 154.592C422.468 154.277 422.118 154.021 421.715 153.845C421.312 153.668 420.868 153.577 420.418 153.577H415.582C415.132 153.577 414.688 153.668 414.285 153.845C413.882 154.021 413.532 154.277 413.262 154.592L411.231 156.961H404.945C404.817 156.961 404.694 157.006 404.603 157.085C404.512 157.165 404.462 157.272 404.462 157.384V158.231C404.462 158.343 404.512 158.45 404.603 158.53C404.694 158.609 404.817 158.654 404.945 158.654H406.087L408.094 178.343C408.159 178.974 408.491 179.561 409.026 179.989C409.561 180.416 410.259 180.653 410.983 180.654H425.017C425.741 180.653 426.44 180.416 426.974 179.989C427.509 179.561 427.841 178.974 427.906 178.343L429.913 158.654H431.055C431.183 158.654 431.306 158.609 431.397 158.53C431.488 158.45 431.538 158.343 431.538 158.231V157.384C431.538 157.272 431.488 157.165 431.397 157.085C431.306 157.006 431.183 156.961 431.055 156.961ZM414.809 155.607C414.899 155.503 415.016 155.418 415.15 155.359C415.284 155.3 415.432 155.269 415.582 155.269H420.418C420.568 155.269 420.716 155.3 420.85 155.359C420.984 155.418 421.101 155.503 421.191 155.607L422.352 156.961H413.648L414.809 155.607ZM425.978 178.189C425.958 178.4 425.848 178.597 425.67 178.74C425.492 178.883 425.259 178.962 425.017 178.961H410.983C410.741 178.962 410.508 178.883 410.33 178.74C410.152 178.597 410.042 178.4 410.022 178.189L408.027 158.654H427.973L425.978 178.189Z" fill="white" stroke="white"/>
<rect x="35" y="56" width="334" height="112" rx="11" fill="white" stroke="#F2F2F2" stroke-width="2"/>
<path d="M80.0937 91H82.453V81.6719H85.7187V79.7266H76.8358V81.6719H80.0937V91ZM86.8827 91H89.164V86.2031C89.164 85.1094 89.8124 84.3438 90.8202 84.3438C91.8593 84.3438 92.4374 85.0391 92.4374 86.2109V91H94.7187V85.7422C94.7187 83.7188 93.5937 82.4531 91.7812 82.4531C90.5233 82.4531 89.6405 83.0312 89.2108 84.0703H89.164V79.7266H86.8827V91ZM97.3749 81.5469C98.0624 81.5469 98.5937 81.0078 98.5937 80.3594C98.5937 79.7109 98.0624 79.1719 97.3749 79.1719C96.6874 79.1719 96.1562 79.7109 96.1562 80.3594C96.1562 81.0078 96.6874 81.5469 97.3749 81.5469ZM96.2343 91H98.5155V82.625H96.2343V91ZM103.492 91.1719C105.648 91.1719 107.156 90.0938 107.156 88.4531V88.4453C107.156 87.2109 106.437 86.5234 104.687 86.1562L103.266 85.8516C102.422 85.6719 102.133 85.3906 102.133 84.9609V84.9531C102.133 84.4141 102.625 84.0625 103.414 84.0625C104.258 84.0625 104.75 84.5156 104.828 85.1172L104.836 85.1797H106.937V85.1016C106.883 83.6328 105.641 82.4531 103.414 82.4531C101.281 82.4531 99.9062 83.4844 99.9062 85.0781V85.0859C99.9062 86.3359 100.726 87.1484 102.351 87.4922L103.773 87.7891C104.594 87.9688 104.875 88.2266 104.875 88.6719V88.6797C104.875 89.2188 104.351 89.5547 103.492 89.5547C102.578 89.5547 102.086 89.1719 101.937 88.5156L101.922 88.4453H99.6952L99.703 88.5156C99.8827 90.1016 101.172 91.1719 103.492 91.1719ZM111.648 91H113.75V83.375H113.812L116.859 91H118.344L121.383 83.375H121.453V91H123.555V79.7266H120.828L117.625 87.8281H117.578L114.375 79.7266H111.648V91ZM129.078 91.1719C131.609 91.1719 133.226 89.5469 133.226 86.8125V86.7969C133.226 84.0859 131.578 82.4531 129.07 82.4531C126.57 82.4531 124.93 84.1016 124.93 86.7969V86.8125C124.93 89.5391 126.531 91.1719 129.078 91.1719ZM129.086 89.3828C127.961 89.3828 127.25 88.4531 127.25 86.8125V86.7969C127.25 85.1797 127.969 84.2422 129.07 84.2422C130.18 84.2422 130.906 85.1797 130.906 86.7969V86.8125C130.906 88.4453 130.195 89.3828 129.086 89.3828ZM134.406 91H136.687V86.1875C136.687 85.0938 137.336 84.3438 138.359 84.3438C139.383 84.3438 139.898 84.9688 139.898 86.0625V91H142.18V85.5938C142.18 83.6328 141.133 82.4531 139.289 82.4531C138.023 82.4531 137.164 83.0391 136.734 84H136.687V82.625H134.406V91ZM146.953 91.1719C147.43 91.1719 147.797 91.125 148.055 91.0859V89.4141C147.914 89.4297 147.766 89.4531 147.562 89.4531C146.875 89.4531 146.523 89.1875 146.523 88.4062V84.3438H148.055V82.625H146.523V80.5781H144.219V82.625H143.055V84.3438H144.219V88.6562C144.219 90.4531 145.094 91.1719 146.953 91.1719ZM149.367 91H151.648V86.2031C151.648 85.1094 152.297 84.3438 153.305 84.3438C154.344 84.3438 154.922 85.0391 154.922 86.2109V91H157.203V85.7422C157.203 83.7188 156.078 82.4531 154.266 82.4531C153.008 82.4531 152.125 83.0312 151.695 84.0703H151.648V79.7266H149.367V91Z" fill="#828282"/>
<rect x="50.9999" y="78" width="16" height="16" rx="2" stroke="#E0E0E0" stroke-width="2"/>
<path d="M53.3671 83.9357L57.1113 86.7476L61.6042 82.2485" stroke="white" stroke-width="1.65022" stroke-linecap="round" stroke-linejoin="round"/>
<circle cx="289" cy="85" r="6" fill="#F2F2F2"/>
<rect x="301" y="75" width="53" height="20" rx="10" fill="#F2F2F2"/>
<rect x="49.9999" y="115" width="275" height="12" rx="6" fill="#F8F8F8"/>
<rect x="49.9999" y="137" width="312" height="12" rx="6" fill="#F8F8F8"/>
<g filter="url(#filter0_d)">
<rect x="50" y="110" width="336" height="114" rx="13.3162" fill="white"/>
<path d="M92.9375 146H100.227V144.055H95.2969V134.727H92.9375V146ZM103.922 146.133C105.023 146.133 105.914 145.609 106.391 144.75H106.438V146H108.719V140.258C108.719 138.57 107.32 137.453 105.156 137.453C102.945 137.453 101.617 138.562 101.492 140.109L101.484 140.203H103.57L103.586 140.133C103.695 139.594 104.211 139.195 105.062 139.195C105.953 139.195 106.438 139.656 106.438 140.398V140.914L104.367 141.039C102.289 141.172 101.109 142.062 101.109 143.586V143.602C101.109 145.078 102.242 146.133 103.922 146.133ZM103.367 143.484V143.469C103.367 142.875 103.828 142.5 104.711 142.445L106.438 142.336V142.938C106.438 143.812 105.688 144.469 104.664 144.469C103.875 144.469 103.367 144.102 103.367 143.484ZM113.641 146.172C115.797 146.172 117.305 145.094 117.305 143.453V143.445C117.305 142.211 116.586 141.523 114.836 141.156L113.414 140.852C112.57 140.672 112.281 140.391 112.281 139.961V139.953C112.281 139.414 112.773 139.062 113.562 139.062C114.406 139.062 114.898 139.516 114.977 140.117L114.984 140.18H117.086V140.102C117.031 138.633 115.789 137.453 113.562 137.453C111.43 137.453 110.055 138.484 110.055 140.078V140.086C110.055 141.336 110.875 142.148 112.5 142.492L113.922 142.789C114.742 142.969 115.023 143.227 115.023 143.672V143.68C115.023 144.219 114.5 144.555 113.641 144.555C112.727 144.555 112.234 144.172 112.086 143.516L112.07 143.445H109.844L109.852 143.516C110.031 145.102 111.32 146.172 113.641 146.172ZM121.758 146.172C122.234 146.172 122.602 146.125 122.859 146.086V144.414C122.719 144.43 122.57 144.453 122.367 144.453C121.68 144.453 121.328 144.188 121.328 143.406V139.344H122.859V137.625H121.328V135.578H119.023V137.625H117.859V139.344H119.023V143.656C119.023 145.453 119.898 146.172 121.758 146.172ZM130.688 146H133.047V141.789L136.977 134.727H134.422L131.898 139.539H131.844L129.312 134.727H126.766L130.688 141.789V146ZM140.023 146.172C142.414 146.172 143.57 144.758 143.828 143.523L143.852 143.438H141.758L141.742 143.484C141.578 143.953 141.008 144.469 140.07 144.469C138.906 144.469 138.18 143.688 138.156 142.352H143.922V141.648C143.922 139.117 142.383 137.453 139.93 137.453C137.477 137.453 135.906 139.156 135.906 141.82V141.828C135.906 144.508 137.461 146.172 140.023 146.172ZM139.969 139.156C140.914 139.156 141.594 139.758 141.734 140.914H138.18C138.328 139.781 139.031 139.156 139.969 139.156ZM147.594 146.133C148.695 146.133 149.586 145.609 150.062 144.75H150.109V146H152.391V140.258C152.391 138.57 150.992 137.453 148.828 137.453C146.617 137.453 145.289 138.562 145.164 140.109L145.156 140.203H147.242L147.258 140.133C147.367 139.594 147.883 139.195 148.734 139.195C149.625 139.195 150.109 139.656 150.109 140.398V140.914L148.039 141.039C145.961 141.172 144.781 142.062 144.781 143.586V143.602C144.781 145.078 145.914 146.133 147.594 146.133ZM147.039 143.484V143.469C147.039 142.875 147.5 142.5 148.383 142.445L150.109 142.336V142.938C150.109 143.812 149.359 144.469 148.336 144.469C147.547 144.469 147.039 144.102 147.039 143.484ZM153.867 146H156.148V141.281C156.148 140.102 156.805 139.422 157.93 139.422C158.258 139.422 158.57 139.469 158.758 139.547V137.539C158.586 137.492 158.352 137.453 158.102 137.453C157.109 137.453 156.398 138.039 156.156 139.055H156.109V137.625H153.867V146Z" fill="#272727"/>
<rect x="66" y="131" width="18" height="18" rx="4" fill="#5373E5"/>
<path d="M70 139.25L74.5455 143L80 137" stroke="white" stroke-width="2" stroke-linecap="round" stroke-linejoin="round"/>
<circle cx="278" cy="140" r="6" fill="#69B6F3"/>
<rect x="290" y="130" width="80" height="20" rx="10" fill="#F2F2F2"/>
<path d="M301.148 144H302.631V135.545H301.137L298.928 137.098V138.486L301.113 136.986H301.148V144ZM306.75 144H308.232V135.545H306.738L304.529 137.098V138.486L306.715 136.986H306.75V144ZM314.244 144H315.686V142.377H316.834V141.135H315.686V135.545H313.535L310.025 141.088V142.377H314.244V144ZM311.385 141.17V141.129L314.232 136.688H314.268V141.17H311.385ZM320.977 144.146C323.045 144.146 324.299 142.465 324.299 139.775V139.764C324.299 137.074 323.045 135.398 320.977 135.398C318.902 135.398 317.654 137.074 317.654 139.764V139.775C317.654 142.465 318.902 144.146 320.977 144.146ZM320.977 142.91C319.834 142.91 319.178 141.727 319.178 139.775V139.764C319.178 137.812 319.834 136.641 320.977 136.641C322.113 136.641 322.775 137.812 322.775 139.764V139.775C322.775 141.727 322.113 142.91 320.977 142.91ZM330.533 144.123C332.156 144.123 333.07 143.162 333.264 142.207L333.281 142.143H331.916L331.904 142.184C331.764 142.6 331.289 142.986 330.562 142.986C329.613 142.986 329.016 142.342 328.992 141.252H333.34V140.783C333.34 138.908 332.238 137.66 330.463 137.66C328.688 137.66 327.545 138.949 327.545 140.906V140.912C327.545 142.887 328.67 144.123 330.533 144.123ZM330.48 138.803C331.254 138.803 331.816 139.295 331.922 140.279H329.01C329.127 139.324 329.707 138.803 330.48 138.803ZM334.283 144H335.742V140.197C335.742 139.441 336.234 138.891 336.938 138.891C337.617 138.891 338.039 139.324 338.039 140.021V144H339.457V140.162C339.457 139.412 339.938 138.891 340.641 138.891C341.355 138.891 341.754 139.33 341.754 140.098V144H343.213V139.734C343.213 138.492 342.41 137.66 341.186 137.66C340.289 137.66 339.551 138.141 339.252 138.914H339.217C338.988 138.117 338.361 137.66 337.494 137.66C336.674 137.66 336.035 138.105 335.771 138.785H335.742V137.789H334.283V144ZM346.219 144.105C347.039 144.105 347.73 143.695 348.088 143.045H348.123V144H349.582V139.729C349.582 138.48 348.58 137.66 347.027 137.66C345.451 137.66 344.496 138.486 344.408 139.588L344.402 139.658H345.756L345.768 139.605C345.861 139.148 346.283 138.826 346.975 138.826C347.713 138.826 348.123 139.207 348.123 139.834V140.262L346.5 140.361C344.994 140.455 344.139 141.117 344.139 142.219V142.23C344.139 143.338 344.977 144.105 346.219 144.105ZM345.592 142.172V142.166C345.592 141.674 345.984 141.363 346.705 141.316L348.123 141.229V141.697C348.123 142.436 347.49 142.992 346.652 142.992C346.014 142.992 345.592 142.682 345.592 142.172ZM351.533 136.898C351.99 136.898 352.342 136.535 352.342 136.102C352.342 135.656 351.99 135.299 351.533 135.299C351.076 135.299 350.719 135.656 350.719 136.102C350.719 136.535 351.076 136.898 351.533 136.898ZM350.801 144H352.26V137.789H350.801V144ZM353.543 144H355.002V135.545H353.543V144ZM358.67 144.123C360.193 144.123 361.277 143.338 361.277 142.166V142.16C361.277 141.258 360.779 140.754 359.496 140.467L358.459 140.238C357.814 140.092 357.574 139.857 357.574 139.5V139.494C357.574 139.037 357.979 138.738 358.623 138.738C359.303 138.738 359.701 139.102 359.766 139.6L359.771 139.646H361.131L361.125 139.582C361.072 138.51 360.17 137.66 358.623 137.66C357.123 137.66 356.133 138.428 356.133 139.564V139.57C356.133 140.49 356.73 141.07 357.92 141.334L358.951 141.562C359.596 141.709 359.812 141.92 359.812 142.295V142.301C359.812 142.758 359.385 143.045 358.676 143.045C357.938 143.045 357.533 142.729 357.422 142.195L357.41 142.143H355.975L355.98 142.195C356.109 143.35 357.041 144.123 358.67 144.123Z" fill="#272727"/>
<rect x="65.9999" y="170" width="254" height="12" rx="6" fill="#F2F2F2"/>
<rect x="65.9999" y="192" width="304" height="12" rx="6" fill="#F2F2F2"/>
</g>
</g>
<defs>
<filter id="filter0_d" x="26" y="94" width="384" height="162" filterUnits="userSpaceOnUse" color-interpolation-filters="sRGB">
<feFlood flood-opacity="0" result="BackgroundImageFix"/>
<feColorMatrix in="SourceAlpha" type="matrix" values="0 0 0 0 0 0 0 0 0 0 0 0 0 0 0 0 0 0 127 0"/>
<feOffset dy="8"/>
<feGaussianBlur stdDeviation="12"/>
<feColorMatrix type="matrix" values="0 0 0 0 0 0 0 0 0 0 0 0 0 0 0 0 0 0 0.16 0"/>
<feBlend mode="normal" in2="BackgroundImageFix" result="effect1_dropShadow"/>
<feBlend mode="normal" in="SourceGraphic" in2="effect1_dropShadow" result="shape"/>
</filter>
<clipPath id="clip0">
<rect width="450" height="250" fill="white"/>
</clipPath>
</defs>
</svg>
