<svg width="480" height="226" viewBox="0 0 480 226" fill="none" xmlns="http://www.w3.org/2000/svg">
<rect width="480" height="226" fill="white"/>
<g filter="url(#filter0_d)">
<rect x="226" y="44" width="200" height="146" rx="6" fill="white"/>
</g>
<rect x="319" width="107" height="38" rx="6.65811" fill="#69B6F3"/>
<path d="M395.41 18L400 22.3266L404.59 18L406 19.332L400 25L394 19.332L395.41 18Z" fill="white"/>
<path d="M339.453 27H342.225V20.6729H348.724V18.417H342.225V13.8301H349.336V11.499H339.453V27ZM351.087 27H353.762V20.3291C353.762 18.7285 354.675 17.751 356.189 17.751C356.641 17.751 357.049 17.8154 357.274 17.9014V15.4844C357.07 15.4307 356.759 15.377 356.426 15.377C355.083 15.377 354.084 16.1826 353.74 17.5146H353.687V15.6133H351.087V27ZM363.258 27.2256C366.599 27.2256 368.769 25.002 368.769 21.3066V21.2852C368.769 17.6113 366.566 15.377 363.247 15.377C359.938 15.377 357.747 17.6328 357.747 21.2852V21.3066C357.747 24.9912 359.906 27.2256 363.258 27.2256ZM363.269 25.0664C361.561 25.0664 360.476 23.7021 360.476 21.3066V21.2852C360.476 18.9219 361.582 17.5469 363.247 17.5469C364.944 17.5469 366.04 18.9111 366.04 21.2852V21.3066C366.04 23.6914 364.955 25.0664 363.269 25.0664ZM370.487 27H373.162V20.0283C373.162 18.6426 374.064 17.6328 375.354 17.6328C376.6 17.6328 377.373 18.4277 377.373 19.7061V27H379.973V19.9639C379.973 18.5889 380.854 17.6328 382.143 17.6328C383.453 17.6328 384.184 18.4385 384.184 19.8457V27H386.858V19.1797C386.858 16.9023 385.387 15.377 383.142 15.377C381.498 15.377 380.145 16.2578 379.597 17.6758H379.532C379.113 16.2148 377.964 15.377 376.374 15.377C374.87 15.377 373.699 16.1934 373.216 17.4395H373.162V15.6133H370.487V27Z" fill="white"/>
<path d="M292.436 173H295.072L296.254 169.357H301.459L302.641 173H305.277L300.277 158.908H297.436L292.436 173ZM298.832 161.418H298.881L300.824 167.414H296.889L298.832 161.418ZM306.347 173H308.779V166.994C308.779 165.5 309.667 164.484 311.064 164.484C312.45 164.484 313.134 165.314 313.134 166.789V173H315.566V166.301C315.566 163.898 314.267 162.434 311.991 162.434C310.419 162.434 309.364 163.156 308.827 164.27H308.779V162.648H306.347V173ZM318.666 176.438C320.825 176.438 322.036 175.627 322.827 173.352L326.547 162.648H323.989L321.557 170.93H321.489L319.067 162.648H316.411L320.131 173.01L319.985 173.43C319.672 174.299 319.155 174.562 318.227 174.562C317.885 174.562 317.602 174.514 317.416 174.475V176.33C317.709 176.379 318.198 176.438 318.666 176.438ZM331.679 173.205C334.716 173.205 336.689 171.184 336.689 167.824V167.805C336.689 164.465 334.687 162.434 331.67 162.434C328.662 162.434 326.67 164.484 326.67 167.805V167.824C326.67 171.174 328.632 173.205 331.679 173.205ZM331.689 171.242C330.136 171.242 329.15 170.002 329.15 167.824V167.805C329.15 165.656 330.156 164.406 331.67 164.406C333.213 164.406 334.209 165.646 334.209 167.805V167.824C334.209 169.992 333.222 171.242 331.689 171.242ZM338.052 173H340.483V166.994C340.483 165.5 341.372 164.484 342.768 164.484C344.155 164.484 344.839 165.314 344.839 166.789V173H347.27V166.301C347.27 163.898 345.971 162.434 343.696 162.434C342.124 162.434 341.069 163.156 340.532 164.27H340.483V162.648H338.052V173ZM353.574 173.205C356.279 173.205 357.803 171.604 358.125 170.012L358.154 169.904H355.879L355.859 169.973C355.625 170.666 354.834 171.311 353.623 171.311C352.041 171.311 351.045 170.236 351.006 168.42H358.252V167.639C358.252 164.514 356.416 162.434 353.457 162.434C350.498 162.434 348.594 164.582 348.594 167.844V167.854C348.594 171.145 350.469 173.205 353.574 173.205ZM353.486 164.338C354.775 164.338 355.713 165.158 355.889 166.799H351.035C351.23 165.207 352.197 164.338 353.486 164.338Z" fill="#333333"/>
<path d="M254.309 124H256.829V118.248H262.737V116.197H256.829V112.027H263.293V109.908H254.309V124ZM264.685 124H267.117V117.936C267.117 116.48 267.947 115.592 269.324 115.592C269.734 115.592 270.105 115.65 270.31 115.729V113.531C270.125 113.482 269.841 113.434 269.539 113.434C268.318 113.434 267.41 114.166 267.097 115.377H267.048V113.648H264.685V124ZM275.55 124.205C278.587 124.205 280.559 122.184 280.559 118.824V118.805C280.559 115.465 278.557 113.434 275.54 113.434C272.532 113.434 270.54 115.484 270.54 118.805V118.824C270.54 122.174 272.503 124.205 275.55 124.205ZM275.559 122.242C274.007 122.242 273.02 121.002 273.02 118.824V118.805C273.02 116.656 274.026 115.406 275.54 115.406C277.083 115.406 278.079 116.646 278.079 118.805V118.824C278.079 120.992 277.093 122.242 275.559 122.242ZM281.922 124H284.354V117.662C284.354 116.402 285.174 115.484 286.346 115.484C287.479 115.484 288.182 116.207 288.182 117.369V124H290.545V117.604C290.545 116.354 291.346 115.484 292.518 115.484C293.709 115.484 294.373 116.217 294.373 117.496V124H296.805V116.891C296.805 114.82 295.467 113.434 293.426 113.434C291.932 113.434 290.701 114.234 290.203 115.523H290.145C289.764 114.195 288.719 113.434 287.273 113.434C285.906 113.434 284.842 114.176 284.402 115.309H284.354V113.648H281.922V124ZM302.606 124H304.881V113.98H304.95L309.012 124H310.721L314.784 113.98H314.862V124H317.127V109.908H314.217L309.901 120.67H309.832L305.516 109.908H302.606V124ZM321.976 124.176C323.343 124.176 324.496 123.492 325.091 122.408H325.15V124H327.582V116.881C327.582 114.801 325.912 113.434 323.324 113.434C320.697 113.434 319.105 114.811 318.959 116.646L318.949 116.764H321.205L321.224 116.676C321.38 115.914 322.084 115.377 323.236 115.377C324.466 115.377 325.15 116.012 325.15 117.057V117.77L322.445 117.936C319.935 118.092 318.509 119.195 318.509 121.031V121.051C318.509 122.896 319.906 124.176 321.976 124.176ZM320.931 120.953V120.943C320.931 120.123 321.586 119.605 322.787 119.527L325.15 119.381V120.162C325.15 121.393 324.095 122.32 322.699 122.32C321.634 122.32 320.931 121.803 320.931 120.953ZM330.634 112.164C331.395 112.164 331.981 111.559 331.981 110.836C331.981 110.094 331.395 109.498 330.634 109.498C329.872 109.498 329.276 110.094 329.276 110.836C329.276 111.559 329.872 112.164 330.634 112.164ZM329.413 124H331.845V113.648H329.413V124ZM333.783 124H336.215V109.908H333.783V124ZM339.374 112.164C340.136 112.164 340.722 111.559 340.722 110.836C340.722 110.094 340.136 109.498 339.374 109.498C338.612 109.498 338.017 110.094 338.017 110.836C338.017 111.559 338.612 112.164 339.374 112.164ZM338.154 124H340.585V113.648H338.154V124ZM342.455 124H344.887V117.994C344.887 116.5 345.776 115.484 347.172 115.484C348.559 115.484 349.243 116.314 349.243 117.789V124H351.674V117.301C351.674 114.898 350.375 113.434 348.1 113.434C346.528 113.434 345.473 114.156 344.936 115.27H344.887V113.648H342.455V124ZM358.095 127.623C361.093 127.623 362.978 126.051 362.978 123.707V113.648H360.546V115.406H360.488C359.902 114.215 358.769 113.434 357.304 113.434C354.687 113.434 352.998 115.445 352.998 118.717V118.727C352.998 121.949 354.668 123.941 357.265 123.941C358.75 123.941 359.921 123.238 360.498 122.135H360.546V123.629C360.546 124.947 359.677 125.787 358.095 125.787C356.826 125.787 355.996 125.338 355.732 124.742L355.703 124.664H353.31L353.33 124.752C353.623 126.373 355.351 127.623 358.095 127.623ZM358.027 122.066C356.464 122.066 355.478 120.807 355.478 118.766V118.756C355.478 116.744 356.464 115.484 358.027 115.484C359.531 115.484 360.556 116.764 360.556 118.766V118.775C360.556 120.787 359.541 122.066 358.027 122.066ZM368.818 124H377.734V121.881H371.338V109.908H368.818V124ZM380.386 112.164C381.148 112.164 381.734 111.559 381.734 110.836C381.734 110.094 381.148 109.498 380.386 109.498C379.624 109.498 379.029 110.094 379.029 110.836C379.029 111.559 379.624 112.164 380.386 112.164ZM379.165 124H381.597V113.648H379.165V124ZM387.51 124.205C390.049 124.205 391.856 122.896 391.856 120.943V120.934C391.856 119.43 391.026 118.59 388.887 118.111L387.159 117.73C386.084 117.486 385.684 117.096 385.684 116.5V116.49C385.684 115.729 386.358 115.23 387.432 115.23C388.565 115.23 389.229 115.836 389.336 116.666L389.346 116.744H391.612L391.602 116.637C391.514 114.85 390.01 113.434 387.432 113.434C384.932 113.434 383.282 114.713 383.282 116.607V116.617C383.282 118.15 384.278 119.117 386.26 119.557L387.979 119.938C389.053 120.182 389.414 120.533 389.414 121.158V121.168C389.414 121.93 388.702 122.408 387.52 122.408C386.289 122.408 385.616 121.881 385.43 120.992L385.411 120.904H383.018L383.028 120.992C383.243 122.916 384.795 124.205 387.51 124.205ZM397.056 124.205C397.545 124.205 397.974 124.156 398.257 124.117V122.291C398.091 122.301 397.906 122.33 397.671 122.33C396.783 122.33 396.334 122.008 396.334 120.992V115.523H398.257V113.648H396.334V111.021H393.863V113.648H392.398V115.523H393.863V121.197C393.863 123.326 394.888 124.205 397.056 124.205Z" fill="#333333"/>
<path d="M273.318 74.9519H275.838V69.2H281.746V67.1492H275.838V62.9792H282.303V60.8601H273.318V74.9519ZM283.695 74.9519H286.126V68.8875C286.126 67.4324 286.956 66.5437 288.333 66.5437C288.743 66.5437 289.114 66.6023 289.32 66.6804V64.4832C289.134 64.4343 288.851 64.3855 288.548 64.3855C287.327 64.3855 286.419 65.1179 286.107 66.3289H286.058V64.6003H283.695V74.9519ZM294.559 75.157C297.596 75.157 299.569 73.1355 299.569 69.7761V69.7566C299.569 66.4167 297.567 64.3855 294.549 64.3855C291.541 64.3855 289.549 66.4363 289.549 69.7566V69.7761C289.549 73.1257 291.512 75.157 294.559 75.157ZM294.569 73.1941C293.016 73.1941 292.03 71.9539 292.03 69.7761V69.7566C292.03 67.6082 293.036 66.3582 294.549 66.3582C296.092 66.3582 297.088 67.5984 297.088 69.7566V69.7761C297.088 71.9441 296.102 73.1941 294.569 73.1941ZM300.931 74.9519H303.363V68.614C303.363 67.3542 304.183 66.4363 305.355 66.4363C306.488 66.4363 307.191 67.1589 307.191 68.321V74.9519H309.554V68.5554C309.554 67.3054 310.355 66.4363 311.527 66.4363C312.718 66.4363 313.382 67.1687 313.382 68.448V74.9519H315.814V67.8425C315.814 65.7722 314.476 64.3855 312.435 64.3855C310.941 64.3855 309.711 65.1863 309.212 66.4753H309.154C308.773 65.1472 307.728 64.3855 306.283 64.3855C304.916 64.3855 303.851 65.1277 303.412 66.2605H303.363V64.6003H300.931V74.9519ZM321.615 74.9519H324.135V70.2937H327.045C329.896 70.2937 331.84 68.3992 331.84 65.5867V65.5671C331.84 62.7449 329.896 60.8601 327.045 60.8601H321.615V74.9519ZM326.42 62.9207C328.227 62.9207 329.281 63.8875 329.281 65.5769V65.5964C329.281 67.2859 328.227 68.2625 326.42 68.2625H324.135V62.9207H326.42ZM337.402 75.157C340.107 75.157 341.63 73.5554 341.952 71.9636L341.982 71.8562H339.706L339.687 71.9246C339.452 72.6179 338.661 73.2625 337.45 73.2625C335.868 73.2625 334.872 72.1882 334.833 70.3718H342.079V69.5906C342.079 66.4656 340.243 64.3855 337.284 64.3855C334.325 64.3855 332.421 66.5339 332.421 69.7957V69.8054C332.421 73.0964 334.296 75.157 337.402 75.157ZM337.314 66.2898C338.603 66.2898 339.54 67.1101 339.716 68.7507H334.862C335.058 67.1589 336.025 66.2898 337.314 66.2898ZM348.032 75.157C351.069 75.157 353.041 73.1355 353.041 69.7761V69.7566C353.041 66.4167 351.039 64.3855 348.022 64.3855C345.014 64.3855 343.022 66.4363 343.022 69.7566V69.7761C343.022 73.1257 344.985 75.157 348.032 75.157ZM348.041 73.1941C346.489 73.1941 345.502 71.9539 345.502 69.7761V69.7566C345.502 67.6082 346.508 66.3582 348.022 66.3582C349.565 66.3582 350.561 67.5984 350.561 69.7566V69.7761C350.561 71.9441 349.575 73.1941 348.041 73.1941ZM354.404 78.3699H356.836V73.2039H356.884C357.47 74.4148 358.652 75.157 360.127 75.157C362.724 75.157 364.384 73.1062 364.384 69.7859V69.7761C364.384 66.4363 362.724 64.3855 360.097 64.3855C358.613 64.3855 357.48 65.1472 356.884 66.3875H356.836V64.6003H354.404V78.3699ZM359.375 73.1062C357.871 73.1062 356.816 71.8074 356.816 69.7859V69.7761C356.816 67.7449 357.871 66.4363 359.375 66.4363C360.927 66.4363 361.904 67.7058 361.904 69.7761V69.7859C361.904 71.8269 360.927 73.1062 359.375 73.1062ZM365.815 74.9519H368.247V60.8601H365.815V74.9519ZM374.668 75.157C377.373 75.157 378.896 73.5554 379.219 71.9636L379.248 71.8562H376.973L376.953 71.9246C376.719 72.6179 375.928 73.2625 374.717 73.2625C373.135 73.2625 372.139 72.1882 372.1 70.3718H379.346V69.5906C379.346 66.4656 377.51 64.3855 374.551 64.3855C371.592 64.3855 369.688 66.5339 369.688 69.7957V69.8054C369.688 73.0964 371.562 75.157 374.668 75.157ZM374.58 66.2898C375.869 66.2898 376.807 67.1101 376.982 68.7507H372.129C372.324 67.1589 373.291 66.2898 374.58 66.2898Z" fill="#333333"/>
<rect x="226" y="92" width="200" height="1" fill="#F2F2F2"/>
<rect x="226" y="141" width="200" height="1" fill="#F2F2F2"/>
<path d="M149.3 148.392C149.695 149.581 157.896 188.509 157.896 188.509L220.261 212.606L217.167 221.078L163.277 217.025C132.072 212.344 130.333 196.954 132.22 179.753L135.453 150.272L149.3 148.392Z" fill="#FFBF9D"/>
<path d="M85.1551 35.4019C97.8624 18.4869 111.259 20.8765 120.555 24.9638C129.852 29.0521 136.094 39.3502 135.476 49.5782C135.313 52.2794 134.742 55.1246 135.829 57.598C137.577 61.5759 142.664 62.6968 145.61 65.8721C149.637 70.2148 148.745 77.089 147.384 82.8798C146.024 88.6706 144.592 95.2817 147.96 100.165C151.046 104.636 156.93 105.834 161.782 108.216C168.193 111.361 173.348 117.232 175.208 124.185C177.069 131.14 175.431 139.06 170.611 144.366C165.895 149.561 158.811 151.864 151.911 152.891C131.831 155.881 110.561 149.332 95.5401 135.533C80.5187 121.735 72.0404 100.957 73.069 80.4665L85.1551 35.4019Z" fill="#17282F"/>
<path d="M59.7018 128.135C66.1293 117.992 75.8829 112.144 84.8116 108.905L117.612 111.343C117.612 111.343 128.69 109.657 137.594 119.026L140.642 203.77L148.173 226H70.1421L59.7018 128.135Z" fill="url(#paint0_linear)"/>
<path d="M85.2883 73.2726C86.4037 83.6284 86.782 102.457 79.0672 108.635C79.0672 108.635 87.3096 117.042 103.975 126.321C116.097 117.949 110.729 111.374 110.729 111.374C99.6044 107.681 100.625 99.2812 103.288 91.5411L85.2883 73.2726Z" fill="#FFBF9D"/>
<path d="M101.818 97.0632C97.5325 96.0589 91.3328 91.6091 91.2649 87.0294C91.23 84.7453 92.1689 81.7497 92.6306 80.7259L100.555 88.7647L103.284 91.5334C102.7 93.2145 102.202 94.9246 101.899 96.6134C101.87 96.7627 101.843 96.9139 101.818 97.0632Z" fill="#DC834C"/>
<path d="M83.1216 51.533C81.8859 68.5818 80.9994 75.7733 88.3767 85.5997C99.4745 100.382 120.696 98.1677 127.003 81.8304C132.679 67.1257 133.742 41.7143 118.087 32.7604C102.664 23.9402 84.3534 34.4841 83.1216 51.533Z" fill="#FFBF9D"/>
<path d="M83.4721 136.438C81.1076 124.227 63.904 123.776 60.8891 135.841C60.8431 136.026 60.7973 136.214 60.7535 136.404C56.3248 155.417 71.3031 211.595 75.3284 214.831C79.3544 218.067 83.3412 221.747 90.2227 218.875C94.2444 217.198 136.029 180.092 136.029 180.092C136.029 180.092 145.69 189.397 148.91 188.587C152.13 187.778 158.291 178.231 158.291 178.231C158.291 178.231 164.262 187.235 165.012 187.374C167.144 187.767 168.232 185.351 167.427 184.137C166.622 182.924 159.012 166.182 159.012 166.182C159.012 166.182 165.012 165.529 163.804 163.507C163.804 163.507 163.653 161.647 159.599 162.006C157.595 162.184 156.582 161.133 155.162 160.082C153.71 159.005 151.831 157.929 148.03 158.171C140.517 158.651 124.894 160.569 102.949 177.466L92.812 184.658L83.4721 136.438Z" fill="#FFBF9D"/>
<path d="M89.0568 198.325C89.0287 198.33 88.9719 198.121 88.8938 197.734C88.8092 197.348 88.7366 196.779 88.6918 196.075C88.5977 194.666 88.7085 192.688 89.2844 190.599C89.8674 188.512 90.7921 186.761 91.5981 185.605C91.9998 185.025 92.3543 184.577 92.6255 184.29C92.8917 184.001 93.0483 183.851 93.0702 183.869C93.1239 183.915 92.5711 184.583 91.842 185.765C91.1111 186.942 90.2513 188.671 89.6813 190.71C89.1186 192.751 88.9639 194.678 88.9824 196.065C88.9978 197.456 89.1269 198.314 89.0568 198.325Z" fill="#F68260"/>
<path d="M71.752 115.317C71.3681 115.575 57.4544 119.754 55.2664 134.091C53.0785 148.426 54.3897 173.377 54.3897 173.377L92.1329 170.772L81.3152 120.367L71.752 115.317Z" fill="url(#paint1_linear)"/>
<path d="M151.982 186.604C151.913 186.589 152.02 186.094 151.997 185.303C151.979 184.513 151.773 183.423 151.217 182.354C150.654 181.289 149.876 180.502 149.238 180.041C148.6 179.574 148.134 179.385 148.159 179.318C148.171 179.277 148.683 179.37 149.399 179.797C150.112 180.216 150.983 181.028 151.582 182.162C152.174 183.297 152.347 184.478 152.288 185.307C152.235 186.14 152.022 186.619 151.982 186.604Z" fill="#F68260"/>
<path d="M155.448 182.353C155.32 182.37 155.285 180.627 154.165 178.903C153.078 177.157 151.519 176.392 151.588 176.283C151.608 176.24 152.025 176.362 152.613 176.739C153.199 177.112 153.934 177.774 154.513 178.68C155.087 179.587 155.376 180.535 155.467 181.227C155.56 181.922 155.496 182.354 155.448 182.353Z" fill="#F68260"/>
<path d="M155.448 173.299C155.476 173.259 155.802 173.417 156.236 173.806C156.67 174.192 157.186 174.834 157.55 175.654C157.91 176.475 158.037 177.292 158.03 177.873C158.026 178.458 157.924 178.807 157.874 178.801C157.748 178.798 157.873 177.369 157.173 175.822C156.502 174.262 155.366 173.395 155.448 173.299Z" fill="#F68260"/>
<path d="M97.2744 41.3423C111.565 48.7742 133.23 54.6433 130.818 45.0573C127.569 32.1324 111.918 22.6531 92.6518 29.5789C85.5722 33.7163 95.2207 43.428 97.2744 41.3423Z" fill="#17282F"/>
<path d="M99.9511 30.6355C104.307 36.349 99.9099 44.5406 95.0064 49.785C90.1029 55.0283 84.123 61.1196 85.5438 68.177C87.1914 76.3588 98.3837 81.5008 96.809 89.6973C96.2336 92.6898 93.9182 95.2574 93.9369 98.306C93.9713 103.806 101.069 106.409 103.154 111.493C106.012 118.461 98.4097 125.513 98.3666 133.051C98.3424 137.332 100.789 141.299 100.96 145.577C101.309 154.339 91.0713 160.856 82.6041 158.784C74.137 156.712 68.2713 148.473 66.3476 139.92C64.4242 131.367 65.6962 122.453 66.9753 113.779C66.1685 117.48 60.5972 118.224 57.8456 115.636C55.0942 113.048 54.7246 108.769 55.3027 105.024C56.7517 95.6352 62.795 87.6383 65.6213 78.5722C68.091 70.6501 68.0257 62.188 69.0585 53.9491C70.0915 45.7103 72.5428 37.1095 78.7338 31.6192C84.9249 26.1299 95.727 25.3547 100.842 31.871" fill="#17282F"/>
<path d="M77.8757 157.817C77.8692 157.811 77.9367 157.702 78.075 157.493C78.2277 157.263 78.432 156.959 78.6921 156.57C79.1964 155.737 79.9231 154.487 80.5661 152.749C81.1991 151.016 81.7654 148.793 81.8625 146.165C81.9403 143.555 81.5989 140.506 80.2775 137.479C78.9933 134.427 76.7393 131.55 74.3548 128.467C73.1704 126.914 71.9485 125.291 70.8992 123.47C69.856 121.646 69.0443 119.606 68.6151 117.415C68.2245 115.233 68.2321 112.832 69.1588 110.638C69.627 109.554 70.3093 108.545 71.1497 107.694C71.992 106.844 72.9466 106.118 73.9104 105.414C75.8207 104.022 77.8726 102.612 78.9314 100.427C80.0013 98.2602 79.9766 95.6602 79.3767 93.253C78.2075 88.3136 74.8007 84.5006 72.622 80.2174C71.5177 78.0837 70.6988 75.7758 70.5941 73.4208C70.4532 71.0686 71.0023 68.7805 71.8618 66.7362C73.6331 62.6262 76.556 59.4536 79.4393 56.8438C82.3393 54.2201 85.2031 51.9861 87.5567 49.6635C89.9287 47.3645 91.7725 44.9749 92.9165 42.609C94.091 40.2628 94.6294 38.0209 94.7486 36.1823C94.8822 34.3358 94.6054 32.8985 94.3289 31.9699C94.0586 31.0344 93.8288 30.5691 93.8615 30.5553C93.8615 30.5553 94.1223 31.0048 94.4267 31.9394C94.7374 32.8671 95.0509 34.3181 94.9459 36.1941C94.8562 38.0622 94.3384 40.3454 93.172 42.7359C92.0379 45.1461 90.1818 47.5917 87.8088 49.9222C85.4528 52.2792 82.5928 54.5369 79.7234 57.1586C76.8695 59.7635 74.0101 62.9046 72.2933 66.9202C71.4612 68.9182 70.9386 71.1326 71.0794 73.3932C71.1844 75.6578 71.976 77.8899 73.065 79.9872C74.1532 82.0954 75.5182 84.1061 76.8081 86.2202C78.114 88.3225 79.2541 90.6254 79.8708 93.131C80.489 95.608 80.5275 98.3409 79.3859 100.653C78.245 102.989 76.0987 104.438 74.2028 105.82C73.2425 106.52 72.3101 107.23 71.4998 108.043C70.6938 108.858 70.0534 109.803 69.6056 110.829C68.7235 112.905 68.7029 115.208 69.0763 117.329C69.4868 119.458 70.273 121.457 71.2879 123.245C72.3097 125.037 73.5159 126.655 74.6897 128.208C77.0532 131.295 79.321 134.219 80.6081 137.335C81.9334 140.432 82.2531 143.531 82.1469 146.178C82.0213 148.839 81.4191 151.081 80.7512 152.82C80.0732 154.564 79.3122 155.807 78.7772 156.626C78.5008 157.031 78.266 157.323 78.1166 157.524C77.9643 157.722 77.883 157.823 77.8757 157.817Z" fill="#33535F"/>
<path d="M77.0312 65.2284C77.5589 68.732 79.6559 71.6675 82.0264 73.3582C85.5918 75.904 88.8643 73.0751 89.1184 68.9317C89.3454 65.2032 87.7644 59.3845 83.586 58.4829C79.4696 57.5949 76.428 61.2207 77.0312 65.2284Z" fill="#FFBF9D"/>
<path d="M109.814 60.0077C109.63 61.3844 110.208 62.5981 111.11 62.7183C112.01 62.8405 112.891 61.8226 113.075 60.4459C113.261 59.0674 112.681 57.8536 111.781 57.7334C110.879 57.6112 110 58.6292 109.814 60.0077Z" fill="#17282F"/>
<path d="M125.398 62.0974C125.214 63.4741 125.794 64.6897 126.694 64.8099C127.594 64.9301 128.475 63.9122 128.659 62.5356C128.843 61.159 128.263 59.9453 127.363 59.8251C126.463 59.7029 125.583 60.7208 125.398 62.0974Z" fill="#17282F"/>
<path d="M126.951 59.8508L130.388 59.3409C130.388 59.3409 128.341 61.6968 126.951 59.8508Z" fill="#17282F"/>
<path d="M119.274 63.6096C119.274 63.6096 120.815 69.8529 123.005 73.0579C120.956 74.5101 117.969 73.3177 117.969 73.3177L119.274 63.6096Z" fill="#F1A881"/>
<path d="M109.915 77.4494C105.343 75.8964 103.593 72.327 103.51 72.1525L103.671 71.7008L104.123 71.8598C104.148 71.9063 106.439 76.5459 112.499 77.3583C112.695 77.3796 112.816 77.5522 112.792 77.7383C112.767 77.9225 112.596 78.0543 112.41 78.0291C111.5 77.907 110.668 77.7054 109.915 77.4494Z" fill="#17282F"/>
<path d="M102.763 52.0282L102.461 51.8207C102.22 51.5337 102.257 51.1072 102.544 50.8648C105.943 48.0088 109.493 49.0364 109.644 49.081C110.013 49.2245 110.203 49.5677 110.096 49.9244C109.99 50.2831 109.611 50.4867 109.252 50.382C109.13 50.3452 106.238 49.5347 103.419 51.904C103.231 52.063 102.981 52.0999 102.763 52.0282Z" fill="#17282F"/>
<path d="M131.931 56.1724L131.646 55.9844C129.157 53.2273 126.109 53.6713 126.078 53.6752C125.708 53.7334 125.36 53.4794 125.304 53.111C125.246 52.7426 125.496 52.3955 125.869 52.3354C126.022 52.3122 129.68 51.779 132.654 55.077C132.905 55.3542 132.881 55.7847 132.604 56.0348C132.416 56.2054 132.156 56.25 131.931 56.1724Z" fill="#17282F"/>
<path d="M111.38 57.7581L114.817 57.2481C114.817 57.2481 112.773 59.604 111.38 57.7581Z" fill="#17282F"/>
<path d="M121.841 26.6046C121.835 26.7079 120.088 26.4403 117.316 26.8623C114.534 27.2302 110.858 28.4943 106.799 29.9276C102.734 31.358 98.8207 32.1538 95.9626 31.9669C94.5404 31.8941 93.4025 31.662 92.6465 31.418C91.8892 31.1799 91.4926 30.9861 91.5024 30.9615C91.5307 30.8504 93.1726 31.5636 95.9738 31.6049C98.7725 31.6944 102.591 30.8641 106.636 29.4427C110.68 28.0143 114.429 26.7846 117.269 26.5033C118.681 26.3419 119.835 26.3419 120.624 26.4147C121.415 26.4836 121.845 26.5761 121.841 26.6046Z" fill="#33535F"/>
<path d="M137.573 118.617L156.938 153.613L135.453 160.249L137.573 118.617Z" fill="url(#paint2_linear)"/>
<path d="M102.946 177.469C102.946 177.469 103.026 177.396 103.196 177.264C103.376 177.124 103.627 176.932 103.953 176.681C104.636 176.165 105.628 175.417 106.911 174.448C109.565 172.602 113.424 169.854 118.66 167.011C123.885 164.19 130.472 161.141 138.44 159.34C140.433 158.917 142.498 158.533 144.641 158.296C145.712 158.177 146.799 158.078 147.9 158.004C149.008 157.959 150.147 157.926 151.278 158.154C152.407 158.355 153.522 158.779 154.512 159.415C155.516 160.029 156.359 160.882 157.373 161.399C157.872 161.679 158.434 161.789 158.999 161.827C159.557 161.842 160.177 161.752 160.789 161.777C161.402 161.795 162.028 161.862 162.631 162.089C163.215 162.313 163.845 162.725 163.994 163.494L163.967 163.409C164.106 163.641 164.209 163.959 164.126 164.268C164.044 164.575 163.839 164.804 163.627 164.979C163.193 165.327 162.694 165.526 162.19 165.705C161.176 166.044 160.116 166.247 159.03 166.382L159.189 166.102C160.918 169.859 162.713 173.757 164.555 177.758C165.491 179.746 166.422 181.79 167.449 183.767C167.564 183.984 167.76 184.27 167.833 184.581C167.9 184.889 167.908 185.205 167.856 185.509C167.742 186.11 167.443 186.687 166.959 187.08C166.488 187.49 165.836 187.678 165.224 187.607L164.994 187.582L164.827 187.52L164.718 187.44C164.588 187.335 164.488 187.229 164.386 187.12C164.189 186.902 164.002 186.68 163.823 186.453C161.763 183.798 159.936 181.05 158.117 178.348L158.46 178.346C156.999 180.554 155.472 182.675 153.81 184.654C152.973 185.637 152.119 186.599 151.147 187.442C150.9 187.65 150.643 187.844 150.391 188.044C150.118 188.221 149.848 188.401 149.556 188.551C149.242 188.669 148.944 188.822 148.585 188.836C148.245 188.838 147.912 188.8 147.601 188.709C146.354 188.359 145.275 187.706 144.234 187.046C143.198 186.374 142.217 185.645 141.265 184.898C139.366 183.398 137.584 181.834 135.895 180.232L136.15 180.237C122.9 191.951 111.552 201.783 103.442 208.599C99.3858 212.005 96.1372 214.656 93.8618 216.401C92.726 217.277 91.8311 217.922 91.2055 218.327C90.5869 218.744 90.2188 218.878 90.2188 218.878C90.2092 218.856 90.5656 218.708 91.1712 218.276C91.783 217.855 92.6646 217.194 93.7871 216.304C96.0368 214.531 99.2608 211.854 103.295 208.422C111.361 201.56 122.673 191.689 135.899 179.952L136.029 179.838L136.156 179.958C137.836 181.544 139.617 183.105 141.505 184.59C142.451 185.331 143.426 186.052 144.448 186.713C145.469 187.363 146.543 188 147.7 188.322C148.881 188.766 149.946 187.92 150.884 187.136C151.827 186.317 152.673 185.365 153.5 184.391C155.145 182.432 156.668 180.313 158.116 178.122L158.286 177.864L158.458 178.12C160.272 180.812 162.106 183.569 164.144 186.194C164.32 186.416 164.502 186.633 164.688 186.838C164.782 186.938 164.88 187.04 164.971 187.115L165.035 187.162L165.042 187.166L165.031 187.24C165.038 187.206 165.009 187.362 165.046 187.173H165.053L165.065 187.174L165.26 187.196C165.781 187.255 166.303 187.101 166.696 186.763C167.483 186.094 167.789 184.836 167.092 183.972C166.043 181.949 165.125 179.929 164.185 177.932C162.347 173.928 160.555 170.027 158.828 166.267L158.714 166.02L158.988 165.986C160.039 165.855 161.094 165.654 162.065 165.331C162.544 165.163 163.019 164.967 163.38 164.674C163.558 164.529 163.699 164.356 163.747 164.173C163.797 163.991 163.74 163.795 163.634 163.61L163.617 163.58L163.606 163.526C163.519 163.051 163.017 162.633 162.492 162.451C161.955 162.247 161.364 162.18 160.78 162.162C160.189 162.137 159.618 162.224 158.984 162.209C158.369 162.17 157.74 162.038 157.204 161.737C156.111 161.172 155.283 160.321 154.314 159.729C153.36 159.116 152.302 158.71 151.213 158.513C149.024 158.115 146.806 158.453 144.679 158.643C142.549 158.873 140.494 159.249 138.511 159.664C130.58 161.431 124.002 164.44 118.774 167.224C113.535 170.03 109.66 172.743 106.985 174.554C105.687 175.5 104.684 176.23 103.992 176.735C103.658 176.973 103.401 177.158 103.216 177.29C103.04 177.413 102.946 177.469 102.946 177.469Z" fill="#F68260"/>
<path d="M95.8742 109.655L91.2459 109.324C90.5706 107.763 89.9634 106.172 89.4276 104.558C92.0241 105.467 94.2473 107.37 95.8742 109.655Z" fill="#111D23"/>
<path d="M90.2294 156.169C90.1461 156.146 90.0624 156.121 89.979 156.097C89.7779 154.483 89.6152 153.176 89.4957 152.216C89.4453 151.759 89.4051 151.39 89.3737 151.101C89.3492 150.847 89.3424 150.714 89.3536 150.712C89.3656 150.712 89.3947 150.842 89.4401 151.09C89.4882 151.379 89.5494 151.744 89.6254 152.197C89.774 153.174 89.9775 154.513 90.2294 156.169Z" fill="#111D23"/>
<path d="M186.22 162.496L156.25 219.33L113.814 220.926V226H237.795L271.535 165.966C272.812 163.694 271.306 160.78 268.855 160.78H188.944C187.819 160.78 186.779 161.435 186.22 162.496Z" fill="#4F4F4F"/>
<path d="M220.756 193.029C222.095 189.832 220.992 186.572 218.651 185.582C216.308 184.591 213.217 186.077 211.878 189.274C210.539 192.47 211.642 195.73 213.985 196.721C216.326 197.711 219.417 196.225 220.756 193.029Z" stroke="#BDBDBD"/>
<defs>
<filter id="filter0_d" x="201" y="25" width="250" height="196" filterUnits="userSpaceOnUse" color-interpolation-filters="sRGB">
<feFlood flood-opacity="0" result="BackgroundImageFix"/>
<feColorMatrix in="SourceAlpha" type="matrix" values="0 0 0 0 0 0 0 0 0 0 0 0 0 0 0 0 0 0 127 0"/>
<feOffset dy="6"/>
<feGaussianBlur stdDeviation="12.5"/>
<feColorMatrix type="matrix" values="0 0 0 0 0 0 0 0 0 0 0 0 0 0 0 0 0 0 0.15 0"/>
<feBlend mode="normal" in2="BackgroundImageFix" result="effect1_dropShadow"/>
<feBlend mode="normal" in="SourceGraphic" in2="effect1_dropShadow" result="shape"/>
</filter>
<linearGradient id="paint0_linear" x1="103.937" y1="103.87" x2="103.937" y2="232.858" gradientUnits="userSpaceOnUse">
<stop stop-color="#7EB2FF"/>
<stop offset="1" stop-color="#5373E5"/>
</linearGradient>
<linearGradient id="paint1_linear" x1="73.0664" y1="112.82" x2="73.0664" y2="176.778" gradientUnits="userSpaceOnUse">
<stop stop-color="#7EB2FF"/>
<stop offset="1" stop-color="#5373E5"/>
</linearGradient>
<linearGradient id="paint2_linear" x1="146.195" y1="116.827" x2="146.195" y2="162.687" gradientUnits="userSpaceOnUse">
<stop stop-color="#7EB2FF"/>
<stop offset="1" stop-color="#5373E5"/>
</linearGradient>
</defs>
</svg>
