<svg width="447" height="252" viewBox="0 0 447 252" fill="none" xmlns="http://www.w3.org/2000/svg">
<g clip-path="url(#clip0)">
<rect width="140" height="140" rx="24" transform="matrix(-0.866025 -0.5 -0.5 0.866025 455.622 61.3784)" fill="#5373E5"/>
<rect x="30" y="43" width="372" height="208" rx="15" fill="white" stroke="#F2F2F2" stroke-width="2"/>
<rect x="53" y="176" width="288" height="20" rx="10" fill="#F2F2F2"/>
<rect x="53" y="208" width="326" height="20" rx="10" fill="#F2F2F2"/>
<rect x="53.5" y="116.5" width="285" height="39" rx="7.5" stroke="#EB001B"/>
<path d="M93.8941 141H101.032V139.343H95.8703V136.366H100.622V134.709H95.8703V131.748H100.989V130.091H93.8941V141ZM102.92 141H104.848V136.025C104.848 135.018 105.52 134.336 106.351 134.336C107.166 134.336 107.725 134.885 107.725 135.727V141H109.616V135.897C109.616 134.975 110.164 134.336 111.097 134.336C111.874 134.336 112.492 134.794 112.492 135.806V141H114.426V135.508C114.426 133.681 113.371 132.712 111.869 132.712C110.681 132.712 109.776 133.298 109.413 134.208H109.328C109.014 133.282 108.22 132.712 107.118 132.712C106.02 132.712 105.2 133.276 104.859 134.208H104.763V132.818H102.92V141ZM118.736 141.165C120.02 141.165 120.787 140.563 121.139 139.876H121.203V141H123.056V135.524C123.056 133.362 121.293 132.712 119.733 132.712C118.012 132.712 116.691 133.479 116.265 134.97L118.065 135.226C118.257 134.667 118.8 134.187 119.743 134.187C120.638 134.187 121.128 134.645 121.128 135.45V135.482C121.128 136.036 120.548 136.062 119.104 136.217C117.517 136.387 115.999 136.861 115.999 138.704C115.999 140.313 117.176 141.165 118.736 141.165ZM119.237 139.748C118.433 139.748 117.858 139.381 117.858 138.672C117.858 137.932 118.502 137.623 119.365 137.5C119.871 137.431 120.883 137.303 121.134 137.101V138.065C121.134 138.976 120.398 139.748 119.237 139.748ZM124.995 141H126.924V132.818H124.995V141ZM125.965 131.657C126.577 131.657 127.078 131.188 127.078 130.613C127.078 130.032 126.577 129.564 125.965 129.564C125.347 129.564 124.846 130.032 124.846 130.613C124.846 131.188 125.347 131.657 125.965 131.657ZM130.835 130.091H128.907V141H130.835V130.091ZM138.893 141.165C140.176 141.165 140.944 140.563 141.295 139.876H141.359V141H143.213V135.524C143.213 133.362 141.45 132.712 139.889 132.712C138.168 132.712 136.847 133.479 136.421 134.97L138.222 135.226C138.413 134.667 138.957 134.187 139.899 134.187C140.794 134.187 141.284 134.645 141.284 135.45V135.482C141.284 136.036 140.704 136.062 139.26 136.217C137.673 136.387 136.155 136.861 136.155 138.704C136.155 140.313 137.332 141.165 138.893 141.165ZM139.393 139.748C138.589 139.748 138.014 139.381 138.014 138.672C138.014 137.932 138.658 137.623 139.521 137.5C140.027 137.431 141.039 137.303 141.29 137.101V138.065C141.29 138.976 140.555 139.748 139.393 139.748ZM148.188 141.144C149.594 141.144 150.228 140.308 150.532 139.711H150.649V141H152.545V130.091H150.611V134.171H150.532C150.239 133.58 149.637 132.712 148.193 132.712C146.302 132.712 144.816 134.192 144.816 136.92C144.816 139.615 146.26 141.144 148.188 141.144ZM148.726 139.562C147.453 139.562 146.782 138.443 146.782 136.909C146.782 135.386 147.442 134.294 148.726 134.294C149.967 134.294 150.649 135.322 150.649 136.909C150.649 138.496 149.956 139.562 148.726 139.562ZM157.636 141.144C159.042 141.144 159.676 140.308 159.98 139.711H160.097V141H161.993V130.091H160.06V134.171H159.98C159.687 133.58 159.085 132.712 157.641 132.712C155.75 132.712 154.264 134.192 154.264 136.92C154.264 139.615 155.708 141.144 157.636 141.144ZM158.174 139.562C156.901 139.562 156.23 138.443 156.23 136.909C156.23 135.386 156.89 134.294 158.174 134.294C159.415 134.294 160.097 135.322 160.097 136.909C160.097 138.496 159.405 139.562 158.174 139.562ZM164.048 141H165.976V136.19C165.976 135.151 166.759 134.416 167.819 134.416C168.144 134.416 168.549 134.475 168.714 134.528V132.754C168.539 132.722 168.235 132.701 168.022 132.701C167.084 132.701 166.301 133.234 166.003 134.182H165.918V132.818H164.048V141ZM173.281 141.16C175.188 141.16 176.498 140.228 176.839 138.805L175.038 138.603C174.777 139.295 174.138 139.658 173.307 139.658C172.061 139.658 171.235 138.837 171.219 137.436H176.919V136.845C176.919 133.974 175.193 132.712 173.179 132.712C170.836 132.712 169.307 134.432 169.307 136.957C169.307 139.525 170.814 141.16 173.281 141.16ZM171.225 136.137C171.283 135.093 172.055 134.214 173.206 134.214C174.314 134.214 175.06 135.023 175.07 136.137H171.225ZM185.017 134.981C184.75 133.596 183.642 132.712 181.725 132.712C179.754 132.712 178.412 133.681 178.417 135.194C178.412 136.387 179.147 137.175 180.718 137.5L182.114 137.793C182.865 137.958 183.216 138.262 183.216 138.725C183.216 139.285 182.609 139.706 181.693 139.706C180.809 139.706 180.233 139.322 180.068 138.587L178.188 138.768C178.428 140.27 179.69 141.16 181.698 141.16C183.744 141.16 185.187 140.1 185.192 138.55C185.187 137.383 184.436 136.669 182.891 136.334L181.496 136.036C180.665 135.849 180.335 135.561 180.34 135.087C180.335 134.533 180.947 134.15 181.751 134.15C182.641 134.15 183.11 134.635 183.259 135.173L185.017 134.981ZM193.249 134.981C192.983 133.596 191.875 132.712 189.957 132.712C187.986 132.712 186.644 133.681 186.649 135.194C186.644 136.387 187.379 137.175 188.95 137.5L190.346 137.793C191.097 137.958 191.449 138.262 191.449 138.725C191.449 139.285 190.841 139.706 189.925 139.706C189.041 139.706 188.466 139.322 188.301 138.587L186.42 138.768C186.66 140.27 187.922 141.16 189.931 141.16C191.976 141.16 193.42 140.1 193.425 138.55C193.42 137.383 192.668 136.669 191.124 136.334L189.728 136.036C188.897 135.849 188.567 135.561 188.572 135.087C188.567 134.533 189.18 134.15 189.984 134.15C190.873 134.15 191.342 134.635 191.491 135.173L193.249 134.981ZM202.88 132.818H201.181V132.174C201.181 131.534 201.447 131.178 202.166 131.178C202.47 131.178 202.725 131.247 202.885 131.295L203.274 129.803C203.024 129.718 202.475 129.58 201.809 129.58C200.387 129.58 199.252 130.395 199.252 132.046V132.818H198.043V134.31H199.252V141H201.181V134.31H202.88V132.818ZM207.651 141.16C210.048 141.16 211.572 139.471 211.572 136.941C211.572 134.406 210.048 132.712 207.651 132.712C205.254 132.712 203.731 134.406 203.731 136.941C203.731 139.471 205.254 141.16 207.651 141.16ZM207.662 139.615C206.335 139.615 205.686 138.433 205.686 136.936C205.686 135.439 206.335 134.24 207.662 134.24C208.967 134.24 209.617 135.439 209.617 136.936C209.617 138.433 208.967 139.615 207.662 139.615ZM218.423 137.559C218.423 138.805 217.534 139.423 216.681 139.423C215.754 139.423 215.137 138.768 215.137 137.729V132.818H213.208V138.028C213.208 139.993 214.327 141.107 215.936 141.107C217.161 141.107 218.024 140.462 218.396 139.546H218.482V141H220.351V132.818H218.423V137.559ZM224.263 136.206C224.263 135.023 224.976 134.342 225.994 134.342C226.99 134.342 227.586 134.997 227.586 136.089V141H229.515V135.79C229.52 133.83 228.401 132.712 226.713 132.712C225.488 132.712 224.646 133.298 224.273 134.208H224.177V132.818H222.334V141H224.263V136.206ZM234.511 141.144C235.917 141.144 236.551 140.308 236.855 139.711H236.972V141H238.868V130.091H236.935V134.171H236.855C236.562 133.58 235.96 132.712 234.516 132.712C232.625 132.712 231.139 134.192 231.139 136.92C231.139 139.615 232.583 141.144 234.511 141.144ZM235.049 139.562C233.776 139.562 233.105 138.443 233.105 136.909C233.105 135.386 233.765 134.294 235.049 134.294C236.29 134.294 236.972 135.322 236.972 136.909C236.972 138.496 236.28 139.562 235.049 139.562ZM244.644 141H246.572V132.818H244.644V141ZM245.613 131.657C246.226 131.657 246.727 131.188 246.727 130.613C246.727 130.032 246.226 129.564 245.613 129.564C244.995 129.564 244.495 130.032 244.495 130.613C244.495 131.188 244.995 131.657 245.613 131.657ZM250.483 136.206C250.483 135.023 251.197 134.342 252.214 134.342C253.21 134.342 253.807 134.997 253.807 136.089V141H255.735V135.79C255.741 133.83 254.622 132.712 252.933 132.712C251.708 132.712 250.867 133.298 250.494 134.208H250.398V132.818H248.555V141H250.483V136.206ZM265.832 130.091H263.952L261.24 131.833V133.644L263.792 132.014H263.856V141H265.832V130.091ZM272.429 141H274.326V139.711H274.437C274.741 140.308 275.375 141.144 276.781 141.144C278.709 141.144 280.153 139.615 280.153 136.92C280.153 134.192 278.667 132.712 276.776 132.712C275.332 132.712 274.73 133.58 274.437 134.171H274.358V130.091H272.429V141ZM274.32 136.909C274.32 135.322 275.002 134.294 276.243 134.294C277.527 134.294 278.187 135.386 278.187 136.909C278.187 138.443 277.516 139.562 276.243 139.562C275.013 139.562 274.32 138.496 274.32 136.909ZM281.792 141H283.721V136.19C283.721 135.151 284.504 134.416 285.564 134.416C285.888 134.416 286.293 134.475 286.458 134.528V132.754C286.283 132.722 285.979 132.701 285.766 132.701C284.828 132.701 284.045 133.234 283.747 134.182H283.662V132.818H281.792V141ZM291.025 141.16C292.932 141.16 294.242 140.228 294.583 138.805L292.783 138.603C292.522 139.295 291.882 139.658 291.051 139.658C289.805 139.658 288.979 138.837 288.963 137.436H294.663V136.845C294.663 133.974 292.937 132.712 290.924 132.712C288.58 132.712 287.051 134.432 287.051 136.957C287.051 139.525 288.558 141.16 291.025 141.16ZM288.969 136.137C289.027 135.093 289.8 134.214 290.95 134.214C292.058 134.214 292.804 135.023 292.815 136.137H288.969ZM298.649 141.165C299.932 141.165 300.699 140.563 301.051 139.876H301.115V141H302.969V135.524C302.969 133.362 301.205 132.712 299.645 132.712C297.924 132.712 296.603 133.479 296.177 134.97L297.977 135.226C298.169 134.667 298.713 134.187 299.655 134.187C300.55 134.187 301.04 134.645 301.04 135.45V135.482C301.04 136.036 300.46 136.062 299.016 136.217C297.429 136.387 295.911 136.861 295.911 138.704C295.911 140.313 297.088 141.165 298.649 141.165ZM299.149 139.748C298.345 139.748 297.77 139.381 297.77 138.672C297.77 137.932 298.414 137.623 299.277 137.5C299.783 137.431 300.795 137.303 301.046 137.101V138.065C301.046 138.976 300.311 139.748 299.149 139.748ZM308.476 141.16C310.532 141.16 311.843 139.94 311.981 138.203H310.138C309.973 139.082 309.339 139.588 308.492 139.588C307.289 139.588 306.511 138.582 306.511 136.909C306.511 135.258 307.305 134.267 308.492 134.267C309.419 134.267 309.989 134.864 310.138 135.652H311.981C311.848 133.878 310.463 132.712 308.466 132.712C306.069 132.712 304.556 134.443 304.556 136.941C304.556 139.418 306.031 141.16 308.476 141.16ZM315.493 136.206C315.493 135.023 316.228 134.342 317.261 134.342C318.274 134.342 318.87 134.986 318.87 136.089V141H320.798V135.79C320.798 133.814 319.68 132.712 317.981 132.712C316.723 132.712 315.924 133.282 315.546 134.208H315.45V130.091H313.565V141H315.493V136.206Z" fill="#EB001B"/>
<path d="M75.1585 138.104C74.5994 138.104 74.1307 138.564 74.1307 139.113C74.1307 139.661 74.5994 140.121 75.1585 140.121C75.6971 140.121 76.1864 139.661 76.1617 139.137C76.1864 138.56 75.7218 138.104 75.1585 138.104Z" fill="#EB001B"/>
<path d="M84.6721 141.677C85.3175 140.584 85.3216 139.282 84.6803 138.193L78.242 127.258C77.6047 126.157 76.4536 125.504 75.1626 125.504C73.8717 125.504 72.7205 126.161 72.0832 127.254L65.6367 138.201C64.9953 139.302 64.9995 140.612 65.649 141.705C66.2904 142.786 67.4375 143.435 68.7202 143.435H81.5804C82.8672 143.435 84.0225 142.777 84.6721 141.677ZM83.2742 140.886C82.9165 141.491 82.2834 141.85 81.5762 141.85H68.7161C68.0172 141.85 67.3881 141.499 67.0387 140.907C66.6851 140.306 66.681 139.588 67.0345 138.983L73.4811 128.04C73.8305 127.439 74.4555 127.084 75.1626 127.084C75.8656 127.084 76.4947 127.443 76.8441 128.044L83.2865 138.987C83.6319 139.576 83.6278 140.286 83.2742 140.886Z" fill="#EB001B"/>
<path d="M74.9036 131.028C74.4144 131.165 74.1101 131.601 74.1101 132.129C74.1348 132.447 74.1554 132.77 74.18 133.088C74.2499 134.302 74.3198 135.492 74.3897 136.705C74.4144 137.116 74.7392 137.415 75.1585 137.415C75.5779 137.415 75.9068 137.096 75.9273 136.681C75.9273 136.431 75.9273 136.201 75.952 135.947C75.9972 135.169 76.0466 134.391 76.0918 133.613C76.1165 133.109 76.1617 132.605 76.1863 132.101C76.1863 131.919 76.1617 131.758 76.0918 131.596C75.8821 131.145 75.3929 130.915 74.9036 131.028Z" fill="#EB001B"/>
<g filter="url(#filter0_d)">
<rect x="12" y="12" width="280" height="80" rx="16" fill="white"/>
</g>
<path d="M82.5781 60H85.4766V54.5937H88.5391C92.2344 54.5937 94.2188 52.375 94.2188 49.2969C94.2188 46.2422 92.2578 44 88.5781 44H82.5781V60ZM85.4766 52.2109V46.4219H88.1328C90.3047 46.4219 91.2656 47.5937 91.2656 49.2969C91.2656 51 90.3047 52.2109 88.1484 52.2109H85.4766ZM96.6113 60H99.4395V52.9453C99.4395 51.4219 100.588 50.3437 102.143 50.3437C102.619 50.3437 103.213 50.4297 103.455 50.5078V47.9062C103.197 47.8594 102.752 47.8281 102.439 47.8281C101.064 47.8281 99.916 48.6094 99.4785 50H99.3535V48H96.6113V60ZM105.334 60H108.162V48H105.334V60ZM106.756 46.2969C107.654 46.2969 108.389 45.6094 108.389 44.7656C108.389 43.9141 107.654 43.2266 106.756 43.2266C105.85 43.2266 105.115 43.9141 105.115 44.7656C105.115 45.6094 105.85 46.2969 106.756 46.2969ZM121.789 48H118.781L116.016 56.9141H115.891L113.133 48H110.117L114.391 60H117.516L121.789 48ZM126.855 60.2422C128.738 60.2422 129.863 59.3594 130.379 58.3516H130.473V60H133.191V51.9687C133.191 48.7969 130.605 47.8438 128.316 47.8438C125.793 47.8438 123.855 48.9687 123.23 51.1562L125.871 51.5312C126.152 50.7109 126.949 50.0078 128.332 50.0078C129.645 50.0078 130.363 50.6797 130.363 51.8594V51.9062C130.363 52.7188 129.512 52.7578 127.395 52.9844C125.066 53.2344 122.84 53.9297 122.84 56.6328C122.84 58.9922 124.566 60.2422 126.855 60.2422ZM127.59 58.1641C126.41 58.1641 125.566 57.625 125.566 56.5859C125.566 55.5 126.512 55.0469 127.777 54.8672C128.52 54.7656 130.004 54.5781 130.371 54.2812V55.6953C130.371 57.0312 129.293 58.1641 127.59 58.1641ZM141.27 60.2344C144.285 60.2344 146.207 58.4453 146.41 55.8984H143.707C143.465 57.1875 142.535 57.9297 141.293 57.9297C139.527 57.9297 138.387 56.4531 138.387 54C138.387 51.5781 139.551 50.125 141.293 50.125C142.652 50.125 143.488 51 143.707 52.1562H146.41C146.215 49.5547 144.184 47.8438 141.254 47.8438C137.738 47.8438 135.52 50.3828 135.52 54.0469C135.52 57.6797 137.684 60.2344 141.27 60.2344ZM150.49 64.5C152.693 64.5 153.967 63.3672 154.646 61.4531L159.467 48.0156L156.443 48L153.67 57.0625H153.545L150.779 48H147.779L152.131 60.25L151.889 60.8984C151.365 62.2656 150.537 62.3594 149.303 62L148.646 64.2031C149.029 64.3594 149.717 64.5 150.49 64.5ZM177.73 49.1094H180.684C180.191 45.9687 177.473 43.7812 173.934 43.7812C169.746 43.7812 166.605 46.8594 166.605 52.0156C166.605 57.0781 169.605 60.2187 174.02 60.2187C177.98 60.2187 180.816 57.6719 180.816 53.5469V51.625H174.324V53.8906H178.012C177.965 56.1719 176.441 57.6172 174.035 57.6172C171.355 57.6172 169.52 55.6094 169.52 51.9844C169.52 48.3828 171.387 46.3828 173.973 46.3828C175.902 46.3828 177.215 47.4141 177.73 49.1094ZM191.143 54.9531C191.143 56.7812 189.838 57.6875 188.588 57.6875C187.229 57.6875 186.322 56.7266 186.322 55.2031V48H183.494V55.6406C183.494 58.5234 185.135 60.1563 187.494 60.1563C189.291 60.1563 190.557 59.2109 191.104 57.8672H191.229V60H193.971V48H191.143V54.9531ZM200.332 60.2422C202.215 60.2422 203.34 59.3594 203.855 58.3516H203.949V60H206.668V51.9687C206.668 48.7969 204.082 47.8438 201.793 47.8438C199.27 47.8438 197.332 48.9687 196.707 51.1562L199.348 51.5312C199.629 50.7109 200.426 50.0078 201.809 50.0078C203.121 50.0078 203.84 50.6797 203.84 51.8594V51.9062C203.84 52.7188 202.988 52.7578 200.871 52.9844C198.543 53.2344 196.316 53.9297 196.316 56.6328C196.316 58.9922 198.043 60.2422 200.332 60.2422ZM201.066 58.1641C199.887 58.1641 199.043 57.625 199.043 56.5859C199.043 55.5 199.988 55.0469 201.254 54.8672C201.996 54.7656 203.48 54.5781 203.848 54.2812V55.6953C203.848 57.0312 202.77 58.1641 201.066 58.1641ZM209.512 60H212.34V52.9453C212.34 51.4219 213.488 50.3437 215.043 50.3437C215.52 50.3437 216.113 50.4297 216.355 50.5078V47.9062C216.098 47.8594 215.652 47.8281 215.34 47.8281C213.965 47.8281 212.816 48.6094 212.379 50H212.254V48H209.512V60ZM222.193 60.2109C224.256 60.2109 225.186 58.9844 225.631 58.1094H225.803V60H228.584V44H225.748V49.9844H225.631C225.201 49.1172 224.318 47.8438 222.201 47.8438C219.428 47.8438 217.248 50.0156 217.248 54.0156C217.248 57.9687 219.365 60.2109 222.193 60.2109ZM222.982 57.8906C221.115 57.8906 220.131 56.25 220.131 54C220.131 51.7656 221.1 50.1641 222.982 50.1641C224.803 50.1641 225.803 51.6719 225.803 54C225.803 56.3281 224.787 57.8906 222.982 57.8906Z" fill="#272727"/>
<path d="M51.3076 67.7689C52.0682 68.0751 52.9254 68.0751 53.6859 67.7689C59.2096 65.5376 67.9688 57.8314 67.9688 44.0002C67.9688 42.7877 67.2147 41.6939 66.0674 41.2314L53.6924 36.2314C53.3154 36.0798 52.9113 36.0017 52.5032 36.0017C52.0951 36.0017 51.691 36.0798 51.3141 36.2314L38.9391 41.2314C37.7854 41.6939 37.0313 42.7877 37.0313 44.0002C37.0313 56.4064 44.4111 64.9814 51.3076 67.7689ZM52.5 39.0002L64.875 44.0002C64.875 54.8626 58.5328 62.5627 52.5 65.0002C46.2158 62.4627 40.125 54.5814 40.125 44.0002L52.5 39.0002Z" fill="#27AE60"/>
</g>
<defs>
<filter id="filter0_d" x="-8" y="-3" width="320" height="120" filterUnits="userSpaceOnUse" color-interpolation-filters="sRGB">
<feFlood flood-opacity="0" result="BackgroundImageFix"/>
<feColorMatrix in="SourceAlpha" type="matrix" values="0 0 0 0 0 0 0 0 0 0 0 0 0 0 0 0 0 0 127 0"/>
<feOffset dy="5"/>
<feGaussianBlur stdDeviation="10"/>
<feColorMatrix type="matrix" values="0 0 0 0 0 0 0 0 0 0 0 0 0 0 0 0 0 0 0.1 0"/>
<feBlend mode="normal" in2="BackgroundImageFix" result="effect1_dropShadow"/>
<feBlend mode="normal" in="SourceGraphic" in2="effect1_dropShadow" result="shape"/>
</filter>
<clipPath id="clip0">
<rect width="447" height="252" fill="white"/>
</clipPath>
</defs>
</svg>
