<svg width="423" height="231" viewBox="0 0 423 231" fill="none" xmlns="http://www.w3.org/2000/svg">
<g clip-path="url(#clip0)">
<rect width="423" height="231" fill="white"/>
<rect width="128.045" height="128.045" rx="24" transform="matrix(-0.625396 -0.780307 -0.780307 0.625396 423.322 135.172)" fill="#FCB827"/>
<g filter="url(#filter0_d)">
<rect width="279.944" height="142.8" rx="7.82653" transform="matrix(-1 0 0 1 295.013 18.3804)" fill="white"/>
</g>
<path d="M34.2378 50.9326H37.1567V45.7232L42.0182 36.986H38.8577L35.7359 42.9396H35.6683L32.5368 36.986H29.386L34.2378 45.7232V50.9326ZM45.8262 51.1452C48.9577 51.1452 50.9584 49.1349 50.9584 45.7522V45.7328C50.9584 42.379 48.919 40.3591 45.8166 40.3591C42.7237 40.3591 40.6941 42.3984 40.6941 45.7328V45.7522C40.6941 49.1253 42.6754 51.1452 45.8262 51.1452ZM45.8359 48.932C44.4441 48.932 43.5646 47.7818 43.5646 45.7522V45.7328C43.5646 43.7322 44.4538 42.5724 45.8166 42.5724C47.189 42.5724 48.0878 43.7322 48.0878 45.7328V45.7522C48.0878 47.7721 47.2083 48.932 45.8359 48.932ZM55.9455 51.1452C57.5113 51.1452 58.5744 50.4107 59.106 49.2219H59.164V50.9326H61.9862V40.5717H59.164V46.5254C59.164 47.8785 58.3618 48.8063 57.0957 48.8063C55.8295 48.8063 55.1917 48.0234 55.1917 46.6703V40.5717H52.3695V47.2599C52.3695 49.6858 53.6646 51.1452 55.9455 51.1452ZM63.8225 50.9326H66.6447V45.0949C66.6447 43.6355 67.4566 42.7946 68.8484 42.7946C69.2543 42.7946 69.6409 42.8526 69.8729 42.9493V40.4654C69.6602 40.4074 69.3703 40.3591 69.061 40.3591C67.8335 40.3591 66.954 41.0839 66.6544 42.3404H66.5964V40.5717H63.8225V50.9326ZM78.1461 50.9326H80.9973L83.5682 41.5865H83.6262L86.1875 50.9326H89.0387L92.7404 36.986H89.7152L87.5019 46.9796H87.4439L84.873 36.986H82.3118L79.7409 46.9796H79.6829L77.4793 36.986H74.4541L78.1461 50.9326ZM97.6309 51.1452C100.588 51.1452 102.019 49.3959 102.338 47.8688L102.367 47.7625H99.7765L99.7572 47.8205C99.5542 48.4004 98.8487 49.0383 97.6889 49.0383C96.2488 49.0383 95.3499 48.0718 95.3209 46.419H102.454V45.5492C102.454 42.4177 100.55 40.3591 97.5149 40.3591C94.4801 40.3591 92.5374 42.466 92.5374 45.7618V45.7715C92.5374 49.0866 94.4607 51.1452 97.6309 51.1452ZM97.5632 42.466C98.7327 42.466 99.5736 43.2102 99.7475 44.6407H95.3499C95.5336 43.2392 96.4034 42.466 97.5632 42.466ZM108.63 51.1452C111.587 51.1452 113.018 49.3959 113.337 47.8688L113.366 47.7625H110.775L110.756 47.8205C110.553 48.4004 109.847 49.0383 108.688 49.0383C107.248 49.0383 106.349 48.0718 106.32 46.419H113.453V45.5492C113.453 42.4177 111.549 40.3591 108.514 40.3591C105.479 40.3591 103.536 42.466 103.536 45.7618V45.7715C103.536 49.0866 105.46 51.1452 108.63 51.1452ZM108.562 42.466C109.732 42.466 110.572 43.2102 110.746 44.6407H106.349C106.532 43.2392 107.402 42.466 108.562 42.466ZM115.009 50.9326H117.831V47.5015L118.556 46.6993L121.523 50.9326H124.78L120.672 45.0273L124.587 40.5717H121.388L117.889 44.718H117.831V36.986H115.009V50.9326ZM125.631 50.9326H128.453V36.986H125.631V50.9326ZM131.98 54.3444C134.281 54.3444 135.673 53.5615 136.484 51.1163L140.041 40.5717H137.064L134.87 48.671H134.793L132.609 40.5717H129.506L133.169 50.9326L133.044 51.2709C132.792 51.9764 132.328 52.2181 131.488 52.2181C131.072 52.2181 130.743 52.1601 130.54 52.1214V54.2187C130.869 54.2767 131.43 54.3444 131.98 54.3444ZM145.193 50.9326H150.518C154.703 50.9326 157.168 48.3327 157.168 43.9061V43.8868C157.168 39.4699 154.693 36.986 150.518 36.986H145.193V50.9326ZM148.111 48.5164V39.3926H150.17C152.731 39.3926 154.191 40.9873 154.191 43.8965V43.9158C154.191 46.9313 152.78 48.5164 150.17 48.5164H148.111ZM160.28 39.2379C161.13 39.2379 161.787 38.571 161.787 37.7688C161.787 36.9666 161.13 36.2997 160.28 36.2997C159.429 36.2997 158.772 36.9666 158.772 37.7688C158.772 38.571 159.429 39.2379 160.28 39.2379ZM158.869 50.9326H161.691V40.5717H158.869V50.9326ZM168.427 54.528C171.54 54.528 173.482 52.9526 173.482 50.6427V40.5717H170.66V42.3404H170.602C170.041 41.1323 168.911 40.3591 167.451 40.3591C164.832 40.3591 163.208 42.3211 163.208 45.6265V45.6362C163.208 48.8546 164.813 50.7876 167.403 50.7876C168.901 50.7876 170.061 50.1014 170.602 49.0189H170.66V50.604C170.66 51.7638 169.887 52.5177 168.427 52.5177C167.248 52.5177 166.494 52.0731 166.272 51.5608L166.243 51.4932H163.498L163.508 51.5802C163.778 53.2426 165.576 54.528 168.427 54.528ZM168.379 48.7193C166.968 48.7193 166.079 47.5692 166.079 45.7038V45.6942C166.079 43.8385 166.978 42.698 168.379 42.698C169.751 42.698 170.67 43.8481 170.67 45.6942V45.7038C170.67 47.5595 169.761 48.7193 168.379 48.7193ZM180.054 51.1452C183.012 51.1452 184.442 49.3959 184.761 47.8688L184.79 47.7625H182.2L182.181 47.8205C181.978 48.4004 181.272 49.0383 180.112 49.0383C178.672 49.0383 177.773 48.0718 177.744 46.419H184.877V45.5492C184.877 42.4177 182.973 40.3591 179.938 40.3591C176.904 40.3591 174.961 42.466 174.961 45.7618V45.7715C174.961 49.0866 176.884 51.1452 180.054 51.1452ZM179.987 42.466C181.156 42.466 181.997 43.2102 182.171 44.6407H177.773C177.957 43.2392 178.827 42.466 179.987 42.466ZM190.599 51.1452C193.267 51.1452 195.132 49.8115 195.132 47.7818V47.7721C195.132 46.2451 194.243 45.3945 192.078 44.9403L190.319 44.5634C189.275 44.3411 188.917 43.9931 188.917 43.4615V43.4519C188.917 42.785 189.526 42.3501 190.502 42.3501C191.546 42.3501 192.155 42.9106 192.252 43.6548L192.261 43.7322H194.861V43.6355C194.794 41.8185 193.257 40.3591 190.502 40.3591C187.864 40.3591 186.163 41.6348 186.163 43.6065V43.6162C186.163 45.1626 187.178 46.1677 189.188 46.593L190.947 46.9603C191.962 47.1826 192.31 47.5015 192.31 48.0524V48.0621C192.31 48.729 191.662 49.1446 190.599 49.1446C189.468 49.1446 188.859 48.671 188.676 47.8591L188.656 47.7721H185.902L185.911 47.8591C186.134 49.8211 187.728 51.1452 190.599 51.1452ZM200.641 51.1452C201.231 51.1452 201.685 51.0873 202.004 51.0389V48.9706C201.83 48.9899 201.646 49.0189 201.395 49.0189C200.544 49.0189 200.109 48.6903 200.109 47.7238V42.698H202.004V40.5717H200.109V38.0394H197.258V40.5717H195.818V42.698H197.258V48.0331C197.258 50.2561 198.341 51.1452 200.641 51.1452Z" fill="#272727"/>
<rect width="142.999" height="92.5291" rx="7.82653" transform="matrix(-1 0 0 1 183.453 98)" fill="#F9F9F9"/>
<rect width="61.4056" height="10.0941" rx="5.04704" transform="matrix(-1 0 0 1 259.16 98)" fill="#F9F9F9"/>
<rect width="61.4056" height="10.0941" rx="5.04704" transform="matrix(-1 0 0 1 259.16 124.03)" fill="#F9F9F9"/>
<rect width="173" height="8" rx="4" transform="matrix(-1 0 0 1 203 68)" fill="#F7F7F7"/>
<rect width="253" height="7" rx="3.5" transform="matrix(-1 0 0 1 282 79)" fill="#F7F7F7"/>
<path d="M301.147 140.396L301.147 188.659C301.147 192.43 298.091 195.486 294.321 195.486L16.4791 195.486C12.7089 195.486 9.65259 192.43 9.65259 188.659L9.65259 140.396C9.65259 136.626 12.7089 133.569 16.4791 133.569L294.321 133.569C298.091 133.569 301.147 136.626 301.147 140.396Z" fill="#F7F8FA" stroke="#E0E0E0" stroke-width="2"/>
<path d="M9.65247 187.854L152.781 132.705L9.65247 69.5344V187.854Z" fill="#F7F8FA" stroke="#E0E0E0" stroke-width="2"/>
<path d="M300.495 188.821L157.991 132.713L300.495 69.5372V188.821Z" fill="#F7F8FA" stroke="#E0E0E0" stroke-width="2"/>
<g clip-path="url(#clip1)">
<path d="M264.941 1.29736C268.586 1.29736 271.543 4.25421 271.543 7.9V71.3587L248.189 55.7895L224.836 71.3587V9.08196C224.836 4.80043 221.333 1.29736 217.051 1.29736L264.941 1.29736Z" fill="#5373E3"/>
<path d="M217.898 1.41357C221.572 1.44973 224.886 3.67575 224.886 7.63455V18.3799L212.161 18.3799V7.06901C212.161 3.67575 214.725 1.43202 217.898 1.41357Z" fill="#2F50C0"/>
</g>
<path opacity="0.5" d="M400.212 216.523C400.212 222.914 375.207 228.096 344.363 228.096C313.517 228.096 288.512 222.914 288.512 216.523C288.512 210.131 313.517 204.95 344.363 204.95C375.207 204.95 400.212 210.131 400.212 216.523Z" fill="#F2F2F2"/>
<g opacity="0.529999">
<g opacity="0.529999">
<path d="M384.601 212.171C384.601 220.672 360.962 227.565 331.801 227.565C302.641 227.565 279 220.672 279 212.171C279 203.669 302.641 196.776 331.801 196.776C360.962 196.776 384.601 203.669 384.601 212.171Z" fill="#E0E0E0"/>
<path opacity="0.529999" d="M346.252 197.364C341.135 209.308 332.955 219.076 323.208 227.358C326.006 227.492 328.874 227.565 331.802 227.565C360.962 227.565 384.601 220.672 384.601 212.171C384.601 205.129 368.385 199.198 346.252 197.364Z" fill="#E0E0E0"/>
</g>
</g>
<g filter="url(#filter1_d)">
<path d="M384.594 210.366C384.594 213.13 381.629 215.69 376.508 217.847C367.168 221.809 350.631 224.438 331.804 224.438C302.639 224.438 279 218.143 279 210.366C279 202.604 302.639 196.296 331.804 196.296C351.615 196.296 368.894 199.207 377.923 203.52C382.168 205.541 384.594 207.887 384.594 210.366Z" fill="white"/>
</g>
<g opacity="0.529999">
<g opacity="0.529999">
<path opacity="0.529999" d="M367.008 210.37C367.008 215.395 351.245 219.469 331.802 219.469C312.358 219.469 296.595 215.395 296.595 210.37C296.595 205.344 312.358 201.27 331.802 201.27C351.245 201.27 367.008 205.344 367.008 210.37Z" fill="#DEE4F8"/>
</g>
</g>
<path d="M366.412 210.37C366.412 215.395 350.65 219.469 331.206 219.469C311.762 219.469 296 215.395 296 210.37C296 205.344 311.762 201.27 331.206 201.27C350.65 201.27 366.412 205.344 366.412 210.37Z" fill="#F4F6FB"/>
<g opacity="0.529999">
<g opacity="0.529999">
<path opacity="0.529999" d="M384.598 210.366C384.598 213.13 381.632 215.69 376.511 217.847C371.511 218.399 365.877 218.696 359.907 218.696C339.314 218.696 322.616 215.07 322.616 210.609C322.616 206.148 339.314 202.523 359.907 202.523C366.444 202.523 372.59 202.887 377.926 203.52C382.171 205.541 384.598 207.887 384.598 210.366Z" fill="#DEE4F8"/>
</g>
</g>
<path d="M381.378 191.181C379.574 192.51 376.738 193.965 372.953 194.007C372.878 194.018 372.804 194.018 372.73 194.018C369.018 194.018 364.41 192.668 359 188.534L363.472 182.66C366.857 185.233 369.873 186.562 372.488 186.636C374.165 186.678 375.672 186.214 377.012 185.223C382.095 181.501 383.834 171.872 382.284 167.57C381.42 165.198 380.017 163.742 377.972 163.13C377.338 162.941 376.674 162.835 375.99 162.814C373.342 162.708 370.506 163.764 368.713 165.102L364.305 159.187C368.86 155.781 375.061 154.546 380.091 156.055C380.344 156.129 380.608 156.212 380.871 156.318C383.761 157.373 387.303 159.734 389.223 165.06C391.912 172.505 389.076 185.539 381.378 191.181Z" fill="white"/>
<path d="M381.378 191.181C379.574 192.51 376.738 193.965 372.953 194.007C372.878 194.018 372.804 194.018 372.73 194.018C369.018 194.018 364.41 192.668 359 188.534L363.472 182.66C366.857 185.233 369.873 186.562 372.488 186.636C374.165 186.678 375.672 186.214 377.012 185.223C382.095 181.501 383.834 171.872 382.284 167.57C381.42 165.198 380.017 163.742 377.972 163.13C377.338 162.941 376.674 162.835 375.99 162.814C373.342 162.708 370.506 163.764 368.713 165.102L364.305 159.187C368.86 155.781 375.061 154.546 380.091 156.055C380.344 156.129 380.608 156.212 380.871 156.318C383.761 157.373 387.303 159.734 389.223 165.06C391.912 172.505 389.076 185.539 381.378 191.181Z" fill="#DEE4F8"/>
<g opacity="0.529999">
<g opacity="0.529999">
<path opacity="0.529999" d="M383.656 156.318C381.674 158.143 380.05 160.369 378.774 162.815C376.127 162.708 373.291 163.764 371.498 165.103L367.09 159.186C371.645 155.781 377.846 154.547 382.876 156.055C383.13 156.129 383.392 156.213 383.656 156.318Z" fill="#DEE4F8"/>
</g>
</g>
<path d="M363.694 181.458C355.248 193.775 356.776 206.26 356.967 207.579C356.967 207.631 356.998 207.673 356.998 207.715C356.998 208.855 356.344 209.952 355.142 210.943C351.272 214.18 341.77 216.458 330.688 216.458C316.746 216.458 305.327 212.84 304.451 208.275C304.409 208.095 304.398 207.906 304.398 207.715H304.346C304.346 207.715 304.608 206.166 304.599 203.614C304.578 198.689 303.523 190.031 297.628 181.458C297.101 180.678 296.542 179.845 295.984 178.969H365.339C364.781 179.845 364.232 180.678 363.694 181.458Z" fill="white"/>
<g opacity="0.529999">
<g opacity="0.529999">
<path opacity="0.529999" d="M365.34 178.969H344.804C329.725 192.058 315.982 202.908 315.982 214.954C320.181 215.9 325.239 216.454 330.691 216.454C345.209 216.454 356.995 212.544 356.995 207.711C356.995 207.67 356.966 207.627 356.966 207.584C356.776 206.256 355.244 193.774 363.694 181.46C364.229 180.68 364.779 179.847 365.34 178.969Z" fill="#F2F2F2"/>
</g>
</g>
<g filter="url(#filter2_d)">
<path d="M375.062 151.182L374.82 152.68L374.24 156.16L372.974 163.858L371.181 174.699C367.902 194.534 350.756 209.076 330.655 209.076C326.196 209.076 321.872 208.359 317.822 207.02C303.628 202.359 292.683 190.126 290.142 174.699L287.083 156.171L286.503 152.68L286.261 151.182H375.062Z" fill="white"/>
<path d="M374.475 151.682H286.848L286.996 152.598L286.997 152.6L287.576 156.089L287.576 156.089L290.635 174.617L290.635 174.617C293.145 189.856 303.957 201.941 317.978 206.545L317.979 206.546C321.978 207.868 326.249 208.576 330.655 208.576C350.511 208.576 367.448 194.212 370.688 174.617L372.481 163.777L372.481 163.776L373.747 156.079L373.747 156.078L374.326 152.6L374.327 152.598L374.475 151.682Z" stroke="#F2F2F2"/>
</g>
<path d="M371.052 153.244C371.052 158.257 352.968 162.323 330.66 162.323C308.351 162.323 290.266 158.257 290.266 153.244C290.266 148.231 308.351 144.165 330.66 144.165C352.968 144.165 371.052 148.231 371.052 153.244Z" fill="#653A2A"/>
<g opacity="0.529999">
<g opacity="0.529999">
<path opacity="0.529999" d="M374.82 152.68C374.619 152.174 374.293 151.667 373.849 151.182C369.188 146.015 351.62 142.166 330.655 142.166C309.702 142.166 292.134 146.015 287.473 151.182C287.031 151.667 286.704 152.174 286.504 152.68L287.084 156.171C291.069 161.58 309.06 165.662 330.655 165.662C352.273 165.662 370.285 161.57 374.24 156.16L374.82 152.68Z" fill="#DEE4F8"/>
</g>
</g>
<path d="M375.057 151.241C375.057 157.729 355.18 162.989 330.66 162.989C306.14 162.989 286.262 157.729 286.262 151.241C286.262 144.753 306.14 139.493 330.66 139.493C355.18 139.493 375.057 144.753 375.057 151.241Z" fill="white"/>
<g opacity="0.529999">
<g opacity="0.529999">
<path opacity="0.529999" d="M372.592 153.244C372.592 159.731 353.819 164.991 330.66 164.991C307.501 164.991 288.725 159.731 288.725 153.244C288.725 146.755 307.501 141.495 330.66 141.495C353.819 141.495 372.592 146.755 372.592 153.244Z" fill="#DEE4F8"/>
</g>
</g>
<path d="M370.786 153.244C370.786 158.257 352.702 162.323 330.394 162.323C308.085 162.323 290 158.257 290 153.244C290 148.231 308.085 144.165 330.394 144.165C352.702 144.165 370.786 148.231 370.786 153.244Z" fill="url(#paint0_radial)"/>
<g opacity="0.529999">
<g opacity="0.529999">
<path opacity="0.529999" d="M367.5 153.723C367.5 158.405 351.103 162.201 330.877 162.201C310.652 162.201 294.255 158.405 294.255 153.723C294.255 149.042 310.652 145.246 330.877 145.246C351.103 145.246 367.5 149.042 367.5 153.723Z" fill="#B38B8B"/>
</g>
</g>
<g opacity="0.529999">
<g opacity="0.529999">
<path d="M372.974 163.858L371.181 174.699C367.902 194.534 350.755 209.076 330.656 209.076C326.195 209.076 321.871 208.358 317.822 207.02C319.33 206.556 320.796 205.954 322.188 205.259C328.188 202.253 333.134 197.487 337.594 192.456C342.056 187.427 346.147 182.059 351.018 177.44C357.304 171.472 364.833 166.831 372.974 163.858Z" fill="#D9DFF2"/>
</g>
</g>
<path d="M346.079 159.999C337.973 160.978 331.97 160.877 327.156 160.755C322.328 160.597 318.628 160.306 314.959 159.975C314.038 159.886 313.118 159.795 312.183 159.704C311.221 159.589 310.279 159.442 309.3 159.283C307.348 158.954 305.279 158.575 302.95 158.053C301.784 157.786 300.56 157.501 299.23 157.08C298.899 156.979 298.555 156.858 298.197 156.711C297.846 156.569 297.407 156.355 297.072 156.1C296.892 155.988 296.713 155.839 296.537 155.662C296.357 155.512 296.19 155.299 296.033 155.068C295.727 154.616 295.498 153.926 295.62 153.285C295.861 151.999 296.687 151.308 297.434 150.756C297.825 150.477 298.241 150.251 298.681 150.05C299.12 149.843 299.619 149.7 300.007 149.585C301.678 149.07 303.479 148.583 305.419 148.092C312.537 146.336 319.533 146.374 324.349 146.274C329.174 146.171 331.827 145.842 331.833 146.055C331.84 146.255 331.885 146.443 331.172 146.609C330.459 146.779 328.375 146.693 325.36 146.934C322.35 147.199 317.929 147.476 311.124 148.736C309.426 149.062 308.048 149.703 306.069 150.18C305.083 150.429 304.055 150.679 302.998 150.977C302.468 151.122 301.928 151.269 301.383 151.434C301.109 151.515 300.833 151.596 300.555 151.679L300.139 151.801L299.793 151.922C299.332 152.104 298.868 152.355 298.481 152.655C298.092 152.947 297.805 153.328 297.749 153.544C297.743 153.65 297.71 153.698 297.771 153.798C297.799 153.896 297.921 154.041 298.086 154.189C298.453 154.509 298.883 154.713 299.503 154.933C301.976 155.752 304.882 156.346 307.923 156.925C309.465 157.201 311.245 157.534 313.205 157.733C315.215 157.939 317.437 158.146 319.846 158.33C324.663 158.693 330.237 158.997 336.353 158.857C339.418 158.788 342.586 158.571 345.899 158.22C349.197 157.876 352.608 157.467 355.956 156.551C357.607 156.086 359.317 155.491 360.694 154.58C360.855 154.462 360.99 154.332 361.144 154.212C361.241 154.08 361.39 153.948 361.435 153.827C361.577 153.571 361.562 153.422 361.382 153.157C361.003 152.635 360.174 152.197 359.377 151.886C358.559 151.565 357.691 151.359 356.778 151.171L355.423 150.877L354.049 150.647C352.214 150.329 350.343 150.144 348.458 150.001C340.899 149.471 333.116 150.169 325.37 150.781C323.429 150.922 321.49 151.062 319.553 151.203C317.613 151.325 315.689 151.415 313.778 151.621C311.895 151.839 309.846 152.07 308.481 152.645C308.307 152.737 308.111 152.838 308.021 153.024C307.953 153.235 308.156 153.394 308.317 153.484C308.664 153.678 309.054 153.786 309.443 153.889C309.821 153.987 310.247 154.064 310.73 154.154C311.195 154.239 311.658 154.33 312.124 154.4C319.572 155.673 326.963 155.27 333.89 155.489C337.362 155.471 340.733 155.38 343.977 155.18C345.599 155.075 347.188 154.947 348.741 154.738C349.449 154.64 350.452 154.488 351.265 154.24C351.674 154.114 352.039 153.968 352.35 153.775C352.504 153.676 352.654 153.568 352.759 153.412C352.871 153.264 352.895 153.013 352.767 152.87C352.216 152.378 351.431 152.233 350.528 152.067C350.104 151.997 349.577 151.938 349.228 151.9C348.863 151.867 348.504 151.832 348.148 151.799C346.726 151.684 345.383 151.621 344.107 151.572C341.557 151.48 339.283 151.457 337.213 151.459C335.144 151.463 333.281 151.494 331.553 151.55C329.817 151.623 328.256 151.658 326.671 151.906C326.671 151.906 326.939 151.841 327.659 151.759C328.381 151.677 329.563 151.578 331.432 151.489C333.3 151.403 335.855 151.32 339.321 151.313C341.054 151.312 343.014 151.328 345.232 151.409C346.341 151.451 347.513 151.508 348.758 151.615C349.102 151.649 349.451 151.683 349.804 151.718C350.257 151.775 350.726 151.832 351.159 151.924C352.053 152.122 352.655 152.348 353.049 152.835C353.113 152.929 353.135 153.087 353.121 153.227C353.094 153.369 353.031 153.485 352.955 153.587C352.795 153.789 352.591 153.953 352.319 154.117C351.788 154.442 350.855 154.722 349.777 154.912C348.179 155.205 346.54 155.383 344.573 155.553C340.693 155.867 335.967 156.08 330.643 156.08C327.979 156.001 325.229 156.076 322.295 156.042C319.377 156.006 316.336 155.832 313.244 155.425C312.472 155.315 311.695 155.214 310.918 155.073L310.335 154.972C310.126 154.934 309.996 154.918 309.643 154.841C309.042 154.73 308.403 154.541 307.91 154.319C307.41 154.081 307.107 153.815 306.918 153.441C306.813 153.245 306.835 152.937 306.93 152.757C307.028 152.57 307.14 152.411 307.315 152.265C307.639 151.968 308.172 151.722 308.777 151.525C309.087 151.439 309.423 151.336 309.675 151.285L310.07 151.193L310.374 151.13C313.587 150.499 316.875 150.333 320.08 150.091C326.521 149.586 332.996 148.829 339.278 148.567C345.549 148.295 351.656 148.52 357.092 149.694C358.432 149.938 359.849 150.312 361.13 150.984C361.758 151.361 362.473 151.74 362.943 152.729C363.018 153.004 363.139 153.277 363.1 153.57C363.095 153.87 363.044 154.148 362.929 154.372C362.879 154.491 362.825 154.612 362.767 154.724L362.571 154.984C362.438 155.154 362.301 155.334 362.159 155.442C361.023 156.434 359.89 156.883 358.806 157.342C357.716 157.779 356.651 158.102 355.633 158.37C351.556 159.413 348.256 159.728 346.079 159.999Z" fill="#42352A"/>
<path opacity="0.5" d="M316 76.0001C316.001 76.0013 335.975 88.7358 326.78 104.283C317.586 119.831 326.78 134.102 326.78 134.102C325.399 131.81 325.835 127.333 325.952 124.897C326.231 119.082 327.469 113.206 330.234 107.866C332.078 104.305 334.845 100.944 335.279 96.9647C336.018 90.1744 329.727 85.0035 324.077 81.1728C321.446 79.3884 318.741 77.6581 316 76.0001Z" fill="white"/>
<path opacity="0.5" d="M339.825 86.7154C339.826 86.7166 348.579 94.7619 342.649 102.627C336.718 110.491 341.935 118.539 341.935 118.54C341.338 117.233 341.857 114.849 342.074 113.545C342.592 110.434 343.632 107.341 345.457 104.619C346.675 102.804 348.376 101.146 348.862 99.029C349.69 95.4177 346.635 92.2978 343.84 89.9332C342.539 88.8308 341.194 87.7552 339.825 86.7154Z" fill="white"/>
<path opacity="0.5" d="M337.663 103.844C337.663 103.844 328.973 122.241 335.761 133.444C342.181 144.04 334.809 150.326 334.809 150.326C334.809 150.326 346.395 145.616 340.12 133.809C332.352 119.193 337.663 103.844 337.663 103.844Z" fill="white"/>
</g>
<defs>
<filter id="filter0_d" x="3.06934" y="6.38037" width="303.944" height="166.8" filterUnits="userSpaceOnUse" color-interpolation-filters="sRGB">
<feFlood flood-opacity="0" result="BackgroundImageFix"/>
<feColorMatrix in="SourceAlpha" type="matrix" values="0 0 0 0 0 0 0 0 0 0 0 0 0 0 0 0 0 0 127 0"/>
<feOffset/>
<feGaussianBlur stdDeviation="6"/>
<feColorMatrix type="matrix" values="0 0 0 0 0 0 0 0 0 0 0 0 0 0 0 0 0 0 0.16 0"/>
<feBlend mode="normal" in2="BackgroundImageFix" result="effect1_dropShadow"/>
<feBlend mode="normal" in="SourceGraphic" in2="effect1_dropShadow" result="shape"/>
</filter>
<filter id="filter1_d" x="267" y="184.296" width="129.594" height="52.1416" filterUnits="userSpaceOnUse" color-interpolation-filters="sRGB">
<feFlood flood-opacity="0" result="BackgroundImageFix"/>
<feColorMatrix in="SourceAlpha" type="matrix" values="0 0 0 0 0 0 0 0 0 0 0 0 0 0 0 0 0 0 127 0"/>
<feOffset/>
<feGaussianBlur stdDeviation="6"/>
<feColorMatrix type="matrix" values="0 0 0 0 0 0 0 0 0 0 0 0 0 0 0 0 0 0 0.06 0"/>
<feBlend mode="normal" in2="BackgroundImageFix" result="effect1_dropShadow"/>
<feBlend mode="normal" in="SourceGraphic" in2="effect1_dropShadow" result="shape"/>
</filter>
<filter id="filter2_d" x="274.261" y="139.182" width="112.802" height="81.8934" filterUnits="userSpaceOnUse" color-interpolation-filters="sRGB">
<feFlood flood-opacity="0" result="BackgroundImageFix"/>
<feColorMatrix in="SourceAlpha" type="matrix" values="0 0 0 0 0 0 0 0 0 0 0 0 0 0 0 0 0 0 127 0"/>
<feOffset/>
<feGaussianBlur stdDeviation="6"/>
<feColorMatrix type="matrix" values="0 0 0 0 0 0 0 0 0 0 0 0 0 0 0 0 0 0 0.08 0"/>
<feBlend mode="normal" in2="BackgroundImageFix" result="effect1_dropShadow"/>
<feBlend mode="normal" in="SourceGraphic" in2="effect1_dropShadow" result="shape"/>
</filter>
<radialGradient id="paint0_radial" cx="0" cy="0" r="1" gradientUnits="userSpaceOnUse" gradientTransform="translate(330.863 153.123) scale(44.1051 10.0412)">
<stop stop-color="#131416"/>
<stop offset="0.267328" stop-color="#131416"/>
<stop offset="0.730314" stop-color="#131416"/>
<stop offset="0.925482" stop-color="#C28F5F"/>
<stop offset="1" stop-color="#C28F5F"/>
</radialGradient>
<clipPath id="clip0">
<rect width="423" height="231" fill="white"/>
</clipPath>
<clipPath id="clip1">
<rect width="73.9537" height="73.9537" fill="white" transform="matrix(-1 0 0 1 271.543 0)"/>
</clipPath>
</defs>
</svg>
