<svg width="455" height="420" viewBox="0 0 455 420" fill="none" xmlns="http://www.w3.org/2000/svg">
<path d="M235.481 418.371C320.57 401.06 385.406 340.216 422.989 242.425C449.763 172.764 453.396 108.302 453.542 105.593L455 77.7108L227.502 -1.56562e-05L-3.39746e-06 77.7108L1.45849 105.593C1.60433 108.302 5.2375 172.764 32.0113 242.425C69.5907 340.216 134.43 401.06 219.519 418.371L227.502 420L235.481 418.371Z" fill="#F2F2F2"/>
<path d="M234.043 380.666C303.797 366.487 356.948 316.653 387.758 236.558C409.706 179.502 412.685 126.705 412.804 124.485L414 101.649L227.501 38L41 101.649L42.1956 124.485C42.3152 126.705 45.2936 179.502 67.2422 236.558C98.0491 316.653 151.203 366.487 220.957 380.666L227.501 382L234.043 380.666Z" fill="#E9E9E9"/>
</svg>
