<svg width="140" height="134" viewBox="0 0 140 134" fill="none" xmlns="http://www.w3.org/2000/svg">
<path d="M72.4557 133.48C98.6369 127.957 118.586 108.545 130.15 77.3452C138.388 55.1199 139.506 34.5535 139.551 33.6891L140 24.7934L70.0005 -2.1855e-06L-1.82788e-06 24.7934L0.448759 33.6891C0.49363 34.5535 1.61153 55.1199 9.84964 77.3452C21.4125 108.545 41.3631 127.957 67.5443 133.48L70.0005 134L72.4557 133.48Z" fill="url(#paint0_linear)"/>
<path d="M14.5348 34.4148L69.9798 14.7767L125.425 34.4148C125.425 34.4148 121.67 108.827 69.9798 119.735C18.2904 108.827 14.5348 34.4148 14.5348 34.4148Z" fill="url(#paint1_linear)"/>
<g filter="url(#filter0_i)">
<path d="M57.3687 89.1431H82.5465C84.7121 89.1431 86.4683 87.3832 86.4683 85.2131V67.9496C86.4683 65.7795 84.7121 64.0197 82.5465 64.0197H57.3687C55.2063 64.0197 53.4469 65.7795 53.4469 67.9496V85.2131C53.4469 87.3832 55.2063 89.1431 57.3687 89.1431Z" fill="white" fill-opacity="0.7"/>
</g>
<g filter="url(#filter1_i)">
<path d="M59.0575 61.5879H62.1699V56.6465C62.1699 52.0559 65.8949 48.3201 70.476 48.3201C75.0572 48.3201 78.7853 52.0559 78.7853 56.6465V61.5879H81.9009V56.6465C81.9009 50.3368 76.776 45.2013 70.476 45.2013C64.1824 45.2013 59.0575 50.3368 59.0575 56.6465V61.5879Z" fill="white" fill-opacity="0.7"/>
</g>
<path d="M66.8974 73.383C66.8974 71.4541 68.4567 69.8915 70.3786 69.8915C72.3036 69.8915 73.8629 71.4541 73.8629 73.383C73.8629 74.6826 73.1473 75.8005 72.0973 76.4017L73.3004 83.2783H67.4599L68.6598 76.4017C67.613 75.8005 66.8974 74.6826 66.8974 73.383Z" fill="#FFB53D"/>
<defs>
<filter id="filter0_i" x="53.4469" y="64.0195" width="33.0214" height="26.153" filterUnits="userSpaceOnUse" color-interpolation-filters="sRGB">
<feFlood flood-opacity="0" result="BackgroundImageFix"/>
<feBlend mode="normal" in="SourceGraphic" in2="BackgroundImageFix" result="shape"/>
<feColorMatrix in="SourceAlpha" type="matrix" values="0 0 0 0 0 0 0 0 0 0 0 0 0 0 0 0 0 0 127 0" result="hardAlpha"/>
<feOffset dy="1.0296"/>
<feGaussianBlur stdDeviation="1.1583"/>
<feComposite in2="hardAlpha" operator="arithmetic" k2="-1" k3="1"/>
<feColorMatrix type="matrix" values="0 0 0 0 0.9125 0 0 0 0 0.58574 0 0 0 0 0.0836458 0 0 0 1 0"/>
<feBlend mode="normal" in2="shape" result="effect1_innerShadow"/>
</filter>
<filter id="filter1_i" x="59.0575" y="45.2012" width="22.8434" height="17.4162" filterUnits="userSpaceOnUse" color-interpolation-filters="sRGB">
<feFlood flood-opacity="0" result="BackgroundImageFix"/>
<feBlend mode="normal" in="SourceGraphic" in2="BackgroundImageFix" result="shape"/>
<feColorMatrix in="SourceAlpha" type="matrix" values="0 0 0 0 0 0 0 0 0 0 0 0 0 0 0 0 0 0 127 0" result="hardAlpha"/>
<feOffset dy="1.0296"/>
<feGaussianBlur stdDeviation="1.1583"/>
<feComposite in2="hardAlpha" operator="arithmetic" k2="-1" k3="1"/>
<feColorMatrix type="matrix" values="0 0 0 0 0.9125 0 0 0 0 0.58574 0 0 0 0 0.0836458 0 0 0 1 0"/>
<feBlend mode="normal" in2="shape" result="effect1_innerShadow"/>
</filter>
<linearGradient id="paint0_linear" x1="70" y1="143.571" x2="70" y2="-19.1429" gradientUnits="userSpaceOnUse">
<stop stop-color="#FFBE5E"/>
<stop offset="0.430147" stop-color="#FFCC40"/>
<stop offset="1" stop-color="#FFED91"/>
</linearGradient>
<linearGradient id="paint1_linear" x1="69.9797" y1="10.3575" x2="69.9797" y2="120.037" gradientUnits="userSpaceOnUse">
<stop stop-color="#FFC258"/>
<stop offset="1" stop-color="#FFA621"/>
</linearGradient>
</defs>
</svg>
